<svg xmlns="http://www.w3.org/2000/svg" viewBox="0 0 87.668 200">
  <defs>
    <style>
      .cls-1 {
        isolation: isolate;
      }

      .cls-2, .cls-9 {
        fill: #f5c880;
      }

      .cls-3 {
        fill: #f5ae63;
      }

      .cls-4 {
        fill: #ffe3b1;
      }

      .cls-5 {
        fill: #f15a24;
        opacity: 0.38;
        mix-blend-mode: hard-light;
      }

      .cls-6 {
        fill: #242047;
      }

      .cls-7 {
        fill: #302a5e;
      }

      .cls-13, .cls-14, .cls-16, .cls-17, .cls-8 {
        fill: none;
      }

      .cls-8 {
        stroke: #272551;
      }

      .cls-10, .cls-13, .cls-14, .cls-16, .cls-17, .cls-8, .cls-9 {
        stroke-linecap: round;
        stroke-linejoin: round;
        stroke-width: 2px;
      }

      .cls-9 {
        stroke: #ffe3b1;
      }

      .cls-10 {
        fill: #d00059;
        stroke: #d00059;
        opacity: 0.89;
        mix-blend-mode: multiply;
      }

      .cls-11 {
        fill: #720032;
      }

      .cls-12, .cls-15 {
        fill: #980043;
      }

      .cls-12, .cls-13 {
        stroke: #720032;
      }

      .cls-12 {
        stroke-miterlimit: 10;
      }

      .cls-14 {
        stroke: #890343;
      }

      .cls-16 {
        stroke: #242047;
        opacity: 0.77;
      }

      .cls-17 {
        stroke: #464684;
      }
    </style>
  </defs>
  <g class="cls-1">
    <g id="cone">
      <path class="cls-2" d="M57.943,101.287l-7.63,42.61-.33,1.82-1.25,7-.72,4.02-7.67,42.79a.568.568,0,0,1-1.12,0l-10.07-56.18-1.46-8.16-2.9-16.18-.86-4.81-2.31-12.91a.573.573,0,0,1,.56-.67h35.2A.573.573,0,0,1,57.943,101.287Z"/>
      <path class="cls-3" d="M49.819,143.538l-2.97-1.134a.379.379,0,0,1-.207-.486l1.131-2.962a.373.373,0,0,1,.481-.219l2.787,1.074.244-1.362-2.542-.971a.373.373,0,0,1-.219-.481l1.131-2.962a.373.373,0,0,1,.481-.219l1.853.708.242-1.354-1.606-.613a.381.381,0,0,1-.216-.49l1.131-2.961a.373.373,0,0,1,.481-.219l.914.352.243-1.356-.668-.256a.373.373,0,0,1-.219-.481l1.131-2.961a.377.377,0,0,1,.459-.223l.279-1.559a.359.359,0,0,1,.016-.186l.033-.085,1.276-7.121-.689,1.8a.379.379,0,0,1-.487.207l-2.961-1.13a.373.373,0,0,1-.219-.481l1.139-2.959a.367.367,0,0,1,.481-.219l2.962,1.131a.306.306,0,0,1,.061.04l.246-1.369-2.788-1.064a.387.387,0,0,1-.216-.49l1.139-2.958a.373.373,0,0,1,.481-.219l2.088.8.177-.987-1.9-.751a.373.373,0,0,1-.207-.486l1.156-2.952a.378.378,0,0,1,.486-.207l1.17.462.244-1.359-.916-.359a.367.367,0,0,1-.208-.486l.141-.359H55.357a.344.344,0,0,1-.375.068l-.174-.068H49.742l-1.119,2.836a.38.38,0,0,1-.487.207L45.188,102.5a.367.367,0,0,1-.207-.487l.545-1.392H44.068l-.355.9a.366.366,0,0,1-.478.211l-2.811-1.111h-3.27l.741.283a.381.381,0,0,1,.215.49l-1.13,2.961a.381.381,0,0,1-.49.216l-2.958-1.139a.367.367,0,0,1-.219-.481l.9-2.33H32.756l-.706,1.849a.378.378,0,0,1-.481.219l-2.958-1.139a.372.372,0,0,1-.219-.481l.171-.448H27.108a.385.385,0,0,1-.468.183l-.474-.183H22.183a.508.508,0,0,0-.128.03l-.372.973.27,1.512.766-1.99a.374.374,0,0,1,.482-.219l2.958,1.14a.373.373,0,0,1,.219.481l-1.131,2.961a.38.38,0,0,1-.489.216l-2.513-.959.277,1.552,1.755.67a.38.38,0,0,1,.216.489l-1.131,2.962a.373.373,0,0,1-.08.124l.471,2.632.12-.316a.366.366,0,0,1,.478-.211l2.962,1.131a.373.373,0,0,1,.219.481L26.4,117.238a.373.373,0,0,1-.481.219l-1.507-.576.278,1.552.74.283a.381.381,0,0,1,.216.49l-.557,1.458.688,3.837,2.7,1.03a.373.373,0,0,1,.219.481l-1.139,2.958a.367.367,0,0,1-.481.219L26.585,129l.77,4.3.717-1.877a.373.373,0,0,1,.481-.219l2.961,1.131a.379.379,0,0,1,.216.489L30.6,135.785a.378.378,0,0,1-.481.219l-2.446-.934.021.117.257,1.435,1.679.641a.373.373,0,0,1,.219.481l-1.131,2.962a.312.312,0,0,1-.027.043l.465,2.594.071-.188a.379.379,0,0,1,.489-.216l2.962,1.131a.387.387,0,0,1,.216.489l-.349.9,1.259.489.352-.906a.373.373,0,0,1,.481-.219L37.6,145.96a.367.367,0,0,1,.219.481l-.341.9,1.259.489.344-.91a.381.381,0,0,1,.49-.216l2.958,1.139a.368.368,0,0,1,.219.481l-.349.9,1.26.489.352-.907a.378.378,0,0,1,.481-.219l2.958,1.139a.367.367,0,0,1,.219.481l-.34.9,1.259.489.344-.91a.367.367,0,0,1,.2-.207l.852-4.765.529-2.952-.212.554A.378.378,0,0,1,49.819,143.538ZM48.4,133.546l-1.134,2.97a.378.378,0,0,1-.486.208l-2.962-1.131a.373.373,0,0,1-.219-.481l1.131-2.962a.381.381,0,0,1,.49-.216l2.961,1.131A.378.378,0,0,1,48.4,133.546Zm-14.432-1.72a.373.373,0,0,1-.219-.481l1.131-2.962a.38.38,0,0,1,.489-.216l2.962,1.131a.373.373,0,0,1,.219.481l-1.131,2.962a.38.38,0,0,1-.489.215Zm2.7,2.883-1.139,2.958a.369.369,0,0,1-.482.219l-2.961-1.131a.38.38,0,0,1-.216-.489l1.131-2.962a.38.38,0,0,1,.489-.216l2.962,1.131A.381.381,0,0,1,36.66,134.709ZM48.908,116.4a.379.379,0,0,1,.207.486l-1.131,2.962a.373.373,0,0,1-.481.219l-2.962-1.131a.38.38,0,0,1-.215-.489l1.13-2.962a.38.38,0,0,1,.482-.219Zm-2.7-2.874,1.13-2.962a.38.38,0,0,1,.482-.219l2.97,1.134a.365.365,0,0,1,.21.478l-1.131,2.961a.372.372,0,0,1-.481.219l-2.961-1.13A.372.372,0,0,1,46.208,113.529ZM42.659,123.86a.374.374,0,0,1-.219-.481l1.131-2.961a.372.372,0,0,1,.481-.219l2.97,1.134a.37.37,0,0,1,.211.477L46.1,124.772a.373.373,0,0,1-.481.219Zm2.689,2.88L44.217,129.7a.373.373,0,0,1-.481.219l-2.962-1.131a.381.381,0,0,1-.215-.49l1.13-2.961a.372.372,0,0,1,.481-.219l2.962,1.13A.381.381,0,0,1,45.348,126.74Zm.731-16.662-1.131,2.962a.38.38,0,0,1-.489.215l-2.962-1.13a.374.374,0,0,1-.219-.482l1.139-2.958a.368.368,0,0,1,.481-.219L45.86,109.6A.373.373,0,0,1,46.079,110.078Zm-2.1,4.44a.38.38,0,0,1,.216.489l-1.131,2.962a.38.38,0,0,1-.489.216l-2.962-1.131a.381.381,0,0,1-.216-.49l1.139-2.958a.368.368,0,0,1,.481-.219Zm-1.885,4.929a.374.374,0,0,1,.219.482l-1.131,2.961a.38.38,0,0,1-.489.216l-2.962-1.131a.373.373,0,0,1-.219-.481l1.131-2.962a.38.38,0,0,1,.489-.215Zm-1.666,5.411L39.3,127.82a.38.38,0,0,1-.49.215l-2.961-1.13a.381.381,0,0,1-.216-.49l1.131-2.962a.38.38,0,0,1,.489-.215l2.962,1.13A.381.381,0,0,1,40.427,124.858Zm-1.163-11.736-1.13,2.962a.373.373,0,0,1-.481.219l-2.962-1.131a.38.38,0,0,1-.216-.489l1.131-2.962a.378.378,0,0,1,.481-.219l2.97,1.134A.378.378,0,0,1,39.264,113.122Zm-2.1,4.44a.372.372,0,0,1,.218.481l-1.13,2.962a.373.373,0,0,1-.481.219l-2.962-1.131a.378.378,0,0,1-.219-.481l1.134-2.97a.371.371,0,0,1,.478-.211Zm-2.821-6.322-1.13,2.962a.381.381,0,0,1-.49.216l-2.958-1.14a.366.366,0,0,1-.219-.481l1.13-2.961a.381.381,0,0,1,.49-.216l2.962,1.131A.38.38,0,0,1,34.343,111.24Zm-2.1,4.44a.372.372,0,0,1,.219.481l-1.13,2.962a.381.381,0,0,1-.49.216l-2.962-1.131a.379.379,0,0,1-.219-.481l1.134-2.97a.38.38,0,0,1,.487-.208Zm-1.534,8.853,1.131-2.962a.372.372,0,0,1,.481-.218l2.962,1.13a.381.381,0,0,1,.215.49l-1.13,2.961a.373.373,0,0,1-.482.219l-2.961-1.13A.381.381,0,0,1,30.708,124.533Zm6.083,13.618,1.131-2.962a.373.373,0,0,1,.481-.219l2.962,1.131a.38.38,0,0,1,.216.489l-1.131,2.962a.378.378,0,0,1-.481.219L37,138.637A.379.379,0,0,1,36.791,138.151Zm2.093-4.443a.371.371,0,0,1-.211-.478l1.131-2.962a.373.373,0,0,1,.481-.219l2.962,1.131a.378.378,0,0,1,.219.481l-1.134,2.97a.371.371,0,0,1-.478.211Zm2.829,6.325,1.13-2.962a.381.381,0,0,1,.49-.216L46.291,138a.366.366,0,0,1,.219.481l-1.139,2.958a.368.368,0,0,1-.481.219l-2.962-1.131A.38.38,0,0,1,41.713,140.033Zm8.564-11.408-1.13,2.962a.381.381,0,0,1-.49.215l-2.962-1.13a.381.381,0,0,1-.215-.49l1.13-2.961a.38.38,0,0,1,.49-.216l2.958,1.139A.366.366,0,0,1,50.277,128.625Zm1.885-4.929-1.133,2.97a.38.38,0,0,1-.487.207l-2.961-1.131a.372.372,0,0,1-.219-.481l1.13-2.962a.381.381,0,0,1,.49-.215l2.962,1.13A.379.379,0,0,1,52.162,123.7Zm1.664-5.4a.368.368,0,0,1,.218.482l-1.13,2.961a.381.381,0,0,1-.49.216l-2.962-1.131a.38.38,0,0,1-.215-.489l1.139-2.959a.368.368,0,0,1,.481-.219Zm-3.944-14.351,1.164-2.949a.374.374,0,0,1,.487-.207l2.948,1.164a.371.371,0,0,1,.211.478l-1.168,2.957a.37.37,0,0,1-.478.21L50.1,104.431A.38.38,0,0,1,49.882,103.942ZM48.093,108.6l1.131-2.962a.38.38,0,0,1,.489-.215l2.962,1.13a.374.374,0,0,1,.207.487L51.751,110a.372.372,0,0,1-.481.219l-2.961-1.13A.38.38,0,0,1,48.093,108.6Zm-4.93-1.885,1.139-2.959a.368.368,0,0,1,.482-.218l2.961,1.13a.381.381,0,0,1,.216.49l-1.131,2.962a.38.38,0,0,1-.489.215L43.379,107.2A.387.387,0,0,1,43.163,106.714Zm-4.921-1.882,1.131-2.962a.38.38,0,0,1,.489-.215l2.962,1.13a.374.374,0,0,1,.207.487l-1.13,2.961a.373.373,0,0,1-.481.219l-2.959-1.139A.367.367,0,0,1,38.242,104.832Zm-1.885,4.93,1.134-2.971a.377.377,0,0,1,.478-.21l2.97,1.134a.371.371,0,0,1,.211.478l-1.131,2.961a.373.373,0,0,1-.481.219l-2.962-1.13A.379.379,0,0,1,36.357,109.762Zm-4.929-1.886,1.142-2.967a.365.365,0,0,1,.478-.21l2.962,1.131a.372.372,0,0,1,.218.481l-1.13,2.962a.381.381,0,0,1-.49.215l-2.962-1.131A.378.378,0,0,1,31.428,107.876Zm-4.918-1.89,1.131-2.962a.369.369,0,0,1,.477-.21l2.97,1.134a.37.37,0,0,1,.211.478l-1.131,2.961a.373.373,0,0,1-.481.219l-2.962-1.13A.381.381,0,0,1,26.51,105.986ZM24.843,111.4a.368.368,0,0,1-.218-.482l1.13-2.961a.379.379,0,0,1,.481-.219l2.97,1.134a.378.378,0,0,1,.208.486l-1.131,2.962a.373.373,0,0,1-.481.219ZM26,123.129a.366.366,0,0,1-.218-.481l1.13-2.962a.381.381,0,0,1,.49-.215l2.961,1.13a.38.38,0,0,1,.216.49l-1.131,2.962a.38.38,0,0,1-.489.215Zm3.036,6.811a.37.37,0,0,1-.21-.477l1.134-2.97a.371.371,0,0,1,.478-.211l2.961,1.131a.373.373,0,0,1,.219.481l-1.13,2.962a.38.38,0,0,1-.482.219Zm5.745,9.69-1.139,2.958a.368.368,0,0,1-.482.219L30.2,141.676a.373.373,0,0,1-.219-.481l1.13-2.962a.381.381,0,0,1,.49-.215l2.962,1.13A.374.374,0,0,1,34.778,139.63Zm4.921,1.882-1.134,2.97a.377.377,0,0,1-.478.21l-2.97-1.134a.371.371,0,0,1-.211-.478l1.131-2.961a.373.373,0,0,1,.481-.219l2.962,1.13A.38.38,0,0,1,39.7,141.512Zm4.929,1.885-1.142,2.967a.365.365,0,0,1-.478.21l-2.962-1.131a.373.373,0,0,1-.219-.481L40.958,142a.38.38,0,0,1,.49-.216l2.961,1.131A.378.378,0,0,1,44.628,143.4Zm4.918,1.89-1.131,2.962a.37.37,0,0,1-.477.21l-2.971-1.134a.371.371,0,0,1-.21-.478l1.131-2.961a.373.373,0,0,1,.481-.219L49.33,144.8A.379.379,0,0,1,49.546,145.287Z"/>
      <g>
        <path class="cls-4" d="M22.183,100.617a.573.573,0,0,0-.56.67l.169.943.621-1.613Z"/>
        <path class="cls-4" d="M50.012,142.748a.379.379,0,0,1-.481.219l-2.971-1.134a.379.379,0,0,1-.207-.486l1.131-2.962a.373.373,0,0,1,.481-.219l2.959,1.139a.353.353,0,0,1,.181.152l.258-1.439-2.909-1.111a.373.373,0,0,1-.219-.481l1.131-2.962a.373.373,0,0,1,.481-.219l2.219.847.242-1.353-1.972-.753a.381.381,0,0,1-.216-.49l1.131-2.961a.373.373,0,0,1,.481-.219l1.281.493.243-1.358-1.035-.394a.374.374,0,0,1-.219-.482l1.131-2.961a.378.378,0,0,1,.481-.219l.345.131.242-1.353-.1-.038a.381.381,0,0,1-.216-.489l.77-2.015,1.449-8.088a.362.362,0,0,1-.2-.013l-2.962-1.13a.388.388,0,0,1-.216-.49l1.139-2.958a.373.373,0,0,1,.481-.219l2.455.937.176-.983-2.266-.895a.373.373,0,0,1-.207-.486l1.156-2.952a.378.378,0,0,1,.486-.207l1.536.606.243-1.36-1.281-.5a.365.365,0,0,1-.223-.274H52.264l1.929.762a.371.371,0,0,1,.21.478l-1.168,2.957a.369.369,0,0,1-.477.21l-2.949-1.164a.38.38,0,0,1-.216-.489l1.087-2.754H49.228l-.894,2.265a.379.379,0,0,1-.486.207L44.9,101.925a.367.367,0,0,1-.207-.487l.321-.821H43.554l-.13.329a.366.366,0,0,1-.478.211l-1.365-.54H37.834a.376.376,0,0,1-.012.2l-1.131,2.961a.38.38,0,0,1-.49.216l-2.958-1.139a.368.368,0,0,1-.219-.481l.677-1.759H32.249l-.488,1.278a.378.378,0,0,1-.481.219l-2.958-1.139a.375.375,0,0,1-.24-.358H23.6l2.27.875a.373.373,0,0,1,.219.481l-1.131,2.961a.38.38,0,0,1-.489.216l-2.313-.883.278,1.552,1.554.594a.38.38,0,0,1,.216.489l-1.073,2.811.461,2.579a.363.363,0,0,1,.47-.2l2.962,1.131a.373.373,0,0,1,.219.481l-1.131,2.962a.373.373,0,0,1-.481.219l-1.307-.5.278,1.552.54.206a.381.381,0,0,1,.216.49l-.43,1.125.761,4.246,2.5.954a.372.372,0,0,1,.219.481L27.266,128.4a.366.366,0,0,1-.481.219l-.289-.11.7,3.888.59-1.545a.373.373,0,0,1,.481-.219l2.962,1.131a.38.38,0,0,1,.215.489l-1.13,2.962a.38.38,0,0,1-.482.219l-2.245-.857.109.611.169.941,1.478.564a.372.372,0,0,1,.219.481l-1.027,2.693L29,142.484a.376.376,0,0,1,.425-.116l2.962,1.131a.387.387,0,0,1,.216.489l-.349.9,1.259.489.352-.906a.373.373,0,0,1,.481-.219l2.959,1.139a.368.368,0,0,1,.219.481l-.341.9,1.26.489.343-.91a.381.381,0,0,1,.49-.216l2.958,1.139a.367.367,0,0,1,.219.481l-.349.9,1.26.489.352-.907a.378.378,0,0,1,.481-.219l2.958,1.139a.367.367,0,0,1,.219.481l-.34.9,1.259.489.344-.91a.387.387,0,0,1,.489-.216l.1.039.248-1.389a.366.366,0,0,1-.087-.394l.3-.777.3-1.664.977-5.453Zm-1.905-9.773-1.134,2.97a.38.38,0,0,1-.487.208l-2.961-1.131a.372.372,0,0,1-.219-.481l1.13-2.962a.381.381,0,0,1,.49-.216l2.962,1.131A.38.38,0,0,1,48.107,132.975Zm-14.433-1.72a.373.373,0,0,1-.219-.481l1.131-2.962a.38.38,0,0,1,.489-.216l2.962,1.131a.373.373,0,0,1,.219.481l-1.131,2.962a.38.38,0,0,1-.489.215Zm2.7,2.883L35.232,137.1a.368.368,0,0,1-.481.219l-2.962-1.131a.38.38,0,0,1-.216-.489l1.131-2.962a.38.38,0,0,1,.489-.216l2.962,1.131A.381.381,0,0,1,36.371,134.138Zm12.248-18.306a.378.378,0,0,1,.207.486L47.7,119.28a.373.373,0,0,1-.481.219l-2.961-1.131a.379.379,0,0,1-.216-.489l1.131-2.962a.378.378,0,0,1,.481-.219Zm-2.7-2.874L47.05,110a.378.378,0,0,1,.481-.219l2.97,1.134a.365.365,0,0,1,.21.478l-1.13,2.962a.374.374,0,0,1-.482.219l-2.961-1.131A.373.373,0,0,1,45.919,112.958Zm-3.548,10.331a.373.373,0,0,1-.219-.481l1.13-2.961a.373.373,0,0,1,.482-.219l2.97,1.134a.37.37,0,0,1,.21.477L45.813,124.2a.373.373,0,0,1-.481.219Zm2.688,2.88-1.131,2.962a.373.373,0,0,1-.481.219l-2.962-1.131a.381.381,0,0,1-.215-.49l1.131-2.961a.373.373,0,0,1,.481-.219l2.961,1.13A.381.381,0,0,1,45.059,126.169Zm.731-16.662-1.131,2.962a.379.379,0,0,1-.489.215l-2.962-1.13a.374.374,0,0,1-.219-.482l1.139-2.958a.369.369,0,0,1,.482-.219l2.961,1.131A.373.373,0,0,1,45.79,109.507Zm-2.1,4.44a.38.38,0,0,1,.216.489L42.774,117.4a.38.38,0,0,1-.489.216l-2.962-1.131a.38.38,0,0,1-.216-.489l1.14-2.959a.367.367,0,0,1,.481-.219ZM41.8,118.876a.374.374,0,0,1,.219.482l-1.131,2.961a.38.38,0,0,1-.489.216L37.441,121.4a.373.373,0,0,1-.219-.481l1.131-2.962a.38.38,0,0,1,.489-.215Zm-1.666,5.411-1.131,2.962a.38.38,0,0,1-.489.215l-2.962-1.13a.381.381,0,0,1-.216-.49l1.131-2.962a.38.38,0,0,1,.49-.215l2.961,1.13A.381.381,0,0,1,40.138,124.287Zm-1.162-11.736-1.131,2.962a.373.373,0,0,1-.481.219L34.4,114.6a.38.38,0,0,1-.216-.489l1.131-2.962a.378.378,0,0,1,.481-.219l2.97,1.134A.379.379,0,0,1,38.976,112.551Zm-2.1,4.44a.373.373,0,0,1,.219.481l-1.131,2.962a.373.373,0,0,1-.481.219l-2.962-1.131a.378.378,0,0,1-.219-.481l1.134-2.97a.371.371,0,0,1,.478-.211Zm-2.821-6.322-1.13,2.962a.381.381,0,0,1-.49.216l-2.958-1.139a.368.368,0,0,1-.219-.482l1.131-2.961a.38.38,0,0,1,.489-.216l2.962,1.131A.38.38,0,0,1,34.054,110.669Zm-2.1,4.44a.373.373,0,0,1,.219.481l-1.131,2.962a.381.381,0,0,1-.49.216l-2.961-1.131a.378.378,0,0,1-.219-.481l1.134-2.97a.378.378,0,0,1,.486-.207Zm-1.535,8.853L31.55,121a.372.372,0,0,1,.481-.218l2.962,1.13a.381.381,0,0,1,.215.49l-1.13,2.962a.372.372,0,0,1-.481.218l-2.962-1.13A.381.381,0,0,1,30.419,123.962ZM36.5,137.58l1.13-2.962a.374.374,0,0,1,.482-.219l2.961,1.131a.381.381,0,0,1,.216.49l-1.131,2.961a.378.378,0,0,1-.481.219l-2.97-1.134A.378.378,0,0,1,36.5,137.58Zm2.092-4.443a.371.371,0,0,1-.21-.478l1.13-2.962a.373.373,0,0,1,.481-.219l2.962,1.131a.378.378,0,0,1,.219.481l-1.134,2.97a.371.371,0,0,1-.478.211Zm2.829,6.325,1.13-2.962a.381.381,0,0,1,.49-.216L46,137.424a.366.366,0,0,1,.219.481l-1.139,2.958a.367.367,0,0,1-.481.219l-2.962-1.131A.38.38,0,0,1,41.424,139.462Zm8.564-11.408-1.13,2.962a.381.381,0,0,1-.49.216L45.407,130.1a.38.38,0,0,1-.216-.49l1.131-2.961a.379.379,0,0,1,.489-.216l2.959,1.139A.367.367,0,0,1,49.988,128.054Zm1.886-4.929L50.74,126.1a.38.38,0,0,1-.487.207l-2.961-1.131a.373.373,0,0,1-.219-.481l1.131-2.962a.38.38,0,0,1,.489-.215l2.962,1.131A.379.379,0,0,1,51.874,123.125Zm1.882-4.921-1.131,2.961a.381.381,0,0,1-.49.216l-2.961-1.131a.38.38,0,0,1-.216-.489L50.1,116.8a.368.368,0,0,1,.481-.219l2.959,1.139A.368.368,0,0,1,53.756,118.2Zm1.666-5.411a.378.378,0,0,1,.219.481l-1.134,2.97a.378.378,0,0,1-.486.207l-2.962-1.13a.373.373,0,0,1-.219-.481l1.139-2.959a.368.368,0,0,1,.481-.219ZM47.8,108.028l1.131-2.962a.38.38,0,0,1,.489-.215l2.962,1.131a.373.373,0,0,1,.207.486l-1.13,2.961a.373.373,0,0,1-.482.219l-2.961-1.13A.381.381,0,0,1,47.8,108.028Zm-4.929-1.885,1.139-2.959a.367.367,0,0,1,.481-.218l2.961,1.13a.38.38,0,0,1,.216.49l-1.131,2.962a.38.38,0,0,1-.489.215l-2.962-1.131A.385.385,0,0,1,42.875,106.143Zm-4.922-1.882,1.131-2.962a.381.381,0,0,1,.49-.215l2.961,1.13a.374.374,0,0,1,.208.487l-1.131,2.961a.373.373,0,0,1-.481.219l-2.959-1.139A.367.367,0,0,1,37.953,104.261Zm-1.885,4.93L37.2,106.22a.377.377,0,0,1,.478-.21l2.97,1.134a.371.371,0,0,1,.211.478l-1.131,2.961a.372.372,0,0,1-.481.219l-2.962-1.13A.38.38,0,0,1,36.068,109.191Zm-4.929-1.886,1.142-2.967a.365.365,0,0,1,.478-.21l2.962,1.131a.373.373,0,0,1,.219.481L34.809,108.7a.381.381,0,0,1-.49.215l-2.961-1.131A.378.378,0,0,1,31.139,107.305Zm-4.918-1.89,1.131-2.962a.371.371,0,0,1,.478-.21l2.97,1.134a.371.371,0,0,1,.21.478l-1.131,2.961a.373.373,0,0,1-.481.219l-2.961-1.13A.38.38,0,0,1,26.221,105.415Zm-1.666,5.411a.368.368,0,0,1-.219-.482l1.13-2.961a.38.38,0,0,1,.482-.219l2.97,1.134a.379.379,0,0,1,.207.486l-1.131,2.962a.373.373,0,0,1-.481.219Zm1.154,11.732a.367.367,0,0,1-.219-.481l1.13-2.962a.381.381,0,0,1,.49-.215l2.962,1.13a.381.381,0,0,1,.215.49l-1.13,2.962a.381.381,0,0,1-.49.215Zm3.036,6.812a.371.371,0,0,1-.211-.478l1.134-2.97a.371.371,0,0,1,.478-.211l2.962,1.131a.372.372,0,0,1,.218.481l-1.13,2.962a.38.38,0,0,1-.481.219Zm5.744,9.689-1.139,2.958a.368.368,0,0,1-.481.219L29.907,141.1a.373.373,0,0,1-.219-.481l1.131-2.962a.38.38,0,0,1,.489-.215l2.962,1.13A.374.374,0,0,1,34.489,139.059Zm4.921,1.882-1.134,2.97a.377.377,0,0,1-.478.21l-2.97-1.134a.371.371,0,0,1-.211-.478l1.131-2.961a.373.373,0,0,1,.481-.219l2.962,1.13A.38.38,0,0,1,39.41,140.941Zm4.929,1.885L43.2,145.793a.365.365,0,0,1-.478.21l-2.961-1.131a.372.372,0,0,1-.219-.481l1.13-2.961a.38.38,0,0,1,.49-.216l2.962,1.131A.378.378,0,0,1,44.339,142.826Zm4.918,1.89-1.13,2.962a.371.371,0,0,1-.478.21l-2.97-1.134a.37.37,0,0,1-.211-.478l1.131-2.961a.373.373,0,0,1,.481-.219l2.962,1.131A.38.38,0,0,1,49.257,144.716Z"/>
      </g>
      <polygon class="cls-2" points="50.313 143.897 49.983 145.717 48.733 152.717 42.433 158.307 29.153 143.347 27.693 135.187 24.793 119.007 23.933 114.197 50.313 143.897"/>
      <path class="cls-3" d="M40.582,198.194l-.991-1.091a.373.373,0,0,1,.035-.527l1.489-1.354.643-3.586-1.8-1.981a.372.372,0,0,1,.022-.528l2.345-2.133a.378.378,0,0,1,.282-.093l.425-2.371-.055.05a.378.378,0,0,1-.528-.022l-2.138-2.352a.379.379,0,0,1,.034-.528l2.346-2.132a.373.373,0,0,1,.528.022l.587.645.324-1.8a.307.307,0,0,1,.007-.042l.419-2.338-1.213,1.1a.381.381,0,0,1-.534-.029l-2.133-2.346a.379.379,0,0,1,.022-.528l2.353-2.138a.378.378,0,0,1,.527.034l1.4,1.542.3-1.685-.7-.772a.367.367,0,0,1,.022-.528l1.087-.988.395-2.2a.337.337,0,0,1-.046.061L43.7,169.683a.374.374,0,0,1-.529-.022l-2.125-2.352a.366.366,0,0,1,.022-.528l2.345-2.133a.374.374,0,0,1,.529.022l2.132,2.346a.374.374,0,0,1,.077.139l.309-1.723-1.514-1.665a.379.379,0,0,1,.022-.528l2.252-2.046.433-2.418a.4.4,0,0,1-.221-.111L45.3,156.312a.372.372,0,0,1,.022-.528l2.346-2.132a.38.38,0,0,1,.534.028l.3.328.51-2.855-.419.373a.38.38,0,0,1-.534-.028l-2.106-2.37a.374.374,0,0,1,.035-.528l2.364-2.112a.378.378,0,0,1,.527.035l.8.9.3-1.689-.092-.1a.378.378,0,0,1,.034-.527l.2-.183.182-1.018-.478-.532-.8.722a.371.371,0,0,1-.527-.035l-2.113-2.364a.381.381,0,0,1,.029-.534l.816-.721-.9-1-.81.716a.367.367,0,0,1-.527-.035l-2.112-2.364a.372.372,0,0,1,.034-.527l.811-.729-.9-1-.8.723a.373.373,0,0,1-.528-.035l-2.112-2.364a.381.381,0,0,1,.029-.534l.816-.722-.9-1-.81.715a.38.38,0,0,1-.534-.028l-2.106-2.37a.374.374,0,0,1,.035-.528l.811-.728-.9-1.005-.81.716a.373.373,0,0,1-.528-.022l-2.106-2.37a.38.38,0,0,1,.028-.534l.81-.716-.9-1.01-.81.715a.38.38,0,0,1-.534-.028l-2.106-2.37a.368.368,0,0,1,.035-.528l.8-.722-.9-1.011-.809.716a.374.374,0,0,1-.529-.022l-2.105-2.37a.38.38,0,0,1,.028-.534l.81-.716-.9-1.011-.81.716c-.039.035-.091.032-.138.048l.439,2.455.1.549,1.563,1.759a.374.374,0,0,1-.035.528l-.964.861.28,1.562,1.587-1.418a.385.385,0,0,1,.528.034l2.105,2.37a.38.38,0,0,1-.028.534l-2.37,2.106a.374.374,0,0,1-.528-.035l-.815-.917.612,3.412.06-.053a.38.38,0,0,1,.534.028l2.106,2.37a.372.372,0,0,1-.035.527l-1.854,1.657.055.306.234,1.308a.388.388,0,0,1,.1-.147l2.37-2.106a.373.373,0,0,1,.528.022l2.106,2.37a.381.381,0,0,1-.029.534l-2.37,2.106a.381.381,0,0,1-.534-.029L28,136.883l.457,2.547.637.718a.379.379,0,0,1-.034.528l-.328.291.279,1.559.952-.846a.373.373,0,0,1,.527.035l2.106,2.37a.365.365,0,0,1-.028.521l-2.371,2.119a.366.366,0,0,1-.426.042l.464,2.589,1.932,2.174a.379.379,0,0,1-.035.527L30.91,153.14l.28,1.559,1.835-1.631a.381.381,0,0,1,.535.029l2.1,2.369a.367.367,0,0,1-.034.528l-2.364,2.112a.367.367,0,0,1-.528-.034l-1.182-1.323.725,4.043.314-.279a.373.373,0,0,1,.528.035l2.1,2.369a.365.365,0,0,1-.028.522l-2.109,1.874.692,3.863.935,1.029a.38.38,0,0,1-.028.534l-.539.488.281,1.572,1.167-1.061a.374.374,0,0,1,.529.022l2.132,2.346a.381.381,0,0,1-.028.534l-2.346,2.132a.378.378,0,0,1-.528-.021l-.271-.3.478,2.666a.369.369,0,0,1,.2.1l2.132,2.346a.372.372,0,0,1-.021.528l-1.533,1.386.282,1.576,2.154-1.957a.372.372,0,0,1,.528.022l2.132,2.345a.373.373,0,0,1-.022.529l-2.345,2.132a.38.38,0,0,1-.529-.022l-1.708-1.88.448,2.5.256.281a.381.381,0,0,1-.029.534l-.07.064.282,1.57.7-.635a.381.381,0,0,1,.534.029l2.132,2.346a.386.386,0,0,1-.028.534L38.71,195.57a.359.359,0,0,1-.184.068l.327,1.826,1.553,1.71ZM42.5,163.65l-2.346,2.132a.386.386,0,0,1-.534-.028L37.493,163.4a.367.367,0,0,1,.022-.528l2.346-2.133a.381.381,0,0,1,.534.029l2.132,2.346A.38.38,0,0,1,42.5,163.65Zm-3.963-15.485,2.37-2.106a.38.38,0,0,1,.534.028l2.105,2.37a.367.367,0,0,1-.034.528L41.147,151.1a.367.367,0,0,1-.528-.034L38.507,148.7A.381.381,0,0,1,38.536,148.165Zm-.9-1.011a.367.367,0,0,1-.527-.035L35,144.755a.372.372,0,0,1,.034-.527l2.37-2.106a.373.373,0,0,1,.528.022l2.106,2.37a.381.381,0,0,1-.029.534ZM41,153.532l2.112,2.376a.372.372,0,0,1-.028.522l-2.37,2.1a.38.38,0,0,1-.534-.028l-2.106-2.37a.373.373,0,0,1,.034-.528l2.37-2.105A.371.371,0,0,1,41,153.532Zm5.43,6.042a.373.373,0,0,1-.022.528l-2.346,2.132a.38.38,0,0,1-.534-.028l-2.132-2.346a.38.38,0,0,1,.028-.534l2.346-2.133a.373.373,0,0,1,.527.035Zm.625-7.173a.379.379,0,0,1-.035.527l-2.37,2.106a.373.373,0,0,1-.527-.035l-2.112-2.364a.378.378,0,0,1,.034-.527L44.413,150a.373.373,0,0,1,.528.022Zm-1.677-9.815,2.106,2.37a.364.364,0,0,1-.028.521L45.09,147.59a.387.387,0,0,1-.534-.029l-2.1-2.37a.38.38,0,0,1,.028-.534l2.37-2.106A.373.373,0,0,1,45.376,142.586Zm-3.507-3.944,2.1,2.37a.38.38,0,0,1-.021.529l-2.377,2.111a.378.378,0,0,1-.527-.034l-2.106-2.37a.373.373,0,0,1,.034-.528l2.364-2.112A.379.379,0,0,1,41.869,138.642Zm-3.5-3.936,2.106,2.37a.371.371,0,0,1-.028.521l-2.371,2.118a.384.384,0,0,1-.527-.034l-2.106-2.37a.381.381,0,0,1,.029-.534l2.37-2.106A.373.373,0,0,1,38.367,134.706ZM30.538,131.8l-2.106-2.37a.381.381,0,0,1,.029-.534l2.37-2.106a.373.373,0,0,1,.527.034l2.106,2.37a.374.374,0,0,1-.035.528l-2.364,2.112A.378.378,0,0,1,30.538,131.8Zm1.4,1.566a.372.372,0,0,1,.034-.527l2.364-2.112a.379.379,0,0,1,.528.034l2.105,2.37a.38.38,0,0,1-.028.534l-2.37,2.106a.373.373,0,0,1-.528-.035Zm-.436,7.452a.381.381,0,0,1,.028-.535l2.37-2.1a.381.381,0,0,1,.535.028l2.105,2.37a.373.373,0,0,1-.034.528l-2.364,2.112a.385.385,0,0,1-.534-.029Zm1.67,9.808-2.105-2.37a.373.373,0,0,1,.034-.528l2.37-2.105a.371.371,0,0,1,.522.028l2.111,2.376a.377.377,0,0,1-.027.522L33.7,150.661A.379.379,0,0,1,33.168,150.627Zm1.4,1.573a.381.381,0,0,1,.029-.534l2.37-2.106a.373.373,0,0,1,.527.035l2.106,2.37a.36.36,0,0,1-.028.521L37.2,154.6a.379.379,0,0,1-.527-.035Zm-.442,7.445a.38.38,0,0,1,.035-.528l2.37-2.106a.379.379,0,0,1,.528.022l2.112,2.377a.379.379,0,0,1-.035.527l-2.37,2.106a.366.366,0,0,1-.527-.035Zm1.59,9.65-2.132-2.345a.381.381,0,0,1,.028-.535l2.346-2.132a.373.373,0,0,1,.527.034l2.133,2.346a.374.374,0,0,1-.022.529l-2.352,2.125A.366.366,0,0,1,35.718,169.3Zm1.409,1.555a.377.377,0,0,1,.028-.521l2.353-2.139a.371.371,0,0,1,.521.028l2.133,2.346a.373.373,0,0,1-.022.528l-2.346,2.133a.379.379,0,0,1-.528-.022Zm1.773,9.8-2.132-2.346a.38.38,0,0,1,.028-.534l2.346-2.132a.38.38,0,0,1,.534.028l2.133,2.346a.381.381,0,0,1-.029.534l-2.352,2.126A.367.367,0,0,1,38.9,180.651Z"/>
      <path class="cls-4" d="M40.343,199.527l.134-.745L38.951,197.1a.373.373,0,0,1,.035-.527l2.253-2.049.433-2.412a.365.365,0,0,1-.223-.114l-2.132-2.346a.372.372,0,0,1,.022-.528l2.346-2.133a.381.381,0,0,1,.534.029l.3.336.632-3.524-.82.745a.378.378,0,0,1-.528-.022l-2.138-2.352a.379.379,0,0,1,.034-.528l2.346-2.132a.373.373,0,0,1,.528.022L43.7,180.8l.3-1.677-.423-.466a.371.371,0,0,1,.028-.521l.684-.622.391-2.181-1.978,1.8a.381.381,0,0,1-.534-.029l-2.133-2.346a.379.379,0,0,1,.022-.528l2.353-2.138a.378.378,0,0,1,.527.034l1.936,2.13.3-1.682-1.232-1.363a.366.366,0,0,1,.021-.528L45.815,169l.534-2.979L44.3,163.767a.378.378,0,0,1,.021-.528l2.353-2.138a.363.363,0,0,1,.521.028l.024.026.508-2.834-.408.372a.387.387,0,0,1-.534-.029l-2.126-2.352a.373.373,0,0,1,.022-.528l2.346-2.132a.38.38,0,0,1,.534.028l.833.917.3-1.679-.134-.147a.381.381,0,0,1,.028-.535l.272-.245.27-1.513-1.18,1.048a.38.38,0,0,1-.534-.028l-2.106-2.37a.374.374,0,0,1,.035-.528l2.364-2.112a.378.378,0,0,1,.527.035l1.334,1.493.3-1.69-.625-.7a.377.377,0,0,1,.035-.527l.81-.729-.9-1-.8.722a.371.371,0,0,1-.527-.035l-2.113-2.364a.381.381,0,0,1,.029-.534l.816-.721-.9-1-.809.716a.368.368,0,0,1-.528-.035l-2.112-2.364a.372.372,0,0,1,.034-.527l.811-.729-.9-1-.8.723a.372.372,0,0,1-.527-.035l-2.113-2.364a.381.381,0,0,1,.029-.534l.816-.722-.9-1-.81.715a.38.38,0,0,1-.534-.028l-2.1-2.37a.373.373,0,0,1,.034-.528l.811-.728-.9-1.005-.81.716a.373.373,0,0,1-.528-.022l-2.106-2.37a.381.381,0,0,1,.029-.534l.809-.716-.9-1.01-.81.715a.38.38,0,0,1-.534-.028l-2.105-2.37a.367.367,0,0,1,.034-.528l.8-.722-.9-1.011-.81.716a.373.373,0,0,1-.528-.022l-2.106-2.37a.38.38,0,0,1,.028-.534l.81-.716-.9-1.011-.384.34.515,2.879.26,1.451.762.857a.374.374,0,0,1-.035.528l-.413.369.28,1.561,1.036-.925a.385.385,0,0,1,.528.034l2.105,2.37a.38.38,0,0,1-.028.534l-2.37,2.106a.374.374,0,0,1-.528-.035l-.013-.015.455,2.542,2.055,2.313a.372.372,0,0,1-.034.527l-1.3,1.164.143.8.137.765,1.925-1.71a.373.373,0,0,1,.528.022l2.106,2.37a.381.381,0,0,1-.029.534l-2.37,2.106a.381.381,0,0,1-.534-.029l-1.3-1.46.761,4.25.4-.355a.373.373,0,0,1,.527.035l2.106,2.37a.365.365,0,0,1-.028.521l-2.193,1.96.662,3.692,1.13,1.272a.379.379,0,0,1-.035.527l-.666.593.279,1.559,1.284-1.141a.38.38,0,0,1,.534.029l2.1,2.369a.367.367,0,0,1-.034.528l-2.364,2.112a.367.367,0,0,1-.528-.034l-.381-.428.5,2.778a.381.381,0,0,1,.269.126l2.1,2.369a.365.365,0,0,1-.027.522L33,164.823l.241,1.346,2.075-1.886a.374.374,0,0,1,.528.034l2.132,2.346a.374.374,0,0,1-.022.529l-2.352,2.125a.366.366,0,0,1-.528-.022l-1.585-1.744.448,2.5.138.152a.376.376,0,0,1-.018.514l.283,1.58.617-.561a.373.373,0,0,1,.528.022l2.132,2.346a.38.38,0,0,1-.028.534l-2.346,2.132a.358.358,0,0,1-.092.054l.54,3.011,1.567,1.724a.373.373,0,0,1-.022.528l-.983.888.282,1.574,1.6-1.457a.372.372,0,0,1,.528.022l2.132,2.345a.373.373,0,0,1-.021.529l-2.346,2.132a.378.378,0,0,1-.528-.022l-.912-1,.64,3.574.148-.135a.381.381,0,0,1,.534.029l2.133,2.346a.387.387,0,0,1-.029.534l-1.97,1.78.559,3.117,1.259,1.387A.591.591,0,0,0,40.343,199.527Zm5.086-32.511a.38.38,0,0,1-.028.534l-2.346,2.133a.373.373,0,0,1-.528-.022L40.4,167.309a.367.367,0,0,1,.022-.528l2.346-2.133a.373.373,0,0,1,.528.022Zm.359-7.442a.373.373,0,0,1-.022.528l-2.346,2.132a.38.38,0,0,1-.534-.028l-2.132-2.346a.38.38,0,0,1,.028-.534l2.346-2.133a.374.374,0,0,1,.528.035ZM37.9,148.165l2.37-2.106a.38.38,0,0,1,.534.028l2.106,2.37a.368.368,0,0,1-.035.528L40.507,151.1a.366.366,0,0,1-.527-.034L37.867,148.7A.381.381,0,0,1,37.9,148.165Zm-.9-1.011a.367.367,0,0,1-.527-.035l-2.112-2.364a.372.372,0,0,1,.034-.527l2.37-2.106a.373.373,0,0,1,.528.022l2.106,2.37a.381.381,0,0,1-.029.534Zm3.359,6.378,2.112,2.376a.372.372,0,0,1-.028.522l-2.37,2.1a.38.38,0,0,1-.534-.028l-2.106-2.37a.374.374,0,0,1,.035-.528l2.37-2.105A.369.369,0,0,1,40.358,153.532Zm6.055-1.131a.378.378,0,0,1-.034.527l-2.37,2.106a.374.374,0,0,1-.528-.035l-2.112-2.364a.378.378,0,0,1,.034-.527L43.773,150a.373.373,0,0,1,.528.022Zm-1.676-9.815,2.1,2.37a.364.364,0,0,1-.028.521L44.45,147.59a.387.387,0,0,1-.534-.029l-2.1-2.37a.38.38,0,0,1,.028-.534l2.37-2.106A.374.374,0,0,1,44.737,142.586Zm-3.508-3.944,2.106,2.37a.381.381,0,0,1-.022.529l-2.377,2.111a.378.378,0,0,1-.527-.034l-2.106-2.37a.374.374,0,0,1,.035-.528l2.364-2.112A.378.378,0,0,1,41.229,138.642Zm-3.5-3.936,2.106,2.37a.369.369,0,0,1-.028.521l-2.37,2.118a.385.385,0,0,1-.528-.034l-2.106-2.37a.381.381,0,0,1,.029-.534l2.37-2.106A.373.373,0,0,1,37.727,134.706ZM29.9,131.8l-2.106-2.37a.381.381,0,0,1,.029-.534l2.37-2.106a.373.373,0,0,1,.527.034l2.106,2.37a.374.374,0,0,1-.035.528l-2.364,2.112A.378.378,0,0,1,29.9,131.8Zm1.4,1.566a.372.372,0,0,1,.034-.527l2.364-2.112a.379.379,0,0,1,.528.034l2.105,2.37a.38.38,0,0,1-.028.534l-2.37,2.106a.372.372,0,0,1-.527-.035Zm-.436,7.452a.382.382,0,0,1,.029-.535l2.37-2.1a.38.38,0,0,1,.534.028l2.105,2.37a.373.373,0,0,1-.034.528L33.5,143.217a.385.385,0,0,1-.534-.029Zm1.671,9.808-2.106-2.37a.373.373,0,0,1,.034-.528l2.37-2.105a.371.371,0,0,1,.522.028l2.112,2.376a.378.378,0,0,1-.028.522l-2.377,2.111A.378.378,0,0,1,32.529,150.627Zm1.4,1.573a.381.381,0,0,1,.029-.534l2.37-2.106a.373.373,0,0,1,.527.035l2.106,2.37a.359.359,0,0,1-.028.521l-2.37,2.119a.38.38,0,0,1-.528-.035Zm1.671,9.808-2.112-2.363a.379.379,0,0,1,.034-.528l2.37-2.106a.379.379,0,0,1,.528.022l2.112,2.377a.379.379,0,0,1-.035.527l-2.37,2.106A.366.366,0,0,1,35.6,162.008Zm1.252,1.394a.367.367,0,0,1,.022-.528l2.346-2.133a.381.381,0,0,1,.534.029l2.132,2.346a.38.38,0,0,1-.028.534l-2.346,2.132a.386.386,0,0,1-.534-.028Zm-.365,7.448a.376.376,0,0,1,.027-.521l2.353-2.139a.371.371,0,0,1,.521.028l2.133,2.346a.373.373,0,0,1-.022.528l-2.346,2.133a.379.379,0,0,1-.528-.022Zm1.772,9.8-2.132-2.346a.381.381,0,0,1,.029-.534l2.345-2.132a.381.381,0,0,1,.535.028l2.132,2.346a.38.38,0,0,1-.029.534l-2.351,2.126A.368.368,0,0,1,38.26,180.651Z"/>
      <path class="cls-5" d="M30.733,100.617c2.1,55.49,5.65,84.66,9.63,98.79l-.02.12a.568.568,0,0,1-1.12,0l-10.07-56.18-1.46-8.16-2.9-16.18-.86-4.81-2.31-12.91a.573.573,0,0,1,.56-.67Z"/>
    </g>
    <g id="Layer_11" data-name="Layer 11">
      <path class="cls-6" d="M74.911,89.966a7.786,7.786,0,0,1,1.288,3.74c0,.14,0,.281,0,.422s-.007.284-.012.426c.639,8.438-7.613,12.564-14.716,11.975-.115.039-.23.075-.345.105a2.042,2.042,0,0,1-1.035.039c-.734-.186-1.781-1.522-2.584-1.24-.827.291-.709,1.919-1.205,2.622a6.414,6.414,0,0,1-2.444,1.865,8.689,8.689,0,0,1-5.758.859,6.408,6.408,0,0,1-2.179-1.084l-1.189-.675-.241-.084-1.33-.814c-3.589-3.558-6.592-2.038-11.715-.37-.106.027-.211.056-.316.086-2.056.589-7.732,3.923-8.764.721-.508-1.576-2.214-2.454-3.63-3.338a26.593,26.593,0,0,0-6.887-3.088c-3.653-1.024-4.549-2.925-5.035-6.344-.035-.069-.068-.138-.1-.208a8.826,8.826,0,0,1-.837-3.265c-.1-1.722,12.528-18.611,34.3-19.163C61.408,72.616,73.74,88.062,74.911,89.966Z"/>
      <path class="cls-7" d="M73.622,89.127a7.416,7.416,0,0,1,1.225,3.559c0,.134,0,.268,0,.4s-.006.27-.011.405c.608,8.029-7.244,11.955-14,11.4-.11.037-.219.071-.329.1a1.948,1.948,0,0,1-.985.036c-.7-.176-1.7-1.447-2.458-1.179-.787.277-.675,1.826-1.147,2.5a6.12,6.12,0,0,1-2.325,1.775,8.272,8.272,0,0,1-5.479.816,6.068,6.068,0,0,1-2.074-1.031l-1.131-.642-.23-.08-1.265-.774c-3.415-3.386-6.273-1.939-11.147-.352-.1.025-.2.053-.3.081-1.956.561-7.356,3.733-8.339.687-.483-1.5-2.106-2.336-3.453-3.177a25.362,25.362,0,0,0-6.554-2.939c-3.476-.974-4.328-2.782-4.791-6.035-.033-.066-.064-.132-.095-.2a8.432,8.432,0,0,1-.8-3.107C7.837,89.725,19.85,73.655,40.569,73.13,60.774,72.619,72.508,87.316,73.622,89.127Z"/>
      <g id="Layer_14" data-name="Layer 14">
        <path class="cls-8" d="M13.012,96.958a1.262,1.262,0,0,0,.43.937"/>
        <path class="cls-8" d="M16.278,99.4a2.585,2.585,0,0,1,1.488.275"/>
        <path class="cls-8" d="M24.83,105.056l1.464.609"/>
        <path class="cls-8" d="M30.644,101.159h.949"/>
        <path class="cls-8" d="M30.916,97.771h.677"/>
        <path class="cls-8" d="M35.917,100.264a3.538,3.538,0,0,0,1.367.071"/>
        <path class="cls-8" d="M34.575,104.141H33.9"/>
        <path class="cls-8" d="M43.318,102.3a2.4,2.4,0,0,0,2.384.814"/>
        <path class="cls-8" d="M43.992,99.1A2.124,2.124,0,0,0,42.3,97.912"/>
        <path class="cls-8" d="M49.484,100.346h1.355"/>
        <path class="cls-8" d="M50.424,104.15a1.016,1.016,0,0,0,.822.26"/>
        <path class="cls-8" d="M56.8,101.554a19.27,19.27,0,0,0,2.853-.046"/>
        <path class="cls-8" d="M59.107,97.771h.542"/>
        <path class="cls-8" d="M65.07,100.211H66.7"/>
        <path class="cls-8" d="M69.679,97.093l.271-.271"/>
        <path class="cls-8" d="M72.35,92.917l-.631-.979"/>
      </g>
    </g>
    <g id="cookie">
      <path class="cls-9" d="M69.151,56.546a26.333,26.333,0,0,0-8.987,2.26,2.546,2.546,0,0,1-1.85.105,26.057,26.057,0,0,0-9.182-1.263,2.529,2.529,0,0,1-1.725-.589,29.518,29.518,0,0,0-6.826-4.233c-.513-.238-1.041-.46-1.579-.679A2.527,2.527,0,0,1,37.7,50.985,30.286,30.286,0,0,0,31.9,43.176a2.605,2.605,0,0,1-.779-1.65,26.137,26.137,0,0,0-2.264-9,2.618,2.618,0,0,1-.105-1.85A26.06,26.06,0,0,0,30.016,21.5a2.623,2.623,0,0,1,.6-1.729,30.314,30.314,0,0,0,4.9-8.4,2.488,2.488,0,0,1,1.166-1.3,30.589,30.589,0,0,0,7.819-5.8,2.484,2.484,0,0,1,1.649-.778,26.352,26.352,0,0,0,8.984-2.27,2.576,2.576,0,0,1,1.853-.1A26.478,26.478,0,0,0,66.17,2.392,2.562,2.562,0,0,1,67.9,2.98a28.74,28.74,0,0,0,6.2,3.94c.706.346,1.441.658,2.2.963a2.555,2.555,0,0,1,1.311,1.171,30.229,30.229,0,0,0,5.8,7.81,2.6,2.6,0,0,1,.778,1.649A26.167,26.167,0,0,0,86.44,27.5a2.6,2.6,0,0,1,.106,1.85,26.384,26.384,0,0,0-1.273,9.186,2.529,2.529,0,0,1-.589,1.725,30.805,30.805,0,0,0-4.9,8.4,2.557,2.557,0,0,1-1.162,1.307,30.354,30.354,0,0,0-7.82,5.8A2.59,2.59,0,0,1,69.151,56.546Z"/>
      <path class="cls-3" d="M79.791,48.648l-.275.31a.348.348,0,0,1-.488.038L76.853,47.06a.34.34,0,0,1-.014-.478L78.757,44.4a.341.341,0,0,1,.483-.032l1.77,1.576c.192-.385.394-.76.6-1.132l-1.55-1.372a.338.338,0,0,1-.031-.471l1.93-2.18a.341.341,0,0,1,.483-.021l1.112.979c.242-.333.494-.661.752-.986l-1.051-.925a.349.349,0,0,1-.015-.49l1.925-2.162a.39.39,0,0,1,.123-.09q.016-1.062.115-2.1a.342.342,0,0,1-.367-.051l-2.18-1.93a.338.338,0,0,1-.032-.471l1.924-2.185a.347.347,0,0,1,.484-.021l.836.737c.112-.443.231-.885.367-1.326l-.384-.338a.35.35,0,0,1-.022-.5l.609-.684a2.543,2.543,0,0,0-.2-.73c-.093-.208-.162-.419-.25-.628L85.1,28.1a.338.338,0,0,1-.476.038l-2.18-1.93a.354.354,0,0,1-.027-.489l1.924-2.174a.348.348,0,0,1,.489-.026l.27.239c-.218-.783-.4-1.576-.547-2.382a.341.341,0,0,1-.352-.06l-2.168-1.93A.346.346,0,0,1,82,18.9l1.6-1.8a2.554,2.554,0,0,0-.2-.231c-.227-.218-.43-.454-.648-.679L81.08,18.073a.34.34,0,0,1-.477.038l-2.18-1.93A.345.345,0,0,1,78.4,15.7l1.924-2.186a.308.308,0,0,1,.077-.057,32.676,32.676,0,0,1-2.8-4.409,2.57,2.57,0,0,0-.53-.681.349.349,0,0,1-.257-.086l-.354-.318c-.055-.027-.106-.06-.163-.083a33.459,33.459,0,0,1-3.822-1.81.326.326,0,0,1-.049.374L70.471,8.606a.346.346,0,0,1-.478.026L67.836,6.677a.346.346,0,0,1-.021-.483l1.748-1.941c-.335-.24-.66-.5-.987-.753L66.893,5.368a.348.348,0,0,1-.49.016L64.252,3.446a.345.345,0,0,1-.021-.5l.516-.57a26.572,26.572,0,0,1-3.874-.334l1.121,1.016a.353.353,0,0,1,.027.489L60.078,5.709a.35.35,0,0,1-.5.021L57.438,3.787a.351.351,0,0,1-.034-.5l1.487-1.641c-.446-.108-.891-.235-1.335-.369L56.488,2.46a.344.344,0,0,1-.494.034L54.765,1.375c-.424.183-.85.35-1.277.509l1.68,1.531A.346.346,0,0,1,55.2,3.9L53.24,6.05a.337.337,0,0,1-.472.021L50.61,4.116a.34.34,0,0,1-.014-.478L51.625,2.5a26.469,26.469,0,0,1-3.775.8l.5.45a.353.353,0,0,1,.027.5l-1.949,2.14a.35.35,0,0,1-.489.038L44.048,4.7c-.3.292-.593.578-.9.856L45.1,7.334a.346.346,0,0,1,.033.483L43.188,9.98a.342.342,0,0,1-.484.009L40.559,8.046a.352.352,0,0,1-.113-.309,33.391,33.391,0,0,1-3.761,2.33,2.242,2.242,0,0,0-.226.147l-.092.1a.336.336,0,0,1-.161.093,2.511,2.511,0,0,0-.689.963,32.591,32.591,0,0,1-2.342,4.76.33.33,0,0,1,.093.056L35.441,18.1a.344.344,0,0,1,.039.489l-1.931,2.168a.348.348,0,0,1-.489.027l-1.921-1.7c-.179.229-.34.466-.527.691a2.589,2.589,0,0,0-.212.308l1.847,1.635a.348.348,0,0,1,.015.489l-1.913,2.173a.347.347,0,0,1-.4.089c-.062.869-.171,1.728-.318,2.581L30,26.641a.338.338,0,0,1,.471-.032l2.186,1.924a.34.34,0,0,1,.026.477L30.76,31.19a.35.35,0,0,1-.49.027l-1.334-1.182c-.064.215-.109.43-.179.645a2.547,2.547,0,0,0-.114.748l.8.71a.344.344,0,0,1,.022.5l-.391.442c.181.427.356.856.513,1.286l.81-.914a.348.348,0,0,1,.49-.016l2.173,1.913a.351.351,0,0,1,.033.495l-1.931,2.168a.349.349,0,0,1-.489.027l-.071-.063q.225,1.085.364,2.205a.332.332,0,0,1,.331.066l2.162,1.925a.347.347,0,0,1,.044.483l-1.014,1.139c.29.3.581.591.857.9l1.079-1.212a.345.345,0,0,1,.477-.026l2.186,1.924a.347.347,0,0,1,.021.483L35.6,47.562c.243.351.49.7.721,1.062l1.71-1.942a.344.344,0,0,1,.489-.039l2.168,1.931a.347.347,0,0,1,.032.483l-1.93,2.18a.336.336,0,0,1-.466.025l-.943-.83c.1.187.216.36.317.551A2.531,2.531,0,0,0,39,52.151c.211.084.405.181.612.267l-.085-.077a.338.338,0,0,1-.032-.472l1.948-2.163a.349.349,0,0,1,.49-.015l2.151,1.937a.352.352,0,0,1,.028.5l-1.547,1.7c.374.2.752.4,1.114.615l1.354-1.487a.347.347,0,0,1,.483-.032l2.153,1.961a.338.338,0,0,1,.02.472L46.663,56.49c.246.191.5.365.742.566a2.638,2.638,0,0,0,.256.176l.952-1.052a.346.346,0,0,1,.478-.015l1.656,1.491a26.88,26.88,0,0,1,2.866.2l1.821-2.011a.355.355,0,0,1,.49-.027l2.152,1.961a.338.338,0,0,1,.02.472l-.432.48c.215.064.432.11.648.179a2.52,2.52,0,0,0,.777.116.343.343,0,0,1,.33-.019,2.552,2.552,0,0,0,.747-.2c.208-.093.42-.163.628-.251l-.461-.418a.347.347,0,0,1-.027-.489L62.261,55.5a.341.341,0,0,1,.478-.026l1.947,1.774a26.7,26.7,0,0,1,2.993-.537l1.392-1.545a.348.348,0,0,1,.488-.039l.967.876a2.637,2.637,0,0,0,.278-.241c.2-.211.424-.4.633-.6l-1.04-.942a.343.343,0,0,1-.027-.49l1.949-2.151a.339.339,0,0,1,.477-.027L74.165,52.8c.335-.254.687-.5,1.036-.737l-1.573-1.426a.338.338,0,0,1-.026-.477l1.96-2.152a.338.338,0,0,1,.472-.032L78.2,49.924a.325.325,0,0,1,.105.225c.108-.058.2-.123.314-.18a2.533,2.533,0,0,0,1.167-1.3ZM36.26,17.172l-2.167-1.919a.34.34,0,0,1-.033-.494L35.991,12.6a.337.337,0,0,1,.482-.044l2.175,1.936a.346.346,0,0,1,.026.478L36.75,17.157A.349.349,0,0,1,36.26,17.172Zm3.69-3.626a.345.345,0,0,1-.482.033L37.3,11.63a.337.337,0,0,1-.009-.484L39.226,8.99a.341.341,0,0,1,.5-.022l2.151,1.938a.35.35,0,0,1,.033.494Zm6.108-4.9a.341.341,0,0,1,.479-.014l2.157,1.943a.349.349,0,0,1,.027.489l-1.955,2.146a.347.347,0,0,1-.483.032l-2.153-1.96a.338.338,0,0,1-.02-.472Zm-3.236,3.59a.346.346,0,0,1,.483-.033l2.152,1.961a.338.338,0,0,1,.02.472L43.523,16.79a.346.346,0,0,1-.478.026l-2.158-1.955a.346.346,0,0,1-.02-.483ZM39.6,15.791a.346.346,0,0,1,.478-.026l2.185,1.924a.347.347,0,0,1,.021.483L40.36,20.346a.34.34,0,0,1-.477.038L37.7,18.454a.345.345,0,0,1-.027-.478Zm-3.2,3.622a.341.341,0,0,1,.477-.038l2.18,1.93a.346.346,0,0,1,.026.478L37.16,23.968a.347.347,0,0,1-.489.027L34.5,22.064a.341.341,0,0,1-.032-.483Zm-2.924,8.2-2.185-1.924a.347.347,0,0,1-.016-.489l1.913-2.173a.344.344,0,0,1,.489-.039l2.168,1.931a.347.347,0,0,1,.032.483l-1.93,2.18A.338.338,0,0,1,33.477,27.611ZM50.008,9.622a.348.348,0,0,1-.489.027L47.362,7.706a.344.344,0,0,1-.015-.49L49.3,5.076a.35.35,0,0,1,.489-.038l2.158,1.954a.34.34,0,0,1,.014.478ZM52.873,8.3a.348.348,0,0,1,.484-.021l2.157,1.943a.349.349,0,0,1,.022.495L53.6,12.87a.352.352,0,0,1-.5.028l-2.14-1.95a.349.349,0,0,1-.038-.488Zm-3.231,3.583a.341.341,0,0,1,.478-.026l2.152,1.961a.345.345,0,0,1,.026.477l-1.954,2.158a.34.34,0,0,1-.478.014L47.714,14.52a.348.348,0,0,1-.027-.489ZM46.388,15.47a.351.351,0,0,1,.5-.034l2.151,1.95a.348.348,0,0,1,.027.489l-1.943,2.157a.35.35,0,0,1-.5.021l-2.151-1.937a.34.34,0,0,1-.022-.5ZM43.212,19a.341.341,0,0,1,.495-.033L45.869,20.9a.349.349,0,0,1,.039.489l-1.936,2.174a.348.348,0,0,1-.484.021L41.309,21.66a.349.349,0,0,1-.022-.5ZM40.49,22.587l2.179,1.919a.341.341,0,0,1,.032.483l-1.924,2.173a.346.346,0,0,1-.483.033l-2.18-1.93a.332.332,0,0,1-.032-.471l1.924-2.186A.348.348,0,0,1,40.49,22.587Zm-3.685,3.632a.352.352,0,0,1,.5-.022l2.167,1.92a.351.351,0,0,1,.028.5l-1.925,2.162a.35.35,0,0,1-.495.033l-2.168-1.93a.348.348,0,0,1-.027-.489Zm-2.918,8.2L31.7,32.5a.348.348,0,0,1-.021-.484L33.6,29.836a.347.347,0,0,1,.489-.027l2.168,1.93a.341.341,0,0,1,.038.477l-1.93,2.18A.345.345,0,0,1,33.887,34.422ZM56.829,9.287a.341.341,0,0,1-.483.021L54.189,7.365a.353.353,0,0,1-.027-.489l1.96-2.152A.345.345,0,0,1,56.6,4.7l2.158,1.955a.346.346,0,0,1,.02.483ZM59.7,7.961a.342.342,0,0,1,.484-.021L62.33,9.9a.34.34,0,0,1,.032.472l-1.954,2.169a.349.349,0,0,1-.485.009L57.778,10.6a.342.342,0,0,1-.027-.489Zm-3.248,3.59a.352.352,0,0,1,.5-.028L59.1,13.467a.342.342,0,0,1,.027.489L57.17,16.1a.348.348,0,0,1-.489.027l-2.157-1.943a.341.341,0,0,1-.01-.484ZM53.22,15.122a.345.345,0,0,1,.478-.014l2.157,1.943a.34.34,0,0,1,.021.483l-1.943,2.157a.347.347,0,0,1-.489.027L51.3,17.763a.347.347,0,0,1-.033-.483Zm-3.243,3.584a.35.35,0,0,1,.5-.021l2.141,1.95a.342.342,0,0,1,.032.483L50.684,23.27a.344.344,0,0,1-.471.032l-2.164-1.96a.347.347,0,0,1-.015-.479Zm-3.142,3.5a.343.343,0,0,1,.471-.032L49.5,24.1a.345.345,0,0,1,.014.478l-1.918,2.18a.343.343,0,0,1-.489.027l-2.168-1.919a.35.35,0,0,1-.038-.489Zm-3.212,3.611a.349.349,0,0,1,.489-.027l2.174,1.925a.348.348,0,0,1,.026.489l-1.93,2.168a.342.342,0,0,1-.483.033l-2.168-1.931a.348.348,0,0,1-.033-.483Zm-3.2,3.623a.341.341,0,0,1,.482-.045l2.168,1.931a.346.346,0,0,1,.033.483l-1.924,2.185a.341.341,0,0,1-.484.021L38.525,32.1a.352.352,0,0,1-.027-.5Zm-3.207,3.605a.342.342,0,0,1,.484-.021l2.173,1.913a.348.348,0,0,1,.039.488L37.975,37.6a.34.34,0,0,1-.477.026L35.324,35.7a.339.339,0,0,1-.038-.476Zm-2.929,8.2L32.112,39.31a.348.348,0,0,1-.021-.484l1.931-2.168a.335.335,0,0,1,.477-.038l2.168,1.931a.338.338,0,0,1,.027.489l-1.919,2.167A.348.348,0,0,1,34.287,41.246ZM63.65,8.941a.339.339,0,0,1-.489.027l-2.152-1.95a.333.333,0,0,1-.02-.472l1.948-2.163a.346.346,0,0,1,.478-.026l2.163,1.948a.349.349,0,0,1,.015.49ZM63.278,11.2a.349.349,0,0,1,.49-.015l2.145,1.943a.35.35,0,0,1,.033.5l-1.955,2.146a.347.347,0,0,1-.483.033l-2.152-1.961a.345.345,0,0,1-.027-.478Zm-3.237,3.589a.347.347,0,0,1,.483-.032l2.152,1.961a.34.34,0,0,1,.021.483l-1.943,2.146a.332.332,0,0,1-.484.021l-2.157-1.943a.347.347,0,0,1-.033-.483Zm-3.249,3.579a.346.346,0,0,1,.5-.022l2.14,1.95a.34.34,0,0,1,.037.477L57.512,22.94a.352.352,0,0,1-.479.015L54.876,21a.34.34,0,0,1-.021-.483Zm-3.236,3.589a.349.349,0,0,1,.488-.038L56.2,23.871a.348.348,0,0,1,.021.484l-1.949,2.151a.347.347,0,0,1-.489.027L51.627,24.59a.338.338,0,0,1-.015-.489ZM50.44,25.409a.339.339,0,0,1,.489-.038L53.1,27.3a.347.347,0,0,1,.032.483l-1.93,2.18a.345.345,0,0,1-.477.027l-2.186-1.924a.349.349,0,0,1-.015-.49Zm-3.206,3.617a.342.342,0,0,1,.483-.032L49.9,30.918a.358.358,0,0,1,.033.483l-1.942,2.18a.34.34,0,0,1-.478.015l-2.167-1.919a.339.339,0,0,1-.039-.489Zm-3.2,3.6a.349.349,0,0,1,.489-.027l2.168,1.931a.338.338,0,0,1,.027.489L44.8,37.186a.342.342,0,0,1-.483.032l-2.18-1.93a.347.347,0,0,1-.02-.484Zm-3.2,3.623a.346.346,0,0,1,.483-.033l2.18,1.93a.346.346,0,0,1,.026.478L41.6,40.808a.349.349,0,0,1-.49.015L38.936,38.91a.349.349,0,0,1-.033-.494Zm-2.924,8.2-2.185-1.924a.353.353,0,0,1-.027-.489l1.93-2.18a.346.346,0,0,1,.483-.021l2.169,1.931a.329.329,0,0,1,.037.477l-1.93,2.168A.335.335,0,0,1,37.909,44.446ZM67.234,12.183a.336.336,0,0,1-.484.021l-2.157-1.943a.348.348,0,0,1-.027-.489L66.515,7.62A.354.354,0,0,1,67,7.593l2.158,1.955a.335.335,0,0,1,.015.478Zm-.366,2.263a.336.336,0,0,1,.483-.02l2.14,1.949a.333.333,0,0,1,.032.472L67.569,19a.346.346,0,0,1-.484.021l-2.152-1.949a.341.341,0,0,1-.02-.483Zm-3.255,3.585a.35.35,0,0,1,.5-.033l2.152,1.949a.342.342,0,0,1,.02.484l-1.942,2.157a.339.339,0,0,1-.49.015l-2.157-1.931a.346.346,0,0,1-.021-.5ZM60.382,21.6a.342.342,0,0,1,.484-.009l2.151,1.938a.331.331,0,0,1,.021.483l-1.949,2.152a.346.346,0,0,1-.477.038l-2.159-1.966a.344.344,0,0,1-.02-.472Zm-3.243,3.584a.349.349,0,0,1,.489-.027l2.146,1.956a.339.339,0,0,1,.026.477l-1.948,2.163a.334.334,0,0,1-.478.015l-2.157-1.943a.347.347,0,0,1-.027-.489ZM54.056,28.6a.346.346,0,0,1,.484-.021l2.174,1.924a.337.337,0,0,1,.032.483l-1.931,2.168a.341.341,0,0,1-.483.033l-2.173-1.925a.346.346,0,0,1-.033-.483Zm-3.2,3.622a.346.346,0,0,1,.477-.038l2.186,1.936a.345.345,0,0,1,.015.478l-1.925,2.173a.331.331,0,0,1-.483.033l-2.162-1.925a.344.344,0,0,1-.038-.489Zm-3.212,3.611a.346.346,0,0,1,.5-.033L50.3,37.736a.337.337,0,0,1,.044.482L48.4,40.392a.339.339,0,0,1-.477.026L45.747,38.5a.35.35,0,0,1-.022-.495Zm-2.722,3.585L47.1,41.34a.349.349,0,0,1,.027.489L45.2,44a.334.334,0,0,1-.477.026L42.558,42.11a.335.335,0,0,1-.038-.477l1.924-2.185A.34.34,0,0,1,44.922,39.422Zm-3.408,8.23L39.34,45.716a.348.348,0,0,1-.021-.484l1.925-2.173a.348.348,0,0,1,.489-.027L43.9,44.957a.345.345,0,0,1,.033.495L42,47.614A.35.35,0,0,1,41.514,47.652Zm29.3-32.226a.333.333,0,0,1-.49.015L68.177,13.5a.347.347,0,0,1-.033-.483L70.1,10.863a.345.345,0,0,1,.477-.026l2.164,1.948a.349.349,0,0,1,.015.49Zm3.236-3.589a.349.349,0,0,1-.489.027L71.408,9.921a.344.344,0,0,1-.015-.49l1.949-2.14a.341.341,0,0,1,.477-.038l2.164,1.96a.338.338,0,0,1,.02.472ZM64.645,29.329a.335.335,0,0,1-.478.026l-2.173-1.913a.351.351,0,0,1-.033-.5l1.925-2.173a.348.348,0,0,1,.489-.027l2.174,1.936a.343.343,0,0,1,.032.471Zm3.206-3.617a.339.339,0,0,1-.489.038L65.2,23.813a.337.337,0,0,1-.032-.483l1.924-2.173a.352.352,0,0,1,.5-.022l2.167,1.919a.352.352,0,0,1,.028.5Zm3.2-3.617a.327.327,0,0,1-.483.032l-2.167-1.919a.349.349,0,0,1-.039-.488L70.3,17.545a.338.338,0,0,1,.472-.02l2.185,1.924a.34.34,0,0,1,.026.478Zm2.718-3.578-2.168-1.931a.326.326,0,0,1-.033-.483l1.919-2.168a.353.353,0,0,1,.5-.027l2.162,1.925a.341.341,0,0,1,.033.483l-1.93,2.18A.354.354,0,0,1,73.774,18.517Zm2.936-8.2a.339.339,0,0,1,.477-.026l2.18,1.93a.341.341,0,0,1,.021.483l-1.913,2.173a.352.352,0,0,1-.5.028l-2.162-1.925a.352.352,0,0,1-.033-.495Zm-31.3,40.367a.343.343,0,0,1-.489.027l-2.151-1.937a.352.352,0,0,1-.028-.5l1.944-2.146a.339.339,0,0,1,.489-.027l2.157,1.943a.355.355,0,0,1,.027.49Zm3.232-3.571a.339.339,0,0,1-.473.02L46.01,45.179a.34.34,0,0,1-.027-.477l1.943-2.157a.351.351,0,0,1,.5-.022l2.14,1.95a.325.325,0,0,1,.026.477Zm3.254-3.585a.352.352,0,0,1-.5.028l-2.14-1.95a.349.349,0,0,1-.039-.488l1.955-2.158a.334.334,0,0,1,.478-.015l2.163,1.937a.339.339,0,0,1,.015.49Zm3.231-3.583a.344.344,0,0,1-.477.026l-2.164-1.948a.348.348,0,0,1-.027-.489l1.949-2.152a.351.351,0,0,1,.5-.021l2.145,1.943a.336.336,0,0,1,.021.484Zm3.243-3.572a.354.354,0,0,1-.489.015l-2.146-1.944a.35.35,0,0,1-.033-.494L57.649,31.8a.338.338,0,0,1,.484-.021l2.151,1.949a.34.34,0,0,1,.027.478Zm3.076-3.435a.341.341,0,0,1-.483.033l-2.168-1.931a.335.335,0,0,1-.038-.477l1.93-2.18a.349.349,0,0,1,.49-.015l2.173,1.913a.357.357,0,0,1,.033.5Zm10.024-4.01a.347.347,0,0,1-.484.021l-2.168-1.931a.331.331,0,0,1-.032-.483l1.925-2.162a.335.335,0,0,1,.477-.038l2.185,1.924a.347.347,0,0,1,.021.484Zm-3.2,3.6a.342.342,0,0,1-.489.027L65.6,30.631a.331.331,0,0,1-.025-.466l1.929-2.192a.339.339,0,0,1,.472-.02l2.179,1.919a.343.343,0,0,1,.027.489ZM74.2,25.339l-2.191-1.93a.346.346,0,0,1-.015-.478l1.919-2.179a.341.341,0,0,1,.483-.032l2.173,1.924a.346.346,0,0,1,.033.483l-1.93,2.18A.345.345,0,0,1,74.2,25.339ZM77.6,17.1l2.179,1.93a.345.345,0,0,1,.021.483L77.88,21.7a.349.349,0,0,1-.489.027l-2.168-1.931a.337.337,0,0,1-.033-.483l1.925-2.174A.347.347,0,0,1,77.6,17.1ZM48.98,53.929a.347.347,0,0,1-.483.032L46.345,52a.345.345,0,0,1-.021-.483l1.949-2.152a.33.33,0,0,1,.478-.015l2.157,1.943a.346.346,0,0,1,.033.483Zm3.243-3.584a.349.349,0,0,1-.489.027l-2.147-1.955a.341.341,0,0,1-.026-.478l1.961-2.152a.343.343,0,0,1,.471-.032l2.164,1.96a.346.346,0,0,1,.015.478Zm3.242-3.584a.347.347,0,0,1-.483.032l-2.157-1.954a.334.334,0,0,1-.015-.478l1.937-2.151a.339.339,0,0,1,.49-.027l2.157,1.943a.349.349,0,0,1,.027.489ZM58.7,43.183a.336.336,0,0,1-.484.021l-2.152-1.949a.337.337,0,0,1-.031-.471L58,38.625a.338.338,0,0,1,.471-.032l2.146,1.956a.342.342,0,0,1,.027.489ZM61.946,39.6a.349.349,0,0,1-.489.039l-2.152-1.961a.337.337,0,0,1-.02-.472l1.942-2.169a.355.355,0,0,1,.49-.015l2.151,1.938a.352.352,0,0,1,.027.5Zm2.62-3.421L62.4,34.253a.357.357,0,0,1-.033-.495L64.308,31.6a.341.341,0,0,1,.477-.038l2.18,1.93a.349.349,0,0,1,.015.49l-1.913,2.173A.353.353,0,0,1,64.566,36.178Zm7.312-.438a.345.345,0,0,1-.483.021l-2.179-1.918a.347.347,0,0,1-.027-.489l1.924-2.174a.349.349,0,0,1,.5-.021l2.162,1.925a.341.341,0,0,1,.045.482Zm3.2-3.622a.337.337,0,0,1-.482.044l-2.175-1.936a.347.347,0,0,1-.02-.484l1.918-2.179a.349.349,0,0,1,.489-.027l2.174,1.925a.35.35,0,0,1,.021.5Zm3.212-3.611a.349.349,0,0,1-.489.027l-2.174-1.925a.347.347,0,0,1-.038-.477l1.936-2.186a.347.347,0,0,1,.484-.009l2.173,1.913a.344.344,0,0,1,.039.489Zm2.925-8.2,2.168,1.93a.347.347,0,0,1,.032.483l-1.93,2.18a.345.345,0,0,1-.477.026L78.828,23a.335.335,0,0,1-.021-.483l1.913-2.173A.35.35,0,0,1,81.215,20.309ZM52.569,57.165a.347.347,0,0,1-.489.027l-2.157-1.943a.35.35,0,0,1-.022-.5l1.95-2.14a.335.335,0,0,1,.483-.032L54.5,54.53a.347.347,0,0,1,.02.484ZM55.807,53.6a.342.342,0,0,1-.484.009l-2.146-1.943a.35.35,0,0,1-.038-.489l1.954-2.158a.347.347,0,0,1,.484-.02l2.146,1.955a.347.347,0,0,1,.033.483ZM59.049,50a.35.35,0,0,1-.494.033l-2.147-1.955a.347.347,0,0,1-.032-.483l1.961-2.153a.345.345,0,0,1,.477-.026l2.164,1.948a.338.338,0,0,1,.009.485Zm3.244-3.572a.344.344,0,0,1-.49.015l-2.151-1.938a.349.349,0,0,1-.033-.494l1.949-2.152a.349.349,0,0,1,.489-.027l2.152,1.949a.349.349,0,0,1,.027.489Zm3.231-3.584a.352.352,0,0,1-.484.021L62.889,40.92a.347.347,0,0,1-.027-.489l1.955-2.146a.346.346,0,0,1,.483-.033l2.152,1.961a.338.338,0,0,1,.02.472Zm2.671-3.464-2.18-1.93a.346.346,0,0,1-.026-.478l1.924-2.185a.346.346,0,0,1,.483-.021l2.18,1.918a.355.355,0,0,1,.027.489l-1.931,2.169A.341.341,0,0,1,68.195,39.384ZM75.5,38.94a.348.348,0,0,1-.489.027l-2.18-1.93a.332.332,0,0,1-.032-.471l1.936-2.175a.338.338,0,0,1,.471-.031l2.18,1.918a.341.341,0,0,1,.032.483Zm3.189-3.61a.346.346,0,0,1-.478.026l-2.185-1.923a.355.355,0,0,1-.016-.49l1.919-2.168a.346.346,0,0,1,.495-.033l2.162,1.925a.35.35,0,0,1,.039.489Zm2.929-8.2,2.18,1.93a.345.345,0,0,1,.026.477L81.9,31.719a.356.356,0,0,1-.49.027l-2.168-1.931a.341.341,0,0,1-.032-.483l1.93-2.168A.341.341,0,0,1,81.619,27.126Zm-22.235,29.7a.347.347,0,0,1-.483.032L56.749,54.9a.338.338,0,0,1-.02-.472l1.948-2.164a.34.34,0,0,1,.478-.014l2.158,1.943a.348.348,0,0,1,.026.489Zm3.249-3.578a.35.35,0,0,1-.5.021L59.987,51.33a.344.344,0,0,1-.022-.495l1.944-2.145a.354.354,0,0,1,.488-.039l2.158,1.955a.346.346,0,0,1,.021.483Zm3.226-3.578a.334.334,0,0,1-.478.015l-2.152-1.949a.34.34,0,0,1-.015-.478L65.157,45.1a.335.335,0,0,1,.478-.027l2.152,1.961a.347.347,0,0,1,.033.483Zm3.254-3.584a.353.353,0,0,1-.5.028l-2.14-1.95a.342.342,0,0,1-.032-.483l1.948-2.164a.353.353,0,0,1,.484-.02l2.157,1.943a.349.349,0,0,1,.022.495Zm2.681-3.5-2.168-1.931a.355.355,0,0,1-.027-.489L71.53,38a.342.342,0,0,1,.489-.027l2.167,1.919a.351.351,0,0,1,.028.5l-1.925,2.163A.352.352,0,0,1,71.794,42.585Zm7.306-.444a.333.333,0,0,1-.472.032l-2.185-1.924a.348.348,0,0,1-.021-.484l1.919-2.179a.349.349,0,0,1,.489-.027L81,39.49a.341.341,0,0,1,.038.477Zm2.936-8.2,2.18,1.93a.356.356,0,0,1,.021.5L82.312,38.53a.346.346,0,0,1-.5.033l-2.162-1.925a.352.352,0,0,1-.033-.495l1.931-2.168A.346.346,0,0,1,82.036,33.943ZM66.217,56.489a.356.356,0,0,1-.5.033l-2.152-1.96a.346.346,0,0,1-.026-.478l1.948-2.163a.349.349,0,0,1,.49-.015l2.151,1.937a.345.345,0,0,1,.021.495Zm3.231-3.583a.343.343,0,0,1-.484.021l-2.157-1.943a.349.349,0,0,1-.027-.489l1.961-2.153a.346.346,0,0,1,.478-.026l2.157,1.955a.334.334,0,0,1,.015.478Zm3.237-3.578a.35.35,0,0,1-.477.027L70.05,47.4a.348.348,0,0,1-.021-.484l1.943-2.157a.351.351,0,0,1,.5-.021l2.14,1.95a.342.342,0,0,1,.032.483Zm2.731-3.544-2.167-1.919a.348.348,0,0,1-.039-.488L75.146,41.2a.345.345,0,0,1,.478-.027L77.809,43.1a.354.354,0,0,1,.021.484l-1.924,2.173A.344.344,0,0,1,75.416,45.784Z"/>
      <path class="cls-4" d="M80.549,46.912,79.41,48.2a.35.35,0,0,1-.489.038L76.747,46.3a.34.34,0,0,1-.015-.478l1.919-2.179a.342.342,0,0,1,.483-.033L81.249,45.5c.2-.38.389-.765.6-1.132l-1.9-1.679a.338.338,0,0,1-.032-.471l1.93-2.18a.342.342,0,0,1,.484-.021l1.522,1.34c.248-.33.487-.665.752-.986L83.148,39.08a.349.349,0,0,1-.015-.49l1.925-2.162a.367.367,0,0,1,.234-.124c.033-.753.1-1.5.195-2.236l-.076.086a.346.346,0,0,1-.482.032l-2.18-1.93a.338.338,0,0,1-.032-.471L84.641,29.6a.346.346,0,0,1,.483-.021l1.091.96c.109-.394.2-.789.328-1.183.015-.049.02-.1.033-.148l-.632-.556a.349.349,0,0,1-.022-.5l.536-.6c-.007-.017-.01-.035-.018-.052-.184-.409-.331-.823-.492-1.235L85,27.337a.34.34,0,0,1-.477.038l-2.18-1.93a.355.355,0,0,1-.027-.489l1.925-2.174a.348.348,0,0,1,.489-.027l.137.122q-.268-1.113-.441-2.257a.34.34,0,0,1-.325-.067l-2.169-1.931a.347.347,0,0,1-.032-.483L83.2,16.661c-.3-.292-.575-.6-.857-.9l-1.374,1.552a.339.339,0,0,1-.476.038l-2.18-1.93a.345.345,0,0,1-.027-.477l1.743-1.98c-.25-.346-.486-.706-.724-1.065a.425.425,0,0,1-.027.046l-1.913,2.173a.352.352,0,0,1-.5.028l-2.162-1.925a.35.35,0,0,1-.033-.495L76.6,9.559a.339.339,0,0,1,.477-.027L78.7,10.969c-.38-.621-.75-1.253-1.1-1.917a2.539,2.539,0,0,0-1.3-1.168c-.7-.276-1.368-.575-2.026-.885l1.606,1.455a.338.338,0,0,1,.02.472l-1.949,2.152a.349.349,0,0,1-.489.027L71.3,9.162a.343.343,0,0,1-.016-.49l1.95-2.14a.446.446,0,0,1,.043-.033c-.385-.2-.772-.394-1.145-.606L70.365,7.847a.346.346,0,0,1-.478.026L67.729,5.918a.346.346,0,0,1-.02-.483L69.1,3.9c-.331-.247-.664-.489-.987-.752L66.787,4.609a.349.349,0,0,1-.49.016L64.146,2.687a.331.331,0,0,1-.1-.31q-1.153-.046-2.284-.191l.13.117a.355.355,0,0,1,.027.49L59.972,4.95a.35.35,0,0,1-.5.021L57.331,3.028a.352.352,0,0,1-.033-.5l.958-1.057c-.423-.115-.846-.214-1.268-.351-.023-.007-.047-.009-.07-.015l-.536.591a.345.345,0,0,1-.495.034l-.61-.557c-.047.018-.1.029-.143.049-.378.171-.76.3-1.14.456l1.068.973a.346.346,0,0,1,.032.483l-1.96,2.152a.337.337,0,0,1-.472.021L50.5,3.357a.34.34,0,0,1-.015-.478l.076-.085q-1.084.264-2.2.44a.352.352,0,0,1-.09.252l-1.95,2.14a.349.349,0,0,1-.488.038L44.4,4.359c-.291.3-.6.573-.9.856L45,6.575a.347.347,0,0,1,.033.483L43.082,9.221a.342.342,0,0,1-.484.009L40.734,7.542c-.342.25-.7.482-1.06.72l2.092,1.884a.35.35,0,0,1,.033.495l-1.955,2.146a.346.346,0,0,1-.483.033L37.2,10.871a.337.337,0,0,1-.009-.484l1.126-1.258c-.533.319-1.066.639-1.63.938a2.531,2.531,0,0,0-1.168,1.3c-.236.594-.494,1.159-.754,1.724l1.122-1.252a.337.337,0,0,1,.482-.044l2.174,1.936a.345.345,0,0,1,.027.478L36.644,16.4a.349.349,0,0,1-.49.015l-2.107-1.865c-.2.379-.388.764-.6,1.132l1.887,1.66a.344.344,0,0,1,.038.489L33.443,20a.348.348,0,0,1-.489.027l-1.512-1.339c-.249.33-.488.665-.753.987l1.452,1.285a.348.348,0,0,1,.015.489l-1.913,2.173a.357.357,0,0,1-.235.117c-.033.751-.1,1.494-.2,2.231l.076-.085a.338.338,0,0,1,.471-.032l2.185,1.924a.339.339,0,0,1,.027.477l-1.919,2.18a.348.348,0,0,1-.489.026l-1.08-.956c-.108.393-.2.786-.327,1.179-.016.05-.021.1-.034.154l.616.545a.345.345,0,0,1,.021.495l-.524.592c.01.022.014.046.024.068.182.405.327.814.487,1.221l.946-1.068a.349.349,0,0,1,.49-.015l2.173,1.913a.352.352,0,0,1,.033.495l-1.931,2.168a.349.349,0,0,1-.489.027l-.131-.116q.267,1.11.441,2.253a.335.335,0,0,1,.314.071l2.162,1.925a.348.348,0,0,1,.044.483l-1.313,1.474c.3.292.575.6.857.9l1.378-1.547a.345.345,0,0,1,.477-.026l2.185,1.924A.345.345,0,0,1,37,45.1l-1.741,1.967c.251.348.488.71.727,1.071a.307.307,0,0,1,.023-.039l1.913-2.173a.343.343,0,0,1,.488-.039l2.169,1.931a.347.347,0,0,1,.032.483l-1.93,2.18a.336.336,0,0,1-.466.025l-1.613-1.42c.377.616.745,1.243,1.093,1.9A2.531,2.531,0,0,0,39,52.151c.692.274,1.356.571,2.009.878l-1.589-1.447a.338.338,0,0,1-.031-.472l1.948-2.163a.349.349,0,0,1,.49-.015l2.151,1.937a.353.353,0,0,1,.027.5l-1.949,2.14a.318.318,0,0,1-.037.027c.383.2.767.392,1.137.6L44.93,52.2a.347.347,0,0,1,.483-.032l2.152,1.961a.338.338,0,0,1,.02.472l-1.391,1.536c.331.247.664.49.987.753l1.326-1.464a.346.346,0,0,1,.478-.015l2.157,1.943a.336.336,0,0,1,.1.31q1.161.047,2.3.191l-.136-.123a.343.343,0,0,1-.027-.489l1.949-2.152a.354.354,0,0,1,.489-.027L57.97,57.02a.338.338,0,0,1,.02.472l-.959,1.064c.427.116.854.216,1.281.354.018.006.036.007.054.013l.534-.594a.352.352,0,0,1,.5-.033l.622.564c.049-.019.1-.03.149-.052.377-.169.758-.3,1.136-.453l-1.075-.975a.347.347,0,0,1-.027-.489l1.955-2.146a.339.339,0,0,1,.477-.026l2.153,1.96a.346.346,0,0,1,.026.478l-.077.085q1.083-.264,2.2-.44a.365.365,0,0,1,.1-.24l1.937-2.151a.349.349,0,0,1,.489-.039L70.9,55.679c.291-.3.6-.573.9-.856l-1.5-1.362a.344.344,0,0,1-.027-.489l1.95-2.151a.339.339,0,0,1,.477-.027l1.87,1.7c.342-.25.7-.482,1.059-.72l-2.1-1.9A.339.339,0,0,1,73.5,49.4l1.961-2.153a.338.338,0,0,1,.471-.031l2.164,1.948a.349.349,0,0,1,.015.49l-1.148,1.267c.541-.325,1.084-.649,1.658-.953a2.533,2.533,0,0,0,1.167-1.3C80.023,48.061,80.285,47.486,80.549,46.912ZM45.952,7.883a.34.34,0,0,1,.478-.014l2.157,1.943a.347.347,0,0,1,.027.489l-1.955,2.146a.347.347,0,0,1-.483.032l-2.152-1.96a.338.338,0,0,1-.02-.472Zm-3.236,3.59a.346.346,0,0,1,.483-.033L45.351,13.4a.338.338,0,0,1,.02.472l-1.955,2.158a.345.345,0,0,1-.477.026L40.781,14.1a.347.347,0,0,1-.021-.483Zm-3.221,3.559a.345.345,0,0,1,.477-.026l2.186,1.923a.347.347,0,0,1,.02.484l-1.924,2.174a.341.341,0,0,1-.477.038L37.6,17.7a.346.346,0,0,1-.026-.478Zm-3.2,3.622a.341.341,0,0,1,.477-.038l2.18,1.93a.346.346,0,0,1,.026.478l-1.924,2.185a.348.348,0,0,1-.489.027L34.4,21.305a.341.341,0,0,1-.033-.483Zm-2.924,8.2-2.186-1.924a.348.348,0,0,1-.015-.489l1.913-2.173a.342.342,0,0,1,.488-.039l2.169,1.931a.347.347,0,0,1,.032.483l-1.93,2.179A.337.337,0,0,1,33.371,26.852ZM49.9,8.863a.349.349,0,0,1-.489.027L47.256,6.947a.343.343,0,0,1-.016-.49l1.95-2.14a.35.35,0,0,1,.489-.038l2.157,1.954a.339.339,0,0,1,.015.478Zm2.865-1.32a.347.347,0,0,1,.484-.021l2.157,1.943a.35.35,0,0,1,.021.5l-1.937,2.151a.352.352,0,0,1-.5.028l-2.14-1.95a.348.348,0,0,1-.038-.488Zm-3.231,3.583a.339.339,0,0,1,.477-.026l2.153,1.96a.346.346,0,0,1,.026.478L50.237,15.7a.34.34,0,0,1-.478.014l-2.151-1.949a.347.347,0,0,1-.027-.489Zm-3.254,3.585a.35.35,0,0,1,.494-.034l2.152,1.95a.349.349,0,0,1,.027.489l-1.943,2.157a.35.35,0,0,1-.495.021l-2.151-1.937a.34.34,0,0,1-.022-.5Zm-3.176,3.533a.341.341,0,0,1,.495-.033l2.162,1.925a.349.349,0,0,1,.038.488L43.865,22.8a.347.347,0,0,1-.483.021L41.2,20.9a.35.35,0,0,1-.021-.5Zm-2.723,3.584,2.179,1.919a.341.341,0,0,1,.033.483L40.67,26.4a.346.346,0,0,1-.483.033l-2.18-1.93a.333.333,0,0,1-.031-.472L39.9,21.849A.347.347,0,0,1,40.383,21.828ZM36.7,25.46a.35.35,0,0,1,.5-.022l2.168,1.919a.353.353,0,0,1,.028.5L37.464,30.02a.349.349,0,0,1-.494.033L34.8,28.123a.347.347,0,0,1-.027-.489Zm-2.918,8.2L31.6,31.74a.346.346,0,0,1-.021-.484l1.918-2.179a.347.347,0,0,1,.489-.027l2.169,1.93a.341.341,0,0,1,.038.477l-1.93,2.18A.346.346,0,0,1,33.781,33.663ZM56.723,8.528a.343.343,0,0,1-.484.021L54.082,6.606a.354.354,0,0,1-.027-.489l1.961-2.153a.346.346,0,0,1,.478-.026l2.157,1.955a.345.345,0,0,1,.021.483ZM59.594,7.2a.34.34,0,0,1,.483-.021l2.147,1.955a.339.339,0,0,1,.031.472L60.3,11.777a.347.347,0,0,1-.484.009L57.672,9.843a.343.343,0,0,1-.027-.49Zm-3.249,3.59a.352.352,0,0,1,.5-.028l2.146,1.944a.344.344,0,0,1,.027.489l-1.955,2.146a.349.349,0,0,1-.49.027l-2.157-1.943a.342.342,0,0,1-.009-.484Zm-3.231,3.571a.345.345,0,0,1,.478-.014l2.157,1.943a.341.341,0,0,1,.021.483l-1.943,2.157a.347.347,0,0,1-.489.027L51.192,17a.346.346,0,0,1-.033-.483Zm-3.243,3.584a.35.35,0,0,1,.495-.021l2.14,1.949a.341.341,0,0,1,.033.483l-1.961,2.153a.344.344,0,0,1-.471.032l-2.164-1.961a.345.345,0,0,1-.015-.478Zm-3.143,3.5a.344.344,0,0,1,.472-.032l2.191,1.929a.345.345,0,0,1,.015.478L47.488,26a.345.345,0,0,1-.49.027l-2.167-1.919a.349.349,0,0,1-.039-.489Zm-3.212,3.611a.35.35,0,0,1,.49-.027l2.173,1.925a.347.347,0,0,1,.027.489l-1.93,2.168a.343.343,0,0,1-.484.032l-2.168-1.93a.347.347,0,0,1-.032-.483Zm-3.2,3.622a.342.342,0,0,1,.482-.044l2.168,1.931a.346.346,0,0,1,.033.483l-1.924,2.185a.342.342,0,0,1-.484.021L38.419,31.34a.353.353,0,0,1-.028-.5ZM37.11,32.283a.341.341,0,0,1,.484-.021l2.173,1.913a.349.349,0,0,1,.038.488l-1.936,2.175a.34.34,0,0,1-.477.026l-2.174-1.925a.34.34,0,0,1-.038-.477Zm-2.93,8.2-2.174-1.936a.348.348,0,0,1-.021-.484L33.916,35.9a.335.335,0,0,1,.477-.038l2.168,1.931a.338.338,0,0,1,.027.489l-1.919,2.167A.349.349,0,0,1,34.18,40.487ZM63.544,8.181a.338.338,0,0,1-.49.027L60.9,6.259a.332.332,0,0,1-.02-.472l1.948-2.163a.346.346,0,0,1,.478-.026l2.163,1.948a.349.349,0,0,1,.015.49Zm-.373,2.258a.349.349,0,0,1,.49-.015l2.146,1.943a.352.352,0,0,1,.033.495l-1.955,2.146a.347.347,0,0,1-.483.033L61.249,13.08a.346.346,0,0,1-.026-.478Zm-3.236,3.589A.347.347,0,0,1,60.418,14l2.152,1.961a.341.341,0,0,1,.021.483l-1.944,2.146a.332.332,0,0,1-.483.021l-2.157-1.943a.346.346,0,0,1-.033-.483Zm-3.249,3.579a.344.344,0,0,1,.495-.022l2.14,1.95a.339.339,0,0,1,.038.477l-1.954,2.169a.351.351,0,0,1-.478.015l-2.158-1.955a.341.341,0,0,1-.021-.483ZM53.449,21.2a.349.349,0,0,1,.489-.038L56.1,23.112a.347.347,0,0,1,.02.484l-1.949,2.151a.347.347,0,0,1-.489.027l-2.157-1.943a.337.337,0,0,1-.015-.489ZM50.334,24.65a.337.337,0,0,1,.488-.038l2.168,1.93a.346.346,0,0,1,.033.483l-1.93,2.18a.345.345,0,0,1-.478.026L48.43,27.308a.349.349,0,0,1-.015-.49Zm-3.206,3.617a.342.342,0,0,1,.483-.032L49.8,30.159a.359.359,0,0,1,.033.483l-1.942,2.18a.34.34,0,0,1-.478.015l-2.168-1.919a.339.339,0,0,1-.038-.489Zm-3.2,3.6a.349.349,0,0,1,.489-.027l2.168,1.931a.338.338,0,0,1,.027.489l-1.919,2.168a.342.342,0,0,1-.483.032l-2.18-1.93a.348.348,0,0,1-.021-.484Zm-3.2,3.623a.346.346,0,0,1,.483-.033l2.18,1.93a.346.346,0,0,1,.026.478l-1.924,2.185a.349.349,0,0,1-.49.015l-2.173-1.913a.35.35,0,0,1-.033-.494Zm-2.924,8.2-2.186-1.924a.355.355,0,0,1-.027-.489l1.93-2.18A.347.347,0,0,1,38,39.073L40.172,41a.328.328,0,0,1,.038.476l-1.931,2.169A.334.334,0,0,1,37.8,43.687ZM67.127,11.424a.335.335,0,0,1-.483.021L64.487,9.5a.347.347,0,0,1-.027-.489l1.949-2.152a.354.354,0,0,1,.489-.027l2.158,1.955a.334.334,0,0,1,.014.478Zm-.366,2.263a.337.337,0,0,1,.484-.021l2.14,1.95a.334.334,0,0,1,.032.472l-1.955,2.157a.345.345,0,0,1-.483.021l-2.152-1.949a.343.343,0,0,1-.021-.484Zm-3.254,3.585A.35.35,0,0,1,64,17.239l2.151,1.949a.34.34,0,0,1,.021.483l-1.943,2.158a.339.339,0,0,1-.49.015l-2.156-1.931a.346.346,0,0,1-.022-.5Zm-3.232,3.571a.343.343,0,0,1,.485-.009l2.151,1.938a.331.331,0,0,1,.02.483l-1.949,2.152a.347.347,0,0,1-.477.038l-2.158-1.966a.344.344,0,0,1-.02-.472Zm-3.243,3.584a.35.35,0,0,1,.49-.027l2.146,1.956a.339.339,0,0,1,.026.477L57.746,29a.334.334,0,0,1-.478.015L55.11,27.068a.349.349,0,0,1-.027-.489ZM53.95,27.845a.346.346,0,0,1,.484-.021l2.173,1.924a.337.337,0,0,1,.033.483L54.709,32.4a.341.341,0,0,1-.483.033l-2.174-1.925a.347.347,0,0,1-.032-.483Zm-3.2,3.622a.346.346,0,0,1,.477-.038l2.186,1.935a.347.347,0,0,1,.015.479L51.5,36.016a.331.331,0,0,1-.483.033l-2.162-1.925a.345.345,0,0,1-.039-.489Zm-3.212,3.611a.346.346,0,0,1,.5-.033l2.156,1.931a.338.338,0,0,1,.044.483L48.3,39.633a.339.339,0,0,1-.477.026l-2.179-1.918a.349.349,0,0,1-.022-.495Zm-2.723,3.585,2.179,1.918a.347.347,0,0,1,.027.489L45.1,43.244a.335.335,0,0,1-.478.026l-2.167-1.919a.335.335,0,0,1-.038-.477l1.924-2.185A.339.339,0,0,1,44.815,38.663Zm-3.407,8.23-2.174-1.936a.346.346,0,0,1-.021-.484L41.137,42.3a.348.348,0,0,1,.489-.027L43.788,44.2a.344.344,0,0,1,.034.494L41.9,46.855A.349.349,0,0,1,41.408,46.893Zm29.3-32.226a.333.333,0,0,1-.49.015L68.07,12.745a.348.348,0,0,1-.032-.483L69.993,10.1a.345.345,0,0,1,.477-.026l2.163,1.948a.348.348,0,0,1,.016.49Zm-6.173,13.9a.334.334,0,0,1-.477.026l-2.173-1.913a.35.35,0,0,1-.033-.5l1.924-2.173a.348.348,0,0,1,.489-.027l2.175,1.936a.344.344,0,0,1,.032.471Zm3.206-3.617a.337.337,0,0,1-.488.038l-2.163-1.937a.336.336,0,0,1-.032-.483L66.985,20.4a.349.349,0,0,1,.5-.022L69.648,22.3a.353.353,0,0,1,.028.5Zm3.206-3.617a.327.327,0,0,1-.483.032L68.3,19.449a.348.348,0,0,1-.039-.488L70.2,16.786a.338.338,0,0,1,.472-.02l2.186,1.924a.341.341,0,0,1,.026.478Zm2.937-8.187,2.162,1.925a.342.342,0,0,1,.032.483l-1.93,2.18a.352.352,0,0,1-.483.021L71.5,15.827a.327.327,0,0,1-.032-.483l1.919-2.168A.353.353,0,0,1,73.887,13.149ZM45.3,49.926a.343.343,0,0,1-.489.027l-2.151-1.937a.353.353,0,0,1-.027-.5l1.943-2.146a.339.339,0,0,1,.489-.027l2.158,1.943a.355.355,0,0,1,.027.489Zm3.232-3.571a.338.338,0,0,1-.472.02L45.9,44.42a.34.34,0,0,1-.026-.477l1.943-2.158a.35.35,0,0,1,.495-.021l2.14,1.95a.324.324,0,0,1,.027.477Zm3.255-3.585a.352.352,0,0,1-.5.028l-2.14-1.95a.349.349,0,0,1-.039-.489L51.063,38.2a.334.334,0,0,1,.478-.015L53.7,40.124a.339.339,0,0,1,.015.49Zm3.231-3.583a.346.346,0,0,1-.478.026l-2.163-1.948a.348.348,0,0,1-.027-.489L54.3,34.624a.35.35,0,0,1,.5-.022l2.146,1.944a.338.338,0,0,1,.021.484Zm3.243-3.572a.355.355,0,0,1-.49.015l-2.145-1.944a.349.349,0,0,1-.033-.494l1.949-2.152a.336.336,0,0,1,.483-.021l2.152,1.949a.341.341,0,0,1,.026.478Zm3.076-3.435a.342.342,0,0,1-.483.033l-2.168-1.931a.335.335,0,0,1-.038-.477l1.93-2.18a.349.349,0,0,1,.49-.015l2.173,1.913a.357.357,0,0,1,.033.5Zm10.024-4.01a.347.347,0,0,1-.484.021L68.71,26.26a.332.332,0,0,1-.033-.483L70.6,23.615a.335.335,0,0,1,.477-.038L73.265,25.5a.348.348,0,0,1,.021.484Zm-3.2,3.6a.342.342,0,0,1-.489.027L65.5,29.872a.332.332,0,0,1-.026-.466l1.93-2.192a.339.339,0,0,1,.472-.02l2.179,1.919a.343.343,0,0,1,.027.489ZM74.09,24.58,71.9,22.65a.346.346,0,0,1-.015-.478L73.8,19.993a.342.342,0,0,1,.483-.033l2.174,1.925a.347.347,0,0,1,.033.483l-1.93,2.18A.345.345,0,0,1,74.09,24.58Zm3.4-8.236,2.18,1.93a.346.346,0,0,1,.021.483l-1.918,2.179a.348.348,0,0,1-.49.027l-2.168-1.93a.337.337,0,0,1-.032-.483l1.924-2.174A.347.347,0,0,1,77.491,16.344ZM48.874,53.17a.347.347,0,0,1-.483.032l-2.153-1.961a.347.347,0,0,1-.021-.483l1.95-2.152a.329.329,0,0,1,.478-.015L50.8,50.534a.347.347,0,0,1,.032.483Zm3.242-3.584a.349.349,0,0,1-.489.027l-2.146-1.956a.339.339,0,0,1-.026-.477l1.961-2.152A.342.342,0,0,1,51.887,45l2.164,1.96a.346.346,0,0,1,.015.478ZM55.359,46a.347.347,0,0,1-.483.032L52.718,44.08A.335.335,0,0,1,52.7,43.6l1.937-2.151a.337.337,0,0,1,.489-.027l2.157,1.943a.347.347,0,0,1,.027.489ZM58.6,42.424a.335.335,0,0,1-.483.021L55.961,40.5a.338.338,0,0,1-.032-.471L57.9,37.866a.338.338,0,0,1,.471-.032l2.146,1.955a.345.345,0,0,1,.027.49Zm3.243-3.584a.348.348,0,0,1-.488.039L59.2,36.918a.338.338,0,0,1-.02-.472l1.943-2.169a.354.354,0,0,1,.489-.015L63.761,36.2a.352.352,0,0,1,.028.5Zm2.621-3.421L62.3,33.494A.357.357,0,0,1,62.265,33L64.2,30.837a.34.34,0,0,1,.477-.038l2.179,1.93a.348.348,0,0,1,.016.49l-1.913,2.173A.353.353,0,0,1,64.46,35.419Zm7.312-.438a.347.347,0,0,1-.484.021l-2.179-1.918a.349.349,0,0,1-.027-.489l1.925-2.174A.35.35,0,0,1,71.5,30.4l2.162,1.926a.341.341,0,0,1,.044.482Zm3.2-3.622a.338.338,0,0,1-.483.044l-2.174-1.936a.348.348,0,0,1-.021-.484L74.213,26.8a.349.349,0,0,1,.489-.027L76.876,28.7a.35.35,0,0,1,.021.495Zm3.212-3.611a.349.349,0,0,1-.489.027L75.521,25.85a.347.347,0,0,1-.038-.477l1.936-2.186a.347.347,0,0,1,.484-.009l2.173,1.913a.344.344,0,0,1,.039.488Zm2.924-8.2,2.168,1.93a.346.346,0,0,1,.033.483l-1.93,2.18a.346.346,0,0,1-.478.026l-2.179-1.93a.335.335,0,0,1-.021-.483l1.913-2.173A.349.349,0,0,1,81.108,19.55ZM52.463,56.406a.347.347,0,0,1-.489.027L49.817,54.49A.349.349,0,0,1,49.8,54l1.95-2.14a.336.336,0,0,1,.483-.033l2.163,1.949a.346.346,0,0,1,.021.483ZM55.7,52.84a.342.342,0,0,1-.484.009l-2.146-1.943a.35.35,0,0,1-.039-.489l1.955-2.158a.347.347,0,0,1,.484-.02l2.146,1.955a.347.347,0,0,1,.032.483Zm3.242-3.6a.352.352,0,0,1-.495.033L56.3,47.323a.347.347,0,0,1-.032-.483l1.96-2.153a.346.346,0,0,1,.478-.026l2.163,1.948a.337.337,0,0,1,.009.485Zm3.243-3.573a.342.342,0,0,1-.489.016L59.546,43.75a.349.349,0,0,1-.033-.494L61.462,41.1a.348.348,0,0,1,.489-.027L64.1,43.026a.347.347,0,0,1,.027.489Zm3.232-3.583a.352.352,0,0,1-.484.021l-2.152-1.949a.349.349,0,0,1-.027-.489l1.956-2.146a.346.346,0,0,1,.483-.033l2.152,1.961a.338.338,0,0,1,.02.472Zm2.671-3.465-2.18-1.93a.344.344,0,0,1-.026-.477l1.923-2.185a.346.346,0,0,1,.484-.021l2.179,1.918a.353.353,0,0,1,.027.489l-1.93,2.169A.34.34,0,0,1,68.089,38.624Zm7.305-.443a.348.348,0,0,1-.489.027l-2.18-1.93a.333.333,0,0,1-.031-.471l1.936-2.175A.337.337,0,0,1,75.1,33.6l2.179,1.918a.341.341,0,0,1,.033.483Zm3.189-3.61a.345.345,0,0,1-.477.026L75.92,32.673a.353.353,0,0,1-.015-.489l1.919-2.168a.346.346,0,0,1,.5-.033l2.162,1.925a.35.35,0,0,1,.038.489Zm2.93-8.2,2.18,1.93a.345.345,0,0,1,.026.477L81.8,30.96a.355.355,0,0,1-.489.027l-2.168-1.931a.341.341,0,0,1-.032-.483l1.93-2.168A.34.34,0,0,1,81.513,26.367Zm-22.235,29.7a.347.347,0,0,1-.483.032l-2.152-1.961a.337.337,0,0,1-.021-.472L58.571,51.5a.34.34,0,0,1,.478-.014l2.157,1.942a.348.348,0,0,1,.027.49Zm3.249-3.579a.349.349,0,0,1-.5.022l-2.151-1.938a.344.344,0,0,1-.022-.495L61.8,47.931a.353.353,0,0,1,.488-.039l2.158,1.955a.347.347,0,0,1,.021.483Zm3.226-3.577a.335.335,0,0,1-.479.015l-2.151-1.949a.339.339,0,0,1-.015-.478l1.943-2.157a.334.334,0,0,1,.477-.027l2.153,1.961a.347.347,0,0,1,.032.483Zm3.254-3.584a.353.353,0,0,1-.5.027L66.366,43.4a.342.342,0,0,1-.032-.483l1.948-2.164a.353.353,0,0,1,.484-.02l2.157,1.943a.35.35,0,0,1,.021.495Zm2.681-3.5L69.52,39.9a.353.353,0,0,1-.027-.489l1.93-2.168a.343.343,0,0,1,.489-.027L74.08,39.13a.352.352,0,0,1,.028.5l-1.926,2.162A.35.35,0,0,1,71.688,41.826Zm7.3-.444a.332.332,0,0,1-.471.032L76.337,39.49a.347.347,0,0,1-.021-.484l1.918-2.179a.35.35,0,0,1,.49-.027l2.168,1.931a.341.341,0,0,1,.038.477Zm2.936-8.2,2.18,1.93a.357.357,0,0,1,.022.5l-1.925,2.162a.346.346,0,0,1-.5.033l-2.162-1.925a.35.35,0,0,1-.033-.495l1.931-2.168A.346.346,0,0,1,81.929,33.183ZM66.111,55.73a.356.356,0,0,1-.5.033L63.464,53.8a.346.346,0,0,1-.027-.478l1.949-2.163a.349.349,0,0,1,.49-.016l2.151,1.938a.345.345,0,0,1,.021.495Zm3.231-3.583a.343.343,0,0,1-.484.021L66.7,50.225a.349.349,0,0,1-.027-.489l1.961-2.153a.345.345,0,0,1,.477-.026l2.158,1.955a.334.334,0,0,1,.015.478Zm3.237-3.578a.35.35,0,0,1-.477.027l-2.158-1.955a.347.347,0,0,1-.021-.484L71.866,44a.35.35,0,0,1,.5-.021l2.14,1.949a.341.341,0,0,1,.033.483Zm2.731-3.544-2.167-1.919a.348.348,0,0,1-.039-.488l1.936-2.175a.346.346,0,0,1,.478-.026L77.7,42.341a.354.354,0,0,1,.021.484L75.8,45A.342.342,0,0,1,75.31,45.025Z"/>
      <path class="cls-10" d="M40.581,52.826c-.513-.238-1.041-.46-1.579-.679A2.527,2.527,0,0,1,37.7,50.985,30.286,30.286,0,0,0,31.9,43.176a2.605,2.605,0,0,1-.779-1.65,26.137,26.137,0,0,0-2.264-9,2.618,2.618,0,0,1-.105-1.85A26.06,26.06,0,0,0,30.016,21.5a2.623,2.623,0,0,1,.6-1.729,30.314,30.314,0,0,0,4.9-8.4,2.488,2.488,0,0,1,1.166-1.3,30.589,30.589,0,0,0,7.819-5.8,2.484,2.484,0,0,1,1.649-.778,26.352,26.352,0,0,0,8.984-2.27,2.576,2.576,0,0,1,1.853-.1A26.478,26.478,0,0,0,66.17,2.392,2.562,2.562,0,0,1,67.9,2.98a28.74,28.74,0,0,0,6.2,3.94C63.049,20.666,55.636,35.354,44.867,48.591,43.462,50.154,41.977,51.513,40.581,52.826Z"/>
    </g>
    <g id="Layer_12" data-name="Layer 12">
      <path class="cls-11" d="M44.508,74.3c.031.321.053.641.068.96.007.159.013.318.017.477.3,3.252,5.014,5.072,5.228,7.32,1.66,5.514-5.729-.588-7.729,4.124q-.037.234-.069.465a17.783,17.783,0,0,0,.466,7.251,2.086,2.086,0,0,1-2.39,2.566c-3.544-.638-7.275-3.37-10.557-1.928a3.406,3.406,0,0,0-.413.213c-1.759,1.073-1.746,3.435-1.478,5.72a2.115,2.115,0,0,1-2.775,2.276c-5.037-1.832-8.52-6.805-12.641-9.74-.143-.079-.286-.16-.428-.241-3.156-2.244-7.439.433-9.795-.477-4.711-1.82.374-7.977.034-12.91-.033-.163-.064-.328-.092-.493q-.13-.744-.2-1.508C.683,67.178,9.39,57.185,21.2,56.06S43.441,63.1,44.508,74.3Z"/>
      <path class="cls-12" d="M44.088,73.461c.029.307.051.614.065.919.007.152.012.3.016.456.289,3.112,4.8,4.853,5,7,1.589,5.276-5.481-.563-7.395,3.946-.024.149-.046.3-.066.445a17,17,0,0,0,.446,6.938,2,2,0,0,1-2.287,2.456c-3.391-.611-6.961-3.225-10.1-1.846a3.12,3.12,0,0,0-.395.2c-1.683,1.026-1.671,3.286-1.415,5.473a2.023,2.023,0,0,1-2.655,2.177c-4.82-1.753-8.152-6.511-12.095-9.319-.138-.076-.274-.153-.41-.231-3.02-2.148-7.118.414-9.372-.457-4.509-1.741.358-7.633.032-12.352-.031-.157-.061-.314-.088-.473-.083-.474-.148-.956-.2-1.443C2.153,66.642,10.484,57.081,21.782,56S43.066,62.743,44.088,73.461Z"/>
      <path class="cls-13" d="M7.346,83.263a6.993,6.993,0,0,0-.238,2.188.784.784,0,0,0,.158.51.828.828,0,0,0,.7.141l1.928-.2a11.741,11.741,0,0,1,5.693.352,20.1,20.1,0,0,1,2.73,1.621,5.2,5.2,0,0,0,2.981.946,2.359,2.359,0,0,0,2.248-1.875"/>
      <g id="Layer_16" data-name="Layer 16">
        <path class="cls-14" d="M7.346,67.763a2.518,2.518,0,0,0,2.706.247"/>
        <path class="cls-14" d="M13.692,71.381c-.333-.019-.382-.483-.558-.767a.973.973,0,0,0-1.377-.114,2.817,2.817,0,0,0-.795,1.315"/>
        <path class="cls-14" d="M6.316,74.125A2.265,2.265,0,0,0,8.153,75.5"/>
        <path class="cls-14" d="M11.378,79.579c1.019.187,2.287.279,2.872-.577"/>
        <path class="cls-14" d="M18.986,77.8a4.087,4.087,0,0,0,2.082-.186"/>
        <path class="cls-14" d="M20.358,83.262a3.21,3.21,0,0,0-1.488-.388,1.1,1.1,0,0,0-1.069.932"/>
        <path class="cls-14" d="M25.216,80.322a1.022,1.022,0,0,0,1.32-.895"/>
        <path class="cls-14" d="M27.282,74.6l-1.148.247"/>
      </g>
    </g>
    <g id="Layer_10" data-name="Layer 10">
      <path class="cls-11" d="M75.843,73.779a20.2,20.2,0,0,1-.4,3.065c-.03.143-.061.286-.091.43-.861,4.447,4.063,7.782,1.859,10.725a2.368,2.368,0,0,1-.3.105,2.888,2.888,0,0,1-.318.07c-5.552.508-6.794,4.526-10.072,8.432a2.333,2.333,0,0,1-.457.116c-2.415.357-3.894-3.418-6.237-3.39a3.208,3.208,0,0,0-2.315,1.277l-.374.243c-3.24,2.111-6.366,4.2-10.08,2.729-1.981-1.13-2.72-6.278-7.262-7.037-.115-.07-.229-.142-.343-.215a23.615,23.615,0,0,1-1.967-1.4c-.114-.091-.227-.182-.339-.275-2.713-3-8.085,1.813-8.992-.28-2.887-3.223,1.466-8.092,1.4-12.34q-.039-.213-.075-.426a20.25,20.25,0,0,1-.234-4.384c.656-11.941,11.617-21.049,24.483-20.343S76.5,61.838,75.843,73.779Z"/>
      <path class="cls-15" d="M75.663,72.642a19.347,19.347,0,0,1-.385,2.921c-.028.137-.058.273-.087.411-.821,4.239,3.874,7.418,1.773,10.224a2.43,2.43,0,0,1-.283.1,2.867,2.867,0,0,1-.3.066c-5.292.485-6.476,4.316-9.6,8.039a2.212,2.212,0,0,1-.435.111c-2.3.34-3.712-3.259-5.946-3.232A3.061,3.061,0,0,0,58.187,92.5l-.357.232c-3.089,2.012-6.069,4-9.609,2.6-1.888-1.078-2.593-5.985-6.923-6.709-.11-.067-.219-.136-.327-.2A22.216,22.216,0,0,1,39.1,87.082q-.163-.129-.324-.261c-2.586-2.861-7.707,1.727-8.572-.268-2.753-3.072,1.4-7.714,1.339-11.764-.025-.135-.048-.27-.071-.406a19.32,19.32,0,0,1-.223-4.179c.625-11.384,11.074-20.066,23.34-19.393S76.287,61.258,75.663,72.642Z"/>
      <path class="cls-13" d="M48.316,84.09a4.6,4.6,0,0,1,3.851,2.681,8.787,8.787,0,0,0,.664,1.5,1.312,1.312,0,0,0,1.4.623,1.841,1.841,0,0,0,.62-.425,27.22,27.22,0,0,1,3.83-2.875,2.749,2.749,0,0,1,2.3-.561,8.415,8.415,0,0,1,1.093.68c1.307.728,2.91-.046,4.2-.807a9.187,9.187,0,0,0,2.793-2.186,8.4,8.4,0,0,1,1.065-1.394,2.207,2.207,0,0,1,1.41-.533"/>
      <g id="Layer_15" data-name="Layer 15">
        <path class="cls-14" d="M66.528,65.6a2.329,2.329,0,0,0,2.055-.307"/>
        <path class="cls-14" d="M62.047,69.5a4.26,4.26,0,0,1-1.824.206"/>
        <path class="cls-14" d="M56.341,74.3a3.309,3.309,0,0,0,2.021,1.813"/>
        <path class="cls-14" d="M62.275,74.243A2.578,2.578,0,0,0,63.8,72.916"/>
        <path class="cls-14" d="M68.338,72.224A2.064,2.064,0,0,0,70.4,70.49a2.551,2.551,0,0,0,2.156,1.466l.236-.633"/>
        <path class="cls-14" d="M46.626,78.436a2.414,2.414,0,0,1-1.8-.6.97.97,0,0,1-1.471.64"/>
        <path class="cls-14" d="M38.848,76.331c-.657.609-1.718-.963-2.455-.453-.379.262-.474,1-.929.921"/>
        <path class="cls-14" d="M36.04,80.6A1.139,1.139,0,0,1,34.6,80.3"/>
        <path class="cls-14" d="M41.556,82.489a1.477,1.477,0,0,0,1.619.8"/>
        <path class="cls-14" d="M54.347,80.217a10.7,10.7,0,0,0,2.426.254"/>
        <path class="cls-14" d="M62.463,80.032a1.579,1.579,0,0,0,1.952-1.206"/>
      </g>
    </g>
    <g id="Layer_9" data-name="Layer 9">
      <path class="cls-6" d="M67.3,42.2a23.824,23.824,0,0,1-.014,4.77q-.022.215-.048.426c-.963,4.6,3.085,7.708,4.877,11.395a1.607,1.607,0,0,1-1.98,2.226l-.024-.009c-.136-.054-.27-.111-.4-.166-4.887-2.494-5.6,1.926-7.108,5.1a1.5,1.5,0,0,1-.917.8c-2.085.611-5.689-.482-8.092,1.4q-.126.162-.246.327a8.625,8.625,0,0,0-1.8,6.033,1.6,1.6,0,0,1-2.327,1.548c-2.9-1.46-5.772-3.105-9.914-3.774l-.249.029c-.166.018-.332.036-.5.052a36.36,36.36,0,0,1-7.905-.085l-.226-.028c-4.91-2.194-7.216,5.064-9.4,3.268-4.273-2.6-4.758-7.574-8.147-11.092-.1-.091-.2-.183-.3-.276s-.208-.194-.313-.292C5.64,61.951,3.553,61.15,5.7,53.728c-.045-.133-.09-.266-.133-.4a23.808,23.808,0,0,1-1.038-5C3.072,33.361,15.94,19.857,33.274,18.165S65.844,27.236,67.3,42.2Z"/>
      <path class="cls-7" d="M67.308,41.054a22.9,22.9,0,0,1-.014,4.588c-.014.137-.03.273-.046.41-.927,4.423,2.967,7.413,4.691,10.96a1.545,1.545,0,0,1-1.9,2.141l-.024-.009c-.131-.051-.259-.106-.384-.159-4.7-2.4-5.389,1.852-6.838,4.907a1.438,1.438,0,0,1-.882.775c-2,.587-5.472-.464-7.783,1.345q-.122.156-.237.315a8.292,8.292,0,0,0-1.732,5.8,1.54,1.54,0,0,1-2.238,1.489c-2.791-1.405-5.552-2.987-9.537-3.63l-.239.028-.479.05a34.987,34.987,0,0,1-7.6-.082l-.217-.027C27.118,67.847,24.9,74.829,22.8,73.1c-4.11-2.5-4.577-7.285-7.836-10.669-.1-.088-.194-.176-.29-.265l-.3-.281c-6.377-1.837-8.385-2.608-6.317-9.747-.043-.128-.086-.256-.127-.384a22.893,22.893,0,0,1-1-4.81c-1.4-14.4,10.973-27.386,27.647-29.013S65.9,26.657,67.308,41.054Z"/>
      <path class="cls-16" d="M22.333,59.508a7.422,7.422,0,0,0,5.247,1.43,22.052,22.052,0,0,0,5.4-1.321,5.514,5.514,0,0,0-.037,2.414,1.882,1.882,0,0,0,1.728,1.452,2.32,2.32,0,0,0,1.1-.414c1.528-.95,2.9-2.5,4.693-2.456a10.309,10.309,0,0,1,3.226,1.129,6.717,6.717,0,0,0,6.159-.8c1.511-1.077,2.628-2.818,4.421-3.293.3-.079.625.432.33.352"/>
      <path class="cls-17" d="M35.086,25.124a17.76,17.76,0,0,1,21.656,6.388"/>
      <g id="Layer_13" data-name="Layer 13">
        <path class="cls-8" d="M20.493,44.039a2.438,2.438,0,0,1,1.441.927"/>
        <path class="cls-8" d="M28.372,42.918a.7.7,0,0,0,.887.25"/>
        <path class="cls-8" d="M35.725,39.949l2.038.365"/>
        <path class="cls-8" d="M26.041,36.177l.931.821"/>
        <path class="cls-8" d="M17.561,35.873a3.32,3.32,0,0,0,.582,2.341"/>
        <path class="cls-8" d="M37.791,33.472l1.746.62"/>
        <path class="cls-8" d="M47.442,40.976c.341-.212.711.194,1.023.447s1.006.048.779-.282"/>
        <path class="cls-8" d="M40.719,44.627c.765.345,1.665-.542,2.446-.235.47.186.676.718.945,1.146s.827.814,1.245.53"/>
        <path class="cls-8" d="M33.958,46.145l1.461.314"/>
        <path class="cls-8" d="M11.707,45.819a5.692,5.692,0,0,0,3.8,1.2"/>
        <path class="cls-8" d="M17.852,51.417a2.775,2.775,0,0,1,2.866,1.193"/>
        <path class="cls-8" d="M27.81,51.4h1.464"/>
        <path class="cls-8" d="M26.345,28.547h.879"/>
        <path class="cls-8" d="M48.07,33.447l1.145.635"/>
        <path class="cls-8" d="M57.4,42.9h.586"/>
        <path class="cls-8" d="M46.236,52.387a6.064,6.064,0,0,0,2.665.161"/>
        <path class="cls-8" d="M59.452,51.4H56.815"/>
      </g>
    </g>
  </g>
</svg>
