<svg xmlns="http://www.w3.org/2000/svg" viewBox="0 0 127.58 200.001">
  <defs>
    <style>
      .cls-1 {
        isolation: isolate;
      }

      .cls-2 {
        fill: #1e224f;
      }

      .cls-3 {
        fill: #4b4e72;
      }

      .cls-4 {
        fill: #a5a7b9;
        opacity: 0.29;
      }

      .cls-5 {
        fill: #35241c;
      }

      .cls-6 {
        fill: #a1e2d6;
      }

      .cls-20, .cls-7 {
        fill: #332723;
      }

      .cls-8 {
        fill: #473026;
      }

      .cls-9 {
        fill: #bf8d51;
      }

      .cls-10 {
        fill: #42210b;
      }

      .cls-11 {
        fill: #e6e6e6;
      }

      .cls-12 {
        fill: #d3a25e;
      }

      .cls-13 {
        fill: #71091d;
      }

      .cls-14 {
        fill: #e792a2;
      }

      .cls-15, .cls-19 {
        fill: none;
      }

      .cls-15 {
        stroke: #9e005d;
        stroke-miterlimit: 10;
        mix-blend-mode: soft-light;
      }

      .cls-16 {
        fill: #960c27;
      }

      .cls-17 {
        fill: #c7b299;
      }

      .cls-18 {
        fill: #d8c9c3;
      }

      .cls-19, .cls-20 {
        stroke: #332723;
        stroke-linecap: round;
        stroke-linejoin: round;
      }

      .cls-21 {
        fill: #534741;
        opacity: 0.57;
        mix-blend-mode: hard-light;
      }
    </style>
  </defs>
  <g class="cls-1">
    <g id="plate">
      <path class="cls-2" d="M126.58,175.081a6.562,6.562,0,0,1-.85,2.98c-.01.02-.02.03-.03.05-3.23,6.1-15.15,14.46-31.79,19.66A50.671,50.671,0,0,1,78.88,200H48.7c-.11,0-.21,0-.32-.01a50.241,50.241,0,0,1-14.71-2.22C17.02,192.571,5.1,184.2,1.88,178.1c-.01-.01-.02-.03-.03-.04a6.562,6.562,0,0,1-.85-2.98c0-.16.01-.31.02-.47.49-4.81,9.1-9.45,22.42-12.76,1.48-.37,3.02-.72,4.61-1.05q1.395-.3,2.85-.57c2.68-.51,5.49-.96,8.41-1.36,2.36-.32,4.8-.61,7.31-.85h.01c5.45-.54,11.21-.87,17.16-.98,5.95.11,11.71.44,17.17.98h.01a163.193,163.193,0,0,1,23.18,3.83c13.32,3.31,21.92,7.95,22.41,12.76C126.57,174.771,126.58,174.921,126.58,175.081Z"/>
      <g>
        <path class="cls-3" d="M63.79,193.621c-6.016,0-11.955-.243-17.652-.722-12.986-1.092-24.626-3.412-32.777-6.531-6.158-2.356-10.16-5.044-11.9-7.988l-.015-.022A6.45,6.45,0,0,1,.5,175.081c0-.17.01-.329.021-.5.48-5.474,8.578-10.372,22.8-13.809,1.425-.345,2.942-.679,4.51-.994.894-.18,1.8-.351,2.722-.511,2.728-.489,5.633-.924,8.635-1.294,1.887-.231,3.867-.441,6.055-.642,6.033-.525,12.272-.792,18.546-.792,6.315,0,12.554.27,18.544.8a150.289,150.289,0,0,1,21.934,3.431c14.216,3.436,22.31,8.334,22.79,13.793.012.181.022.342.022.514a6.428,6.428,0,0,1-.917,3.23c-1.77,3.007-5.774,5.7-11.936,8.046C102.181,190.974,83.8,193.621,63.79,193.621Z"/>
        <path class="cls-2" d="M63.79,157.041c6.44,0,12.65.28,18.5.8a150.326,150.326,0,0,1,21.86,3.42c13.33,3.22,21.94,8,22.41,13.35.01.16.02.31.02.47a5.9,5.9,0,0,1-.85,2.98c-.01.02-.02.03-.03.05-1.7,2.89-5.78,5.54-11.65,7.78-11.46,4.39-29.7,7.23-50.26,7.23-6.11,0-12.02-.25-17.61-.72-13.19-1.11-24.59-3.42-32.64-6.5-5.88-2.25-9.97-4.91-11.66-7.8-.01-.01-.02-.03-.03-.04a5.9,5.9,0,0,1-.85-2.98c0-.16.01-.31.02-.47.47-5.35,9.09-10.13,22.42-13.35,1.44-.35,2.94-.68,4.49-.99.89-.18,1.79-.35,2.71-.51q4.11-.735,8.61-1.29c1.96-.24,3.98-.45,6.04-.64,5.85-.51,12.06-.79,18.5-.79m0-1c-6.291,0-12.545.267-18.587.794-2.232.206-4.217.416-6.075.643-3.005.371-5.92.808-8.664,1.3-.9.155-1.817.329-2.732.514-1.573.314-3.1.65-4.528,1C8.756,163.779.524,168.834.024,174.523c-.014.221-.024.385-.024.558a6.915,6.915,0,0,0,.984,3.48l.066.114.019.02c1.814,3.02,5.888,5.758,12.114,8.14C21.377,189.97,33.066,192.3,46.1,193.4c5.71.481,11.663.724,17.694.724,20.064,0,38.513-2.659,50.618-7.3,6.268-2.392,10.358-5.154,12.154-8.207h0c.015-.023.029-.046.043-.072a6.909,6.909,0,0,0,.975-3.464c0-.173-.01-.337-.02-.509-.5-5.739-8.733-10.794-23.175-14.283a150.586,150.586,0,0,0-22.008-3.444c-6-.534-12.254-.8-18.587-.8Z"/>
      </g>
      <path class="cls-4" d="M114.05,185.891c-11.46,4.39-29.7,7.23-50.26,7.23-20.54,0-38.79-2.84-50.25-7.22,3.83-6.61,24.87-11.67,50.25-11.67S110.19,179.281,114.05,185.891Z"/>
    </g>
    <g id="mint_chocolate_chip" data-name="mint chocolate chip">
      <path class="cls-5" d="M98.841,185.765a116.193,116.193,0,0,1-70.092,0c-3.1-1.125-6.609-5.034-6.609-8.485v-1.133c0-3.451,2.51-3.878,5.609-5a122.762,122.762,0,0,1,72.092,0c3.1,1.124,5.608,1.552,5.609,5v1.133C105.45,180.731,101.94,184.64,98.841,185.765Z"/>
      <path class="cls-6" d="M104.15,154.931v14.49a8.084,8.084,0,0,1-.734,3.283,9.907,9.907,0,0,1-6.1,5.577,137.247,137.247,0,0,1-67.048,0,9.907,9.907,0,0,1-6.1-5.577,8.084,8.084,0,0,1-.734-3.283v-14.49a8.251,8.251,0,0,1,.861-3.566,9.864,9.864,0,0,1,5.97-5.294,137.247,137.247,0,0,1,67.048,0,9.864,9.864,0,0,1,5.97,5.294A8.251,8.251,0,0,1,104.15,154.931Z"/>
      <g id="Layer_14" data-name="Layer 14">
        <path class="cls-7" d="M29.617,162.946a15.1,15.1,0,0,1-1.563-2.156.666.666,0,0,1-.135-.493.633.633,0,0,1,.266-.316,5.561,5.561,0,0,1,1.934-.914,5.068,5.068,0,0,1,1.3,3.343,8.049,8.049,0,0,1-1.98.62Z"/>
        <path class="cls-7" d="M32.027,169.305a.842.842,0,0,1,.542-.819,1.126,1.126,0,0,1,1,.135.678.678,0,0,1,.317.41.891.891,0,0,1-.1.506l-.638,1.506a.351.351,0,0,1-.1.153.341.341,0,0,1-.15.049,2.607,2.607,0,0,1-1.368-.056,1.039,1.039,0,0,1-.7-1.072,2.892,2.892,0,0,0,1.062-.879Z"/>
        <path class="cls-7" d="M42.447,166.63c.246.224.63.108.96.071.23-.026.462-.006.692-.026a1.99,1.99,0,0,0,1.145-.5c.224-.2.4-.548.226-.792Q44.6,165,43.7,164.7a1.21,1.21,0,0,0-1.151.034,1.167,1.167,0,0,0-.256.977C42.291,166.01,42.2,166.4,42.447,166.63Z"/>
        <path class="cls-7" d="M41.6,176.711a1.925,1.925,0,0,1,1.072-.125l.8.06a.621.621,0,0,1,.242.051.633.633,0,0,1,.254.447l.424,1.792-3.081.166c-.269.015-.719.036-.661-.353.048-.315.254-.594.31-.913A1.456,1.456,0,0,1,41.6,176.711Z"/>
        <path class="cls-7" d="M47.149,175.207a.435.435,0,0,0,.045.243.451.451,0,0,0,.4.136l1.652-.011q.31-1.331.488-2.687a12.5,12.5,0,0,0-2.36.095.27.27,0,0,0-.3.326C47.081,173.951,47.152,174.565,47.149,175.207Z"/>
        <path class="cls-7" d="M62.055,176.165a7.489,7.489,0,0,1,2.574-.286,19.3,19.3,0,0,1,.048,2.568.157.157,0,0,1-.189.181l-1.185.06a4.678,4.678,0,0,1-1.157.03c-.24-.052-.27-.2-.218-.413a3.367,3.367,0,0,0,.124-.836A10.421,10.421,0,0,1,62.055,176.165Z"/>
        <path class="cls-7" d="M57.557,166.109a.24.24,0,0,1,.229-.374,16.475,16.475,0,0,1,2.44-.218,1.389,1.389,0,0,1,1.017.27,1.418,1.418,0,0,1,.265,1.118,1.231,1.231,0,0,1-.352.943c-.192.139-.415.081-.634.118a1.809,1.809,0,0,0-.608.3,1.605,1.605,0,0,1-.929.385,1.116,1.116,0,0,1-.853-.79C57.925,167.283,57.748,166.692,57.557,166.109Z"/>
        <path class="cls-7" d="M72.121,160.421a2.77,2.77,0,0,1,.881.873l1.046,1.409a22.267,22.267,0,0,1-4,1.151.533.533,0,0,1-.362-.02c-.126-.073-.167-.231-.223-.366-.283-.69-1.117-.983-1.532-1.6a.44.44,0,0,1-.08-.431.484.484,0,0,1,.226-.184,5.811,5.811,0,0,1,.782-.326,2.092,2.092,0,0,0,.552-.247.694.694,0,0,0,.2-.2c.041-.068.044-.188.106-.218s.293.025.375.026c.133,0,.265,0,.4-.012.263-.015.527-.04.791-.034A1.9,1.9,0,0,1,72.121,160.421Z"/>
        <path class="cls-7" d="M71.247,171.1a.881.881,0,0,1,.089.875,1.162,1.162,0,0,1-1.555-.453.223.223,0,0,1-.02-.215.236.236,0,0,1,.161-.082,3.908,3.908,0,0,1,1.182-.048Z"/>
        <path class="cls-7" d="M82.491,177.479a.431.431,0,0,1,.262.037.421.421,0,0,1,.142.2,5.279,5.279,0,0,1,.474,1.569,7.161,7.161,0,0,0-1.124.038,5.388,5.388,0,0,0-.977.432,1.119,1.119,0,0,1-1.07-.181c-.549-.377-1.131-1.315-.218-1.608A10.967,10.967,0,0,1,82.491,177.479Z"/>
        <path class="cls-7" d="M80.229,168.608a8.48,8.48,0,0,1,1.887-.161.582.582,0,0,1,.281.058,1.523,1.523,0,0,1,.175.148.772.772,0,0,0,.95-.185c.2-.187.428-.439.688-.357a.651.651,0,0,1,.287.247l.832,1.066a.241.241,0,0,1,.072.185c-.016.072-.091.111-.158.144a3.159,3.159,0,0,0-.93.684,1.643,1.643,0,0,1-.5.437,1.232,1.232,0,0,1-.44.078,5.514,5.514,0,0,1-2.088-.218.876.876,0,0,1-.541-.368,2.374,2.374,0,0,1-.137-.6A6.237,6.237,0,0,0,80.229,168.608Z"/>
        <path class="cls-7" d="M86.271,160.864a6.786,6.786,0,0,1-.983-1.917,8.866,8.866,0,0,1,2.174-.176,10.945,10.945,0,0,1,.327,2.751,1.649,1.649,0,0,1-1.836-.987Z"/>
        <path class="cls-7" d="M92.919,171.727a2.419,2.419,0,0,0-1.157.284.534.534,0,0,0-.212.172.611.611,0,0,0,.011.5l.4,1.267a12.8,12.8,0,0,1,2.936-.885q.156-1.084.227-2.178l-1.207-.013a1.212,1.212,0,0,0-.394.038,1.254,1.254,0,0,0-.438.3l-.649.606Z"/>
        <path class="cls-7" d="M99.183,170.939q.639-.9,1.3-1.784c.079-.1.2-.223.322-.17a.29.29,0,0,1,.1.082l1.439,1.627a.369.369,0,0,1,.115.213.378.378,0,0,1-.088.214,5.325,5.325,0,0,0-.572,1.11c-.043.113-.1.571-.283.532-.137-.029-.28-.366-.35-.468a1.739,1.739,0,0,0-.605-.564Z"/>
        <path class="cls-7" d="M95.059,164.624a.731.731,0,0,0,.424.216l.912.233a.266.266,0,0,0,.155.008.27.27,0,0,0,.132-.142l.861-1.561a.146.146,0,0,0,.026-.1.14.14,0,0,0-.065-.071c-.352-.241-.739-.415-1.1-.641.1-.448-.526-.966-.884-.566a3.393,3.393,0,0,0-.43,1.559C95.039,163.855,94.85,164.35,95.059,164.624Z"/>
        <path class="cls-7" d="M99.968,155.935a11.946,11.946,0,0,0,2.038-1.866,2.585,2.585,0,0,0,.771,1.239c-.1.188-.308.281-.474.413s-.293.382-.16.547c.035.043.085.078.093.133s-.04.112-.086.153a9.786,9.786,0,0,1-1.791,1.37c-.484.262-.459-.618-.511-.9C99.778,156.65,99.605,156.2,99.968,155.935Z"/>
      </g>
      <path class="cls-8" d="M105.45,144.931v1.08a9.019,9.019,0,0,1-2.18,5.55,7.955,7.955,0,0,1-3.43,2.49,132,132,0,0,1-17.55,3.79l-1.32.18h-.01a128.956,128.956,0,0,1-34.33,0h-.01c-.44-.06-.89-.12-1.33-.19-2.1-.3-4.2-.66-6.29-1.06-3.77-.74-7.53-1.65-11.25-2.72a7.955,7.955,0,0,1-3.43-2.49,9.019,9.019,0,0,1-2.18-5.55v-1.08a4.352,4.352,0,0,1,.3-1.68c.76-1.78,2.85-2.21,5.31-3.06,2.96-.86,5.93-1.6,8.92-2.24a128.909,128.909,0,0,1,58.28.93q2.445.6,4.89,1.31C102.94,141.261,105.45,141.661,105.45,144.931Z"/>
    </g>
    <g id="vanilla_chocolate_chip" data-name="vanilla chocolate chip">
      <path class="cls-9" d="M96.85,132.951v1.13a8.278,8.278,0,0,1-1.9,4.8,11.226,11.226,0,0,1-4.71,3.69,119.11,119.11,0,0,1-35.05,5.41,112.819,112.819,0,0,1-17.53-1.37,124.487,124.487,0,0,1-15.22-3.36c-.76-.22-1.52-.45-2.29-.68-3.1-1.13-6.61-5.04-6.61-8.49v-1.13a3.654,3.654,0,0,1,2.04-3.61,25.927,25.927,0,0,1,3.57-1.39,124.411,124.411,0,0,1,16.21-3.79,122.479,122.479,0,0,1,55.88,3.79,26.268,26.268,0,0,1,3.56,1.39A3.652,3.652,0,0,1,96.85,132.951Z"/>
      <g id="Layer_11" data-name="Layer 11">
        <path class="cls-10" d="M25.721,133.975a1.407,1.407,0,0,1,.86.793,3.156,3.156,0,0,1,.237,1.176,8.78,8.78,0,0,1-.331,2.861c-.042.147-.179.33-.3.243a1.173,1.173,0,0,0-.081-.933.775.775,0,0,0-.272-.3c-.34-.2-.77-.006-1.112.191a1.208,1.208,0,0,1-1.113.216c-.652-.346-.33-1.475-.112-1.982a8.55,8.55,0,0,1,1.174-1.509C24.923,134.376,25.205,133.832,25.721,133.975Z"/>
        <path class="cls-10" d="M53.773,146.379a1.41,1.41,0,0,1-.949.684,3.186,3.186,0,0,1-1.2,0,8.823,8.823,0,0,1-2.738-.9c-.136-.071-.287-.242-.176-.348a1.167,1.167,0,0,0,.929.106.759.759,0,0,0,.345-.207c.265-.293.16-.753.035-1.128a1.2,1.2,0,0,1,.01-1.133c.469-.57,1.511-.03,1.964.285a8.557,8.557,0,0,1,1.245,1.452C53.538,145.517,54.015,145.9,53.773,146.379Z"/>
        <path class="cls-10" d="M83.255,142.725a9.816,9.816,0,0,0,2.1.089c.138-.008.211-.258.219-.363a.888.888,0,0,0-.173-.532c-.145-.218-.379-.36-.507-.583a2.941,2.941,0,0,1,.018-2.127c.042-.189.245-.762,0-.871-.2-.087-.517.213-.658.323a4.388,4.388,0,0,1-1.415.742c-.306.1-.621.166-.916.292a2.5,2.5,0,0,0-1.3,2.115.107.107,0,0,0,.006.071.1.1,0,0,0,.045.033A8.865,8.865,0,0,0,83.255,142.725Z"/>
      </g>
      <path class="cls-11" d="M95.55,111.741v14.48a8.012,8.012,0,0,1-.734,3.283,9.907,9.907,0,0,1-6.1,5.577,137.259,137.259,0,0,1-67.048,0,9.928,9.928,0,0,1-6.108-5.579,8.027,8.027,0,0,1-.733-3.283v-14.48a8.3,8.3,0,0,1,.861-3.586,9.952,9.952,0,0,1,5.98-5.286,137.259,137.259,0,0,1,67.048,0,7.322,7.322,0,0,1,1.806.743,10.617,10.617,0,0,1,4.164,4.551A8.259,8.259,0,0,1,95.55,111.741Z"/>
      <path class="cls-12" d="M96.85,101.741v1.07a9.019,9.019,0,0,1-2.18,5.55,7.955,7.955,0,0,1-3.43,2.49,129.234,129.234,0,0,1-56.69,3.47,131.516,131.516,0,0,1-15.4-3.47,7.869,7.869,0,0,1-3.44-2.5,9.039,9.039,0,0,1-2.17-5.54v-1.07c0-3.27,2.51-3.68,5.61-4.74,2.09-.6,4.19-1.16,6.3-1.65,2.46-.59,4.93-1.09,7.4-1.53A129.13,129.13,0,0,1,91.24,97a21.047,21.047,0,0,1,3.96,1.53A3.428,3.428,0,0,1,96.85,101.741Z"/>
      <g id="Layer_9" data-name="Layer 9">
        <path class="cls-10" d="M21.954,102.4a9.877,9.877,0,0,1-1.4,1.566c-.1.092-.332-.029-.413-.1a.9.9,0,0,1-.261-.495c-.055-.256.006-.522-.064-.77-.207-.729-.943-1.1-1.54-1.469-.164-.1-.717-.355-.62-.611.076-.2.513-.222.69-.246a4.365,4.365,0,0,0,1.517-.5c.283-.152.553-.329.848-.454a2.507,2.507,0,0,1,2.424.541.1.1,0,0,1,.047.053.1.1,0,0,1-.007.055A8.892,8.892,0,0,1,21.954,102.4Z"/>
        <path class="cls-10" d="M66.441,108.949a9.816,9.816,0,0,0,2.1.089c.138-.008.211-.258.219-.364a.893.893,0,0,0-.173-.532c-.145-.217-.379-.359-.507-.582a2.943,2.943,0,0,1,.018-2.128c.042-.188.245-.761,0-.87-.2-.087-.517.213-.658.323a4.366,4.366,0,0,1-1.415.741c-.306.1-.621.167-.916.292a2.508,2.508,0,0,0-1.3,2.116.1.1,0,0,0,.006.07.11.11,0,0,0,.045.034A8.865,8.865,0,0,0,66.441,108.949Z"/>
        <path class="cls-10" d="M41.438,105.662a1.405,1.405,0,0,1,.859.793,3.157,3.157,0,0,1,.238,1.176,8.808,8.808,0,0,1-.331,2.861c-.042.147-.18.33-.306.243a1.165,1.165,0,0,0-.081-.933.765.765,0,0,0-.271-.3c-.341-.2-.77-.006-1.113.191s-.763.4-1.112.216c-.652-.346-.331-1.475-.112-1.982a8.586,8.586,0,0,1,1.174-1.509C40.64,106.063,40.921,105.519,41.438,105.662Z"/>
        <path class="cls-10" d="M82.125,108.526a1.406,1.406,0,0,1-1.157-.17,3.2,3.2,0,0,1-.86-.836,8.809,8.809,0,0,1-1.341-2.55c-.048-.145-.037-.373.116-.372a1.171,1.171,0,0,0,.593.724.766.766,0,0,0,.391.091c.395-.026.639-.429.811-.785s.4-.762.8-.806c.733-.082,1.105,1.031,1.21,1.573a8.539,8.539,0,0,1-.118,1.908C82.558,107.744,82.632,108.352,82.125,108.526Z"/>
        <path class="cls-10" d="M33.064,100.322a3.5,3.5,0,0,1,1.452-.584c.311-.057.717-.191.7-.507a.631.631,0,0,0-.3-.408,47.765,47.765,0,0,0-3.961-2.889.575.575,0,0,0-.418-.129.422.422,0,0,0-.223.155,4.118,4.118,0,0,0-.439,3.746c.422,1.2,1.608,2.616,2.6,2.613.029,0-.077-.319-.083-.337a1.209,1.209,0,0,1,.219-1.238A2.484,2.484,0,0,1,33.064,100.322Z"/>
        <path class="cls-10" d="M89.072,102.946a3.51,3.51,0,0,1-.5,1.484c-.159.274-.319.67-.066.859a.628.628,0,0,0,.5.039,47.622,47.622,0,0,0,4.767-1.142.565.565,0,0,0,.369-.234.417.417,0,0,0,.027-.27,4.117,4.117,0,0,0-2.567-2.763c-1.186-.456-3.034-.473-3.677.287-.019.022.293.147.311.155a1.211,1.211,0,0,1,.8.969A2.462,2.462,0,0,1,89.072,102.946Z"/>
        <path class="cls-10" d="M35.047,102.056a5.451,5.451,0,0,0,1.181,2.386,1.49,1.49,0,0,0-.263-2.919c-.415-.038-.933.251-.848.66Z"/>
        <path class="cls-10" d="M51.674,100.638a.523.523,0,0,1,.329.069.552.552,0,0,1,.14.183l1.126,2a.306.306,0,0,1,.057.215.3.3,0,0,1-.126.149,11.635,11.635,0,0,1-3.909,1.9,11.742,11.742,0,0,1-.11-1.6c.008-.43.093-.85.092-1.28,0-.653,0-1.094.7-1.338A5.557,5.557,0,0,1,51.674,100.638Z"/>
        <path class="cls-10" d="M59.554,107.486l.836-.156c.1.592.64,1.057.672,1.657a.389.389,0,0,1-.07.279.449.449,0,0,1-.144.1,4.716,4.716,0,0,1-1.173.423c-.248.054-.549.127-.7-.136a6.607,6.607,0,0,1-.242-.769c-.135-.331-.345-.666-.077-1A1.48,1.48,0,0,1,59.554,107.486Z"/>
      </g>
    </g>
    <g id="red_velvet_strawberry" data-name="red velvet strawberry">
      <path class="cls-13" d="M105.45,87.871V89c0,3.45-3.51,7.36-6.61,8.48-1.22.37-2.43.72-3.64,1.05a115.459,115.459,0,0,1-42.22,3.85c-1.23-.12-2.46-.26-3.7-.42a119.682,119.682,0,0,1-14.07-2.69c-.65-.15-1.3-.32-1.95-.5-1.2-.32-2.41-.66-3.62-1.02-.3-.09-.59-.18-.89-.27a9.923,9.923,0,0,1-3.3-2.13c-1.86-1.73-3.31-4.13-3.31-6.35v-1.13a3.652,3.652,0,0,1,2.05-3.61,26.2,26.2,0,0,1,3.56-1.4c1.47-.45,2.94-.87,4.42-1.26a122.8,122.8,0,0,1,67.67,1.26,26.2,26.2,0,0,1,3.56,1.4A3.652,3.652,0,0,1,105.45,87.871Z"/>
      <path class="cls-14" d="M104.15,66.651v14.49a8.084,8.084,0,0,1-.734,3.283A9.907,9.907,0,0,1,97.319,90a137.247,137.247,0,0,1-67.048,0,9.907,9.907,0,0,1-6.1-5.577,8.084,8.084,0,0,1-.734-3.283V66.651a8.251,8.251,0,0,1,.861-3.566,9.864,9.864,0,0,1,5.97-5.294,137.247,137.247,0,0,1,67.048,0,9.864,9.864,0,0,1,5.97,5.294A8.251,8.251,0,0,1,104.15,66.651Z"/>
      <g id="Layer_10" data-name="Layer 10">
        <path class="cls-15" d="M30.326,70.866l.293.293"/>
        <path class="cls-15" d="M30.3,74.7l.462.415"/>
        <path class="cls-15" d="M34.556,76.616a1.331,1.331,0,0,1,.882.133"/>
        <path class="cls-15" d="M32.058,80.128a.739.739,0,0,0,.3.584"/>
        <path class="cls-15" d="M38.221,81.149l.733.148"/>
        <path class="cls-15" d="M42.326,77.048h.88"/>
        <path class="cls-15" d="M38.513,73.236h.88"/>
        <path class="cls-15" d="M26.489,78.955h.734"/>
        <path class="cls-15" d="M28.836,85.26h.733"/>
        <path class="cls-15" d="M36.167,87.46h.88"/>
        <path class="cls-15" d="M46.138,87.46h.88"/>
        <path class="cls-15" d="M45.259,83.06h.586"/>
        <path class="cls-15" d="M47.751,73.529h.734"/>
        <path class="cls-15" d="M49.511,78.661h.733"/>
        <path class="cls-15" d="M25.023,68.1h.44"/>
        <path class="cls-15" d="M25.465,73.1a.671.671,0,0,1,.727.289"/>
        <path class="cls-15" d="M55.963,73.089h.88"/>
        <path class="cls-15" d="M56.256,80.128h.44"/>
        <path class="cls-15" d="M53.177,87.313h.586"/>
        <path class="cls-15" d="M56.843,91.859h.733"/>
        <path class="cls-15" d="M62.837,92.486a1.732,1.732,0,0,0,1.042.1"/>
        <path class="cls-15" d="M47.9,91.712h.293"/>
        <path class="cls-15" d="M59.336,85.407h.586"/>
        <path class="cls-15" d="M63.588,80.274h.587"/>
        <path class="cls-15" d="M62.415,74.849h.293"/>
        <path class="cls-15" d="M70.92,73.823h.88"/>
        <path class="cls-15" d="M69.163,77.792a1.157,1.157,0,0,1,.885.122"/>
        <path class="cls-15" d="M67.987,83.647H69.16"/>
        <path class="cls-15" d="M64.463,87.765l.437.156"/>
        <path class="cls-15" d="M71.946,90.979h.88"/>
        <path class="cls-15" d="M79.113,91.008a.958.958,0,0,0,1.042-.032"/>
        <path class="cls-15" d="M78.545,86.14h.586"/>
        <path class="cls-15" d="M75.172,80.421h.147"/>
        <path class="cls-15" d="M78.105,76.609h.586"/>
        <path class="cls-15" d="M81.771,80.274h.44"/>
        <path class="cls-15" d="M85.584,85.84a.988.988,0,0,0,.734-.137"/>
        <path class="cls-15" d="M93.065,87.008a.824.824,0,0,0,.741-.12"/>
        <path class="cls-15" d="M91.888,82.767h.587"/>
        <path class="cls-15" d="M87.929,78.368h.587"/>
        <path class="cls-15" d="M82.357,72.5h.733"/>
        <path class="cls-15" d="M90.422,70.157h1.027"/>
        <path class="cls-15" d="M94.088,73.529h.733"/>
        <path class="cls-15" d="M97.174,77.622a.348.348,0,0,0,.436-.132"/>
        <path class="cls-15" d="M95.994,82.767h.294"/>
        <path class="cls-15" d="M99.227,85.244a.533.533,0,0,0,.589-.122"/>
        <path class="cls-15" d="M101.713,81.3h.587"/>
        <path class="cls-15" d="M100.54,73.969h.44"/>
        <path class="cls-15" d="M98.34,70.157h.587"/>
        <path class="cls-15" d="M101.566,67.077h.294"/>
      </g>
      <path class="cls-16" d="M105.45,56.651v1.08a9.019,9.019,0,0,1-2.18,5.55,7.955,7.955,0,0,1-3.43,2.49,129.2,129.2,0,0,1-67.26,1.29q-2.43-.6-4.83-1.29a7.955,7.955,0,0,1-3.43-2.49,9.019,9.019,0,0,1-2.18-5.55v-1.08c0-3.27,2.51-3.67,5.61-4.74.31-.09.61-.18.92-.26,2.32-.65,4.64-1.24,6.98-1.75a129.227,129.227,0,0,1,59.76.81c1.48.38,2.96.77,4.43,1.2C102.94,52.981,105.45,53.381,105.45,56.651Z"/>
    </g>
    <g id="cookies_and_cream" data-name="cookies and cream">
      <path class="cls-5" d="M102.07,41.081v1.13c0,3.46-3.51,7.37-6.61,8.49a.09.09,0,0,1-.05.01A115.44,115.44,0,0,1,34.83,53.2q-3.075-.675-6.16-1.55c-1.1-.29-2.2-.61-3.3-.95-3.1-1.12-6.61-5.03-6.61-8.49v-1.13a3.652,3.652,0,0,1,2.05-3.61,9.87,9.87,0,0,1,1.6-.7c.14-.05.29-.11.44-.16.48-.17.99-.34,1.52-.53,3.15-.96,6.32-1.8,9.51-2.5.9-.2,1.79-.39,2.69-.56q2.745-.555,5.5-.97c1.29-.2,2.59-.37,3.88-.52a121.991,121.991,0,0,1,23.63-.52c.68.05,1.37.1,2.05.17,3.23.3,6.44.72,9.65,1.28.91.15,1.82.32,2.73.5,1.21.24,2.43.5,3.64.77q2.8.645,5.58,1.41c1.08.3,2.16.61,3.23.94.26.1.52.19.77.27a17.911,17.911,0,0,1,2.8,1.12A3.654,3.654,0,0,1,102.07,41.081Z"/>
      <path class="cls-17" d="M100.78,19.871v14.48a8.084,8.084,0,0,1-.734,3.283,9.912,9.912,0,0,1-6.107,5.589,137.259,137.259,0,0,1-67.048,0,9.9,9.9,0,0,1-6.1-5.587,8.084,8.084,0,0,1-.734-3.283V19.871a8.293,8.293,0,0,1,.861-3.576,9.88,9.88,0,0,1,5.97-5.284,137.259,137.259,0,0,1,67.048,0A9.29,9.29,0,0,1,98.9,14.614a10.116,10.116,0,0,1,1.009,1.679A8.147,8.147,0,0,1,100.78,19.871Z"/>
      <g id="Layer_12" data-name="Layer 12">
        <path class="cls-18" d="M48.97,30.991l-3.02.54-3.92.69a.06.06,0,0,0-.04.01,2.01,2.01,0,0,0-.94.34c-.59.47-.45,1.29-.12,2.03a5.376,5.376,0,0,0,.39.71l.52.79,1.49,2.3a1.077,1.077,0,0,1-.58,1.63,10.657,10.657,0,0,1-4.13.38A10.333,10.333,0,0,1,34.37,39c-1.23-.73-2.29-1.71-3.52-2.44a5.127,5.127,0,0,0-4.09-.75c-1.29.42-2.42,1.63-3.91.8a.746.746,0,0,1-.12-.07,3.431,3.431,0,0,1-1.3-1.63l-1.37-3.34v-10.7a7.571,7.571,0,0,1,.95,2.09c.49,1.71,1.05,3.4,1.66,5.08a5.843,5.843,0,0,0,1.63,2.7c2.2,1.7,5.79-.18,8.04,1.45.54.4,1.02.99,1.54,1.39a1.642,1.642,0,0,0,1.73.34,1.8,1.8,0,0,0,.96-.9,2.578,2.578,0,0,0,.26-1.14c0-.58.34-1.82-.34-2.36-.59-.45-1.44-.05-2.17-.17-1.53-.23-1.96-2.49-3.44-2.92-1.06-.32-2.51.35-3.15-.55-.56-.79.23-1.85,1.06-2.33s1.88-.89,2.13-1.82c.09-.32.08-.68.15-1a.969.969,0,0,1,.23-.45c.63-.68,1.67.2,2.23.94.02.02.03.04.05.06a12.1,12.1,0,0,0,4.79,3.73.88.88,0,0,0,.47.11c.41-.06.56-.62.37-.99a2.575,2.575,0,0,0-.91-.82,5.531,5.531,0,0,1-1.37-1.36,5.688,5.688,0,0,1-.33-.52,4.1,4.1,0,0,1-.68-2.44c.51-.02,1.47.9,1.9,1.19.68.45,1.35.9,2.03,1.36.6.4,1.19.8,1.79,1.19.75.51,1.51,1.01,2.26,1.51.53.35,1.05.71,1.58,1.06l.72.48c1.51,1,3.17,2.32,3.57,3.98A1.009,1.009,0,0,1,48.97,30.991Z"/>
        <path class="cls-18" d="M100.78,19.871v6.75a15.31,15.31,0,0,1-3.26,1.11,27.754,27.754,0,0,1-6.74.62,11.488,11.488,0,0,0-4.93.4c-1.7.73-2.82,2.36-4.28,3.5-2.25,1.78-5.18,2.5-7,4.85a1.193,1.193,0,0,0-.31.66.82.82,0,0,0,.33.65,2,2,0,0,0,.67.33c2.19.63,4.46-.05,6.63-.37l3.56-.54q3.345-.51,6.68-1.06a1.511,1.511,0,0,0,1.21-.62,1.036,1.036,0,0,0-.03-.86,3.367,3.367,0,0,0-.88-1.07c-2.06-1.7-6.16-.43-6.28.61,0,.45.58.69.58,1.07-.01.59-1.05.43-1.47.47a2.059,2.059,0,0,1-.7-.02,1.623,1.623,0,0,1-.95-.92,2.219,2.219,0,0,1-.16-1.69,2.689,2.689,0,0,1,1.46-1.35,14.385,14.385,0,0,1,5.1-1.05,8.675,8.675,0,0,1,4.67.66c2.18,1.08,3.47,4.21,1.84,6.01-1.47,1.63-4.05,1.16-6.24,1.11a22.1,22.1,0,0,0-8.98,2.19c-1.58.66-3.14,1.38-4.71,2.01-5.47,2.21-10.31,2.53-13.82.08a8.934,8.934,0,0,1-2.12-2.09,4.791,4.791,0,0,1-1.08-3.94c.62-2.25,3.86-3.29,5.47-3.8,3.2-1.03,4.39-.17,5.83-1.43,1.85-1.62.55-3.61,2.14-5.12,2.4-2.27,6.26,1.37,10.52-1.01a23.452,23.452,0,0,1,4.2-2.33c1.38-.49,2.78-.87,4.14-1.4.51-.19,1.26-.38,1.57-.87a6.046,6.046,0,0,0,.36-1.48,6.829,6.829,0,0,1,5.06-4.84A6.908,6.908,0,0,1,100.78,19.871Z"/>
        <g id="Layer_13" data-name="Layer 13">
          <path class="cls-19" d="M25.062,25.186a2.669,2.669,0,0,0,1.38.125"/>
          <path class="cls-19" d="M26.13,31.282a.86.86,0,0,1,1.069-.431"/>
          <path class="cls-19" d="M33.332,27.757a1.843,1.843,0,0,0,1.871-.078"/>
          <path class="cls-20" d="M32.866,35.567a2.739,2.739,0,0,1,1.835-.929"/>
          <path class="cls-19" d="M37.6,42.15a1.393,1.393,0,0,0,1.516-.18"/>
          <path class="cls-19" d="M41.681,36.3a1.231,1.231,0,0,1,1.273-.553"/>
          <path class="cls-19" d="M44.03,27a3.764,3.764,0,0,0,1.528.15"/>
          <path class="cls-19" d="M28.289,39.962a.515.515,0,1,1,.337-.967"/>
          <path class="cls-19" d="M47.535,41.671l.363-.439.418.445"/>
          <path class="cls-19" d="M51.224,35.468a1.639,1.639,0,0,1,.87-.023c.294.026.656-.059.739-.342"/>
          <path class="cls-19" d="M55.345,29.757l.028-.89a1.717,1.717,0,0,1,1.042-.175"/>
          <path class="cls-19" d="M61.615,35.414l.741-.025.2-.576"/>
          <path class="cls-19" d="M60.538,43.52a.824.824,0,0,1,1.059-.876"/>
          <path class="cls-19" d="M64.942,39.84a.5.5,0,0,1,.767-.256"/>
          <path class="cls-19" d="M60.392,27.309a1.631,1.631,0,0,0,1.4.052"/>
          <path class="cls-19" d="M69.108,31.744l.026-.586.578-.2"/>
          <path class="cls-19" d="M74.013,36.608a1.177,1.177,0,0,0,1.5-.739"/>
          <path class="cls-19" d="M75.227,39.7a1.937,1.937,0,0,1,1.221-.311"/>
          <path class="cls-19" d="M83.649,41.035a1.463,1.463,0,0,0,1.4-.216"/>
          <path class="cls-19" d="M82.879,32.383a1.511,1.511,0,0,1,1.555.4"/>
          <path class="cls-19" d="M77.883,27.538a1.122,1.122,0,0,1,1.367.017"/>
          <path class="cls-19" d="M80.446,25.671a1.643,1.643,0,0,1,1.364-.07"/>
          <path class="cls-19" d="M83.941,24.864a.671.671,0,0,1,.753.461"/>
          <path class="cls-19" d="M92.81,26.091a1.344,1.344,0,0,1,1.359.617"/>
          <path class="cls-19" d="M94.189,29.75a2.31,2.31,0,0,0,1.373.314"/>
          <path class="cls-19" d="M96.622,35.72l.029-.436.746-.022"/>
          <path class="cls-19" d="M97.48,22.608a1.189,1.189,0,0,0,1.29.561"/>
          <path class="cls-19" d="M98.161,19.049a.773.773,0,0,1,.61.311"/>
          <path class="cls-19" d="M21.859,20.724a.931.931,0,0,0,.924-.288"/>
          <path class="cls-19" d="M22.157,36.337a1.327,1.327,0,0,1,.309,1.065"/>
        </g>
      </g>
      <path class="cls-8" d="M102.07,9.871v1.07a9.019,9.019,0,0,1-2.18,5.55,7.955,7.955,0,0,1-3.43,2.49c-.86.25-1.72.49-2.59.72a129.017,129.017,0,0,1-47.3,3.66c-1.65-.17-3.29-.38-4.93-.63q-2.355-.345-4.71-.78c-1.12-.2-2.23-.43-3.35-.67-.84-.17-1.67-.36-2.51-.55-2.24-.52-4.48-1.11-6.7-1.75a7.955,7.955,0,0,1-3.43-2.49,9.019,9.019,0,0,1-2.18-5.55V9.871c0-3.27,2.51-3.68,5.61-4.74a129.195,129.195,0,0,1,72.09,0C99.56,6.191,102.07,6.6,102.07,9.871Z"/>
    </g>
    <g id="shadow">
      <path class="cls-21" d="M32.58,67.061a117.812,117.812,0,0,0-.43,13.41c0,.38.01.76.02,1.13.06,2.16.16,4.33.29,6.49.1,1.91.24,3.82.39,5.73q.135,1.815.3,3.63c.03.44.07.88.11,1.32s.07.9.11,1.35c.14,1.55.27,3.11.41,4.66q.285,3.255.54,6.51c.08,1.01.16,2.02.23,3.03q.39,4.92.81,9.84c.26,3,.54,6.01.83,9.01.16,1.6.32,3.19.48,4.78.31,2.89.63,5.78.99,8.66.05.46.1.92.17,1.37.35,2.94.75,5.87,1.17,8.79.08.57.17,1.14.25,1.7.02.14.04.27.06.4q.675,4.53,1.48,9.05c.05.33.11.65.17.98q.6,3.33,1.27,6.64c.05.28.11.55.17.83a1.766,1.766,0,0,0,.04.2c.16.81.33,1.62.51,2.44q1.14,5.355,2.51,10.66.345,1.365.72,2.73,1.02,3.81,2.2,7.59a50.241,50.241,0,0,1-14.71-2.22C17.02,192.571,5.1,184.2,1.88,178.1c-.01-.01-.02-.03-.03-.04a5.9,5.9,0,0,1-.85-2.98c0-.16.01-.31.02-.47.47-5.35,9.09-10.13,22.42-13.35v-6.33a6.879,6.879,0,0,1,.88-3.37,9.019,9.019,0,0,1-2.18-5.55v-1.08a4.352,4.352,0,0,1,.3-1.68c-.76-.22-1.52-.45-2.29-.68-3.1-1.13-6.61-5.04-6.61-8.49v-1.13a3.654,3.654,0,0,1,2.04-3.61,6.779,6.779,0,0,1-.75-3.12v-14.48a6.927,6.927,0,0,1,.88-3.39,9.039,9.039,0,0,1-2.17-5.54v-1.07c0-3.27,2.51-3.68,5.61-4.74,2.09-.6,4.19-1.16,6.3-1.65-1.86-1.73-3.31-4.13-3.31-6.35v-1.13a3.652,3.652,0,0,1,2.05-3.61,6.84,6.84,0,0,1-.75-3.12V66.651a6.879,6.879,0,0,1,.88-3.37,9.019,9.019,0,0,1-2.18-5.55v-1.08c0-3.27,2.51-3.67,5.61-4.74.31-.09.61-.18.92-.26-1.1-.29-2.2-.61-3.3-.95-3.1-1.12-6.61-5.03-6.61-8.49v-1.13a3.652,3.652,0,0,1,2.05-3.61,6.84,6.84,0,0,1-.75-3.12V19.871a6.917,6.917,0,0,1,.88-3.38,9.019,9.019,0,0,1-2.18-5.55V9.871c0-3.27,2.51-3.68,5.61-4.74A129.383,129.383,0,0,1,64.67.071a106.313,106.313,0,0,0-11.24,12.85,107.886,107.886,0,0,0-6.86,10.44c-.37.64-.73,1.29-1.09,1.94-.33.61-.66,1.21-.97,1.82q-1.29,2.43-2.44,4.93a1.417,1.417,0,0,1-.08.18c-.36.78-.71,1.57-1.06,2.37q-1.23,2.865-2.31,5.81c-.11.3-.21.6-.32.9-.11.32-.23.64-.33.96q-1.3,3.765-2.32,7.63c-.29,1.09-.57,2.19-.82,3.3q-.75,3.225-1.3,6.5c-.13.79-.25,1.58-.37,2.37C32.92,63.731,32.72,65.4,32.58,67.061Z"/>
    </g>
  </g>
</svg>
