<svg xmlns="http://www.w3.org/2000/svg" viewBox="0 0 132.303 200.001">
  <defs>
    <style>
      .cls-1 {
        isolation: isolate;
      }

      .cls-2 {
        fill: #f5c880;
      }

      .cls-3 {
        fill: #f5ae63;
      }

      .cls-4 {
        fill: #ffe3b1;
      }

      .cls-5 {
        fill: #42210b;
      }

      .cls-6 {
        fill: #a67c52;
      }

      .cls-7 {
        fill: #534741;
        mix-blend-mode: overlay;
      }

      .cls-8 {
        fill: #ffdc9e;
      }

      .cls-9 {
        fill: #c6ab80;
      }

      .cls-10 {
        fill: #e09d55;
      }

      .cls-11 {
        fill: #f4d78c;
      }
    </style>
  </defs>
  <g class="cls-1">
    <g id="cone">
      <path class="cls-2" d="M116.62,67.19l-1.79,5.09v.03l-1.04,2.95-.58,1.69-.12.34-1.08,3.08-.45,1.28v.01l-2.09,5.96-.04.11-.42,1.21-.15.42v.01l-.43,1.21-.01.04-.45,1.27-.85,2.45-.52,1.49h-.01l-.46,1.34-.69,1.97-.46,1.31-.58,1.65-.45,1.31-1.09,3.11v.01l-.16.44-1.29,3.69-.46,1.32-.02.06-.38,1.08-.18.5-.45,1.31-1.38,3.94-.8,2.28-.18.5-.18.53-.17.48v.01l-.78,2.22v.01l-.11.29-.43,1.25-.57,1.62-.49,1.41-.15.43-.39,1.13-.01.01-1.62,4.64-.03.08v.01l-.43,1.22-.1.29v.01l-.41,1.16-.38,1.07-.53,1.52-.61,1.75-.2.57-.34.99h-.01v.01l-.6,1.73-.45,1.29h-.01v.01l-.54,1.55-.51,1.46-.53,1.51-.78,2.23-.53,1.52-1.76,5.04H83.9v.01l-.54,1.55-1.06,3.03-.43,1.23v.01l-.79,2.24-.53,1.51-2.91,8.33-.31.89-1.84,5.26h-.01l-.04.14v.01l-3.28,9.35-.5,1.44-.19.54a5.032,5.032,0,0,1-.41.91,4.95,4.95,0,0,1-.53.79c-.01.01-.02.02-.02.03a5.421,5.421,0,0,1-2.7,1.79,5.092,5.092,0,0,1-.56.14c-.19.03-.38.06-.58.08a5.538,5.538,0,0,1-5.8-3.74l-.73-2.08-.35-1.01-.69-1.96-.35-1.01-2.66-7.61-.35-1.01h-.01l-.68-1.96-.36-1.01-2.66-7.61-.32-.91-.72-2.06-1.97-5.64-2.6-7.43-.26-.76-1.94-5.53-.01-.02-.11-.33-.53-1.5-.39-1.12-.3-.85-.35-1.01-2.66-7.6-.35-1.01-.69-1.97-.35-1-1.33-3.79-.51-1.46-.78-2.23-.04-.13h-.01l-.35-1.01-.12-.35-.44-1.25-.12-.36h-.01l-.35-1.01-.37-1.07-.86-2.46-.15-.43-.51-1.46-.31-.89-.33-.94-.12-.36h-.01l-.38-1.11-.17-.46-.15-.43-.08-.24-.27-.77-2.16-6.18-.51-1.46-2.4-6.86-.86-2.46L24.05,91l-.51-1.46-.64-1.83-.51-1.46-2.76-7.89-.58-1.65L17.23,71.5l-.86-2.46-.65-1.85Z"/>
      <g id="back_waffle" data-name="back waffle">
        <path class="cls-3" d="M83.86,123.85a.664.664,0,0,0-.06.2l-.4,2.56,1,1.62.41-2.64a.573.573,0,0,1,.04-.14Zm-31.11-7.22-1.6-.25-.47-.07a.188.188,0,0,1-.08-.02.844.844,0,0,1-.63-.95l.08-.51.14-.91.31-1.98a.817.817,0,0,1-.67-.18.771.771,0,0,1-.19-.21l-.1-.16-.23.14-.1.06a.855.855,0,0,1-1.17-.28l-.44-.72-.47,2.97-.05.33-.15.98a.855.855,0,0,1-.97.71l-1.01-.16-1.59.98-.66.4-1.8,1.11,2.79.43.31.05,1.11.17.37.06a.161.161,0,0,1,.09.03l2.44-1.5.33-.2a.869.869,0,0,1,1.18.28l.43.7.97.15,1.4.22,1.61.25Zm40.5-28.41-2.95-.46a.86.86,0,0,0-.98.72l-.52,3.39a.176.176,0,0,1,.04.05l.1.17.86,1.39.25-1.65.28-1.81a.865.865,0,0,1,.98-.72l.23.04,1.61.25a.7.7,0,0,1,.21-.21l1.49-.91Zm-6.1,14.2-.13.89-.65,4.16a.855.855,0,0,0,.72.97l.37.06.22-1.39.24-1.55.41-2.63.16-1.06a.833.833,0,0,1,.14-.35ZM64.38,106.3a.859.859,0,0,1-.38-.16.88.88,0,0,1-.33-.82l.08-.5.16-1.01.21-1.35-1.39.84-.07.48a.9.9,0,0,0,.18.68l-1.79,1.1a.812.812,0,0,1-.94-.05.8.8,0,0,1-.46.05l-3.55-.55,1.15,1.88a.037.037,0,0,1,.01.03.84.84,0,0,1-.29,1.14l-.26.16,2.09.32.38.06a.85.85,0,0,1,.71.98l-.2,1.31c.02.03.04.05.06.08l1.43,2.33.43-2.8.31-1.99a.865.865,0,0,1,.98-.71l.32.05,2.25-1.38Zm-1.72,1.89.56-.34-.32-.05a.865.865,0,0,0-.98.71l-.31,1.99-.43,2.8,1,1.63.44-2.8.29-1.89-.54-.88A.858.858,0,0,1,62.66,108.19Zm-8.73,10.36-1.61-.25-1.4-.22-.97-.15.93,1.52.29.05,2.08.32,1.61.25Zm10.58,2.58-.59.36.9.13Zm15.54,1.47-.69-.11-1.6-.24-1.8,1.1,1.59.25,3.13.48.08-.5A.865.865,0,0,0,80.05,122.6Zm22.71-55.41a.789.789,0,0,1,.07.48l-1.1,7.13a.977.977,0,0,1-.11.3.883.883,0,0,1-.87.41l-3.12-.48-1.61-.25-2.4-.37a.865.865,0,0,1-.71-.98l.05-.3.03-.2.08-.51.1-.64.71-4.59H90.76l-.89,5.77a.86.86,0,0,1-.98.71l-7.13-1.11a.855.855,0,0,1-.71-.97l.08-.51.6-3.89H78.62l-.61,3.93a.855.855,0,0,1-.97.71L69.9,70.72a.855.855,0,0,1-.71-.97l.08-.51.32-2.05H66.48l-.33,2.09a.855.855,0,0,1-.97.71l-7.13-1.11a.855.855,0,0,1-.72-.97l.08-.51.03-.21H54.33l-.04.25a.855.855,0,0,1-.97.71l-6.17-.96H27.07l1.68.26.38.06a.841.841,0,0,1,.71.97l-1.1,7.13a.85.85,0,0,1-.98.71l-7.13-1.1a.86.86,0,0,1-.71-.98l.08-.5,1.02-6.55H17.9l-.67,4.31,1.82,5.21.58,1.65a.808.808,0,0,1,.53-.1l6.75,1.05.38.06a.855.855,0,0,1,.71.97l-1.1,7.13a.865.865,0,0,1-.98.71l-3.02-.47.64,1.83L24.05,91l1.02.16.38.06a.865.865,0,0,1,.71.98l-.52,3.33,2.4,6.86.51,1.46,6.54,1.01.38.06a.86.86,0,0,1,.71.98l-.13.86-.16,1-.05.36-.21,1.33-.56,3.58a.142.142,0,0,1-.02.06.838.838,0,0,1-.95.65l-.87-.13-1.34-.21.33.94.31.89.51,1.46.21.03.38.06a.169.169,0,0,1,.1.03.843.843,0,0,1,.61.94l-.01.04-.28,1.79.37,1.07.35,1.01h.01l.12.36.44,1.25.12.35.35,1.01h.01l.04.13.78,2.23.51,1.46,4.1.64,1.6.24,3.02.47,1.96.31,1.61.25,3.94.61,3.42.53,1.61.25,7.76,1.2,1.6.25,4.57.71,1.62.25,2.37.37,1.61.25,1.86.29,1.6.24,3.1.49,1.6.24,1.79.28,1.62.25,2.38.37.31.05.43-1.22v-.01l.03-.08,1.62-4.64.01-.01.39-1.13.15-.43.49-1.41.57-1.62.43-1.25.11-.29v-.01l.78-2.22v-.01l.17-.48.18-.53.1-.63.85-5.45a.855.855,0,0,1,.97-.71l.43.07h.01l.45-1.31.18-.5.38-1.08.02-.06-1-.16a.855.855,0,0,1-.71-.97l.08-.51.01-.08.45-2.87.43-2.79.14-.88a.854.854,0,0,1,.97-.72l2.62.41h.01l.45-1.31.58-1.65-3.18-.49a.855.855,0,0,1-.72-.97l.05-.29.03-.22.18-1.13.41-2.64.21-1.36.23-1.49a.8.8,0,0,1,.35-.56.809.809,0,0,1,.62-.15l.82.13,3.99.61.45-1.27.01-.04.43-1.21v-.01l.15-.42-3.15-.49-1.62-.26-.6-.09a.855.855,0,0,1-.72-.97l.08-.51.06-.36.29-1.9.19-1.2.21-1.37.1-.61.18-1.18a.829.829,0,0,1,.25-.48l.05-.05a.9.9,0,0,1,.68-.18l6.75,1.04.25.04,1.08-3.08a.855.855,0,0,1-.48.06l-7.13-1.1a.85.85,0,0,1-.71-.98l.08-.5,1.02-6.63a.86.86,0,0,1,.98-.71l6.75,1.05.38.06a.855.855,0,0,1,.71.97l-.9,5.75,1.04-2.95v-.03l1.79-5.09Zm-1.77,12.34-.12.76-.81,5.22-.18,1.15a.664.664,0,0,1-.06.2.853.853,0,0,1-.91.51l-1.81-.28-1.6-.25-3.09-.48-.63-.1a.86.86,0,0,1-.59-.38.809.809,0,0,1-.12-.59l.08-.51,1.02-6.62a.85.85,0,0,1,.98-.71l1,.15,1.61.25,2.37.37,1.61.25.16.02.38.06A.865.865,0,0,1,100.99,79.53Zm-21.3,53.43-3.16-.49-1.62-.25-2.35-.37h-.02a.848.848,0,0,1-.7-.76.741.741,0,0,1,.01-.21l.08-.51.68-4.41.09-.61.25-1.6a.852.852,0,0,1,.98-.71l2.03.31,1.59.25,3.13.48.38.06a.858.858,0,0,1,.71.98l-.15.96-.96,6.17A.855.855,0,0,1,79.69,132.96ZM65.8,130.8l-1.6-.25-3.22-.5-.28-.04a.855.855,0,0,1-.71-.97l.07-.48.01-.03.8-5.17.21-1.36.01-.09a.85.85,0,0,1,.98-.71l.26.04,1.59.25.9.13,1.61.25,2.38.37h.01l.38.06a.865.865,0,0,1,.71.98l-.09.61-.44,2.79-.33,2.13-.25,1.6a.855.855,0,0,1-.97.71Zm-8.85-2.23a.876.876,0,0,1-.22.44.863.863,0,0,1-.76.27l-.59-.09-2.44-.38-.77-.12-1.61-.25-1.72-.27a.834.834,0,0,1-.69-.63.775.775,0,0,1-.02-.34l.08-.51.07-.46.96-6.16a.85.85,0,0,1,.97-.72l.67.1.29.05,2.08.32,1.61.25,2.1.33.38.06a.631.631,0,0,1,.23.08.819.819,0,0,1,.48.9v.03l-.41,2.64-.36,2.3ZM39.07,107.34l.15-.97a.79.79,0,0,1,.24-.47.752.752,0,0,1,.34-.21.842.842,0,0,1,.39-.03l1.6.25,3.25.5,1.6.25.31.04.37.06a.865.865,0,0,1,.72.98l-.15.95-.29,1.9-.47,2.97-.05.33-.15.98a.855.855,0,0,1-.97.71l-1.01-.16-1.59-.24-.2-.04-4.34-.67a.855.855,0,0,1-.71-.97l.08-.51.67-4.3ZM30.65,88.92a.85.85,0,0,1-.71-.98l.08-.5,1.02-6.63a.865.865,0,0,1,.98-.71l6.75,1.05.38.06c.01,0,.01,0,.02.01a.844.844,0,0,1,.69.96l-.4,2.56-.71,4.57a.841.841,0,0,1-.97.71ZM42.9,82.65a.86.86,0,0,1,.98-.71l1.93.3,4.82.75.38.06a.855.855,0,0,1,.71.97l-1.11,7.13a.841.841,0,0,1-.97.71l-2.77-.43-4.36-.67a.86.86,0,0,1-.72-.98l.08-.5Zm11.86,1.84a.855.855,0,0,1,.97-.71l6.76,1.05.37.06a.855.855,0,0,1,.72.97l-.7,4.46-.12.84-.09.52-.2,1.31a.855.855,0,0,1-.97.72l-1.71-.27-.59-.09-1-.15-3.84-.6a.86.86,0,0,1-.71-.98l.08-.5ZM79.75,80l.57-3.68a.841.841,0,0,1,.97-.71l4.49.69.8.13.8.12.66.1.38.06a.851.851,0,0,1,.39.16.873.873,0,0,1,.32.82l-.04.23-.75,4.9-.3,1.91-.01.09a.865.865,0,0,1-.98.71l-.74-.11-1.6-.25-4.79-.75a.836.836,0,0,1-.64-.49.789.789,0,0,1-.07-.48l.08-.51.04-.26.21-1.33.09-.63Zm2.93,39.23-.04.25-.14.91a.848.848,0,0,1-.97.71l-1.66-.26-1.61-.24L74.4,120a.85.85,0,0,1-.71-.98l.08-.5.52-3.39.11-.69.39-2.55a.865.865,0,0,1,.98-.71l2.37.37,1.6.25,2.78.43.38.06a.855.855,0,0,1,.71.97ZM45.54,103.37l-1.56-.24-.48-.07-1.12-.18-1-.15-.71-.11a.865.865,0,0,1-.72-.98l.08-.5.65-4.22.38-2.41a.855.855,0,0,1,.97-.71l5.25.82,1.51.23.38.06a.855.855,0,0,1,.71.97l-.41,2.66-.15.92-.07.44-.2,1.32-.21,1.36-.07.43a.829.829,0,0,1-.25.48.858.858,0,0,1-.72.23l-.66-.1Zm7.37-6.93.01-.09a.855.855,0,0,1,.97-.71l.25.04,1.04.16.56.09,1.56.24,1.59.25,1.76.27.37.06a.855.855,0,0,1,.72.97l-1.07,6.84-.04.29a.83.83,0,0,1-.52.66.8.8,0,0,1-.46.05l-3.55-.55-1.6-.25-1.98-.3a.865.865,0,0,1-.71-.98l.08-.5.31-1.97.08-.54.42-2.68.07-.46Zm31.5,11.63-.07.46a.855.855,0,0,1-.97.72l-1.17-.18-3.11-.49-1.59-.24-1.26-.2a.86.86,0,0,1-.71-.98l.08-.5,1.02-6.63a.865.865,0,0,1,.98-.71l1.87.29,1.62.25,2.36.37.9.14.38.06a.784.784,0,0,1,.43.2.8.8,0,0,1,.26.43.775.775,0,0,1,.02.34l-.24,1.56ZM66.92,118.84l-3.66-.57-.72-.11a.839.839,0,0,1-.61-.43.867.867,0,0,1-.1-.55l.05-.34.03-.16.27-1.75.44-2.8.29-1.89.03-.19a.855.855,0,0,1,.97-.71l6.75,1.05.38.06a.855.855,0,0,1,.71.97l-.07.47-.21,1.37-.41,2.63-.21,1.35-.2,1.31a.865.865,0,0,1-.98.71l-1.14-.18Zm5.61-20.3.35.05a.841.841,0,0,1,.71.97l-.12.78-.21,1.35-.3,1.97-.3,1.9-.17,1.13a.85.85,0,0,1-.85.72.615.615,0,0,1-.13-.01l-1.47-.23-4.57-.7-1.09-.17a.859.859,0,0,1-.38-.16.88.88,0,0,1-.33-.82l.08-.5.16-1.01.21-1.35.61-3.96.05-.31a.851.851,0,0,1,.78-.72,1.21,1.21,0,0,1,.19.01l2.17.34,1.61.25,1.4.22,1.57.24Zm13.66-1.86a.865.865,0,0,1-.98.71l-2.23-.35-1.62-.25-3.28-.51a.849.849,0,0,1-.71-.71,1.13,1.13,0,0,1,0-.26l.08-.51.11-.71.44-2.8.29-1.89.19-1.22a.855.855,0,0,1,.97-.72l6.75,1.05.22.03.16.03a.848.848,0,0,1,.71.92c.01.02,0,.03,0,.05l-.4,2.58-.21,1.35ZM52.75,116.63l-1.6-.25-.47-.07a.188.188,0,0,1-.08-.02.844.844,0,0,1-.63-.95l.08-.51.14-.91.31-1.98.2-1.26.38-2.47a.855.855,0,0,1,.97-.71l3.06.47,1.6.25,2.09.32.38.06a.85.85,0,0,1,.71.98l-.2,1.31-.29,1.89-.61,3.93a.86.86,0,0,1-.98.71Zm13.87-30.3a.855.855,0,0,1,.97-.71l2.37.37.92.14.68.11,2.78.43.38.06a.841.841,0,0,1,.71.97l-.36,2.33-.29,1.9-.45,2.9a.86.86,0,0,1-.98.72l-5.93-.92-1.2-.19a.855.855,0,0,1-.71-.97l.08-.51.32-2.07.21-1.32.08-.54.13-.81ZM97,105.24l-.8,5.13a.855.855,0,0,1-.97.72l-4.03-.63-1.62-.25-1.48-.23a.855.855,0,0,1-.72-.97l.08-.51.22-1.39.24-1.55.41-2.63.16-1.06a.833.833,0,0,1,.14-.35.825.825,0,0,1,.59-.36,1.044,1.044,0,0,1,.25,0l1.39.22,3.1.48,1.03.16.57.09.66.1.38.06h.02a.86.86,0,0,1,.69.97l-.02.1Zm1.31-8.42-.27,1.7a.855.855,0,0,1-.97.71l-2.73-.43-1.61-.24-2.79-.44a.841.841,0,0,1-.71-.97l.08-.51.49-3.16.25-1.65.28-1.81a.865.865,0,0,1,.98-.72l.23.04,1.61.25,4.91.76.38.06a.86.86,0,0,1,.71.98l-.63,4.07ZM77.28,75.85l-.97,6.25-.12.75-.02.13a.86.86,0,0,1-.98.71l-.29-.04-.88-.14-5.96-.93a.855.855,0,0,1-.71-.97l.08-.51,1.03-6.62a.855.855,0,0,1,.97-.72l6.75,1.05.38.06A.86.86,0,0,1,77.28,75.85ZM65.42,74l-1.11,7.14a.855.855,0,0,1-.97.71l-7.13-1.11a.855.855,0,0,1-.72-.97l.08-.51,1.03-6.62a.855.855,0,0,1,.97-.72l6.76,1.05.38.06A.855.855,0,0,1,65.42,74ZM53.56,72.16l-1.11,7.13a.855.855,0,0,1-.97.72l-5.99-.93-1.14-.18a.841.841,0,0,1-.71-.97l.08-.51,1.02-6.63a.86.86,0,0,1,.98-.71l6.75,1.05.38.06A.855.855,0,0,1,53.56,72.16ZM32.88,68.95a.865.865,0,0,1,.98-.71l4.44.69,2.31.36.38.06a.855.855,0,0,1,.71.97l-1.11,7.13a.855.855,0,0,1-.97.72l-.7-.11-6.43-1a.86.86,0,0,1-.71-.98l.08-.5Zm3.06,32.93-7.13-1.11a.841.841,0,0,1-.71-.97l.08-.51,1.02-6.62a.86.86,0,0,1,.98-.71L36.93,93l.38.06a.865.865,0,0,1,.71.98l-1.11,7.13A.855.855,0,0,1,35.94,101.88Zm.33,23.48.08-.51.09-.61.21-1.32.73-4.69a.835.835,0,0,1,.45-.63.851.851,0,0,1,.52-.09l.96.15,1.59.25,2.79.43.31.05,1.11.17.37.06a.161.161,0,0,1,.09.03.833.833,0,0,1,.63.94l-1.05,6.72-.06.42a.631.631,0,0,1-.08.23.844.844,0,0,1-.9.48l-.29-.05-2.38-.37-1.61-.25-2.85-.44A.855.855,0,0,1,36.27,125.36Zm56.59,6.54-.34,2.19a.83.83,0,0,1-.52.66.98.98,0,0,1-.45.05l-1.08-.17-6.05-.93a.732.732,0,0,1-.25-.08.866.866,0,0,1-.47-.9l.01-.05.07-.45.32-2.08.3-1.91.41-2.64a.573.573,0,0,1,.04-.14.852.852,0,0,1,.93-.57l.19.03,6.57,1.02.38.06a.836.836,0,0,1,.69.62.821.821,0,0,1,.02.35l-.15.95-.41,2.64Zm1.5-9.67a.841.841,0,0,1-.6.69.906.906,0,0,1-.37.02l-7.08-1.09-.05-.01a.849.849,0,0,1-.72-.75.884.884,0,0,1,0-.23l.08-.5.29-1.88.21-1.35.53-3.4a.855.855,0,0,1,.97-.71l.08.01,1.61.25,5.07.79.38.06a.863.863,0,0,1,.72.88.277.277,0,0,1-.01.09l-.59,3.77-.43,2.8ZM64.38,106.3a.859.859,0,0,1-.38-.16.88.88,0,0,1-.33-.82l.08-.5.16-1.01.21-1.35-1.39.84-.07.48a.9.9,0,0,0,.18.68l-1.79,1.1a.812.812,0,0,1-.94-.05.8.8,0,0,1-.46.05l-3.55-.55,1.15,1.88a.037.037,0,0,1,.01.03.84.84,0,0,1-.29,1.14l-.26.16,2.09.32.38.06a.85.85,0,0,1,.71.98l-.2,1.31c.02.03.04.05.06.08l1.43,2.33.43-2.8.31-1.99a.865.865,0,0,1,.98-.71l.32.05,2.25-1.38ZM52.75,116.63l-1.6-.25-.47-.07a.188.188,0,0,1-.08-.02.844.844,0,0,1-.63-.95l.08-.51.14-.91.31-1.98a.817.817,0,0,1-.67-.18.771.771,0,0,1-.19-.21l-.1-.16-.23.14-.1.06a.855.855,0,0,1-1.17-.28l-.44-.72-.47,2.97-.05.33-.15.98a.855.855,0,0,1-.97.71l-1.01-.16-1.59.98-.66.4-1.8,1.11,2.79.43.31.05,1.11.17.08-.51a.81.81,0,0,0-.03-.38l1.58-.96a.855.855,0,0,1,1.17.28l.1.16.33-.2a.869.869,0,0,1,1.18.28l.43.7.97.15,1.4.22,1.61.25Zm15.12,4.08-6.81-1.05h-.04l2.22-1.37c.01,0,.02-.02.02-.02l-.72-.11a.839.839,0,0,1-.61-.43.867.867,0,0,1-.1-.55l.05-.34.03-.16.27-1.75-1-1.63-1.43-2.33c-.02-.03-.04-.05-.06-.08l-.29,1.89-.61,3.93a.86.86,0,0,1-.98.71l-5.06-.79,1.18,1.92-1.61-.25-1.4-.22-.97-.15.93,1.52.29.05,2.08.32,1.61.25,2.1.33.38.06a.631.631,0,0,1,.23.08.819.819,0,0,1,.48.9v.03l-.41,2.64,2.06-1.26,1.38-.85.01-.09a.85.85,0,0,1,.98-.71l.26.04,1.59.25.9.13,1.61.25,2.38.37Zm6.89-11.07a.86.86,0,0,0-.98.71l-.07.44-2.07-3.38a.615.615,0,0,1-.13-.01l-1.47-.23-4.57-.7-2.25,1.38-.32-.05a.865.865,0,0,0-.98.71l-.31,1.99-.43,2.8,1,1.63.44-2.8.29-1.89.03-.19a.855.855,0,0,1,.97-.71l6.75,1.05.38.06a.855.855,0,0,1,.71.97l-.07.47-.21,1.37-.41,2.63-.21,1.35,2.06-1.26,1.38-.85.11-.69.39-2.55a.865.865,0,0,1,.98-.71l2.37.37,1.8-1.1Zm5.29,12.96-.69-.11-1.6-.24-1.8,1.1,1.59.25,3.13.48.08-.5A.865.865,0,0,0,80.05,122.6Zm3.81,1.25a.664.664,0,0,0-.06.2l-.4,2.56,1,1.62.41-2.64a.573.573,0,0,1,.04-.14Zm9.39-35.63-2.95-.46a.86.86,0,0,0-.98.72l-.52,3.39a.176.176,0,0,1,.04.05l.1.17.86,1.39.25-1.65.28-1.81a.865.865,0,0,1,.98-.72l.23.04,1.61.25a.7.7,0,0,1,.21-.21l1.49-.91Z"/>
        <path class="cls-4" d="M91.2,110.46l-.94-1.53-1.62-.25-1.18-.18-.37-.06a.855.855,0,0,1-.72-.97l.65-4.16.13-.89-.64.4-1.08-1.76-.26-.43a.784.784,0,0,0-.43-.2l-.38-.06-.16,1.06-.44,2.79-.26,1.66-.17,1.11a.855.855,0,0,1-.97.72l-1.47-.23-1.59-.25-3.69-.57-.08.5a.86.86,0,0,0,.71.98l1.26.2-1.22.74-3.32-5.42-.3,1.9-.17,1.13a.85.85,0,0,1-.85.72l2.07,3.38.07-.44a.86.86,0,0,1,.98-.71l5.18.81,1.59.24.36.06a.855.855,0,0,1,.71.97l-.08.51-.87,5.62.89,1.47.14-.09,2.06-1.26.9-5.78a.855.855,0,0,1,.97-.71l.16.02,1.6.25,2.38.37,1.62.26ZM87.05,83.1l-.03.18a.865.865,0,0,1-.98.71l-.66-.1-1.61-.25.94,1.53,1.6.25.74.11a.865.865,0,0,0,.98-.71l.01-.09ZM59.88,105.28l-.1-.17-.34.21a.848.848,0,0,1-1.17-.28l-.73-1.19-2.37-.37-1.61-.24.94,1.52,1.6.25,3.55.55a.8.8,0,0,0,.46-.05A.633.633,0,0,1,59.88,105.28Zm11.79-1.34-.19,1.21a.861.861,0,0,1-.79.72,1.275,1.275,0,0,1-.19-.01l-1.39-.21-1.84-.29-1.6-.24-1.92-.3-.38-.06a.839.839,0,0,1-.53-.3l-1.79,1.1a.812.812,0,0,1-.94-.05.8.8,0,0,1-.46.05l-3.55-.55,1.15,1.88a.037.037,0,0,1,.01.03l.91.14a.85.85,0,0,1,.71.98l-.08.5-.34,2.22.12-.07a.837.837,0,0,1,1.11.2c.02.03.04.05.06.08l1.43,2.33.43-2.8.31-1.99a.865.865,0,0,1,.98-.71l.32.05,2.25-1.38,4.57.7,1.47.23a.615.615,0,0,0,.13.01.85.85,0,0,0,.85-.72l.17-1.13ZM85.92,90.33l-.41,2.64,1.38-.85.4-2.58c0-.02.01-.03,0-.05Zm.43-2.49-.07-.11a1.219,1.219,0,0,1,0,.27l-.08.51-.07.45a.784.784,0,0,0,.29-.42A.825.825,0,0,0,86.35,87.84ZM81.5,95.43l-3.67-.57a.836.836,0,0,1-.39.67l-.07.04a.849.849,0,0,0,.71.71l3.28.51-.13-.21A.849.849,0,0,1,81.5,95.43ZM46.6,108.96l-.44,2.8-.24,1.57a.838.838,0,0,1-.73.71.265.265,0,0,1-.06.05l-1.77,1.09,1.59.24,1.79-1.09a.774.774,0,0,0,.34-.44l.05-.33.47-2.97Zm34.46,15.18-.38-.06-.08.55a.78.78,0,0,1,.31.29l.1.17.34-.21a1.021,1.021,0,0,1,.4-.12A.863.863,0,0,0,81.06,124.14Zm32.33-56.95a.847.847,0,0,1,.29.78l-.08.51-1.03,6.62a.841.841,0,0,1-.97.71l-6.75-1.04-.38-.06a.85.85,0,0,1-.71-.98l1.01-6.54h-3.12l-.94,6.07a.631.631,0,0,1-.08.23.838.838,0,0,1-.89.48l-2.82-.43-1.6-.25-2.09-.32-.24-.04-.38-.06a.6.6,0,0,1-.19-.06.817.817,0,0,1-.4-.33.918.918,0,0,1-.12-.59l.73-4.7H89.51l-.65,4.23a.865.865,0,0,1-.98.71l-6.75-1.05-.38-.06a.855.855,0,0,1-.71-.97l.45-2.86H77.37L77,69.58a.86.86,0,0,1-.98.71l-6.75-1.05-.38-.06a.855.855,0,0,1-.71-.97l.16-1.02H65.23l-.09.55a.855.855,0,0,1-.97.71L57.41,67.4l-.37-.06a.807.807,0,0,1-.37-.15H36l2.22.35,1.76.27a.855.855,0,0,1,.71.97l-.08.51-1.03,6.62a.87.87,0,0,1-.77.73,1.34,1.34,0,0,1-.2-.01l-6.75-1.05-.38-.06a.852.852,0,0,1-.71-.98l1.1-7.13a.808.808,0,0,1,.07-.22H28.79l-.04.26-1.02,6.62a.85.85,0,0,1-.98.71L20,73.74l-.38-.06a.86.86,0,0,1-.71-.98l.86-5.51H16.65l-.28,1.85.86,2.46,1.82,5.21a.308.308,0,0,1,.1.01l7.13,1.11a.855.855,0,0,1,.71.97l-.08.51-1.02,6.62a.871.871,0,0,1-.98.71l-2.52-.39.51,1.46.64,1.83.9.14a.865.865,0,0,1,.71.98l-.08.5-.29,1.91.86,2.46,2.4,6.86,6.42.99a.86.86,0,0,1,.71.98l-.08.5-.43,2.75-.15,1.01-.06.34-.21,1.35-.18,1.16v.02a.855.855,0,0,1-.97.71l-1.71-.27.39,1.11.12.36.33.94.31.89.09.01a1.209,1.209,0,0,1,.18.05.841.841,0,0,1,.53.87c.01.02,0,.03,0,.05l-.08.51-.06.4.86,2.46.37,1.07.35,1.01h.01l.12.36.44,1.25.34-2.17.44-2.78.25-1.63a.836.836,0,0,1,.49-.65.789.789,0,0,1,.48-.07l1.04.16,2.73.43,1.59.24.75.12,1.02.16a.845.845,0,0,1,.69.59.81.81,0,0,1,.03.38l-.08.51-.06.41-.58,3.74-.39,2.48a.48.48,0,0,1-.05.17.848.848,0,0,1-.93.54l-.22-.03-2.38-.37-1.6-.25-2.55-.4-.38-.06a.354.354,0,0,1-.11-.03l.78,2.23,3.68.57,1.6.25,3.65.57,4.06.63,1.61.25,1.85.28,2.77.43,1.61.25,2.38.37,1.61.25,1.81.28,1.6.25,3.1.48,1.59.25,1.85.28,1.62.25,2.36.37,1.62.25,4.59.71,1.6.25,7.75,1.2,1.62.26.09.01,1.62-4.64.01-.01.39-1.13.15-.43.49-1.41.22-1.41.12-.76a.841.841,0,0,1,.66-.7h.01l.1-.29v-.01l.78-2.22v-.01l.17-.48-.28-.04a.618.618,0,0,1-.27-.09.861.861,0,0,1-.44-.89l.28-1.77.66-4.3.17-1.06a.833.833,0,0,1,.14-.35.864.864,0,0,1,.6-.36.885.885,0,0,1,.23,0l1.39.22.51.08.17-.5h.01l.38-1.08.02-.06.46-1.32-2.09-.32-.1-.02-.28-.04a.845.845,0,0,1-.68-.59.81.81,0,0,1-.03-.38l.26-1.64.29-1.91.44-2.79.12-.79a.84.84,0,0,1,.46-.64.816.816,0,0,1,.51-.08l4.09.64.58-1.65.46-1.31-4.02-.62-.26-.04-.37-.06a.839.839,0,0,1-.59-.38.864.864,0,0,1-.13-.59l.3-1.9.21-1.35.6-3.88a.871.871,0,0,1,.39-.6.828.828,0,0,1,.58-.11l.89.14,2.38.36,1.45.23.16.02,1.4.22.43-1.21v-.01l.15-.42.42-1.21.04-.11-.12-.02-4.43-.69-1.62-.25-.3-.04-.37-.06a.855.855,0,0,1-.72-.97l.15-.95.31-2.01.41-2.63.07-.44.17-1.1a.786.786,0,0,1,.34-.55.9.9,0,0,1,.64-.16l7.13,1.1a.865.865,0,0,1,.71.98l-.08.5-.2,1.32.45-1.28,1.08-3.08.12-.34,1.62-4.64v-.03l.79-5.09ZM92.1,128.76l-.41,2.64-.18,1.15a.855.855,0,0,1-.97.71l-.86-.13-3.76-.58-1.6-.25-.54-.08-.38-.06a.871.871,0,0,1-.71-.98l.42-2.67.29-1.9.4-2.56a.664.664,0,0,1,.06-.2.853.853,0,0,1,.91-.51l.3.05,6.83,1.06a.855.855,0,0,1,.72.97l-.08.51-.23,1.47Zm-13.42,2.66-3.09-.48-1.61-.25-2.05-.32-.38-.06a.855.855,0,0,1-.72-.97l.54-3.45.23-1.47.34-2.21a.852.852,0,0,1,.98-.71l4.84.75,1.6.24.69.11a.865.865,0,0,1,.71.98l-.08.5-.08.55-.13.79-.82,5.29A.855.855,0,0,1,78.68,131.42Zm-23.72-3.68-.52-.08-.47-.07-1.31-.2-.3-.05-3.1-.49-1.05-.16-.38-.06a.573.573,0,0,1-.14-.04h-.01a.851.851,0,0,1-.56-.93l1.11-7.13a.791.791,0,0,1,.3-.53.838.838,0,0,1,.67-.19l.75.12.97.15,1.4.22,1.61.25,2.4.37a.852.852,0,0,1,.71.98l-.08.5-.08.56-.19,1.22-.75,4.85a.915.915,0,0,1-.18.4A.863.863,0,0,1,54.96,127.74ZM38.19,112.99l-.38-.06a.855.855,0,0,1-.71-.97l.38-2.42.21-1.35.2-1.34.06-.36.16-.99.1-.67a.841.841,0,0,1,.97-.71l.94.15,1.14.17.35.05.11.02,2.44.38,1.61.25.54.08a.865.865,0,0,1,.72.98l-.08.5-.05.37-.3,1.89-.44,2.8-.24,1.57a.838.838,0,0,1-.73.71.964.964,0,0,1-.24,0l-2.02-.31ZM99.27,77.01a.865.865,0,0,1,.71.98l-.08.5-.03.19-.25,1.63-.75,4.81a.732.732,0,0,1-.08.25.852.852,0,0,1-.89.46l-.6-.09-3.09-.49-1.6-.24-1.46-.23-.38-.06a.841.841,0,0,1-.71-.97l1.09-7.09.01-.04a.85.85,0,0,1,.98-.71l.19.03.88.14,1.62.24,2.36.37,1.61.25Zm-35.88,39.9-1.48-.23-.14-.02-.24-.04a.865.865,0,0,1-.71-.98l.07-.43.29-1.91.43-2.8.31-1.99a.865.865,0,0,1,.98-.71l.32.05,6.81,1.06a.855.855,0,0,1,.71.97l-.08.51-.37,2.35-.21,1.37-.41,2.63-.04.27a.855.855,0,0,1-.97.71l-.47-.07ZM48.96,113.8l.35-2.27.07-.41.17-1.07.52-3.38a.855.855,0,0,1,.97-.71l4.62.71,1.6.25.91.14a.85.85,0,0,1,.71.98l-.08.5-.34,2.22-.06.39-.62,4.02a.865.865,0,0,1-.98.71l-4.77-.74-1.61-.25-.06-.01-.31-.05-.38-.06A.855.855,0,0,1,48.96,113.8ZM77.29,87.76l.17-1.12a.865.865,0,0,1,.98-.72l7.13,1.11a.859.859,0,0,1,.38.16.88.88,0,0,1,.33.53v.01a1.219,1.219,0,0,1,0,.27l-.08.51-.07.45-.21,1.37-.41,2.64-.21,1.35-.13.82a.855.855,0,0,1-.97.71l-1.11-.17-1.59-.25-3.67-.57-.38-.06-.38-.06a.855.855,0,0,1-.71-.97l.2-1.31L77,89.65Zm6.47,16.46-.26,1.66-.17,1.11a.855.855,0,0,1-.97.72l-1.47-.23-1.59-.25-3.69-.57-.38-.06a.852.852,0,0,1-.71-.98l.8-5.19.21-1.35.09-.59a.865.865,0,0,1,.98-.71l.84.13,1.08.17.51.08,1.11.17,2.39.37,1.2.19a.855.855,0,0,1,.71.97l-.08.51-.16,1.06ZM68.6,96.54l3.27.51a.821.821,0,0,1,.54.32.83.83,0,0,1,.17.65l-.08.51v.02l-.41,2.63-.42,2.76-.19,1.21a.861.861,0,0,1-.79.72,1.275,1.275,0,0,1-.19-.01l-1.39-.21-1.84-.29-1.6-.24-1.92-.3-.38-.06a.839.839,0,0,1-.53-.3.9.9,0,0,1-.18-.68l.07-.48,1-6.42.04-.23a.849.849,0,0,1,.84-.72h.01a.448.448,0,0,1,.12.01l2.24.35Zm3.16-11.65.91.14.69.11.35.05a.841.841,0,0,1,.71.97l-.08.51-.27,1.73-.29,1.91-.46,2.98a.865.865,0,0,1-.98.72l-5.85-.91-.9-.14-.38-.06a.784.784,0,0,1-.43-.2.882.882,0,0,1-.28-.77l.24-1.51.08-.54.13-.82.66-4.27a.855.855,0,0,1,.97-.71ZM55.94,94.58l1.02.16.58.08,1.56.25.91.14a.838.838,0,0,1,.47.23.87.87,0,0,1,.25.74l-.08.51-1.03,6.62a.867.867,0,0,1-.54.67.823.823,0,0,1-.44.04l-1.1-.17-2.37-.37-1.61-.24-1.67-.26-.38-.06a.865.865,0,0,1-.71-.98l.1-.62.19-1.22.22-1.46.07-.45.15-.91.38-2.47a.855.855,0,0,1,.97-.71ZM47.09,93.2l1.07.17a.855.855,0,0,1,.71.97l-.08.51-.71,4.54-.08.52-.06.41-.07.42-.11.73a.855.855,0,0,1-.97.71l-1.01-.16-.48-.07-1.12-.17-2.98-.46-1.17-.18-.38-.06a.865.865,0,0,1-.71-.98l1.11-7.13a.851.851,0,0,1,.16-.39.865.865,0,0,1,.81-.32Zm34.8,17.55a.855.855,0,0,1,.71.97l-.08.51-.87,5.62-.16,1a.821.821,0,0,1-.32.54.83.83,0,0,1-.65.17l-1.59-.24-1.6-.25-3.56-.55-.38-.06a.85.85,0,0,1-.71-.98l.23-1.5.21-1.36.41-2.64.18-1.19.07-.44a.86.86,0,0,1,.98-.71l5.18.81,1.59.24Zm13.3-1.92a.855.855,0,0,1-.97.72l-3.96-.62-1.62-.25-1.18-.18-.37-.06a.855.855,0,0,1-.72-.97l.65-4.16.13-.89.33-2.09a.86.86,0,0,1,.98-.71l2.6.41,1.6.24,2.93.46a.855.855,0,0,1,.71.97l-.05.34-.03.17-.22,1.4Zm1.85-11.91-.01.06a.855.855,0,0,1-.97.71l-2.46-.38-1.62-.25-2.67-.42-.38-.06a.841.841,0,0,1-.71-.97l.52-3.4.06-.34.52-3.39a.86.86,0,0,1,.98-.72l2.95.46,1.6.25,2.58.4a.86.86,0,0,1,.71.98l-.08.5-.93,5.96ZM79.31,74.78a.841.841,0,0,1,.97-.71l7.13,1.1a.833.833,0,0,1,.15.04.806.806,0,0,1,.43.34.839.839,0,0,1,.13.54c.01.02,0,.04,0,.06l-.08.5-.11.76-.21,1.36-.38,2.42-.29,1.91-.03.18a.865.865,0,0,1-.98.71l-.66-.1-1.61-.25-3.19-.5-1.29-.2-.31-.05-.07-.01a.849.849,0,0,1-.71-.71,1.13,1.13,0,0,1,0-.26l.05-.33.12-.74ZM67.45,72.94a.855.855,0,0,1,.97-.72l7.13,1.11a.845.845,0,0,1,.71.98l-.08.5-1.02,6.63a.86.86,0,0,1-.98.71L67.43,81.1l-.38-.06a.855.855,0,0,1-.71-.97ZM55.59,71.1a.855.855,0,0,1,.97-.72l7.13,1.11a.855.855,0,0,1,.72.97l-.08.51L63.3,79.6a.855.855,0,0,1-.97.71l-6.76-1.05-.38-.06a.855.855,0,0,1-.71-.97Zm-.87,11.14,7.13,1.11a.855.855,0,0,1,.72.97l-.08.51-.99,6.34-.04.28a.855.855,0,0,1-.97.72L60,92.09l-6.27-.97-.38-.06a.86.86,0,0,1-.71-.98l1.11-7.13A.855.855,0,0,1,54.72,82.24ZM43.73,69.25a.85.85,0,0,1,.84-.72.66.66,0,0,1,.14.01l7.13,1.11a.855.855,0,0,1,.71.97l-.08.51-1.03,6.62a.855.855,0,0,1-.97.72l-5.12-.8-1.63-.25-.38-.06a.855.855,0,0,1-.72-.97ZM42.86,80.4l2.81.44,4.33.67a.855.855,0,0,1,.71.97l-.08.51L49.6,89.61a.841.841,0,0,1-.97.71l-1.94-.3-4.82-.74-.37-.06a.86.86,0,0,1-.72-.98l1.11-7.13A.855.855,0,0,1,42.86,80.4ZM31.01,78.56l7.13,1.11a.855.855,0,0,1,.71.97l-.08.51-1.03,6.62a.841.841,0,0,1-.97.71l-6.75-1.04-.38-.06a.85.85,0,0,1-.71-.98l1.1-7.13A.86.86,0,0,1,31.01,78.56ZM27.8,99.23a.855.855,0,0,1-.72-.97l1.11-7.13a.86.86,0,0,1,.98-.71l7.13,1.1a.865.865,0,0,1,.71.98l-.08.5L35.9,99.63a.855.855,0,0,1-.97.71l-6.75-1.05Zm31.89,29.24a.848.848,0,0,1-.71-.97l.09-.57.42-2.73.21-1.35.38-2.48a1.209,1.209,0,0,1,.05-.18.834.834,0,0,1,.88-.53h.05l6.81,1.05.32.05a.865.865,0,0,1,.71.98l-.08.5v.02l-.44,2.8-.29,1.9-.21,1.34-.09.57a.855.855,0,0,1-.97.71l-.82-.13-5.93-.92h-.03Zm34.06-15.88a.845.845,0,0,1,.71.97l-.08.51-.28,1.78-.21,1.39-.44,2.8-.1.65a.849.849,0,0,1-.54.67.778.778,0,0,1-.43.04l-4.26-.66-1.61-.25-.89-.13-.37-.06a.85.85,0,0,1-.72-.97v-.01l.21-1.35.9-5.78a.855.855,0,0,1,.97-.71l.16.02,1.6.25,2.38.37,1.62.26,1.2.18ZM87.05,83.1l-.03.18a.865.865,0,0,1-.98.71l-.66-.1-1.61-.25.94,1.53,1.6.25.74.11a.865.865,0,0,0,.98-.71l.01-.09ZM81.5,95.43l-3.67-.57a.836.836,0,0,1-.39.67l-.07.04a.849.849,0,0,0,.71.71l3.28.51-.13-.21A.849.849,0,0,1,81.5,95.43Zm4.42-5.1-.41,2.64,1.38-.85.4-2.58c0-.02.01-.03,0-.05ZM71.67,103.94l-.19,1.21a.861.861,0,0,1-.79.72,1.275,1.275,0,0,1-.19-.01l-1.39-.21-1.84-.29-1.6-.24-1.92-.3-.38-.06a.839.839,0,0,1-.53-.3l-1.79,1.1a.812.812,0,0,1-.94-.05.8.8,0,0,1-.46.05l-3.55-.55,1.15,1.88a.037.037,0,0,1,.01.03l.91.14a.85.85,0,0,1,.71.98l-.08.5-.34,2.22.12-.07a.837.837,0,0,1,1.11.2c.02.03.04.05.06.08l1.43,2.33.43-2.8.31-1.99a.865.865,0,0,1,.98-.71l.32.05,2.25-1.38,4.57.7,1.47.23a.615.615,0,0,0,.13.01.85.85,0,0,0,.85-.72l.17-1.13Zm-11.79,1.34-.1-.17-.34.21a.848.848,0,0,1-1.17-.28l-.73-1.19-2.37-.37-1.61-.24.94,1.52,1.6.25,3.55.55a.8.8,0,0,0,.46-.05A.633.633,0,0,1,59.88,105.28ZM46.6,108.96l-.44,2.8-.24,1.57a.838.838,0,0,1-.73.71.265.265,0,0,1-.06.05l-1.77,1.09,1.59.24,1.79-1.09a.774.774,0,0,0,.34-.44l.05-.33.47-2.97Zm34.46,15.18-.38-.06-.08.55a.78.78,0,0,1,.31.29l.1.17.34-.21a1.021,1.021,0,0,1,.4-.12A.863.863,0,0,0,81.06,124.14ZM91.2,110.46l-.94-1.53-1.62-.25-1.18-.18-.37-.06a.855.855,0,0,1-.72-.97l.65-4.16.13-.89-.64.4-1.08-1.76-.26-.43a.784.784,0,0,0-.43-.2l-.38-.06-.16,1.06-.44,2.79-.26,1.66-.17,1.11a.855.855,0,0,1-.97.72l-1.47-.23-1.59-.25-3.69-.57-.08.5a.86.86,0,0,0,.71.98l1.26.2-1.22.74-3.32-5.42-.3,1.9-.17,1.13a.85.85,0,0,1-.85.72l2.07,3.38.07-.44a.86.86,0,0,1,.98-.71l5.18.81,1.59.24,3.45-2.11,1.79,2.92,1.6.25,2.38.37,1.62.26Z"/>
        <path class="cls-2" d="M109.43,87.73l-.42,1.21-.15.42v.01l-.43,1.21-.01.04-.45,1.27-.85,2.45-.52,1.49h-.01l-.46,1.34-.69,1.97-.46,1.31-.58,1.65-.45,1.31h-.01l-1.08,3.11v.01l-.16.44-1.29,3.69-.46,1.32-.02.06-.38,1.08-.18.5-.45,1.31h-.01l-1.37,3.94-.8,2.28-.18.5-.18.53-.17.48v.01l-.78,2.22v.01l-.1.29h-.01l-.43,1.25-.57,1.62-.49,1.41-.15.43-.39,1.13-.01.01-1.62,4.64-.03.08v.01l-.43,1.22-.1.29v.01l-.41,1.16-.38,1.07-.53,1.52-.61,1.75-.2.57-.35.99v.01l-.6,1.73-.46,1.29v.01l-.54,1.55-.51,1.46-.53,1.51-.78,2.23-.53,1.52L83.9,160.7v.01l-.54,1.55-1.06,3.03-.43,1.23v.01l-.79,2.24-.53,1.51-2.91,8.33-.31.89-1.84,5.26h-.01l-.04.14v.01l-3.28,9.35-.5,1.44-.19.54a5.032,5.032,0,0,1-.41.91,4.95,4.95,0,0,1-.53.79c-.01.01-.02.02-.02.03a5.421,5.421,0,0,1-2.7,1.79,5.092,5.092,0,0,1-.56.14c-.19.03-.38.06-.58.08a5.538,5.538,0,0,1-5.8-3.74l-.73-2.08-.35-1.01-.69-1.96-.35-1.01-2.66-7.61-.35-1.01h-.01l-.68-1.96-.36-1.01-2.66-7.61-.32-.91-.72-2.06-1.97-5.64-2.6-7.43-.26-.76-1.94-5.53-.01-.02-.11-.33-.53-1.5-.39-1.12-.29-.85h-.01l-.35-1.01-2.66-7.6-.35-1.01-.69-1.97-.35-1-1.33-3.79-.51-1.46-.78-2.23-.04-.13-.36-1.01-.12-.35-.44-1.25-.12-.36-.36-1.01-.37-1.07-.86-2.46-.15-.43-.51-1.46-.31-.89-.33-.94-.12-.36h-.01l-.38-1.11-.17-.46-.15-.43-.08-.24,3.53-2.18,1.38-.86,2.06-1.27,3.31-2.05.31-.19,1.93-1.19,1.8-1.11,2.64-1.63.11-.07,1.27-.79,2.06-1.27,1.39-.86,2.41-1.49,1.78-1.1,2.24-1.39,3.56-2.19,2.06-1.28,1.38-.85,4.68-2.9,1.79-1.1,2.23-1.38,1.29-.8,2.06-1.27,1.38-.86,6.95-4.29,1.41-.88,4.43-2.74.65-.39,3.92-2.43,1.07-.66,2.57,4.16.99,1.61,1.74,2.81.97,1.56,5.02,8.13Z"/>
      </g>
      <path class="cls-3" d="M89.62,144.35v.01l.01-.01ZM95.5,86.84l-2.25,1.38,1.6.25,2.25-1.38ZM49.38,111.12l-1.49-2.43-.99-1.62-.3,1.89,1,1.63.44.72a.855.855,0,0,0,1.17.28l.1-.06.23-.14Zm9.7-7.14a.823.823,0,0,1-.44.04l-1.1-.17.73,1.19a.848.848,0,0,0,1.17.28l.34-.21ZM88.34,82.82l-1-1.63-.29,1.91.99,1.63.93,1.51a.855.855,0,0,0,1.17.28l.34-.21Zm4.07,3.54-.66.4a.855.855,0,0,1-1.17-.28l-.1-.17-.34.21a.855.855,0,0,1-1.17-.28l-.93-1.51-.01.09a.865.865,0,0,1-.98.71l-.74-.11,1.64,2.67a.848.848,0,0,1-.28,1.17l-.38.23c.01.02,0,.03,0,.05l-.4,2.58-1.38.85-.21,1.35,1.38-.85,2.06-1.26.2-.12-.1-.17a.176.176,0,0,0-.04-.05l.52-3.39a.86.86,0,0,1,.98-.72l2.95.46,2.25-1.38ZM82.84,96.82a.843.843,0,0,1,.25-1.14l-1.59-.25a.849.849,0,0,0-.27,1.15l.13.21,1.17,1.91.93,1.53.9.14.38.06a.784.784,0,0,1,.43.2l-2.19-3.59Zm-8.08,12.82a.86.86,0,0,0-.98.71l-.07.44.04.06a.845.845,0,0,1-.22,1.13.265.265,0,0,1-.06.05l-2,1.23-.41,2.63-.21,1.35,2.06-1.26,1.38-.85.46-.28-.1-.16a.747.747,0,0,0-.25-.25l.39-2.55a.865.865,0,0,1,.98-.71l2.37.37,1.8-1.1ZM82.53,98.7l-1.17-1.91-3.28-.51a.849.849,0,0,1-.71-.71l-4.84,2.97-.03.01-.41,2.63-.42,2.76.99,1.62.3-1.9-.35-.57a.846.846,0,0,1,.28-1.17l.37-.23,2.06-1.26,3.39-2.08.32-.19.01-.01a.846.846,0,0,1,1.1.18.392.392,0,0,1,.08.1l.88,1.43,2.36.37Zm-1.62,26.22a.78.78,0,0,0-.31-.29l-.13.79.54-.33Zm-.97-14.47-1.8,1.1,1.6.25,1.79-1.11Zm28.31-19.72a.858.858,0,0,1-1.17-.29l-.05-.08-.05-.09-1.12-1.82-.94-1.54-1.57-2.55-.04-.07a.837.837,0,0,1,.23-1.13.176.176,0,0,1,.05-.04l2.1-1.29-1.41-2.31-.19-.32-1.06.65-.25.15-.8.49a.837.837,0,0,1-1.11-.2c-.02-.03-.04-.05-.06-.08l-.1-.16-.84-1.37-.13-.21-.94-1.53-1.17-1.91-.59-.97a.8.8,0,0,1-.12-.52.856.856,0,0,1,.4-.66l2.11-1.29-1.08-1.76-1.06.65-4.06,2.49-.27.16-4.84,2.96-.74.46-7.84,4.8-1.34.82-4.84,2.97-1.8,1.1-5.44,3.33-1.38.85-2.07,1.26-2.88,1.76-2.25,1.38-1.8,1.11L52.7,97.79l-1.39.85L49.25,99.9l-1.15.7-.23.14-2.09,1.28-1.8,1.11-2.26,1.38-.1.07-1.82,1.11-.34.21-1.57.95-2.05,1.27-1.39.84-3.39,2.08.15.43.55,1.57h.01l.07-.05a.86.86,0,0,1,1.18.28l.21.34,2.89,4.71.67,1.1a.872.872,0,0,1-.29,1.18l-.82.5-.9.56h-.01l.13.36.44,1.25.12.35.35,1.01h.01l.62-.39,1.34-.82.33-.2a.855.855,0,0,1,1.17.28l1.22,2,.94,1.52.48.79.93,1.52.2.33a.848.848,0,0,1-.28,1.17l-3.94,2.41.69,1.97.35,1.01,4.18-2.57.33-.2a.858.858,0,0,1,1.17.29l1.93,3.16,1.84,2.99a.846.846,0,0,1-.28,1.17l-.43.26-5.72,3.51h-.01l.3.85.39,1.12.53,1.5a.839.839,0,0,1,.39-.84l4.97-3.04.85-.52.34-.21a.848.848,0,0,1,1.17.28l3.77,6.15a.869.869,0,0,1-.28,1.18l-3.18,1.94-2.98,1.83a.86.86,0,0,1-1.17-.29l-.1-.16-3.66-5.97,1.94,5.53.26.76,2.6,7.43,2.6,4.25a.86.86,0,0,1-.28,1.18l-.35.21.72,2.06.32.91.59-.36.33-.2a.855.855,0,0,1,1.17.28l3.77,6.16a.848.848,0,0,1-.28,1.17l-2.56,1.57.68,1.96h.01l.35,1.01,2.79-1.71.34-.21a.86.86,0,0,1,1.17.29l.74,1.2,3.03,4.95a.855.855,0,0,1-.28,1.17l-.71.44-4.07,2.49.69,1.96.35,1.01,3.97-2.43,1.04-.64.33-.2a.86.86,0,0,1,1.18.28l3.54,5.78.23.37a.861.861,0,0,1,.1.62,4.95,4.95,0,0,0,.53-.79,5.032,5.032,0,0,0,.41-.91l.19-.54.5-1.44-2.88-4.7a.855.855,0,0,1,.28-1.17l5.83-3.57.09-.06h.01l1.84-5.26a.785.785,0,0,1-.31-.29l-.1-.16-3.67-5.99a.846.846,0,0,1,.28-1.17l5.82-3.57.33-.2a.86.86,0,0,1,1.18.28l.22.37.79-2.24v-.01l.43-1.23,1.06-3.03-1.21.74a.86.86,0,0,1-1.17-.29l-.1-.16-3.67-5.99a.855.855,0,0,1,.28-1.17l5.83-3.57.33-.2a.846.846,0,0,1,1.17.28l1.38,2.24.78-2.23.53-1.51-.06-.11a.846.846,0,0,1,.28-1.17l.29-.18.54-1.55.01-.01.45-1.29.6-1.73-3.5,2.14a.858.858,0,0,1-1.17-.29l-.1-.17-3.67-5.98a.846.846,0,0,1,.28-1.17l4.64-2.85,1.18-.72.33-.2a.86.86,0,0,1,1.18.28l.72,1.17,1.8,2.95.38-1.07.41-1.16v-.01l.1-.29.43-1.22v-.01l-.06-.09-.57-.92-.59-.96a.855.855,0,0,1,.28-1.17l1.17-.72,1.42-.86.01-.01.39-1.13.15-.43.49-1.41.57-1.62-.35.21-2.06,1.26-1.38.85-2.01,1.23a.86.86,0,0,1-1.18-.28l-.1-.16-2.84-4.64-.83-1.35a.509.509,0,0,1-.07-.17.827.827,0,0,1,.36-1l.88-.54,1.81-1.11,3.13-1.92.33-.2a.846.846,0,0,1,1.17.28l.7,1.14,1,1.63,1.98,3.22.78-2.22v-.01l.17-.48.18-.53.18-.5-.08-.13-.99-1.63-1.29-2.1a.846.846,0,0,1,.28-1.17l1.67-1.03,2.53-1.55.68-.42h.01l.38-1.08.02-.06.46-1.32,1.29-3.69.16-.44v-.01l-2.1-3.41-.96-1.57-.46-.75a.855.855,0,0,1,.28-1.17l1.51-.92.29-.18,4.02-2.46.34-.21a.81.81,0,0,1,.81-.02h.01l.52-1.49.85-2.45.45-1.27Zm-8.04,18.99-.88.54-.11.06-4.77,2.92-.4.25a.846.846,0,0,1-1.17-.28l-.1-.17-.41-.66-1.17-1.92-.94-1.53-1.15-1.87a.86.86,0,0,1,.28-1.18l5.82-3.56.33-.2c.01,0,.01-.01.02-.01a.877.877,0,0,1,1.06.16.642.642,0,0,1,.1.13l.57.94,1.49,2.42,1,1.63.71,1.16A.855.855,0,0,1,100.21,109.72Zm-9.96,5.1a.846.846,0,0,1-.28,1.17l-4.06,2.49-1.38.84v.01l-.71.43a.86.86,0,0,1-1.18-.28l-.1-.16-.89-1.47-2.77-4.52a.86.86,0,0,1,.28-1.18l.58-.35,1.79-1.11,3.45-2.11.33-.2a.855.855,0,0,1,1.17.28l1.89,3.09.94,1.53Zm-4.24,17.67-.09.06-1.75,1.07-.97.59-1.8,1.1-1.55.95a.846.846,0,0,1-1.17-.28l-.1-.16-.64-1.04-.93-1.53-.48-.78-.94-1.53-.68-1.11a.869.869,0,0,1,.28-1.18l5.28-3.23.54-.33.34-.21a1.021,1.021,0,0,1,.4-.12.881.881,0,0,1,.77.41l.88,1.44,1,1.62,1.89,3.09A.855.855,0,0,1,86.01,132.49Zm-3.97,16.5-6.15,3.77a.86.86,0,0,1-1.18-.28l-.1-.16-3.67-5.99a.872.872,0,0,1,.29-1.18l5.82-3.57.33-.2a.858.858,0,0,1,1.17.29l3.77,6.15A.846.846,0,0,1,82.04,148.99Zm-3.96,16.5-6.16,3.77a.846.846,0,0,1-1.17-.28l-.1-.16-3.67-5.99a.86.86,0,0,1,.28-1.18l5.82-3.55.34-.21a.848.848,0,0,1,1.17.28l3.77,6.15A.855.855,0,0,1,78.08,165.49ZM55.91,121.78l-.1-.16-.95-1.55-.93-1.52-1.18-1.92-.61-1a.773.773,0,0,1-.11-.49.808.808,0,0,1,.39-.69l5.82-3.55.22-.14.12-.07a.837.837,0,0,1,1.11.2c.02.03.04.05.06.08l1.43,2.33,1,1.63,1.21,1.98.13.21a.837.837,0,0,1-.26,1.15s-.01.02-.02.02l-2.22,1.37h-.01l-.88.53-2.08,1.28-.97.59a.713.713,0,0,1-.39.12A.846.846,0,0,1,55.91,121.78Zm-10.49,5.84-.41-.66-.98-1.6-2.12-3.46a.86.86,0,0,1,.28-1.18l1.73-1.06,1.13-.69.52-.32,2.44-1.5.33-.2a.869.869,0,0,1,1.18.28l.43.7.93,1.52.41.66,2,3.28a.855.855,0,0,1-.28,1.17l-.8.49-2.95,1.8-1.11.69-1.3.79a.846.846,0,0,1-1.17-.28l-.1-.17ZM66.34,92.86a.846.846,0,0,1,.28-1.17l5.82-3.56.34-.21a.848.848,0,0,1,1.17.28l.12.2,1,1.63,1.49,2.43,1,1.63.16.26a.9.9,0,0,1-.28,1.18l-.07.04-4.84,2.97-.03.01-1.22.75a.858.858,0,0,1-1.17-.29l-.1-.16-.48-.78-.93-1.53-1.18-1.91-.93-1.53Zm-1.66,43.23a.848.848,0,0,1,.28-1.17l2.81-1.72,1.79-1.1,1.22-.75.33-.2a.91.91,0,0,1,1.18.28l.25.42.49.78.93,1.53,2.1,3.43a.858.858,0,0,1-.29,1.17l-6.15,3.77a.846.846,0,0,1-1.17-.28l-.1-.17Zm-3.22-5.25-.48-.79-.92-1.49-.02-.03-.97-1.6-.66-1.07a.846.846,0,0,1,.28-1.17l.8-.49,1.38-.84,3.05-1.87.59-.36.34-.21a.848.848,0,0,1,1.17.28l.41.67,1.95,3.19,1,1.62.41.67a.869.869,0,0,1-.28,1.18l-.46.28L65.8,130.8l-.93.57-1.52.93a.849.849,0,0,1-1.17-.29l-.1-.16Zm4.01-24.37,1.8-1.11,1.21-.74.33-.2a.846.846,0,0,1,1.17.28l.71,1.17.95,1.54,2.07,3.38.04.06a.845.845,0,0,1-.22,1.13.265.265,0,0,1-.06.05l-2,1.23-1.39.85-2.76,1.69a.872.872,0,0,1-1.18-.29l-.1-.16-3.13-5.11-.54-.88a.858.858,0,0,1,.29-1.17l.56-.34Zm14.75-8.04.88,1.43,2.66,4.36.23.37a.86.86,0,0,1-.29,1.17l-.2.12-2.61,1.6-1.8,1.1-1.54.95a.855.855,0,0,1-1.17-.28l-.1-.17-3.32-5.42-.35-.57a.846.846,0,0,1,.28-1.17l.37-.23,2.06-1.26,3.39-2.08.32-.19.01-.01a.846.846,0,0,1,1.1.18A.392.392,0,0,1,80.22,98.43Zm-.35,22.41.15.25a.848.848,0,0,1-.28,1.17l-.38.23-1.81,1.11-3.97,2.43a.827.827,0,0,1-.97-.07.578.578,0,0,1-.2-.21l-.1-.16-.71-1.17-2.96-4.83a.782.782,0,0,1-.11-.51.8.8,0,0,1,.39-.66l1.93-1.18,2.06-1.26,1.38-.85.46-.28.33-.2a.855.855,0,0,1,1.17.28l2.68,4.39ZM58.21,148.52l-.1-.16-1.52-2.49-2.15-3.51a.858.858,0,0,1,.29-1.17l.71-.44,5.11-3.13.33-.2a.846.846,0,0,1,1.17.28l3.77,6.16a.848.848,0,0,1-.28,1.17l-6.15,3.77A.869.869,0,0,1,58.21,148.52Zm2.5,4.07a.857.857,0,0,1,.28-1.17l5.82-3.56.34-.21a.855.855,0,0,1,1.17.28l3.77,6.16a.846.846,0,0,1-.28,1.17l-6.16,3.77a.848.848,0,0,1-1.17-.28l-.1-.16Zm33.23-53.1-1.28.78-1.8,1.11-2.53,1.55-.55.33a.794.794,0,0,1-.76.05.737.737,0,0,1-.41-.33l-.1-.16-1.08-1.76-.26-.43-2.19-3.59-.14-.22a.843.843,0,0,1,.25-1.14c.01-.02.02-.02.03-.03l2.18-1.33,1.38-.85,2.06-1.26.2-.12.34-.21a.842.842,0,0,1,.77-.05.8.8,0,0,1,.4.33l3.15,5.15.62,1.01a.82.82,0,0,1,.12.48A.842.842,0,0,1,93.94,99.49Zm-.7-24.11a.869.869,0,0,1,1.18.28l.41.66.93,1.53,2.42,3.97a.846.846,0,0,1-.28,1.17l-3.69,2.26-1.8,1.11-.66.4a.855.855,0,0,1-1.17-.28l-.1-.17-2.14-3.49-1-1.63-.53-.87a.848.848,0,0,1,.28-1.17l.63-.38,1.37-.85,2.06-1.26,1.18-.72.58-.36ZM83.01,81.65a.846.846,0,0,1,1.17.28l1.2,1.96.93,1.53,1.64,2.67a.848.848,0,0,1-.28,1.17l-.38.23-1.37.84-4.4,2.7a.869.869,0,0,1-1.18-.28l-.1-.16L78.29,89.4l-1-1.64-.72-1.17a.855.855,0,0,1,.28-1.17l2.43-1.49,1.3-.79,2.1-1.29ZM63.72,94.47l.89,1.46h.01l.94,1.54,1.93,3.15a.858.858,0,0,1-.29,1.17l-3.29,2.02-1.07.65-1.79,1.1a.812.812,0,0,1-.94-.05.633.633,0,0,1-.23-.23l-.1-.17-.7-1.13-2.97-4.85a.86.86,0,0,1,.28-1.18l2.5-1.53,1.59-.98,1.73-1.06.33-.2A.872.872,0,0,1,63.72,94.47Zm-11.44,6,.03-.02a.855.855,0,0,1,1.17.28l1.69,2.75.93,1.53,1.15,1.88a.037.037,0,0,1,.01.03.84.84,0,0,1-.29,1.14l-.26.16-5.89,3.61a.765.765,0,0,1-.32.11.817.817,0,0,1-.67-.18.771.771,0,0,1-.19-.21l-.1-.16-.16-.27-1.49-2.43-.99-1.62-.26-.41-.77-1.27a.872.872,0,0,1-.1-.25.86.86,0,0,1,.39-.92l.98-.6,1.28-.79.42-.25,2.06-1.26,1.08-.67ZM39.41,117.82l-.1-.16-.93-1.53-2.74-4.47a.855.855,0,0,1,.28-1.17l1.56-.95,1.38-.85,2.88-1.76.18-.11.16-.1a.848.848,0,0,1,1.17.28l2.91,4.76.86,1.4a.831.831,0,0,1,.11.4.549.549,0,0,1-.05.33.774.774,0,0,1-.34.44l-1.79,1.09-1.59.98-.66.4-1.8,1.11-.32.19A.857.857,0,0,1,39.41,117.82Zm12.54,20.46-.1-.17-3.67-5.98a.846.846,0,0,1,.28-1.17l.98-.6,1.8-1.1.93-.57.67-.41,1.13-.69.31-.2.33-.2a.857.857,0,0,1,1.15.24.138.138,0,0,1,.03.04l.94,1.54.74,1.21.94,1.53,1.14,1.87a.86.86,0,0,1-.28,1.18l-4.52,2.76-1.63,1A.846.846,0,0,1,51.95,138.28Zm2.3,26.74-.1-.17-3.67-5.99a.846.846,0,0,1,.28-1.17l2.32-1.42,3.5-2.15.33-.2a.86.86,0,0,1,1.18.28l.76,1.24,3.01,4.92a.857.857,0,0,1-.28,1.17l-1.05.64-4.72,2.89-.39.24A.855.855,0,0,1,54.25,165.02Zm6.27,10.23-.1-.17-3.03-4.94-.64-1.04a.848.848,0,0,1,.03-.93.747.747,0,0,1,.25-.25l4.3-2.64,1.52-.93.33-.2a.869.869,0,0,1,1.18.28l3.76,6.16a.846.846,0,0,1-.28,1.17l-4.12,2.52-2.03,1.25A.846.846,0,0,1,60.52,175.25Zm6.26,10.23-.1-.16-3.67-5.99a.858.858,0,0,1,.29-1.17l1.27-.78,4.55-2.79.33-.2a.846.846,0,0,1,1.17.28l3.77,6.15a.86.86,0,0,1-.28,1.18l-6.15,3.76a.837.837,0,0,1-1.07-.15A.449.449,0,0,1,66.78,185.48Zm37.67-93.43a.846.846,0,0,1-.28,1.17l-2.42,1.49-1.38.84-2.06,1.27-.29.17a.826.826,0,0,1-.98-.07.578.578,0,0,1-.2-.21l-.1-.16-3.67-5.99a.828.828,0,0,1,.08-.97.7.7,0,0,1,.21-.21l1.49-.91,2.25-1.38,2.08-1.28.33-.2a.764.764,0,0,1,.55-.1.8.8,0,0,1,.62.39l2.36,3.85.94,1.53ZM82.98,97.04l-.14-.22a.843.843,0,0,1,.25-1.14l-1.59-.25a.849.849,0,0,0-.27,1.15l.13.21,1.17,1.91.93,1.53.9.14.38.06a.784.784,0,0,1,.43.2Zm9.43-10.68-.66.4a.855.855,0,0,1-1.17-.28l-.1-.17-.34.21a.855.855,0,0,1-1.17-.28l-.93-1.51-.01.09a.865.865,0,0,1-.98.71l-.74-.11,1.64,2.67a.848.848,0,0,1-.28,1.17l-.38.23c.01.02,0,.03,0,.05l-.4,2.58-1.38.85-.21,1.35,1.38-.85,2.06-1.26.2-.12-.1-.17a.176.176,0,0,0-.04-.05l.52-3.39a.86.86,0,0,1,.98-.72l2.95.46,2.25-1.38Zm-11.5,38.56a.78.78,0,0,0-.31-.29l-.13.79.54-.33ZM95.5,86.84l-2.25,1.38,1.6.25,2.25-1.38Zm-7.16-4.02-1-1.63-.29,1.91.99,1.63.93,1.51a.855.855,0,0,0,1.17.28l.34-.21ZM82.53,98.7l-1.17-1.91-3.28-.51a.849.849,0,0,1-.71-.71l-4.84,2.97-.03.01-.41,2.63-.42,2.76.99,1.62.3-1.9-.35-.57a.846.846,0,0,1,.28-1.17l.37-.23,2.06-1.26,3.39-2.08.32-.19.01-.01a.846.846,0,0,1,1.1.18.392.392,0,0,1,.08.1l.88,1.43,2.36.37Zm-23.45,5.28a.823.823,0,0,1-.44.04l-1.1-.17.73,1.19a.848.848,0,0,0,1.17.28l.34-.21Zm-9.7,7.14-1.49-2.43-.99-1.62-.3,1.89,1,1.63.44.72a.855.855,0,0,0,1.17.28l.1-.06.23-.14Zm-1.47,5.87a.855.855,0,0,0-1.17-.28l-1.58.96a.81.81,0,0,1,.03.38l-.08.51.37.06a.161.161,0,0,1,.09.03l2.44-1.5Z"/>
      <path class="cls-4" d="M83.9,160.7v.01l.01-.01ZM61.18,113.3l-1.43-2.33c-.02-.03-.04-.05-.06-.08a.837.837,0,0,0-1.11-.2l-.12.07-.06.39,1,1.63,1.49,2.43.88,1.45.11.18.03-.16.27-1.75Zm6.69,7.41-6.81-1.05h-.04l2.22-1.37c.01,0,.02-.02.02-.02a.837.837,0,0,0,.26-1.15l-.13-.21-1.21-1.98-1-1.63-1.43-2.33c-.02-.03-.04-.05-.06-.08a.837.837,0,0,0-1.11-.2l-.12.07-.06.39,1,1.63,1.49,2.43.88,1.45.11.18.03.04a.858.858,0,0,1-.28,1.17l-4.06,2.49a.819.819,0,0,1,.48.9v.03l-.41,2.64,2.06-1.26,1.38-.85,1.25-.76.91-.56a.846.846,0,0,1,1.17.28l.1.17.31.49,1.61.25,2.38.37Zm-5.21-16.93.07-.48-2.06,1.26-.89.55.1.17a.633.633,0,0,0,.23.23.812.812,0,0,0,.94.05l1.79-1.1A.9.9,0,0,1,62.66,103.78Zm17.36,17.31-.15-.25-.94-1.52-2.68-4.39a.855.855,0,0,0-1.17-.28l-.33.2,2.58,4.22.93,1.53.15.24a.86.86,0,0,1-.28,1.18l-.37.23,1.6.24.38-.23A.848.848,0,0,0,80.02,121.09Zm-4.25-9.91,2.37.37,1.8-1.1-5.18-.81a.86.86,0,0,0-.98.71l-.07.44-2.07-3.38a.615.615,0,0,1-.13-.01l-1.47-.23,2.11,3.44a.858.858,0,0,1-.29,1.17l-.18.11-1.39.85-4.25,2.61-.33.2a.846.846,0,0,1-1.17-.28l-1.92-3.14-1.01-1.63-.43,2.8,1,1.63,1.21,1.98.13.21a.837.837,0,0,1-.26,1.15s-.01.02-.02.02l-2.22,1.37h.04l6.81,1.05-.83-1.36a.79.79,0,0,1-.12-.51.84.84,0,0,1,.4-.66l.87-.53,1.48-.91,1.39-.85,2.06-1.27.35-.21a.848.848,0,0,1,.93.03l.39-2.55A.865.865,0,0,1,75.77,111.18ZM92.41,86.36l-.66.4a.855.855,0,0,1-1.17-.28l-.1-.17-.34.21a.855.855,0,0,1-1.17-.28l-.93-1.51-.01.09a.865.865,0,0,1-.98.71l-.74-.11,1.64,2.67a.848.848,0,0,1-.28,1.17l-.38.23c.01.02,0,.03,0,.05l-.4,2.58.78-.48a.847.847,0,0,1,1.13.23l.52-3.39a.86.86,0,0,1,.98-.72l2.95.46,2.25-1.38Zm-4.46,1.73-1.64-2.67-1.6-.25,1.24,2.02.33.53v.01l.07.11a.825.825,0,0,1,.07.7.784.784,0,0,1-.29.42l-.21,1.37,1.37-.84.38-.23A.848.848,0,0,0,87.95,88.09ZM57.26,106.92a.037.037,0,0,0-.01-.03l-1.15-1.88-1.6-.25,1.15,1.89c0,.01.01.01.01.02a.858.858,0,0,1-.3,1.15l-.25.15-4.41,2.71-.95.58-.21.13.1.16a.771.771,0,0,0,.19.21.817.817,0,0,0,.67.18.765.765,0,0,0,.32-.11l5.89-3.61.26-.16A.84.84,0,0,0,57.26,106.92Zm21.83,1.66-1.59-.24-1.22.74-.34.21a.86.86,0,0,1-1.17-.29l-2.11-3.44-.17,1.13a.85.85,0,0,1-.85.72l2.07,3.38.07-.44a.86.86,0,0,1,.98-.71l5.18.81,2.26-1.38ZM91.78,86.26a.86.86,0,0,1-.59-.38l-.71.43.1.17a.855.855,0,0,0,1.17.28l.66-.4ZM43.36,115.18l-.18.1-2.07,1.28-1.8,1.1,1.59.25,1.8-1.11.66-.4,1.59-.98Zm6.59,2.75-.43-.7a.869.869,0,0,0-1.18-.28l-.33.2.52.85.96,1.58a.858.858,0,0,1,.72-.23l.67.1Zm33.45,8.68-.88-1.44a.881.881,0,0,0-.77-.41,1.021,1.021,0,0,0-.4.12l-.34.21.61.99,1.49,2.43.99,1.63.3-1.91Zm.42-4.47,1.72-1.05.97-.6-.89-.13.29-1.88.21-1.35-1.38.84-2.06,1.26-.14.09-.33.2a.831.831,0,0,1-1.04-.13.639.639,0,0,1-.13-.15l-3.77-6.16a.848.848,0,0,1,.28-1.17l.59-.36-2.37-.37a.865.865,0,0,0-.98.71l-.39,2.55a.747.747,0,0,1,.25.25l.1.16.33-.2a.855.855,0,0,1,1.17.28l2.68,4.39.94,1.52.15.25a.848.848,0,0,1-.28,1.17l-.38.23.69.11a.865.865,0,0,1,.71.98l-.08.5.38.06a.863.863,0,0,1,.69.62.881.881,0,0,1,.77.41l.88,1.44.4-2.56a.664.664,0,0,1,.06-.2l-.32-.53A.86.86,0,0,1,83.82,122.14Zm3.86-15.03-.22,1.39,1.18.18Zm6.53-21.86-1.6-.24-1.42.87a.86.86,0,0,0,.59.38l.63.1,3.09.48,1.8-1.1Zm14.54,3.94-1.77,1.08-.11.07-.23.14a.848.848,0,0,1-1.17-.28l-.05-.09-1.18-1.92-.94-1.53-.24-.4-1-1.62-.36-.59a.869.869,0,0,1,.28-1.18l.39-.24,1.38-.84.34-.21-.24-.4-.82-1.33-.18-.29-.37-.6-1.55.95-.22.14-.33.2a.881.881,0,0,1-1.18-.28l-1.07-1.75-.94-1.53-1.17-1.91-.59-.97a.752.752,0,0,1-.11-.52.812.812,0,0,1,.39-.65l2.11-1.29-.53-.87-.3-.49-.25-.4-3.57,2.19-1.15.7-4.46,2.73L85.78,76.3,79.75,80l-1.38.84L76.31,82.1l-2.29,1.41-2.26,1.38-1.8,1.1-3.63,2.23-1.38.84-2.07,1.26-1.38.85-1.5.92L58.2,93.2l-2.26,1.38-1.8,1.1-1.23.76-1.38.84-2.06,1.26-1.39.85-.14.09-3.76,2.3-1.8,1.1-.91.56-1.35.83-2.01,1.23-2.06,1.26-1.39.85-3.95,2.42.27.77.08.24.15.43.17.46.38,1.11h.01l.12.36.33.94.58.95.53.87.4.65.6.98.85,1.39a.855.855,0,0,1-.28,1.17l-.48.3.35,1.01h.01l.12.36.44,1.25.12.35,1.05-.64a.351.351,0,0,1,.14-.06.826.826,0,0,1,1.03.34l.1.16,1.12,1.83.93,1.52.49.79.93,1.53.2.32a.869.869,0,0,1-.28,1.18l-2.69,1.65.35,1,.69,1.97,3.25-2a.869.869,0,0,1,1.18.28l.1.16,3.67,6a.858.858,0,0,1-.29,1.17l-4.9,3,.35,1.01.3.85.39,1.12,5.47-3.35a.31.31,0,0,1,.13-.06.836.836,0,0,1,1.04.34l.1.17,3.67,5.98a.846.846,0,0,1-.28,1.17l-1.89,1.16-3.93,2.41-.33.2a.86.86,0,0,1-1.18-.28l-.21-.36.26.76,2.6,7.43,1.97,5.64.72,2.06a.865.865,0,0,1,.81.39l.1.16,3.67,5.99a.872.872,0,0,1-.29,1.18l-1.31.8.36,1.01.68,1.96h.01l1.87-1.15a.855.855,0,0,1,1.17.28l.1.17,3.67,5.99a.875.875,0,0,1,.1.22.852.852,0,0,1-.38.95l-3.52,2.16.35,1.01.69,1.96,4-2.45.09-.05a.846.846,0,0,1,1.17.28l.1.16,3.67,5.99a.846.846,0,0,1-.28,1.17l-2.02,1.24-.78.48a7.215,7.215,0,0,0,.93,0,5.407,5.407,0,0,0,.58-.07,5.092,5.092,0,0,0,.56-.14,5.421,5.421,0,0,0,2.7-1.79c0-.01.01-.02.02-.03a4.95,4.95,0,0,0,.53-.79,5.032,5.032,0,0,0,.41-.91l.19-.54a.809.809,0,0,1-.22-.23l-3.23-5.29-.53-.86a.817.817,0,0,1,.02-.9.673.673,0,0,1,.26-.27l6.15-3.77a.846.846,0,0,1,1.17.28l.11.16.05.08.05-.14,1.84-5.26.31-.89-.72.44-.34.2a.848.848,0,0,1-1.17-.28l-3.77-6.15a.855.855,0,0,1,.28-1.17l6.16-3.77a.848.848,0,0,1,1.17.28l.1.16,1.2,1.96.53-1.51.79-2.24v-.01a.831.831,0,0,1,.29-1.14l.14-.09,1.06-3.03.54-1.55-3.02,1.84-.33.2a.846.846,0,0,1-1.17-.28l-3.77-6.15a.846.846,0,0,1,.28-1.17l6.15-3.77a.86.86,0,0,1,1.18.28l.1.16,2.35,3.84.53-1.52.78-2.23-1.14-1.86a.846.846,0,0,1,.28-1.17l2.44-1.49v-.01h.01l.45-1.29.6-1.73v-.01h.01l.34-.99.2-.57-5.32,3.25-.34.21a.848.848,0,0,1-1.17-.28l-3.77-6.15a.869.869,0,0,1,.28-1.18l4.65-2.84,1.51-.93a.858.858,0,0,1,1.17.29l.1.16.61,1,2.89,4.72.53-1.52.38-1.07.41-1.16v-.01l-.21-.34-.94-1.53-.48-.78-.67-1.08a.813.813,0,0,1-.12-.42.848.848,0,0,1,.41-.75l1.6-.98,1.38-.85,1.76-1.08.49-1.41.57-1.62.44-1.25.1-.29v-.01l.78-2.22v-.01l-.38-.61-.45-.73-1.5-2.45-.99-1.63-.12-.19a.846.846,0,0,1,.28-1.17l.05-.03,1.38-.84,2.16-1.33.6-.36,1.97-1.21a.834.834,0,0,1,.72-.07l.02-.06.46-1.32,1.29-3.69-.02.01a.86.86,0,0,1-1.18-.28l-1.29-2.1-.99-1.63-1.48-2.42a.846.846,0,0,1,.28-1.17l2.18-1.34,1.14-.69,2.83-1.74a.846.846,0,0,1,1.17.28l.1.17.69,1.11.47-1.34.52-1.49.85-2.45.45-1.27.01-.04.43-1.21v-.01Zm-9.96-3.82a.779.779,0,0,1,.29.28l.1.16.64,1.05,1.75,2.86.97,1.58.31.51a.858.858,0,0,1-.29,1.17l-.6.37-1.38.85-2.06,1.26-1.39.85-.39.24-.33.2a.846.846,0,0,1-1.17-.28l-3.77-6.16a.811.811,0,0,1,.07-.97.578.578,0,0,1,.21-.2l1.5-.92,2.25-1.38,1.8-1.1.6-.37A.862.862,0,0,1,98.79,85.37Zm-.19,24.11-.34.21-4.69,2.87-.79.48-.34.21a.848.848,0,0,1-1.17-.28l-.52-.85-1.17-1.91-.94-1.53-.96-1.57-.18-.29a.869.869,0,0,1,.28-1.18l.14-.08,6.02-3.69c.01,0,.01-.01.02-.01a.833.833,0,0,1,1.03.16.526.526,0,0,1,.12.14l.1.16.79,1.29,1,1.63,1.49,2.43.39.64A.846.846,0,0,1,98.6,109.48Zm-3.68,15.33a.858.858,0,0,1-.29,1.17l-1.02.63-1.3.79-3.5,2.15-.33.2a.846.846,0,0,1-1.17-.28l-2.46-4.02-.99-1.6-.32-.53a.86.86,0,0,1,.28-1.18l1.72-1.05.97-.6,3.46-2.12a.872.872,0,0,1,1.18.29l.1.16,1.56,2.54.95,1.56ZM84.4,132.25l-.08.05-.61.37-2.11,1.29-1.8,1.11-1.22.75-.33.2a.86.86,0,0,1-1.18-.28l-.74-1.21L75.39,133l-.48-.78-.93-1.53-.68-1.11a.86.86,0,0,1,.29-1.17l6.15-3.77a.854.854,0,0,1,.86-.01.78.78,0,0,1,.31.29l.1.17.61.99,1.49,2.43.99,1.63.58.94A.846.846,0,0,1,84.4,132.25Zm-3.97,16.5-5.82,3.57-.33.2a.846.846,0,0,1-1.17-.28l-3.77-6.15a.858.858,0,0,1,.28-1.18l6.15-3.77a.869.869,0,0,1,1.18.28l.1.16,3.67,6A.849.849,0,0,1,80.43,148.75Zm-3.96,16.5-5.82,3.57-.33.2a.86.86,0,0,1-1.18-.28l-3.77-6.15a.869.869,0,0,1,.28-1.18l6.16-3.77a.858.858,0,0,1,1.17.29l.1.17,3.67,5.98A.846.846,0,0,1,76.47,165.25ZM42.88,125.87l-2.58-4.22a.857.857,0,0,1,.28-1.17l3.15-1.93.27-.16,1.16-.72,1.58-.96a.855.855,0,0,1,1.17.28l.1.16.52.85.96,1.58,2.19,3.57a.846.846,0,0,1-.28,1.17l-3.12,1.91-.59.36h-.01l-2.1,1.29-.1.06-.24.15a.857.857,0,0,1-1.17-.28l-.25-.42Zm-5.08-8.3-.94-1.53-1.81-2.95-.99-1.62-.03-.05a.85.85,0,0,1,.21-1.11c.03-.02.05-.04.08-.06l1.31-.8,2.06-1.26,1.38-.85,1.4-.86a.846.846,0,0,1,1.17.28l.1.17.25.4,3.42,5.58a.845.845,0,0,1-.22,1.13.265.265,0,0,1-.06.05l-1.77,1.09-.18.1-2.07,1.28-1.8,1.1-.33.2a.858.858,0,0,1-1.15-.26ZM94.15,77.6l2.43,3.98a.857.857,0,0,1-.28,1.17l-3.69,2.26-1.42.87-.71.43-.34.21a.855.855,0,0,1-1.17-.28l-.93-1.51-.99-1.63L85.2,80.08a.846.846,0,0,1,.28-1.17l2.45-1.5.88-.54,2.83-1.73a.848.848,0,0,1,1.17.28l.1.16.3.5Zm-5.5,36.98a.855.855,0,0,1-.28,1.17l-2.25,1.38-1.38.84-2.06,1.26-.14.09-.33.2a.831.831,0,0,1-1.04-.13.639.639,0,0,1-.13-.15l-3.77-6.16a.848.848,0,0,1,.28-1.17l.59-.36,1.8-1.1,2.26-1.38,1.51-.93a.825.825,0,0,1,.7-.07.781.781,0,0,1,.47.35l.1.16,1.79,2.92.93,1.53ZM46.6,108.96l-1.56-2.55-.77-1.26a.834.834,0,0,1,.28-1.17l.99-.61,2.72-1.66.79-.49,1.65-1.01a.765.765,0,0,1,.39-.11.834.834,0,0,1,.79.39l.1.16.22.36,1.36,2.23.94,1.52,1.15,1.89c0,.01.01.01.01.02a.858.858,0,0,1-.3,1.15l-.25.15-4.41,2.71-.95.58-.21.13-.23.14-.1.06a.855.855,0,0,1-1.17-.28l-.44-.72ZM78.98,82.89l.35-.21,2.07-1.27a.86.86,0,0,1,1.18.28l.1.16,1.09,1.79.94,1.53,1.24,2.02.33.53v.01l.07.11a.825.825,0,0,1,.07.7.784.784,0,0,1-.29.42c-.02.03-.05.04-.07.06l-5.82,3.57-.33.2a.858.858,0,0,1-1.17-.29L78,91.29l-1-1.64-2.03-3.3a.846.846,0,0,1,.28-1.17Zm9.86,9.03.1.17.86,1.39,2.18,3.58.63,1.02a.839.839,0,0,1,.12.48.806.806,0,0,1-.4.69l-1.27.78-1.84,1.13-.59.36-1.48.9-.64.4-.33.2a.842.842,0,0,1-.97-.06.74.74,0,0,1-.21-.22l-.8-1.31-.74-1.2-.93-1.53-1.17-1.91-.13-.21a.849.849,0,0,1,.27-1.15s.01-.02.02-.02l3.99-2.44,1.38-.85.78-.48a.847.847,0,0,1,1.13.23A.176.176,0,0,1,88.84,91.92ZM72.31,125.59l-.33.2a.874.874,0,0,1-1.17-.28l-.99-1.62-1-1.63-.01-.02-.94-1.53-.83-1.36a.79.79,0,0,1-.12-.51.84.84,0,0,1,.4-.66l.87-.53,1.48-.91,1.39-.85,2.06-1.27.35-.21a.848.848,0,0,1,.93.03.747.747,0,0,1,.25.25l.1.16,2.58,4.22.93,1.53.15.24a.86.86,0,0,1-.28,1.18l-.37.23-1.8,1.1-3.26,2ZM61.05,107.95,64,106.14l1.67-1.02,1.53-.94a.86.86,0,0,1,1.18.28l.1.16.63,1.03.93,1.52,2.11,3.44a.858.858,0,0,1-.29,1.17l-.18.11-1.39.85-4.25,2.61-.33.2a.846.846,0,0,1-1.17-.28l-1.92-3.14-1.01-1.63-.84-1.38A.846.846,0,0,1,61.05,107.95Zm21.05-2.43-2.8,1.71-1.8,1.11-1.22.74-.34.21a.86.86,0,0,1-1.17-.29l-2.11-3.44-.99-1.62L71,102.85a.855.855,0,0,1,.28-1.17l.81-.5,1.38-.84,2.06-1.26,1.91-1.17a.827.827,0,0,1,1.08.17.313.313,0,0,1,.09.11l.1.16.77,1.26,2.9,4.73A.869.869,0,0,1,82.1,105.52ZM72.34,87.96l.1.17,1.34,2.18,1,1.62,1.33,2.18a.846.846,0,0,1-.28,1.17l-3.42,2.09-1.48.92-.92.56-.33.2a.86.86,0,0,1-1.18-.28l-.58-.95-.94-1.53-2.2-3.59-.05-.08a.872.872,0,0,1,.29-1.18l.89-.55,5.26-3.22A.858.858,0,0,1,72.34,87.96ZM62.11,94.22l.1.16,1.52,2.5,1,1.62,1.15,1.88a.855.855,0,0,1-.28,1.17l-1.48.91-1.39.84-2.06,1.26-.89.55-.34.21a.848.848,0,0,1-1.17-.28l-.73-1.19L54.5,98.89a.867.867,0,0,1,.28-1.18l2.52-1.54,1.8-1.1,1.84-1.13A.857.857,0,0,1,62.11,94.22Zm-5.31,31.4a.855.855,0,0,1,.28-1.17l.56-.34,2.06-1.26,1.38-.85,1.25-.76.91-.56a.846.846,0,0,1,1.17.28l.1.17.31.49,3.27,5.34.09.15a.86.86,0,0,1-.28,1.18l-.02.01L66,129.45l-1.8,1.1-.93.57-1.19.73-.33.2a.86.86,0,0,1-1.18-.28l-.72-1.18-2.57-4.18Zm6.27,10.23a.855.855,0,0,1,.28-1.17l2.82-1.73,1.8-1.1,1.54-.94a.848.848,0,0,1,1.17.28l.1.16.63,1.03.93,1.53,2.11,3.44a.857.857,0,0,1-.28,1.17l-5.82,3.56-.34.21a.857.857,0,0,1-1.17-.28Zm-9.82-16.03-.93-1.52-1.17-1.92-.61-.99a.749.749,0,0,1-.12-.5.864.864,0,0,1,.4-.68l6.15-3.77a.858.858,0,0,1,1.17.29l.1.17.16.25,1,1.63,1.49,2.43.88,1.45.11.18.03.04a.858.858,0,0,1-.28,1.17l-4.06,2.49-.69.42-1.07.66-.33.2a.86.86,0,0,1-1.18-.28Zm-.41,22.3a.846.846,0,0,1,.28-1.17l2.08-1.28,4.07-2.49a.86.86,0,0,1,1.18.28l.1.16,3.67,5.99a.872.872,0,0,1-.29,1.18l-5.82,3.57-.33.2a.764.764,0,0,1-.55.1.8.8,0,0,1-.62-.39Zm6.27,10.23a.846.846,0,0,1,.28-1.17l6.15-3.77a.855.855,0,0,1,1.17.28l.1.17,3.67,5.99a.848.848,0,0,1-.28,1.17l-5.82,3.57-.33.2a.869.869,0,0,1-1.18-.28ZM46.57,131.89a.86.86,0,0,1,.28-1.18l.98-.6,1.8-1.1.93-.57,1.8-1.1.26-.16.39-.24a.86.86,0,0,1,1.17.29l.1.16.16.27.94,1.53.48.78.94,1.53,1.15,1.88a.855.855,0,0,1-.28,1.17l-3.15,1.93-2.67,1.63-.34.21a.846.846,0,0,1-1.17-.28Zm2.3,26.73a.855.855,0,0,1,.28-1.17l3.6-2.21,2.56-1.56a.846.846,0,0,1,1.17.28l.1.16,3.26,5.32.41.67a.854.854,0,0,1-.01.91.87.87,0,0,1-.27.27l-4.48,2.74-1.34.82-.34.21a.86.86,0,0,1-1.17-.29Zm6.27,10.23a.848.848,0,0,1,.28-1.17l1.02-.62,4.62-2.83.52-.32a.857.857,0,0,1,1.17.28l.1.16,3.67,6a.855.855,0,0,1-.28,1.17l-2.8,1.71-3.02,1.85-.34.21a.855.855,0,0,1-1.17-.28V175Zm6.27,10.24a.86.86,0,0,1,.28-1.18l2.59-1.59,3.56-2.18a.872.872,0,0,1,1.18.29l.1.16,3.67,5.99a.858.858,0,0,1-.29,1.17l-5.71,3.5-.11.07-.33.2a.846.846,0,0,1-1.17-.28Zm17.68-70.51-1.59-.24-1.22.74-.34.21a.86.86,0,0,1-1.17-.29l-2.11-3.44-.17,1.13a.85.85,0,0,1-.85.72l2.07,3.38.07-.44a.86.86,0,0,1,.98-.71l5.18.81,2.26-1.38Zm-4.33,1.06a.86.86,0,0,0-.98.71l-.07.44-2.07-3.38a.615.615,0,0,1-.13-.01l-1.47-.23,2.11,3.44a.858.858,0,0,1-.29,1.17l-.18.11-1.39.85-4.25,2.61-.33.2a.846.846,0,0,1-1.17-.28l-1.92-3.14-1.01-1.63-.43,2.8,1,1.63,1.21,1.98.13.21a.837.837,0,0,1-.26,1.15s-.01.02-.02.02l-2.22,1.37h.04l6.81,1.05-.83-1.36a.79.79,0,0,1-.12-.51.84.84,0,0,1,.4-.66l.87-.53,1.48-.91,1.39-.85,2.06-1.27.35-.21a.848.848,0,0,1,.93.03l.39-2.55a.865.865,0,0,1,.98-.71l2.37.37,1.8-1.1Zm5.26,11.45-.15-.25-.94-1.52-2.68-4.39a.855.855,0,0,0-1.17-.28l-.33.2,2.58,4.22.93,1.53.15.24a.86.86,0,0,1-.28,1.18l-.37.23,1.6.24.38-.23A.848.848,0,0,0,80.02,121.09ZM92.41,86.36l-.66.4a.855.855,0,0,1-1.17-.28l-.1-.17-.34.21a.855.855,0,0,1-1.17-.28l-.93-1.51-.01.09a.865.865,0,0,1-.98.71l-.74-.11,1.64,2.67a.848.848,0,0,1-.28,1.17l-.38.23c.01.02,0,.03,0,.05l-.4,2.58.78-.48a.847.847,0,0,1,1.13.23l.52-3.39a.86.86,0,0,1,.98-.72l2.95.46,2.25-1.38ZM61.18,113.3l-1.43-2.33c-.02-.03-.04-.05-.06-.08a.837.837,0,0,0-1.11-.2l-.12.07-.06.39,1,1.63,1.49,2.43.88,1.45.11.18.03-.16.27-1.75ZM83.4,126.61l-.88-1.44a.881.881,0,0,0-.77-.41,1.021,1.021,0,0,0-.4.12l-.34.21.61.99,1.49,2.43.99,1.63.3-1.91Zm.42-4.47,1.72-1.05.97-.6-.89-.13.29-1.88.21-1.35-1.38.84-2.06,1.26-.14.09-.33.2a.831.831,0,0,1-1.04-.13.639.639,0,0,1-.13-.15l-3.77-6.16a.848.848,0,0,1,.28-1.17l.59-.36-2.37-.37a.865.865,0,0,0-.98.71l-.39,2.55a.747.747,0,0,1,.25.25l.1.16.33-.2a.855.855,0,0,1,1.17.28l2.68,4.39.94,1.52.15.25a.848.848,0,0,1-.28,1.17l-.38.23.69.11a.865.865,0,0,1,.71.98l-.08.5.38.06a.863.863,0,0,1,.69.62.881.881,0,0,1,.77.41l.88,1.44.4-2.56a.664.664,0,0,1,.06-.2l-.32-.53A.86.86,0,0,1,83.82,122.14ZM94.21,85.25l-1.6-.24-1.42.87a.86.86,0,0,0,.59.38l.63.1,3.09.48,1.8-1.1Zm-2.43,1.01a.86.86,0,0,1-.59-.38l-.71.43.1.17a.855.855,0,0,0,1.17.28l.66-.4Zm-3.83,1.83-1.64-2.67-1.6-.25,1.24,2.02.33.53v.01l.07.11a.825.825,0,0,1,.07.7.784.784,0,0,1-.29.42l-.21,1.37,1.37-.84.38-.23A.848.848,0,0,0,87.95,88.09ZM62.66,103.78l.07-.48-2.06,1.26-.89.55.1.17a.633.633,0,0,0,.23.23.812.812,0,0,0,.94.05l1.79-1.1A.9.9,0,0,1,62.66,103.78Zm-5.4,3.14a.037.037,0,0,0-.01-.03l-1.15-1.88-1.6-.25,1.15,1.89c0,.01.01.01.01.02a.858.858,0,0,1-.3,1.15l-.25.15-4.41,2.71-.95.58-.21.13.1.16a.771.771,0,0,0,.19.21.817.817,0,0,0,.67.18.765.765,0,0,0,.32-.11l5.89-3.61.26-.16A.84.84,0,0,0,57.26,106.92Zm-13.9,8.26-.18.1-2.07,1.28-1.8,1.1,1.59.25,1.8-1.11.66-.4,1.59-.98Zm6.59,2.75-.43-.7a.869.869,0,0,0-1.18-.28l-.33.2.52.85.96,1.58a.858.858,0,0,1,.72-.23l.67.1Z"/>
    </g>
    <g id="ice_cream_and_shadow" data-name="ice cream and shadow">
      <path id="choco_base" data-name="choco base" class="cls-5" d="M96.17,57c-19-2-37-2-55-2-7,0-13-5-21-4-3.32.553-6.028,2.023-8.8,3.058l4.346,13.129H116.626l4.138-12.5C117.738,54.034,114.935,53,113.17,53,108.17,53,102.17,57,96.17,57Z"/>
      <path class="cls-6" d="M132.3,18.35v.1a7.352,7.352,0,0,1-.38,2.52l-1.31,3.97-9.85,29.75c-3.02-.66-5.83-1.69-7.59-1.69-5,0-11,4-17,4-18.09-1.9-35.28-2-52.42-2H41.17a17.644,17.644,0,0,1-3.56-.39C32.03,53.45,26.79,50.17,20.17,51c-3.32.55-6.03,2.02-8.8,3.06L3.3,29.68.42,20.97a7.493,7.493,0,0,1-.36-1.9,7.355,7.355,0,0,1,.23-2.45.694.694,0,0,1,.05-.13,8.484,8.484,0,0,1,2.07-3.05A2.764,2.764,0,0,1,3.91,13H128.43a2.833,2.833,0,0,1,1.42.39,8.76,8.76,0,0,1,1.92,2.65,5.464,5.464,0,0,1,.44,1.37.852.852,0,0,1,.03.23A5.667,5.667,0,0,1,132.3,18.35Z"/>
      <g id="Layer_12" data-name="Layer 12">
        <path class="cls-7" d="M20.17,51c-3.32.55-6.03,2.02-8.8,3.06L3.3,29.68.42,20.97a7.493,7.493,0,0,1-.36-1.9A4.373,4.373,0,0,1,0,18.35a5.461,5.461,0,0,1,.29-1.73.694.694,0,0,1,.05-.13,8.484,8.484,0,0,1,2.07-3.05c3.19-3.19,9.38-6.02,17.67-8.26A137.592,137.592,0,0,1,37.37,1.82q3.2-.435,6.57-.76h.01c.16-.02.32-.03.48-.04Q44.01,6.8,43.73,13c-.32,7.14-.49,14.68-.46,22.58q.03,9.375.48,19.42H41.17a17.644,17.644,0,0,1-3.56-.39C32.03,53.45,26.79,50.17,20.17,51Z"/>
        <path class="cls-7" d="M70.51,197.97a5.421,5.421,0,0,1-2.7,1.79,5.092,5.092,0,0,1-.56.14c-.19.03-.38.06-.58.08a5.538,5.538,0,0,1-5.8-3.74l-.73-2.08-.35-1.01-.69-1.96-.35-1.01-2.66-7.61-.35-1.01h-.01l-.68-1.96-.36-1.01-2.66-7.61-.32-.91-.72-2.06-1.97-5.64-2.6-7.43-.26-.76-1.94-5.53-.01-.02-.11-.33-.53-1.5-.39-1.12-.3-.85-.35-1.01-2.66-7.6-.35-1.01-.69-1.97-.35-1-1.33-3.79-.51-1.46-.78-2.23-.04-.13h-.01l-.35-1.01-.12-.35-.44-1.25-.13-.36-.35-1.01-.37-1.07-.86-2.46-.15-.43-.51-1.46-.31-.89-.33-.94-.12-.36h-.01l-.55-1.57-.15-.43-.08-.24-.27-.77-2.16-6.18-.51-1.46-2.4-6.86-.86-2.46L24.05,91l-.51-1.46-.64-1.83-.51-1.46-2.76-7.89-.58-1.65L17.23,71.5l-.86-2.46-.65-1.85H44.46c.04.45.07.89.11,1.34.05.75.11,1.5.17,2.26q.285,3.465.61,6.88c.04.47.09.94.14,1.41.05.59.11,1.18.18,1.76.04.47.09.93.14,1.4.27,2.61.57,5.21.88,7.78l.18,1.41c.07.59.14,1.18.22,1.77.06.48.12.95.19,1.42q.315,2.445.66,4.86c.02.14.04.29.06.43.01.11.03.23.05.34s.03.23.05.35c.05.37.1.74.16,1.11s.11.75.16,1.12c.03.22.07.44.1.66q.495,3.3,1.03,6.56c.06.41.13.81.2,1.21.02.17.05.34.08.5l.36,2.16c.05.32.11.64.17.96.07.47.16.94.24,1.41.1.6.21,1.2.32,1.79.08.48.16.95.25,1.42.04.21.07.41.12.61.29,1.66.6,3.3.92,4.94.13.71.27,1.43.41,2.13a1.552,1.552,0,0,0,.04.21c.06.3.11.6.18.89.03.18.06.35.1.53.05.24.09.49.15.73.09.48.18.95.29,1.43.36,1.85.75,3.69,1.14,5.51.07.36.15.72.23,1.08.14.71.3,1.41.45,2.11l.24,1.08c.37,1.72.76,3.43,1.15,5.12.21.94.42,1.87.64,2.79.53,2.28,1.07,4.55,1.62,6.78.33,1.35.66,2.68.99,4,.13.53.26,1.06.4,1.58.09.38.19.77.29,1.15.17.69.35,1.38.53,2.06l.27,1.05q1.05,4.035,2.11,7.95c.09.35.19.7.28,1.05.19.69.37,1.36.56,2.04.1.36.19.71.29,1.06q1.11,4.005,2.22,7.87c.03.12.06.24.1.36.27.94.54,1.88.81,2.81.17.59.34,1.18.51,1.76q1.005,3.435,1.99,6.77C70.3,197.29,70.41,197.63,70.51,197.97Z"/>
      </g>
      <path class="cls-6" d="M132.3,18.35v.1c-.2,10.09-29.73,18.26-66.15,18.26a225.961,225.961,0,0,1-22.88-1.13q-3.15-.33-6.15-.73C15.87,31.97,1.02,26.02.06,19.07A4.373,4.373,0,0,1,0,18.35a5.461,5.461,0,0,1,.29-1.73.694.694,0,0,1,.05-.13,8.484,8.484,0,0,1,2.07-3.05c3.19-3.19,9.38-6.02,17.67-8.26A137.592,137.592,0,0,1,37.37,1.82q3.2-.435,6.57-.76h.01c.16-.02.32-.03.48-.04C51.23.35,58.54,0,66.15,0c4.72,0,9.32.14,13.76.4a181.1,181.1,0,0,1,25.04,3.1c11.91,2.39,20.83,5.86,24.9,9.89a8.76,8.76,0,0,1,1.92,2.65,5.464,5.464,0,0,1,.44,1.37.852.852,0,0,1,.03.23A4.165,4.165,0,0,1,132.3,18.35Z"/>
      <g id="choco_chunks" data-name="choco chunks">
        <path class="cls-5" d="M7.361,34.9a4.893,4.893,0,0,0,.463,1.2.96.96,0,0,0,1.107.437c.293-1.33-.409-2.648-.752-3.967a7.705,7.705,0,0,1,.766-5.707.735.735,0,0,0,.149-.536.7.7,0,0,0-.2-.286q-3-3.012-5.993-6.026C2.43,19.544.668,17.345.15,18.907c-.414,1.25.127,3,.443,4.21A27.637,27.637,0,0,0,2.82,28.743C3.991,31.017,6.531,32.472,7.361,34.9Z"/>
        <path class="cls-5" d="M20.81,34.819a2.713,2.713,0,0,0,.871.854q1.613,1.153,3.31,2.181a5.466,5.466,0,0,0,2.34.937c1.3.1,2.539-.688,3.847-.674a7.756,7.756,0,0,1,2.917.921,18.049,18.049,0,0,0,4.79,1.334,2.967,2.967,0,0,0,1.443-.065c.995-.377,1.448-1.65,2.462-1.972.527-.168,1.119-.042,1.635-.24,1.2-.462,1.159-2.155.9-3.415l-6.371-1.063c-2.954-.493-5.909-.985-8.869-1.442q-2.266-.349-4.537-.666-1.113-.153-2.227-.3c-.461-.059-1.268-.336-1.693-.042-.377.261-.475.985-.62,1.387A2.771,2.771,0,0,0,20.81,34.819Z"/>
        <path class="cls-5" d="M71.2,42.677A6.632,6.632,0,0,1,72.987,43.9c.362.406.593.914.947,1.327.965,1.125,2.6,1.329,4.078,1.455l3.821.325a2.36,2.36,0,0,0,1.386-.162,4.942,4.942,0,0,0,.832-.8c1.811-1.717,5.343.25,7.09-1.532a6.961,6.961,0,0,0,1.113-2.227c1.209-2.763,4.438-4.572,4.727-7.574a.911.911,0,0,0-.235-.832,1,1,0,0,0-.56-.147,102.66,102.66,0,0,0-23.273,1.282c-1.251.213-2.5.446-3.764.567-.805.077-2.467-.269-3.073.354-1.267,1.3,1.461,3.844,2.294,4.639A14.242,14.242,0,0,0,71.2,42.677Z"/>
        <path class="cls-5" d="M120.966,41.649c.609.032,1.238-.606,2.356-2.791,2.02-3.946,1.443-4.726,2.919-7.353,1.285-2.287,1.715-2.6,2.459-4.826.286-.857.948-2.833.352-3.232-.427-.286-1.214.436-2.47,1.234-1.665,1.056-1.685.679-7.712,3.084-3.278,1.307-2.339,1.047-4.176,1.74-3.156,1.191-4.238,1.323-4.4,2.076-.3,1.413,3,3.372,3.558,3.706,1.678,1,2.4.992,3.519,2.105.532.528.309.525,1.537,2.164C120.426,41.577,120.81,41.641,120.966,41.649Z"/>
        <path class="cls-5" d="M21.627,31.171a41.677,41.677,0,0,1,11.608-7.023c4.563-1.8,11.021-2.832,23.745-4.854.984-.157,1.968-.308,2.953-.459a2.023,2.023,0,0,1,1.46,2.323c-1.9-.037-3.6,1.172-4.961,2.506a21.486,21.486,0,0,1-4.236,3.8c-1.1.616-2.354.933-3.445,1.569a6.828,6.828,0,0,0-3.29,6.269c-2.576.126-5.386.153-7.962.279a30.3,30.3,0,0,1-5.174-.175A23.284,23.284,0,0,1,21.627,31.171Z"/>
        <path class="cls-5" d="M13.787,15.2c3.163-.05,6.412.416,9.433-.522,1.483-.46,2.852-1.245,4.346-1.669a20.255,20.255,0,0,1,6.562-.339,151.979,151.979,0,0,0,18.483-.2c1.615-.116,3.347-.232,4.741.59,1.169.689,1.84,2.538.758,3.357a2.87,2.87,0,0,1-2.028.308l-8.434-.816a20.4,20.4,0,0,0-6.91.12c-2.123.53-4.013,1.726-6.049,2.529-3.845,1.515-8.108,1.587-12.223,1.214-2.081-.189-4.326-.452-6.131.6-.989.577-.827.847-2.214,1.683-2.268,1.367-3.653,1.191-4.409,2.526-.479.845-.105,1.237-.618,1.748-.994.992-3.541.657-4.816-.707-.765-.819-.379-1.266-1.125-2.8C1.928,20.314-.066,19.566.23,18.717c.158-.455.832-.544,1.753-.737,3.819-.8,3.7-1.713,7.312-2.35A28.562,28.562,0,0,1,13.787,15.2Z"/>
        <path class="cls-5" d="M65.734,36.417a6.528,6.528,0,0,1,1.095-2.935,34.849,34.849,0,0,0,2-4.88,8.229,8.229,0,0,0,.525-2.041,6.807,6.807,0,0,0-.515-2.817,2.3,2.3,0,0,0-1.129-1.5c-.319-.123-.676-.1-1-.2s-.66-.373-.612-.712c.165-1.148,1.933-1.287,3.08-1.112a12.2,12.2,0,0,0,3.43.479,9.16,9.16,0,0,1,1.074-.162,6.089,6.089,0,0,1,2.56,1.048c2.726,1.326,5.944.062,8.976.089,5.717.052,10.5,4.948,12.2,10.408a2.262,2.262,0,0,1,.064,1.626,2.367,2.367,0,0,1-1.1.939c-4.455,2.416-9.335,4.535-14.394,4.23-4.251-.256-8.3-2.216-12.563-2.157C68.093,36.746,66.9,37.042,65.734,36.417Z"/>
        <path class="cls-5" d="M103.77,23.2c-1.159-.13-2.45.129-3.4-.542-.792-.557-1.086-1.592-1.749-2.3-1.556-1.655-4.391-.945-6.395-2.017-.821-.439-1.461-1.16-2.268-1.624a7.811,7.811,0,0,0-3.126-.815,46.361,46.361,0,0,0-14.024.685,1.66,1.66,0,0,1-1.923-1.1l-.375-1.143A1.664,1.664,0,0,1,71.818,12.2a48.329,48.329,0,0,1,16.912-.084c4.74.861,6.508,1.787,10.5,1.413,3.527-.331,7.053-2.369,10.421-1.269,1.211.395,2.273,1.175,3.5,1.532,2,.586,4.137-.027,6.223-.138a9.911,9.911,0,0,1,7.041,2.147,9.608,9.608,0,0,1,2.891,6.643,6.53,6.53,0,0,1-.386,3.245c-2.27,4.929-12.5,3.409-16.454,6.489-.235.182-1.015.824-1.622.579-.646-.26-.6-1.324-.962-2.76a13.87,13.87,0,0,0-2.043-4.2A5.949,5.949,0,0,0,103.77,23.2Z"/>
        <path class="cls-5" d="M57.44,6.84c.07,1.04-1.49,1.17-2.5.91a55.931,55.931,0,0,0-18-1.51c-2.51.2-5.08.57-7.54,0-1.38-.32-2.7-.94-4.1-1.19a16.25,16.25,0,0,0-4.67.07l-.55.06A150.37,150.37,0,0,1,43.94,1.06h.01a20.854,20.854,0,0,1,6.56,2.26c1.57.89,3.06,2.07,4.85,2.35C56.21,5.81,57.37,5.97,57.44,6.84Z"/>
        <path class="cls-5" d="M105.27,4.32c-.25,1.55-2.19,2.09-3.76,2.26-5.98.62-12,.72-18.02.82a12.432,12.432,0,0,1-3.71-.31c-1.88-.55-3.6-1.99-5.54-1.74-2.16.29-3.69,2.6-5.86,2.72a13.733,13.733,0,0,0-2.03.06,1.34,1.34,0,0,0-.79.38c-.29.33-.2.89-.8.71-.13-.05-1.34-.29-1.34-.49a.4.4,0,0,1-.12-.1,2.331,2.331,0,0,1-.19-1.36,2.9,2.9,0,0,1,1.32-2.18c.98-.6,2.25-.55,3.26-1.11a16.636,16.636,0,0,0,1.73-1.41c1.95-1.46,4.63-1.19,7.05-1.47A24.114,24.114,0,0,0,79.91.4a181.1,181.1,0,0,1,25.04,3.1.611.611,0,0,1,.21.18A.885.885,0,0,1,105.27,4.32Z"/>
      </g>
    </g>
    <g id="nuts">
      <path class="cls-8" d="M25.357,23.1c-.128-1.656.959-3.469,2.7-2.664,1.434.665,2.217,1.961,1.4,2.752s-1.777,2.825-3.182,1.761A2.519,2.519,0,0,1,25.357,23.1Z"/>
      <path class="cls-8" d="M68.307,10.929c-.128-1.656.959-3.469,2.7-2.664,1.434.665,2.217,1.961,1.4,2.752s-1.777,2.825-3.182,1.761A2.519,2.519,0,0,1,68.307,10.929Z"/>
      <path class="cls-9" d="M34.118,21.036c-.128-1.655.959-3.468,2.7-2.663,1.434.664,2.216,1.961,1.4,2.751s-1.777,2.825-3.182,1.762A2.513,2.513,0,0,1,34.118,21.036Z"/>
      <path class="cls-9" d="M77.745,12.494c1.657.109,3.3,1.444,2.252,3.048-.863,1.325-2.258,1.914-2.923.994s-2.543-2.162-1.29-3.4A2.515,2.515,0,0,1,77.745,12.494Z"/>
      <path class="cls-10" d="M43.333,20.738c.793-1.282,2.35-1.648,3.113-.732s1.968,2.548.793,3.372-2.152,1.328-3.113.733S43.333,20.738,43.333,20.738Z"/>
      <path class="cls-8" d="M39.58,12.387c-2.613.879-5.973-.136-5.382-3.259.488-2.579,2.259-4.365,3.862-3.372s5.269,1.715,4.127,4.408A4.173,4.173,0,0,1,39.58,12.387Z"/>
      <path class="cls-10" d="M42.488,14.071c-1.947-.958-2.688-3.137-1.482-4.357s3.376-3.174,4.719-1.605,2.2,2.9,1.482,4.356S42.488,14.071,42.488,14.071Z"/>
      <path class="cls-8" d="M50.563,21.969c-2.612.878-5.973-.137-5.382-3.26.488-2.579,2.259-4.364,3.862-3.372s5.27,1.715,4.127,4.409A4.173,4.173,0,0,1,50.563,21.969Z"/>
      <path class="cls-9" d="M63.446,8.7c1.282.793,1.648,2.35.732,3.113s-2.548,1.968-3.372.793-1.328-2.151-.732-3.113S63.446,8.7,63.446,8.7Z"/>
      <path class="cls-11" d="M49.117,8.1c-1.4-2.876-.758-6.892,2.9-6.673,3.021.18,5.332,1.953,4.444,3.944s-1.154,6.316-4.406,5.4A4.859,4.859,0,0,1,49.117,8.1Z"/>
      <path class="cls-10" d="M65.523,5.47c.226-.707,1.124-3.331,2.5-3.416C69.849,1.941,72.18,6.29,71,8.265a2.461,2.461,0,0,1-.5.571c-.825.76-2.589,1.721-3.97.934A3.349,3.349,0,0,1,65.523,5.47Z"/>
      <path class="cls-8" d="M109.692,14.555c-.623-1.539-2.4-2.677-3.6-1.182-.987,1.235-1.109,2.744-.027,3.087s2.85,1.737,3.634.158A2.519,2.519,0,0,0,109.692,14.555Z"/>
      <path class="cls-8" d="M65.822,22.814c-.623-1.539-2.405-2.677-3.6-1.182-.987,1.234-1.109,2.743-.027,3.087s2.85,1.736,3.634.158A2.519,2.519,0,0,0,65.822,22.814Z"/>
      <path class="cls-9" d="M100.931,16.616c-.623-1.538-2.405-2.677-3.6-1.182-.987,1.235-1.109,2.744-.027,3.088s2.851,1.736,3.634.158A2.521,2.521,0,0,0,100.931,16.616Z"/>
      <path class="cls-9" d="M67.3,24.98c-1.434.836-2.306,2.762-.656,3.732,1.363.8,2.874.707,3.06-.413s1.311-3.069-.363-3.619A2.515,2.515,0,0,0,67.3,24.98Z"/>
      <path class="cls-10" d="M92.55,20.458c-1.282-.793-2.838-.427-3.113.733s-.626,3.158.794,3.372,2.518.229,3.113-.732S92.55,20.458,92.55,20.458Z"/>
      <path class="cls-8" d="M92.185,11.311c2.731-.379,5.286-2.786,3.364-5.318-1.587-2.091-3.967-2.9-4.96-1.3s-3.952,3.885-1.728,5.786A4.177,4.177,0,0,0,92.185,11.311Z"/>
      <path class="cls-10" d="M90.334,14.114c1.314-1.726,1.006-4.006-.616-4.561s-4.438-1.335-4.941.668-.678,3.574.616,4.56S90.334,14.114,90.334,14.114Z"/>
      <path class="cls-8" d="M86.627,24.784c2.73-.379,5.286-2.786,3.364-5.318-1.587-2.09-3.968-2.9-4.96-1.3s-3.952,3.885-1.729,5.787A4.18,4.18,0,0,0,86.627,24.784Z"/>
      <path class="cls-10" d="M74,20.339c-.794,1.282-.428,2.839.732,3.113s3.159.626,3.373-.793.228-2.518-.733-3.113S74,20.339,74,20.339Z"/>
      <path class="cls-11" d="M80.464,5.634c-.026-3.2-2.394-6.507-5.572-4.68-2.624,1.509-3.9,4.126-2.219,5.512s3.849,5.139,6.351,2.869A4.861,4.861,0,0,0,80.464,5.634Z"/>
      <path class="cls-10" d="M65.88,16.686c-.517-.531-2.492-2.48-3.764-1.942-1.682.712-1.829,5.644.1,6.888a2.493,2.493,0,0,0,.7.289c1.077.312,3.085.386,3.969-.934A3.35,3.35,0,0,0,65.88,16.686Z"/>
    </g>
  </g>
</svg>
