<svg xmlns="http://www.w3.org/2000/svg" viewBox="0 0 99.982 200">
  <defs>
    <style>
      .cls-1 {
        isolation: isolate;
      }

      .cls-2 {
        fill: #f5c880;
      }

      .cls-3 {
        fill: #b89660;
      }

      .cls-4 {
        fill: #f2f2d8;
      }

      .cls-5 {
        fill: #b5b5a2;
      }

      .cls-6 {
        fill: #ff9453;
      }

      .cls-7 {
        fill: #f07f5c;
      }

      .cls-8 {
        fill: #ec5f33;
      }

      .cls-9 {
        fill: #ff7e44;
      }

      .cls-10 {
        fill: none;
        stroke: #f2f2f2;
        stroke-linecap: round;
        stroke-linejoin: round;
        stroke-width: 3px;
        mix-blend-mode: soft-light;
      }
    </style>
  </defs>
  <g class="cls-1">
    <g id="Layer_2" data-name="Layer 2">
      <path class="cls-2" d="M59.771,146.26v43.96a9.78,9.78,0,1,1-19.56,0V146.26a2.81,2.81,0,0,1,.01-.29,9.774,9.774,0,0,1,19.54,0A2.81,2.81,0,0,1,59.771,146.26Z"/>
      <path class="cls-3" d="M51.639,198.821a9.806,9.806,0,0,1-9.777-9.777V145.081a9.749,9.749,0,0,1,3.335-7.326,9.794,9.794,0,0,0-4.983,8.5v43.963a9.754,9.754,0,0,0,16.22,7.326A13.162,13.162,0,0,1,51.639,198.821Z"/>
      <path class="cls-3" d="M59.771,150.4v1.38c-2.32-.51-4.1-2.15-5.94-2.15-2.62,0-4.07,3.2-10.19,5.54a10.59,10.59,0,0,1-1.78.53v-1.38a11.725,11.725,0,0,0,1.78-.54c6.12-2.33,7.57-5.53,10.19-5.53C55.671,148.25,57.451,149.89,59.771,150.4Z"/>
    </g>
    <g id="Layer_5" data-name="Layer 5">
      <rect class="cls-4" x="5.467" y="133.282" width="89.048" height="13.692" rx="6.846"/>
      <path class="cls-4" d="M69.4,145.97c-.88.66-2.19,1.61-3.82,2.7a21.924,21.924,0,0,1-2.45,1.58,6.191,6.191,0,0,1-3.36.17c-2.32-.51-4.1-2.14-5.93-2.14-2.62,0-4.08,3.21-10.2,5.54a11.725,11.725,0,0,1-1.78.54,8.466,8.466,0,0,1-1.65.18,4.658,4.658,0,0,1-4.43-2.47q-2.535-3.045-5.06-6.1Z"/>
      <path class="cls-5" d="M8.467,140.123a6.863,6.863,0,0,1,6.84-6.841h-3a6.845,6.845,0,0,0,0,13.69h3A6.865,6.865,0,0,1,8.467,140.123Z"/>
      <path class="cls-5" d="M38.777,152.063q-2.115-2.535-4.22-5.091h-3q2.1,2.55,4.22,5.091a4.658,4.658,0,0,0,4.43,2.469,8.442,8.442,0,0,0,1.573-.167A4.477,4.477,0,0,1,38.777,152.063Z"/>
    </g>
    <g id="Layer_1" data-name="Layer 1">
      <path class="cls-6" d="M32.677,0H67.306A32.677,32.677,0,0,1,99.982,32.677v100.5a7.775,7.775,0,0,1-7.775,7.775H7.775A7.775,7.775,0,0,1,0,133.173V32.677A32.677,32.677,0,0,1,32.677,0Z"/>
      <path class="cls-7" d="M2.418,134.663V34.167A32.773,32.773,0,0,1,35.1,1.491H69.724A32.39,32.39,0,0,1,85.606,5.645,32.436,32.436,0,0,0,67.306,0H32.677A32.774,32.774,0,0,0,0,32.677v100.5a7.8,7.8,0,0,0,5,7.25A7.752,7.752,0,0,1,2.418,134.663Z"/>
      <g id="Layer_3" data-name="Layer 3">
        <path class="cls-8" d="M71.326,10.767h4.922a8.874,8.874,0,0,1,2.348.324,11.35,11.35,0,0,0-19.46,7.946V131.669a4.842,4.842,0,0,0,3.3,4.578V19.662A8.894,8.894,0,0,1,71.326,10.767Z"/>
        <path class="cls-9" d="M76.989,136.527a4.857,4.857,0,0,0,4.857-4.858V19.037a11.314,11.314,0,0,0-3.25-7.946,8.874,8.874,0,0,0-2.348-.324H71.326a8.894,8.894,0,0,0-8.894,8.9V136.247a4.811,4.811,0,0,0,1.561.28Z"/>
        <path class="cls-8" d="M30.326,10.767h4.922a8.874,8.874,0,0,1,2.348.324,11.35,11.35,0,0,0-19.46,7.946V131.669a4.842,4.842,0,0,0,3.3,4.578V19.662A8.894,8.894,0,0,1,30.326,10.767Z"/>
        <path class="cls-9" d="M35.989,136.527a4.857,4.857,0,0,0,4.857-4.858V19.037a11.314,11.314,0,0,0-3.25-7.946,8.874,8.874,0,0,0-2.348-.324H30.326a8.894,8.894,0,0,0-8.894,8.9V136.247a4.811,4.811,0,0,0,1.561.28Z"/>
      </g>
    </g>
    <g id="Layer_7" data-name="Layer 7">
      <path class="cls-10" d="M79.761,6.56a14.5,14.5,0,0,1,8.474,10.064"/>
    </g>
  </g>
</svg>
