<svg xmlns="http://www.w3.org/2000/svg" viewBox="0 0 63.023 200">
  <defs>
    <style>
      .cls-1 {
        isolation: isolate;
      }

      .cls-2 {
        fill: #f5c880;
      }

      .cls-3 {
        fill: #c6ab80;
      }

      .cls-4 {
        fill: #b89660;
      }

      .cls-5 {
        fill: #4bc0e0;
      }

      .cls-6 {
        fill: #e6f0f8;
      }

      .cls-7 {
        fill: #ff1725;
      }

      .cls-8 {
        fill: #003761;
        mix-blend-mode: overlay;
      }

      .cls-9 {
        fill: none;
        stroke: #f2f2f2;
        stroke-linecap: round;
        stroke-linejoin: round;
        stroke-width: 3px;
        mix-blend-mode: soft-light;
      }
    </style>
  </defs>
  <g class="cls-1">
    <g id="Layer_2" data-name="Layer 2">
      <path class="cls-2" d="M41.291,146.26v43.96a9.78,9.78,0,1,1-19.56,0V146.26a2.81,2.81,0,0,1,.01-.29,9.774,9.774,0,0,1,19.54,0A2.81,2.81,0,0,1,41.291,146.26Z"/>
      <path class="cls-3" d="M41.292,152.534v1.5a13.689,13.689,0,0,1-17.91,1.451,14.184,14.184,0,0,1-1.65-1.44v-1.451a13.15,13.15,0,0,0,1.65,1.421,13.678,13.678,0,0,0,17.91-1.481Z"/>
      <path class="cls-4" d="M33.159,198.821a9.806,9.806,0,0,1-9.777-9.777V145.081a9.749,9.749,0,0,1,3.335-7.326,9.794,9.794,0,0,0-4.983,8.5v43.963a9.754,9.754,0,0,0,16.22,7.326A13.162,13.162,0,0,1,33.159,198.821Z"/>
    </g>
    <g id="Layer_1" data-name="Layer 1">
      <g id="Layer_3" data-name="Layer 3">
        <path class="cls-5" d="M26.032,143.03a13.641,13.641,0,0,1-4.01,9.68,1,1,0,0,1-.11.1,13.69,13.69,0,0,1-19.26-.1,13.821,13.821,0,0,1-1.91-2.39A4.957,4.957,0,0,1,0,147.67v-10.6a13.708,13.708,0,0,1,12.34-7.74,11.32,11.32,0,0,1,1.43.08,13.463,13.463,0,0,1,7.32,3.1,9.494,9.494,0,0,1,.82.73A13.643,13.643,0,0,1,26.032,143.03Z"/>
        <circle class="cls-5" cx="31.491" cy="143.027" r="13.696"/>
        <path class="cls-5" d="M63.022,137.18v10.411a5,5,0,0,1-.723,2.623,13.694,13.694,0,0,1-21.237,2.6,1,1,0,0,1-.11-.1,13.7,13.7,0,1,1,22.07-15.53Z"/>
      </g>
      <path class="cls-5" d="M63.022,105.95v41.641a5,5,0,0,1-.723,2.623c-.073.119-.149.237-.225.353a4.933,4.933,0,0,1-4.138,2.143H5.038a4.924,4.924,0,0,1-4.125-2.128c-.057-.086-.112-.172-.167-.259A4.976,4.976,0,0,1,0,147.669V105.95Z"/>
      <rect class="cls-6" y="59.194" width="63.023" height="46.758"/>
      <path class="cls-7" d="M63.023,59.194H0V41.349A50.494,50.494,0,0,1,10.936,10.936C16.534,4.116,23.711,0,31.511,0h0c7.8,0,14.977,4.112,20.575,10.932A50.5,50.5,0,0,1,63.023,41.349Z"/>
    </g>
    <g id="shadows">
      <path class="cls-8" d="M63.017,41.35V147.59a5.016,5.016,0,0,1-.72,2.62c-.08.12-.15.24-.23.36-.02.02-.03.05-.05.07,0,.01-.01.01-.01.02a13.96,13.96,0,0,1-1.69,2.05,13.641,13.641,0,0,1-9.68,4.01,14.758,14.758,0,0,1-1.5-.08,13.658,13.658,0,0,0,8.18-3.93,13.96,13.96,0,0,0,1.69-2.05c0-.01.01-.01.01-.02.02-.02.03-.05.05-.07.08-.12.15-.24.23-.36a5.016,5.016,0,0,0,.72-2.62V41.35a50.452,50.452,0,0,0-10.94-30.41,32.224,32.224,0,0,0-9.46-8.03A23.407,23.407,0,0,0,30.007.05c.49-.03,1-.05,1.5-.05a23.17,23.17,0,0,1,11.11,2.91,32.224,32.224,0,0,1,9.46,8.03A50.452,50.452,0,0,1,63.017,41.35Z"/>
      <path class="cls-8" d="M21.872,152.02c.01.27.03.53.04.79a13.677,13.677,0,0,1-7.34,3.73c-.03-.27-.06-.55-.08-.82-.31-3.73-.45-7.48-.55-11.22-.13-4.86-.17-9.73-.17-14.6v-.49c-.01-5.44.05-10.87.14-16.3q.135-8.895.39-17.79.255-8.79.59-17.59c.21-5.41.37-10.83.62-16.25.52-11.53,1.05-23.11,4.29-34.26,1.03-3.57,2.56-6.98,3.67-10.52a.159.159,0,0,1,.31.07q-2.2,15.285-2.91,30.74c-.14,3.04-.25,6.09-.34,9.13q-.15,4.71-.22,9.42-.075,4.785-.11,9.57c-.02,3.2-.03,6.39-.02,9.59.01,3.15.03,6.31.06,9.46q.045,4.6.12,9.21c.05,2.94.1,5.88.17,8.82.06,2.76.13,5.53.2,8.29q.105,3.81.23,7.62c.04,1.3.08,2.59.13,3.89.02.52.03,1.03.05,1.55.02.46.03.93.05,1.39q.105,2.94.22,5.88c.06,1.61.13,3.22.2,4.82.05,1.2.1,2.41.16,3.61C21.8,150.51,21.842,151.27,21.872,152.02Z"/>
      <path class="cls-8" d="M41.109,152.025c-.01.27-.03.53-.04.79a13.677,13.677,0,0,0,7.34,3.73c.03-.27.06-.55.08-.82.31-3.73.45-7.48.55-11.22.13-4.86.17-9.73.17-14.6v-.49c.01-5.44-.05-10.87-.14-16.3q-.135-8.895-.39-17.79-.255-8.79-.59-17.59c-.21-5.41-.37-10.83-.62-16.25-.52-11.53-1.05-23.11-4.29-34.26-1.03-3.57-2.56-6.98-3.67-10.52a.159.159,0,0,0-.31.07q2.2,15.285,2.91,30.74c.14,3.04.25,6.09.34,9.13q.15,4.71.22,9.42.075,4.785.11,9.57c.02,3.2.03,6.39.02,9.59-.01,3.15-.03,6.31-.06,9.46q-.045,4.6-.12,9.21c-.05,2.94-.1,5.88-.17,8.82-.06,2.76-.13,5.53-.2,8.29q-.1,3.81-.23,7.62c-.04,1.3-.08,2.59-.13,3.89-.02.52-.03,1.03-.05,1.55-.02.46-.03.93-.05,1.39q-.105,2.94-.22,5.88c-.06,1.61-.13,3.22-.2,4.82-.05,1.2-.1,2.41-.16,3.61C41.179,150.515,41.139,151.275,41.109,152.025Z"/>
      <path class="cls-8" d="M33.012.05c-7.22.49-13.84,4.51-19.08,10.89A50.5,50.5,0,0,0,3,41.35V147.67a4.957,4.957,0,0,0,.74,2.65c.06.09.11.18.17.26a.1.1,0,0,0,.04.05,13.638,13.638,0,0,0,9.89,6.01,14.758,14.758,0,0,1-1.5.08,13.64,13.64,0,0,1-11.39-6.09.1.1,0,0,1-.04-.05c-.06-.08-.11-.17-.17-.26A4.957,4.957,0,0,1,0,147.67V41.35a50.5,50.5,0,0,1,10.93-30.41C16.532,4.12,23.712,0,31.512,0,32.012,0,32.522.02,33.012.05Z"/>
    </g>
    <g id="highlights">
      <path class="cls-9" d="M12.961,18.842a21.5,21.5,0,0,1,7.74-9.8A19.922,19.922,0,0,1,24.594,7"/>
      <path class="cls-9" d="M12.961,18.842a21.5,21.5,0,0,1,7.74-9.8A19.922,19.922,0,0,1,24.594,7"/>
      <path class="cls-9" d="M51.2,24.8a10.444,10.444,0,0,0-1.61-5.847,9.65,9.65,0,0,0-1.356-1.65"/>
    </g>
  </g>
</svg>
