<svg xmlns="http://www.w3.org/2000/svg" xmlns:xlink="http://www.w3.org/1999/xlink" viewBox="0 0 96.588 200">
  <defs>
    <style>
      .cls-1 {
        isolation: isolate;
      }

      .cls-2 {
        fill: #f5c880;
      }

      .cls-3 {
        fill: #c6ab80;
      }

      .cls-4 {
        fill: #b89660;
      }

      .cls-5 {
        fill: url(#linear-gradient);
      }

      .cls-6 {
        fill: #eff6e1;
      }

      .cls-7 {
        fill: #8acc55;
      }

      .cls-8, .cls-9 {
        fill: #282224;
      }

      .cls-9 {
        mix-blend-mode: overlay;
      }

      .cls-10 {
        fill: none;
        stroke: #f2f2f2;
        stroke-linecap: round;
        stroke-linejoin: round;
        stroke-width: 4px;
        opacity: 0.83;
        mix-blend-mode: screen;
      }
    </style>
    <linearGradient id="linear-gradient" x1="48.042" y1="99.573" x2="48.961" y2="0.004" gradientUnits="userSpaceOnUse">
      <stop offset="0" stop-color="#ee004e"/>
      <stop offset="1" stop-color="#f36"/>
    </linearGradient>
  </defs>
  <g class="cls-1">
    <g id="Layer_2" data-name="Layer 2">
      <path class="cls-2" d="M58.074,146.26v43.96a9.78,9.78,0,0,1-19.56,0V146.26a2.81,2.81,0,0,1,.01-.29,9.774,9.774,0,0,1,19.54,0A2.81,2.81,0,0,1,58.074,146.26Z"/>
      <path class="cls-3" d="M58.074,144.552v7.91c-6.88,1.28-12.95-.83-17.91-4.07q-.84-.54-1.65-1.14v-2.7a2.81,2.81,0,0,1,.01-.29,2.437,2.437,0,0,1,.01-.27.875.875,0,0,1,.02-.16,4.926,4.926,0,0,1,.05-.54,3.967,3.967,0,0,1,.07-.48c.02-.13.05-.25.07-.38.05-.19.09-.37.14-.55s.12-.38.19-.57a4.326,4.326,0,0,1,.21-.54,6.265,6.265,0,0,1,.3-.64c.1-.19.2-.38.31-.56s.23-.36.35-.54a10.706,10.706,0,0,1,.71-.92,9.771,9.771,0,0,1,17.1,5.88c0,.09.01.18.01.27A2.81,2.81,0,0,1,58.074,144.552Z"/>
      <path class="cls-4" d="M49.942,198.821a9.806,9.806,0,0,1-9.777-9.777V145.081a9.752,9.752,0,0,1,3.334-7.326,9.8,9.8,0,0,0-4.982,8.5v43.963a9.754,9.754,0,0,0,16.22,7.326A13.167,13.167,0,0,1,49.942,198.821Z"/>
    </g>
    <g id="Layer_1" data-name="Layer 1">
      <path class="cls-5" d="M48.294,0h0A48.436,48.436,0,0,0,0,48.294V96.361c31.992-4.241,66.923,9.34,96.588.191V48.294A48.436,48.436,0,0,0,48.294,0Z"/>
      <path class="cls-6" d="M31.294,110c22.022-3.67,44.044,6.96,65.294,1.786V96.552C66.923,105.7,31.992,92.12,0,96.361v13.588c2.431.832,4.863,1.443,7.294,2.051C15.294,113,23.294,112,31.294,110Z"/>
      <path class="cls-7" d="M31.294,110c-8,2-16,3-24,2-2.431-.608-4.863-1.219-7.294-2.051v26.083A9.7,9.7,0,0,0,9.668,145.7H86.92a9.7,9.7,0,0,0,9.668-9.667V111.786C75.338,116.96,53.316,106.33,31.294,110Z"/>
      <g id="kiwi_seeds" data-name="kiwi seeds">
        <ellipse class="cls-8" cx="12.888" cy="129.81" rx="1.252" ry="1.671" transform="translate(-47.471 14.166) rotate(-21.892)"/>
        <ellipse class="cls-8" cx="51.143" cy="132.456" rx="1.671" ry="1.252" transform="translate(-85.05 92.312) rotate(-52.465)"/>
        <ellipse class="cls-8" cx="22.541" cy="138.721" rx="1.252" ry="1.671" transform="translate(-117.694 129.468) rotate(-76.996)"/>
        <ellipse class="cls-8" cx="5.541" cy="131.721" rx="1.671" ry="1.252" transform="translate(-91.518 42.498) rotate(-45)"/>
        <ellipse class="cls-8" cx="26.804" cy="132.365" rx="1.671" ry="1.252" transform="translate(-9.754 2.355) rotate(-4.258)"/>
        <ellipse class="cls-8" cx="23.899" cy="126.08" rx="1.671" ry="1.252" transform="translate(-82.152 53.827) rotate(-45)"/>
        <ellipse class="cls-8" cx="66.143" cy="121.456" rx="1.252" ry="1.671" transform="translate(-64.419 75.848) rotate(-42.173)"/>
        <ellipse class="cls-8" cx="54.143" cy="128.456" rx="1.252" ry="1.671" transform="translate(-74.974 75.908) rotate(-45)"/>
        <ellipse class="cls-8" cx="85.143" cy="127.456" rx="1.252" ry="1.671"/>
        <ellipse class="cls-8" cx="88.143" cy="140.456" rx="1.252" ry="1.671"/>
        <ellipse class="cls-8" cx="72.143" cy="133.456" rx="1.252" ry="1.671" transform="translate(-78.613 150.418) rotate(-68.025)"/>
        <ellipse class="cls-8" cx="57.143" cy="139.456" rx="1.252" ry="1.671" transform="translate(-93.564 140.262) rotate(-68.025)"/>
        <ellipse class="cls-8" cx="79.143" cy="138.456" rx="1.252" ry="1.671" transform="translate(-80.335 137.767) rotate(-60)"/>
        <ellipse class="cls-8" cx="93.143" cy="138.456" rx="1.671" ry="1.252" transform="translate(-68.842 98.376) rotate(-42.173)"/>
      </g>
      <g id="watermelon_seeds" data-name="watermelon seeds">
        <path class="cls-8" d="M30.748,82.008a3.927,3.927,0,1,1,7.048-3.42,16.038,16.038,0,0,1,.518,7.136,1.693,1.693,0,0,1-2.281,1.106A16.037,16.037,0,0,1,30.748,82.008Z"/>
        <path class="cls-8" d="M72.171,77.974a3.927,3.927,0,1,1-2.956,7.254,16.028,16.028,0,0,1-5.155-4.961,1.693,1.693,0,0,1,.957-2.347A16.027,16.027,0,0,1,72.171,77.974Z"/>
        <path class="cls-8" d="M88.968,63.45A3.926,3.926,0,1,1,82.739,58.7a16.016,16.016,0,0,1,6.135-3.679,1.693,1.693,0,0,1,2.017,1.537A16.038,16.038,0,0,1,88.968,63.45Z"/>
        <path class="cls-8" d="M12.709,66.452A4.069,4.069,0,0,1,7.3,64.516a4.069,4.069,0,0,1,2.318-5.26,16.023,16.023,0,0,1,7.152-.191,1.693,1.693,0,0,1,1,2.329A16.035,16.035,0,0,1,12.709,66.452Z"/>
        <path class="cls-8" d="M70.211,35.365a3.927,3.927,0,1,1-1.78,7.628,16.028,16.028,0,0,1-5.87-4.09,1.694,1.694,0,0,1,.576-2.469A16.039,16.039,0,0,1,70.211,35.365Z"/>
        <path class="cls-8" d="M36.647,49.246a3.926,3.926,0,1,1,7.667-1.6,16.021,16.021,0,0,1-1.233,7.047,1.693,1.693,0,0,1-2.481.519A16.033,16.033,0,0,1,36.647,49.246Z"/>
      </g>
      <path class="cls-9" d="M6,136.03a9.694,9.694,0,0,0,9.66,9.67h-6A9.694,9.694,0,0,1,0,136.03V48.29A48.431,48.431,0,0,1,48.29,0q1.515,0,3,.09A48.448,48.448,0,0,0,6,48.29Z"/>
    </g>
    <g id="highlights">
      <path class="cls-10" d="M68.873,13.205A36.725,36.725,0,0,1,84.092,28.548"/>
      <path class="cls-10" d="M87.294,34.572l1.505,3.36"/>
    </g>
  </g>
</svg>
