<svg xmlns="http://www.w3.org/2000/svg" viewBox="0 0 116.077 200">
  <defs>
    <style>
      .cls-1 {
        isolation: isolate;
      }

      .cls-2 {
        fill: #80d9d0;
      }

      .cls-3 {
        fill: #60a39c;
      }

      .cls-4 {
        fill: #406d68;
      }

      .cls-5 {
        fill: #777f7b;
      }

      .cls-6 {
        fill: #666;
        stroke: #777f7b;
      }

      .cls-17, .cls-6 {
        stroke-miterlimit: 10;
      }

      .cls-7 {
        fill: #e57372;
      }

      .cls-8 {
        fill: #ffb1bb;
      }

      .cls-9 {
        fill: #ffc757;
      }

      .cls-10 {
        fill: #ffe16c;
      }

      .cls-11 {
        fill: #ffbd15;
      }

      .cls-12 {
        fill: #ffca44;
      }

      .cls-13, .cls-14, .cls-15 {
        fill: #f2f2f2;
      }

      .cls-13 {
        opacity: 0.88;
      }

      .cls-13, .cls-16 {
        mix-blend-mode: overlay;
      }

      .cls-14 {
        opacity: 0.55;
      }

      .cls-14, .cls-15 {
        mix-blend-mode: screen;
      }

      .cls-15 {
        opacity: 0.68;
      }

      .cls-16, .cls-17, .cls-18 {
        fill: none;
        stroke-linecap: round;
        stroke-width: 2px;
      }

      .cls-16 {
        stroke: #f2f2f2;
        opacity: 0.58;
      }

      .cls-16, .cls-18 {
        stroke-linejoin: round;
      }

      .cls-17 {
        stroke: #ffbd15;
      }

      .cls-18 {
        stroke: #ffc757;
      }
    </style>
  </defs>
  <g class="cls-1">
    <g id="Layer_3" data-name="Layer 3">
      <path class="cls-2" d="M116,72.868c-1.94,7.7-5.77,16.9-13.25,20.76-13.94,7.18-22.37,7.43-29.56,14.06-2.87,2.65-5.06,6.88-6.66,10.99a58.17,58.17,0,0,0-3.75,18.4l-1.855,40.97a1.1,1.1,0,0,0,.421.909c8.525,6.783,10.46,13.819,29.984,17.791.76.16,1.84.8,1.38.859a252.394,252.394,0,0,1-69.35,0c-.45-.059.63-.7,1.39-.859,19.524-3.972,21.449-11.008,29.984-17.791a1.107,1.107,0,0,0,.421-.909L53.3,137.078a58.17,58.17,0,0,0-3.75-18.4c-1.6-4.11-3.8-8.34-6.67-10.99-7.18-6.63-15.62-6.88-29.55-14.06C5.85,89.768,2.02,80.568.08,72.868c1.55,3.25,26.91,5.83,57.96,5.83S114.45,76.118,116,72.868Z"/>
      <g>
        <path class="cls-3" d="M59.661,78.7c26.771,0,49.3-1.919,56-4.531.12-.436.236-.871.344-1.3-1.536,3.222-26.471,5.784-57.15,5.828C59.121,78.7,59.389,78.7,59.661,78.7Z"/>
        <path class="cls-3" d="M24.981,197.607c-.45-.06.63-.7,1.39-.86,19.524-3.971,21.449-11.007,29.984-17.79a1.106,1.106,0,0,0,.42-.909l-1.854-40.97a58.176,58.176,0,0,0-3.75-18.4c-1.6-4.109-3.8-8.339-6.67-10.989-7.18-6.631-15.62-6.881-29.55-14.06C7.887,89.982,4.08,81.576,2.045,74.167a3.63,3.63,0,0,1-1.965-1.3c1.94,7.7,5.77,16.9,13.25,20.761,13.93,7.179,22.37,7.429,29.55,14.06,2.87,2.65,5.07,6.88,6.67,10.989a58.176,58.176,0,0,1,3.75,18.4l1.855,40.97a1.107,1.107,0,0,1-.421.909c-8.535,6.783-10.46,13.819-29.984,17.79-.76.161-1.84.8-1.39.86a253.267,253.267,0,0,0,35.489,2.386A253.381,253.381,0,0,1,24.981,197.607Z"/>
      </g>
      <path class="cls-4" d="M116.077,72.553a.148.148,0,0,1-.011.068,1.385,1.385,0,0,0-.046.206c0,.011-.011.022-.022.045-1.551,3.25-26.91,5.827-57.959,5.827S1.631,76.122.08,72.872c-.012-.023-.023-.034-.023-.045a1.27,1.27,0,0,0-.046-.206A.148.148,0,0,1,0,72.553c0-2.041,9.418-3.854,23.9-4.972,9.578-.741,21.379-1.174,34.139-1.174s24.561.433,34.139,1.174C106.659,68.7,116.077,70.512,116.077,72.553Z"/>
    </g>
    <g id="spoon">
      <path class="cls-5" d="M99.166,3.333C100.514.176,105-.933,109.186.854s6.488,5.794,5.141,8.951-9.252,11.284-13.081,9.649S97.819,6.489,99.166,3.333Z"/>
      <path class="cls-6" d="M103.818,21.4a.027.027,0,0,1-.015.034.31.31,0,0,1-.03.095L96.62,38.289c-.844,1.976-2.829,3.033-4.42,2.354S90,37.8,90.844,35.823L98,19.066a.33.33,0,0,1,.049-.088.026.026,0,0,1,.014-.034,60.474,60.474,0,0,0,1.773-7.616c.336-2.8.837-4.991,2.414-5.655s1.5,1.451,1.565,2.167.822-.3.976-.758a3.994,3.994,0,0,0-.2-1.7A1.672,1.672,0,0,1,104.884,4a1.738,1.738,0,0,1,.792-.378,7.12,7.12,0,0,0,.843-.369,7.3,7.3,0,0,0,1.6-1.111c.189-.163.46-.695.728-.662.009,0,.014-.007.023,0a.05.05,0,0,1,.042,0c.009,0,.027.012.032.027s0,.015.013.019c.21.171.013.735.026.984a7.251,7.251,0,0,0,.308,1.927,7.18,7.18,0,0,0,.316.864,1.739,1.739,0,0,1,.275.834A1.673,1.673,0,0,1,109.1,7.3c-.4.248-1.14.607-1.367,1.037s-.434,1.678.127,1.229,2.036-1.967,2.648-.369-.625,3.474-2.414,5.654A60.506,60.506,0,0,0,103.818,21.4Z"/>
    </g>
    <g id="Layer_8" data-name="Layer 8">
      <path class="cls-7" d="M77.059,78.359a22.97,22.97,0,1,0-42.924-.206c7.291.349,15.381.545,23.905.545C64.7,78.7,71.1,78.578,77.059,78.359Z"/>
    </g>
    <g id="Layer_7" data-name="Layer 7">
      <ellipse class="cls-7" cx="55.638" cy="40.416" rx="31.466" ry="29.649"/>
      <ellipse class="cls-8" cx="58.039" cy="40.416" rx="31.466" ry="29.649"/>
    </g>
    <g id="Layer_6" data-name="Layer 6">
      <path class="cls-9" d="M54.847,53.821a23.311,23.311,0,0,1,.358,4.07c0,.671-.03,1.339-.059,2.023.642,8.79,2.428,18.881-9.265,16.832q-.789.623-1.629,1.188a25.689,25.689,0,0,1-3.56,2q-1,.462-2.053.843c-3.406.079-3.674,3.911-5.346,5.153C26.6,90.9,22.821,80.216,17.282,79.195q-.924-.51-1.8-1.094c-2.969-2.683-7.231-.037-9.39-1.547C.854,73.7,5.383,67.219,5.243,62.608c-.125-.736-.218-1.463-.277-2.187-1-12.3,7.944-23.66,20.88-25.949C39.542,32.047,52.527,40.711,54.847,53.821Z"/>
      <path class="cls-10" d="M54.7,53a22.376,22.376,0,0,1,.345,3.929c0,.649-.029,1.294-.056,1.953.619,8.488,2.344,18.23-8.945,16.252q-.762.6-1.573,1.147a24.836,24.836,0,0,1-3.438,1.932q-.966.445-1.982.814c-3.288.076-3.547,3.776-5.161,4.975-6.459,4.8-10.111-5.518-15.459-6.5q-.892-.492-1.739-1.056c-2.867-2.59-6.982-.035-9.067-1.493-5.056-2.759-.682-9.013-.818-13.465-.12-.711-.21-1.413-.267-2.111C5.576,47.5,14.212,36.531,26.7,34.32,39.925,31.98,52.462,40.344,54.7,53Z"/>
    </g>
    <g id="Layer_4" data-name="Layer 4">
      <path class="cls-11" d="M108.431,48.876a21.588,21.588,0,0,1,1.306,9.7c-.074.812-.192,1.624-.275,2.485.214.352,4.056,6.868.942,11.967a8.585,8.585,0,0,1-2.631,2.686c-3.553,1.35-6.647,1.679-9.95,2.825-.66.229-1.329.491-2.011.8-6.115,13-14.536,10.105-23.991,3.673q-1.249-.333-2.444-.767C58.146,79.942,50.791,76.638,54.242,64.2c-.1-.819-.157-1.634-.172-2.449-.189-10.594,7.294-21.182,19.178-25.7C87.873,30.49,103.626,36.233,108.431,48.876Z"/>
      <path class="cls-12" d="M104.172,47.719a19.919,19.919,0,0,1,1.2,8.952c-.069.749-.178,1.5-.254,2.293.2.324,3.742,6.335.869,11.04a7.917,7.917,0,0,1-2.428,2.479c-3.278,1.245-6.132,1.549-9.179,2.606-.61.212-1.227.453-1.856.738-5.642,12-13.411,9.324-22.135,3.389q-1.152-.306-2.254-.707c-10.363-2.128-17.149-5.176-13.964-16.654-.09-.756-.145-1.508-.159-2.26-.174-9.774,6.73-19.543,17.694-23.71C85.205,30.756,99.738,36.054,104.172,47.719Z"/>
    </g>
    <g id="highlights">
      <path class="cls-13" d="M21.6,41.47a14.473,14.473,0,0,1,17.96.789c1.38,1.147,2.844,2.09,4.258,3.158.561.424,2.732,2,1.3,2.976a1.556,1.556,0,0,1-1.382.016,6.8,6.8,0,0,1-2.956-1.574c-1.189-1.176-2.216-2.569-3.635-3.253a12.882,12.882,0,0,0-5.022-1.12c-3.618-.178-8.45-1.074-11.5,2.107-.524.546-1.016,1.145-1.559,1.659a7.68,7.68,0,0,1-3.206,1.908c-.541.145-3.02.51-3.081-.7-.056-1.106,3.85-2.476,4.545-2.866A50.261,50.261,0,0,0,21.6,41.47Z"/>
      <path class="cls-14" d="M94.5,42.018c1.121.62,2.314,1.524,2.365,2.8a2.758,2.758,0,0,1-2.585,2.545,7.183,7.183,0,0,1-3.817-.981,10.544,10.544,0,0,0-3.74-1.328c-2.383-.173-4.5,1.443-6.807,2.04-2.036.526-4.155.259-6.229.384a9.611,9.611,0,0,0-2.962.594c-.894.351-1.719.855-2.6,1.239a3.859,3.859,0,0,1-4.777-.841,1.792,1.792,0,0,1-.041-2.514,9.906,9.906,0,0,1,3.352-2.235c1.5-.734,3.05-1.361,4.576-2.038a28.187,28.187,0,0,1,10.957-2.616A24.758,24.758,0,0,1,93.3,41.4Q93.909,41.692,94.5,42.018Z"/>
      <path class="cls-15" d="M42.613,20.77c4.028-.806,7.2-4.139,11.233-4.927a18.858,18.858,0,0,1,7.076.427l6.638,1.253a27.477,27.477,0,0,1,4.581,1.142,27.433,27.433,0,0,1,5.01,2.727c1.33.848,2.827,2.506,1.841,3.737-1.011,1.262-2.956.085-4.547-.2-1.658-.3-3.388.525-5.025.127-1.766-.43-2.948-2.161-4.667-2.751a7.851,7.851,0,0,0-2.914-.232l-7.175.33c-2.944.135-6.032.312-8.546,1.851-1.576.966-2.85,2.428-4.563,3.123S37.369,27.509,37,25.7c-.4-1.974,1.844-3.361,3.714-4.109L46.943,19.1"/>
      <path class="cls-16" d="M109.839,80.36a16.925,16.925,0,0,1-4.5,6.881"/>
      <line class="cls-16" x1="102.899" y1="89.591" x2="103.366" y2="89.124"/>
    </g>
    <g id="squiggles">
      <path class="cls-17" d="M60.11,69.921a18.239,18.239,0,0,0,10.47,1.724,4.459,4.459,0,0,1,1.639-.042,1.31,1.31,0,0,1,1.063,1.109,7.433,7.433,0,0,1-3.257.327c5.706,2.629,12.467,1.116,18.237-1.371a5.293,5.293,0,0,1-4.238.811"/>
      <path class="cls-18" d="M46.556,69.4c-6.034.622-11.321,5.017-17.386,5a5.458,5.458,0,0,0,5.372,1.256,6.617,6.617,0,0,1-8.736.171c-.925-.835-1.625-1.955-2.735-2.522a3.452,3.452,0,0,0-3.748.465l-.338.33"/>
    </g>
  </g>
</svg>
