<svg xmlns="http://www.w3.org/2000/svg" viewBox="0 0 99.297 200">
  <defs>
    <style>
      .cls-1 {
        isolation: isolate;
      }

      .cls-2 {
        fill: #754c24;
      }

      .cls-3 {
        fill: #f5c880;
      }

      .cls-4 {
        fill: #f5ae63;
      }

      .cls-5 {
        fill: #ffe3b1;
      }

      .cls-15, .cls-6, .cls-7 {
        fill: none;
      }

      .cls-6 {
        stroke: #f5ae63;
      }

      .cls-6, .cls-7 {
        stroke-miterlimit: 10;
        stroke-width: 3px;
      }

      .cls-7 {
        stroke: #ffe3b1;
      }

      .cls-8 {
        fill: #321908;
      }

      .cls-9 {
        fill: #603813;
      }

      .cls-10 {
        fill: #42210b;
      }

      .cls-11 {
        fill: #79aaa1;
      }

      .cls-12 {
        fill: #a1e2d6;
      }

      .cls-13 {
        fill: #352116;
        mix-blend-mode: hard-light;
      }

      .cls-14 {
        fill: #bb5a13;
        opacity: 0.31;
        mix-blend-mode: color-burn;
      }

      .cls-15 {
        stroke: #f2f2f2;
        stroke-linecap: round;
        stroke-linejoin: round;
        stroke-width: 2px;
        opacity: 0.85;
        mix-blend-mode: screen;
      }
    </style>
  </defs>
  <g class="cls-1">
    <g id="chocolate_ice_cream" data-name="chocolate ice cream">
      <path class="cls-2" d="M97.987,83.63a6.312,6.312,0,0,1-1.17,3.27,5.564,5.564,0,0,1-.6.73,2.949,2.949,0,0,1-1.63.9c-.19.02-1.94-.23-1.94-.5-.94,1.97,2.93,3.94,2.04,5.91l-.03.06a1.422,1.422,0,0,1-.29.4c-.91.7-1.82-3.12-2.85-.5l-.45.72a35.085,35.085,0,0,1-5.2,6.25c-.18.18-.36.35-.55.52l-.42.39c-.17.15-.35.31-.53.45a40.633,40.633,0,0,1-3.85,2.98c-.79.54-1.6,1.06-2.44,1.55-.15.1-.3.18-.45.27A55.826,55.826,0,0,1,49.7,114.2a55.919,55.919,0,0,1-27.74-7.06c-.16-.09-.31-.18-.46-.27a43.081,43.081,0,0,1-6.27-4.46c-.17-.14-.34-.29-.5-.43-.11-.09-.21-.19-.31-.27-.24-.22-.47-.44-.7-.66-.6-.56-1.17-1.14-1.72-1.73-.2-.21-.39-.43-.59-.64-1.66-1.83-3.5-3.65-5.16-5.58-.12-.13-.23-.27-.35-.4a25.412,25.412,0,0,1-3.51-5.2l-.18-.39a8.825,8.825,0,0,1-.67-6.04c.39-1.43,1.28-2.64,1.77-4.04.56-1.56-.06-2.81.13-4.36.19-1.59,1.73-3.58,2.69-5.18.16-.27.3-.53.42-.77.12-.26.25-.52.39-.77,3.86-7.25,10.81-13.3,19.61-17.19a47.545,47.545,0,0,1,4.72-1.82,59.56,59.56,0,0,1,37.68.28c1.46.51,2.88,1.08,4.25,1.7a46.623,46.623,0,0,1,8.97,5.28c.68.5,1.33,1.03,1.96,1.56l.01.01c.65.56,1.28,1.13,1.88,1.72h.01a32.175,32.175,0,0,1,8.66,13.92c.08.28.16.55.23.83.39,1.47,1.82,3.23,2.45,4.98a3.553,3.553,0,0,1,.03,2.77c-.29.63-1.6,1.12-1.38,1.7.21.54.78.37,1.21.54a1.081,1.081,0,0,1,.59.56A1.973,1.973,0,0,1,97.987,83.63Z"/>
    </g>
    <g id="cone">
      <path class="cls-3" d="M84.037,123.17a2.483,2.483,0,0,1-.06.54l-.32,1.43-.87,3.87-.56,2.5-.14.61-.25,1.13-1.38,6.17-.31,1.38-.92,4.1-.31,1.37-1.64,7.3-.43,1.95-.25,1.12-.51,2.27-.43,1.91-.7,3.12-.35,1.54-.43,1.94-.25,1.12-1.74,7.75-.24,1.08-.46,2.04-.21.93-.69,3.11-.01.01-.42,1.87-.64,2.87-.25,1.12-.69,3.06-1.25,5.59-.02.1a2.586,2.586,0,0,1-1.33,1.67.052.052,0,0,1-.04.02,1.978,1.978,0,0,1-.31.12,2.251,2.251,0,0,1-.74.12H34.417A2.473,2.473,0,0,1,32,198.07l-.36-1.61-.5-2.22-.43-1.95-.27-1.17-1.76-7.88-.11-.48-1.08-4.8-.38-1.73H27.1l-1.16-5.17-.26-1.18-.44-1.94-.26-1.18-.58-2.59-.39-1.75-.67-3-.01-.01-.38-1.7-.43-1.94-.27-1.18-1.77-7.89-.17-.78-.93-4.15-.2-.9-.01-.01-.39-1.77-.98-4.35-.26-1.15-.43-1.94-.26-1.16-.81-3.61-.4-1.78-.31-1.39a2.483,2.483,0,0,1-.06-.54Z"/>
      <g>
        <path class="cls-4" d="M83.257,123.17l-2.65,2.68a.73.73,0,0,1-1.04-.01l-.18-.18-2.14-2.1-.4-.39h-4.01a.741.741,0,0,1,.38.2l3.43,3.35,1.04,1.02a.752.752,0,0,1,.02,1.08l-1.81,1.82-2.6,2.62a.766.766,0,0,1-1.06.04l-.19-.19-4.28-4.23a.719.719,0,0,1,.01-1.03l4.21-4.31.17-.18a.732.732,0,0,1,.37-.19h-3.92l-2.74,2.78a.763.763,0,0,1-1.06.02l-.18-.18-2.65-2.62h-3.85a.828.828,0,0,1,.46.2l4.51,4.35a.725.725,0,0,1,.02,1.05l-4.35,4.48a.738.738,0,0,1-1.06.04l-.2-.19-4.3-4.17a.75.75,0,0,1-.03-1.04l4.19-4.34.18-.19a.707.707,0,0,1,.44-.19h-3.97l-2.76,2.86a.74.74,0,0,1-1.04.02l-.2-.19-2.79-2.69h-7.1l-3.32,3.38a.725.725,0,0,1-1.05-.01l-.17-.17-3.25-3.2h-6.85l-3.44,3.46a.74.74,0,0,1-1.04.02l-.19-.19-3.34-3.29h-2.21a2.483,2.483,0,0,0,.06.54l.31,1.39,3.5,3.46a.739.739,0,0,1-.01,1.04l-2.02,2.05.43,1.94.26,1.15,3.06-3.1.17-.17a.764.764,0,0,1,1.06-.01l4.47,4.39a.77.77,0,0,1,0,1.08l-4.38,4.46a.74.74,0,0,1-1.07,0l-.17-.17-2.16-2.13.39,1.77.01.01.2.9.93,4.15.17.78.4-.41.17-.18a.752.752,0,0,1,1.05,0l4.51,4.35a.738.738,0,0,1,.04,1.03l-4.13,4.28.43,1.94.38,1.7.01.01.67,3,2.85,2.77a.755.755,0,0,1,.01,1.06l-1.63,1.69.44,1.94.26,1.18,2.7-2.79.17-.18a.764.764,0,0,1,1.06.01l4.51,4.33a.773.773,0,0,1,.01,1.09l-4.37,4.47a.737.737,0,0,1-1.06.04l-.19-.19-1.66-1.61H27.1l.39,1.73,1.18,5.29.01-.01.21-.21.16-.17a.733.733,0,0,1,1.05-.01l4.5,4.34a.729.729,0,0,1,.04,1.03l-3.93,4.07-.01.01.44,1.94.5,2.22.36,1.61a2.473,2.473,0,0,0,2.42,1.93h2.29l-.18-.17-4.32-4.17a.762.762,0,0,1-.03-1.05l4.2-4.34.17-.18a.754.754,0,0,1,1.06.01l4.51,4.33a.758.758,0,0,1,.02,1.07l-4.36,4.5H41.5l2.39-2.47.16-.16a.741.741,0,0,1,1.04-.04l2.76,2.67h8.14l2.65-2.73.16-.17a.759.759,0,0,1,1.04-.02l1.07,1.04,1.94,1.88h2.04a2.251,2.251,0,0,0,.74-.12,1.978,1.978,0,0,0,.31-.12.052.052,0,0,0,.04-.02,2.381,2.381,0,0,0,.3-.18.209.209,0,0,1-.06-.04l-.2-.19-4.32-4.18a.789.789,0,0,1-.18-.29.705.705,0,0,1,.13-.69v-.01l.05-.05,4.18-4.35.15-.16a.758.758,0,0,1,1.07-.03l1.73,1.69.44-1.94.25-1.12-.56-.54a.749.749,0,0,1-.02-1.07l1.22-1.26.42-1.87.7-3.12L67,184.75a.734.734,0,0,1-1.02.03l-.21-.2-1.42-1.37-2.9-2.79a.761.761,0,0,1-.02-1.05l4.2-4.35.16-.16a.729.729,0,0,1,.63-.23.675.675,0,0,1,.43.21l4.49,4.37a.7.7,0,0,1,.15.2l.46-2.04.24-1.08-3.48-3.36a.749.749,0,0,1-.02-1.07l4.2-4.33.15-.15a.733.733,0,0,1,1.04-.05l.1.09.43-1.94.35-1.54.7-3.12-1.64,1.71a.764.764,0,0,1-1.06.01l-.19-.18-2.89-2.79-1.45-1.39a.761.761,0,0,1,0-1.05l2.56-2.64,1.65-1.7.16-.16a.711.711,0,0,1,1.03-.04l3.02,2.93.43-1.95.25-1.12-1.84-1.78a.754.754,0,0,1-.02-1.06l3.25-3.34.31-1.37.92-4.1a.759.759,0,0,1-.48-.2l-.19-.19-4.28-4.2a.757.757,0,0,1,0-1.07l4.23-4.26.18-.18a.7.7,0,0,1,1.03-.01l1.45,1.43.14-.61.3-1.36.26-1.14-.26-.26a.744.744,0,0,1-.03-1.02l.74-.75.42-1.84.32-1.43a2.483,2.483,0,0,0,.06-.54Zm-51.54,43.01a.747.747,0,0,1-.04-1.06l4.21-4.33.16-.16a.74.74,0,0,1,1.04-.03l4.53,4.37a.734.734,0,0,1,.02,1.02l-4.35,4.53a.755.755,0,0,1-1.06-.01l-.18-.17Zm-7.74-22a.732.732,0,0,1-.03-1.07l4.21-4.33.15-.15a.744.744,0,0,1,1.05-.04l4.51,4.38a.751.751,0,0,1,0,1.05l-4.34,4.52a.757.757,0,0,1-1.07,0l-.17-.17ZM63.6,157.21a.739.739,0,0,1,.01,1.04l-4.35,4.51a.728.728,0,0,1-1.03.03l-.21-.2-4.32-4.16a.742.742,0,0,1,0-1.05l4.19-4.36.14-.15a.766.766,0,0,1,1.06-.04Zm-24.65,1.47a.749.749,0,0,1,0-1.07l4.19-4.34.15-.16a.752.752,0,0,1,1.08-.01l4.49,4.35a.758.758,0,0,1,.02,1.07l-4.37,4.5a.742.742,0,0,1-1.05.01l-.19-.18Zm7.5,7.25a.754.754,0,0,1-.01-1.06l4.2-4.33.16-.17a.74.74,0,0,1,1.04-.03l4.52,4.36a.749.749,0,0,1,.01,1.04l-4.35,4.53a.752.752,0,0,1-1.05,0l-.19-.18Zm9.67-15.97a.742.742,0,0,1,0,1.05l-4.33,4.5a.752.752,0,0,1-1.08.02l-.18-.17-4.31-4.19a.742.742,0,0,1-.05-1.04l4.21-4.33.16-.17a.752.752,0,0,1,1.05-.02Zm-7.52-7.24a.722.722,0,0,1,.03,1.04l-4.37,4.5a.749.749,0,0,1-1.04.03l-.2-.19-4.31-4.17a.742.742,0,0,1-.01-1.05l4.19-4.34.16-.17a.755.755,0,0,1,1.06-.02Zm-7.25,7.48a.75.75,0,0,1,.03,1.04l-4.37,4.53a.715.715,0,0,1-1.02.02l-.21-.2-4.32-4.15a.752.752,0,0,1,0-1.05l4.18-4.36.16-.16a.74.74,0,0,1,1.04-.03Zm-2.13,23.21a.724.724,0,0,1-.02-1.02l4.18-4.36.17-.18a.736.736,0,0,1,1.03-.01l4.53,4.34a.755.755,0,0,1,.01,1.06l-4.35,4.51a.75.75,0,0,1-1.04.04l-.21-.2Zm7.48,7.25a.745.745,0,0,1-.01-1.06l4.18-4.33.16-.16a.74.74,0,0,1,1.07,0l4.5,4.34a.752.752,0,0,1,.05,1.04l-4.39,4.53a.759.759,0,0,1-1.04-.02l-.18-.17Zm7.24-7.49a.764.764,0,0,1,.01-1.06l4.18-4.35.15-.16a.758.758,0,0,1,1.07-.02l4.5,4.36a.755.755,0,0,1,.01,1.06l-4.35,4.51a.762.762,0,0,1-1.05.03l-.2-.19Zm7.02-22.25a.74.74,0,0,1-.03-1.04l4.2-4.35.17-.18a.746.746,0,0,1,1.03-.01l4.54,4.36a.743.743,0,0,1-.02,1.05l-4.33,4.51a.749.749,0,0,1-1.07.03l-.19-.18Zm4.09-20.27a.715.715,0,0,1,1.04-.05l4.51,4.38a.727.727,0,0,1,.01,1.03l-4.34,4.52a.748.748,0,0,1-1.07,0l-.17-.17-4.33-4.17a.749.749,0,0,1-.02-1.07l4.22-4.32Zm-7.26,7.48a.737.737,0,0,1,1.06-.02l4.5,4.35a.731.731,0,0,1,.02,1.04l-4.36,4.52a.752.752,0,0,1-1.05,0l-.19-.18-4.33-4.16a.754.754,0,0,1-.01-1.06l4.21-4.33Zm-7.49-7.27a.782.782,0,0,1,1.05-.02l4.52,4.39a.727.727,0,0,1-.01,1.03l-4.34,4.5a.747.747,0,0,1-1.06.04l-.2-.19-4.29-4.17a.731.731,0,0,1-.02-1.04l4.19-4.37Zm-7.5-7.23a.749.749,0,0,1,1.04-.02l4.53,4.37a.746.746,0,0,1,.01,1.03l-4.36,4.53a.742.742,0,0,1-1.05-.01l-.18-.17-4.32-4.17a.738.738,0,0,1-.04-1.06l4.21-4.33Zm-6.21,7.48,4.52,4.34a.746.746,0,0,1,.02,1.06l-4.35,4.5a.744.744,0,0,1-1.05.04l-.2-.19-4.31-4.19a.744.744,0,0,1-.03-1.02l4.19-4.36.18-.19A.746.746,0,0,1,36.587,131.11Zm-8.22-7.05a.743.743,0,0,1,1.05-.03l4.46,4.43a.744.744,0,0,1,.02,1.02l-4.43,4.49a.746.746,0,0,1-1.03-.01l-.18-.18-4.29-4.22a.748.748,0,0,1,0-1.07l4.24-4.27Zm1.4,39.2a.731.731,0,0,1-1.04.02l-.2-.19-4.3-4.17a.741.741,0,0,1-.04-1.04l4.2-4.34.17-.18a.746.746,0,0,1,1.03-.01l4.53,4.35a.755.755,0,0,1,.02,1.06Zm7.76,22.01a.755.755,0,0,1-1.06.01l-.19-.18-4.32-4.17a.76.76,0,0,1,0-1.08l4.2-4.33.15-.15a.745.745,0,0,1,1.05-.05l4.51,4.38a.749.749,0,0,1,0,1.04Zm7.49,7.24a.749.749,0,0,1-1.04.01l-.2-.19-4.33-4.16a.771.771,0,0,1,0-1.05l4.18-4.35.16-.17a.746.746,0,0,1,1.06-.01l4.5,4.36a.716.716,0,0,1,.02,1.05Zm7.49,7.24a.743.743,0,0,1-1.05.02l-.2-.19-4.32-4.17a.764.764,0,0,1,.01-1.06l4.19-4.34.15-.16a.74.74,0,0,1,1.07-.02l4.48,4.36a.729.729,0,0,1,.03,1.06Zm7.26-7.49a.725.725,0,0,1-1.05.01l-.19-.18-4.3-4.18a.742.742,0,0,1-.05-1.04l4.21-4.34.17-.17a.734.734,0,0,1,1.02-.03l4.04,3.88.49.48a.73.73,0,0,1,0,1.04l-1.17,1.23Zm5.93-22.24-.18-.18-4.31-4.19a.711.711,0,0,1-.04-1.03l4.21-4.33.16-.17a.725.725,0,0,1,1.05-.01l2.6,2.51,1.9,1.83a.756.756,0,0,1,.04,1.06L67.737,169l-.99,1.02A.751.751,0,0,1,65.7,170.02Zm8.06-22.27a.719.719,0,0,1-1.03.03l-.21-.2-.04-.04-4.28-4.11a.736.736,0,0,1-.02-1.03l4.19-4.36.16-.16a.743.743,0,0,1,1.05-.02l.74.72,3.77,3.64a.719.719,0,0,1,.02,1.03Z"/>
        <path class="cls-5" d="M32,198.07a2.473,2.473,0,0,0,2.42,1.93H35.3l-3.667-3.54Z"/>
        <path class="cls-5" d="M81.847,123.17l-2.46,2.49-.19.19a.719.719,0,0,1-1.03-.01l-1.14-1.12-1.58-1.55h-4.02a.77.77,0,0,1,.39.2l.17.17,4.3,4.2a.463.463,0,0,1,.13.18.731.731,0,0,1-.12.9l-.07.07-4.18,4.22-.15.15a.766.766,0,0,1-1.06.04l-4.47-4.42a.719.719,0,0,1,.01-1.03l4.38-4.49a.662.662,0,0,1,.37-.19H67.2l-2.57,2.62-.16.16a.764.764,0,0,1-1.06.02l-2.83-2.8h-3.85a.771.771,0,0,1,.45.2l.19.18,4.32,4.17a.717.717,0,0,1,.03,1.05l-4.21,4.33-.15.15a.726.726,0,0,1-1.05.04l-4.5-4.36a.76.76,0,0,1-.04-1.04l4.38-4.53a.681.681,0,0,1,.43-.19h-3.96l-2.6,2.69-.16.17a.74.74,0,0,1-1.04.02l-2.99-2.88h-7.1l-3.14,3.2-.18.18a.737.737,0,0,1-1.06-.01l-3.41-3.37h-6.86l-3.26,3.29-.17.17a.74.74,0,0,1-1.04.02l-3.53-3.48h-.81a2.483,2.483,0,0,0,.06.54l.31,1.39.4,1.78,1.7,1.68a.749.749,0,0,1-.01,1.04l-.88.89.26,1.16.43,1.94,2.09-2.12a.752.752,0,0,1,1.05-.01l.18.18,4.3,4.21a.779.779,0,0,1,0,1.08l-4.22,4.29-.16.17a.74.74,0,0,1-1.07,0l-.53-.52-.01-.01.21.91.93,4.15a.724.724,0,0,1,.38.19l.19.18,4.32,4.17a.729.729,0,0,1,.04,1.03l-2.99,3.1.27,1.18.43,1.94,4.2-4.35a.759.759,0,0,1,1.04-.01l.2.19,4.33,4.16a.755.755,0,0,1,.01,1.06l-4.2,4.33-.16.17a.743.743,0,0,1-1.05.02l-3.98-3.86-.01-.01.68,3.01.39,1.75,1.05,1.02a.755.755,0,0,1,.02,1.06l-.49.51.26,1.18.44,1.94,1.72-1.79a.764.764,0,0,1,1.06.01l.18.17,4.33,4.16a.764.764,0,0,1,.01,1.09l-4.21,4.32-.15.15a.738.738,0,0,1-1.06.04l-.07-.07,1.08,4.8a1.014,1.014,0,0,1,.13.09l.19.18,4.31,4.16a.728.728,0,0,1,.03,1.03l-2.79,2.9.26,1.18.44,1.94,4.01-4.15a.742.742,0,0,1,1.05.01l.18.17,4.33,4.16a.749.749,0,0,1,.03,1.07l-4.21,4.33-.16.17h3.72l2.56-2.63a.729.729,0,0,1,1.03-.04l.21.2,2.56,2.47h8.13l2.81-2.9a.772.772,0,0,1,1.05-.02l.2.19,2.06,2,.75.73h3.44a2.251,2.251,0,0,0,.74-.12,1.978,1.978,0,0,0,.31-.12.052.052,0,0,0,.04-.02,2.586,2.586,0,0,0,1.33-1.67l.02-.1-1.31,1.36-.17.18a.737.737,0,0,1-1.03.01l-3.53-3.41-1-.96a.73.73,0,0,1,0-1.04l1.82-1.9,2.51-2.61a.758.758,0,0,1,1.07-.03l.19.19,2.7,2.62.25-1.12.44-1.94-1.71-1.66a.74.74,0,0,1-.03-1.07l3.05-3.13.01-.01.69-3.11.21-.93.46-2.04a.653.653,0,0,1-.15-.1l-4.49-4.34a.74.74,0,0,1-.03-1.07l4.36-4.48a.733.733,0,0,1,1.04-.05l.21.2,1.04,1.01.25-1.12.43-1.94-.06-.07a.746.746,0,0,1-.02-1.03l.43-.44.7-3.12.43-1.91-3.32,3.45-.16.17a.764.764,0,0,1-1.06.01l-1.92-1.85-2.6-2.51a.752.752,0,0,1,0-1.05l4.36-4.49.01-.01a.711.711,0,0,1,1.03-.04l.21.2,3.96,3.85.25-1.12.43-1.95-3-2.9a.754.754,0,0,1-.01-1.06l4.35-4.48a.77.77,0,0,1,.61-.23l.92-4.1.31-1.38-.98.99-.18.18a.727.727,0,0,1-1.03.01l-3.64-3.57-.83-.82a.749.749,0,0,1,0-1.07l1.51-1.52,2.89-2.92a.7.7,0,0,1,1.03-.01l.2.19,2.41,2.37.25-1.13.14-.61.3-1.36-1.41-1.4a.744.744,0,0,1-.02-1.02l2.56-2.59.32-1.43a2.483,2.483,0,0,0,.06-.54Zm-12.13,42.34-1.54,1.59-2.66,2.74-.17.18a.752.752,0,0,1-1.05,0l-4.5-4.37a.719.719,0,0,1-.03-1.03l4.36-4.5a.736.736,0,0,1,1.06-.01l.19.18,3.57,3.44.74.72A.755.755,0,0,1,69.717,165.51Zm-39.4.67a.738.738,0,0,1-.04-1.06l4.36-4.49a.752.752,0,0,1,1.05-.03l.2.19,4.32,4.18a.734.734,0,0,1,.03,1.02l-4.19,4.35-.17.18a.754.754,0,0,1-1.06-.01Zm-.27-15.79,4.34-4.52a.752.752,0,0,1,1.05-.03l.2.19,4.31,4.17a.74.74,0,0,1,.02,1.04l-4.19,4.35-.17.18a.715.715,0,0,1-1.02.02l-4.54-4.35A.761.761,0,0,1,30.047,150.39Zm32.15,6.82a.749.749,0,0,1,.01,1.04l-4.19,4.34-.17.17a.728.728,0,0,1-1.03.03l-4.52-4.36a.742.742,0,0,1,0-1.05l4.33-4.51a.766.766,0,0,1,1.06-.04l.2.19Zm-24.66,1.47a.757.757,0,0,1,0-1.07l4.34-4.5a.764.764,0,0,1,1.09-.01l.17.17,4.31,4.18a.758.758,0,0,1,.03,1.07l-4.21,4.33-.16.17a.754.754,0,0,1-1.06.01Zm7.51,7.25a.755.755,0,0,1-.02-1.06l4.37-4.5a.728.728,0,0,1,1.03-.03l.21.2,4.32,4.16a.759.759,0,0,1,.01,1.04l-4.19,4.35-.17.18a.739.739,0,0,1-1.04,0Zm9.67-15.97a.742.742,0,0,1,0,1.05l-4.19,4.35-.14.15a.752.752,0,0,1-1.08.02l-4.49-4.36a.733.733,0,0,1-.05-1.04l4.37-4.5a.74.74,0,0,1,1.04-.02l.2.19Zm-7.52-7.24a.74.74,0,0,1,.03,1.04l-4.21,4.34-.16.16a.761.761,0,0,1-1.05.03l-4.51-4.36a.752.752,0,0,1-.01-1.05l4.36-4.51a.743.743,0,0,1,1.05-.02l.19.19Zm-9.38,30.69a.734.734,0,0,1-.03-1.02l4.36-4.54a.736.736,0,0,1,1.03-.01l.2.19,4.32,4.15a.755.755,0,0,1,.02,1.06l-4.2,4.35-.16.16a.738.738,0,0,1-1.03.04Zm7.48,7.25a.736.736,0,0,1-.01-1.06l4.34-4.49a.74.74,0,0,1,1.07,0l.17.16,4.32,4.18a.733.733,0,0,1,.05,1.04l-4.2,4.34-.19.19a.747.747,0,0,1-1.03-.02Zm7.24-7.49a.754.754,0,0,1,.01-1.06l4.33-4.51a.758.758,0,0,1,1.07-.02l.18.18,4.32,4.18a.755.755,0,0,1,.01,1.06l-4.2,4.35-.15.16a.762.762,0,0,1-1.05.03Zm16.91-22.42-4.19,4.36-.14.15a.749.749,0,0,1-1.07.03l-4.5-4.37a.74.74,0,0,1-.02-1.04l4.36-4.53a.759.759,0,0,1,1.04-.01l.2.19,4.33,4.17A.742.742,0,0,1,69.447,150.75Zm-5.81-20.1a.727.727,0,0,1,1.05-.05l.21.2,4.3,4.18a.727.727,0,0,1,.01,1.03l-4.18,4.35-.16.17a.749.749,0,0,1-1.07,0l-4.5-4.34a.74.74,0,0,1-.02-1.07Zm-7.25,7.48a.736.736,0,0,1,1.06-.02l.19.18,4.3,4.17a.731.731,0,0,1,.03,1.04l-4.2,4.34-.17.18a.739.739,0,0,1-1.04,0l-4.52-4.34a.754.754,0,0,1-.02-1.06Zm-7.49-7.27a.769.769,0,0,1,1.04-.02l.2.19,4.33,4.2a.737.737,0,0,1-.02,1.03l-4.19,4.35-.15.15a.746.746,0,0,1-1.06.04l-4.48-4.36a.731.731,0,0,1-.03-1.04Zm-7.51-7.23a.762.762,0,0,1,1.05-.02l.2.19,4.32,4.18a.736.736,0,0,1,.01,1.03l-4.18,4.35-.17.18a.754.754,0,0,1-1.06-.01l-4.49-4.34a.729.729,0,0,1-.04-1.06Zm-6.2,7.48.19.18,4.33,4.16a.745.745,0,0,1,.01,1.06l-4.19,4.35-.15.15a.756.756,0,0,1-1.06.04l-4.51-4.38a.744.744,0,0,1-.02-1.02l4.36-4.55A.759.759,0,0,1,35.187,131.11Zm-8.22-7.05a.731.731,0,0,1,1.04-.03l.2.19,4.26,4.24a.745.745,0,0,1,.03,1.02l-4.24,4.3-.19.19a.759.759,0,0,1-1.04-.01l-4.47-4.4a.757.757,0,0,1,0-1.07Zm1.16,24.48a.757.757,0,0,1-1.07,0l-4.49-4.36a.732.732,0,0,1-.02-1.07l4.35-4.48a.756.756,0,0,1,1.06-.04l.2.19,4.31,4.19a.751.751,0,0,1,0,1.05l-4.18,4.35Zm7.99,36.73a.754.754,0,0,1-1.06.01l-4.51-4.35a.779.779,0,0,1,0-1.08l4.36-4.48a.733.733,0,0,1,1.04-.05l.21.2,4.3,4.18a.739.739,0,0,1,0,1.04l-4.18,4.36Zm7.49,7.24a.737.737,0,0,1-1.03.01l-4.53-4.35a.752.752,0,0,1,0-1.05l4.34-4.52a.733.733,0,0,1,1.05-.01l.19.18,4.31,4.18a.708.708,0,0,1,.03,1.05l-4.19,4.33Zm7.49,7.24a.731.731,0,0,1-1.04.02l-4.52-4.36a.764.764,0,0,1,.01-1.06l4.34-4.5a.74.74,0,0,1,1.07-.02l.18.18,4.29,4.18a.729.729,0,0,1,.04,1.06l-4.21,4.33Zm7.27-7.49a.737.737,0,0,1-1.06.01l-4.48-4.36a.724.724,0,0,1-.05-1.04l4.38-4.51a.734.734,0,0,1,1.02-.03l.21.2,4.32,4.16a.739.739,0,0,1,0,1.04l-4.18,4.36Zm7.23-7.51a.734.734,0,0,1-1.02.03l-.5-.48-4.04-3.88a.751.751,0,0,1-.01-1.05l4.35-4.51a.737.737,0,0,1,1.06-.02l.19.18.57.56,3.74,3.63a.728.728,0,0,1,.04,1.03l-4.21,4.34Zm6.85-37.09-.09.09a.719.719,0,0,1-1.03.03l-4.54-4.35a.727.727,0,0,1-.01-1.03l4.34-4.52a.755.755,0,0,1,1.06-.02l.19.18,1.72,1.67,2.6,2.51a.718.718,0,0,1,.01,1.03l-4.18,4.33Z"/>
      </g>
      <path class="cls-5" d="M87.567,119.78a3.4,3.4,0,0,1-3.38,3.39H15.117a3.385,3.385,0,0,1,0-6.77h69.07A3.389,3.389,0,0,1,87.567,119.78Z"/>
      <path class="cls-3" d="M98.867,93.65c-.49,1.02-1.29,2.68-2.27,4.65-.05.08-.09.17-.14.27a4.111,4.111,0,0,1-.21.42c-.21.42-.42.85-.64,1.28-.09.17-.18.35-.27.52-.58,1.14-1.2,2.34-1.83,3.54a.01.01,0,0,1-.01.01c-.46.88-.93,1.76-1.41,2.63-.54.99-1.08,1.96-1.61,2.87-.08.14-.17.29-.25.43-2.05,3.51-3.89,6.13-4.8,6.13H13.877c-.88,0-2.68-2.53-4.7-5.95,0-.01-.01-.01-.01-.02-.06-.11-.13-.23-.2-.34a.405.405,0,0,1-.05-.09c-.17-.29-.34-.59-.51-.89-.6-1.06-1.21-2.17-1.82-3.3l-.02-.03c-.02-.05-.05-.09-.07-.13-.31-.58-.61-1.15-.92-1.73-.22-.44-.45-.87-.67-1.3-.27-.52-.54-1.04-.79-1.54-.09-.18-.18-.36-.27-.53s-.17-.33-.25-.49c-.09-.18-.18-.35-.27-.52-.04-.09-.08-.18-.12-.26a1.091,1.091,0,0,1-.06-.11c-.06-.12-.13-.25-.19-.37-.12-.25-.24-.49-.35-.73q-.15-.285-.27-.54c-.82-1.63-1.48-3-1.9-3.88a4.343,4.343,0,0,1-.36-2.7,6.569,6.569,0,0,1,2.13-3.84,3.691,3.691,0,0,1,2.37-.89h90.15a3.62,3.62,0,0,1,2.09.68,6.341,6.341,0,0,1,2.4,4.05A4.339,4.339,0,0,1,98.867,93.65Z"/>
      <g id="Layer_3" data-name="Layer 3">
        <path class="cls-4" d="M94.687,93.94l-.87-1.19a2.094,2.094,0,0,0-1.98-.81,2.009,2.009,0,0,0-1.34.81l-5.17,7.06a.6.6,0,0,0-.09.15,1.92,1.92,0,0,0-.26.54,2.524,2.524,0,0,0-.08,1.28,1.4,1.4,0,0,0,.08.34,1.92,1.92,0,0,0,.26.54.6.6,0,0,0,.09.15l5.15,7.03c.53-.91,1.07-1.88,1.61-2.87l-.26-.35-3.88-5.31L91.837,96l.32-.44,3.45,4.71c.22-.43.43-.86.64-1.28a4.111,4.111,0,0,0,.21-.42c.05-.1.09-.19.14-.27.05-.12.11-.23.16-.34l.09-.18c.09-.18.18-.36.26-.53Z"/>
        <path class="cls-6" d="M85.781,101.923l-5.175,7.057a.526.526,0,0,1-.9,0l-5.175-7.057a1.105,1.105,0,0,1,0-1.225l5.175-7.057a.526.526,0,0,1,.9,0l5.175,7.057A1.105,1.105,0,0,1,85.781,101.923Z"/>
        <path class="cls-6" d="M73.781,101.923l-5.175,7.057a.526.526,0,0,1-.9,0l-5.175-7.057a1.105,1.105,0,0,1,0-1.225l5.175-7.057a.526.526,0,0,1,.9,0l5.175,7.057A1.105,1.105,0,0,1,73.781,101.923Z"/>
        <path class="cls-6" d="M61.781,101.923l-5.175,7.057a.526.526,0,0,1-.9,0l-5.175-7.057a1.105,1.105,0,0,1,0-1.225l5.175-7.057a.526.526,0,0,1,.9,0l5.175,7.057A1.105,1.105,0,0,1,61.781,101.923Z"/>
        <path class="cls-6" d="M49.781,101.923l-5.175,7.057a.526.526,0,0,1-.9,0l-5.175-7.057a1.105,1.105,0,0,1,0-1.225l5.175-7.057a.526.526,0,0,1,.9,0l5.175,7.057A1.105,1.105,0,0,1,49.781,101.923Z"/>
        <path class="cls-6" d="M37.781,101.923l-5.175,7.057a.526.526,0,0,1-.9,0l-5.175-7.057a1.105,1.105,0,0,1,0-1.225l5.175-7.057a.526.526,0,0,1,.9,0l5.175,7.057A1.105,1.105,0,0,1,37.781,101.923Z"/>
        <path class="cls-6" d="M25.781,101.923l-5.175,7.057a.526.526,0,0,1-.9,0l-5.175-7.057a1.105,1.105,0,0,1,0-1.225l5.175-7.057a.526.526,0,0,1,.9,0l5.175,7.057A1.105,1.105,0,0,1,25.781,101.923Z"/>
        <path class="cls-4" d="M15.077,99.95c-.03-.05-.06-.1-.09-.14l-.23-.31-4.94-6.75a2.094,2.094,0,0,0-1.98-.81,2.009,2.009,0,0,0-1.34.81l-.25.35-3.64,4.97-.01.01.36.72c.06.12.13.25.19.37a1.091,1.091,0,0,0,.06.11c.12.26.26.52.39.78.08.16.17.32.25.49s.18.35.27.53L7.837,96l.32-.44,4.21,5.75-4.21,5.75-.32-.44-2.93-4c.22.43.45.86.67,1.3.31.58.61,1.15.92,1.73.02.04.05.08.07.13l.02.03c.61,1.13,1.22,2.24,1.82,3.3.16.3.33.6.51.89a.405.405,0,0,0,.05.09v.01c.07.11.13.22.2.33,0,.01.01.01.01.02a2.076,2.076,0,0,0,.64-.58l4.94-6.75.23-.31c.03-.04.06-.09.09-.14a1.35,1.35,0,0,0,.15-.26A2.619,2.619,0,0,0,15.077,99.95Z"/>
      </g>
      <g id="Layer_4" data-name="Layer 4">
        <path class="cls-5" d="M94.367,94.4l-1.2-1.65a2.115,2.115,0,0,0-1.33-.81,2.081,2.081,0,0,0-1.99.81L84.9,99.5l-.23.31a1.1,1.1,0,0,0-.09.14v.01a2.594,2.594,0,0,0-.21,2.27,1.715,1.715,0,0,0,.21.43v.01a1.1,1.1,0,0,0,.09.14l.23.31,4.95,6.75a2.067,2.067,0,0,0,.38.4c.08-.14.17-.29.25-.43.53-.91,1.07-1.88,1.61-2.87.48-.87.95-1.75,1.41-2.63l-1.67,2.28-.32.44-4.22-5.75,4.22-5.75.33.44,3.5,4.79c.09-.17.18-.35.27-.52.22-.43.43-.86.64-1.28a4.111,4.111,0,0,0,.21-.42c.05-.1.09-.19.14-.27.05-.12.11-.23.16-.34l.09-.18Z"/>
        <path class="cls-7" d="M85.127,101.923l-5.175,7.057a.525.525,0,0,1-.9,0l-5.175-7.057a1.1,1.1,0,0,1,0-1.225l5.175-7.057a.525.525,0,0,1,.9,0l5.175,7.057A1.105,1.105,0,0,1,85.127,101.923Z"/>
        <path class="cls-7" d="M73.127,101.923l-5.175,7.057a.525.525,0,0,1-.9,0l-5.175-7.057a1.1,1.1,0,0,1,0-1.225l5.175-7.057a.525.525,0,0,1,.9,0l5.175,7.057A1.105,1.105,0,0,1,73.127,101.923Z"/>
        <path class="cls-7" d="M61.127,101.923l-5.175,7.057a.525.525,0,0,1-.9,0l-5.175-7.057a1.1,1.1,0,0,1,0-1.225l5.175-7.057a.525.525,0,0,1,.9,0l5.175,7.057A1.105,1.105,0,0,1,61.127,101.923Z"/>
        <path class="cls-7" d="M49.127,101.923l-5.175,7.057a.525.525,0,0,1-.9,0l-5.175-7.057a1.1,1.1,0,0,1,0-1.225l5.175-7.057a.525.525,0,0,1,.9,0l5.175,7.057A1.105,1.105,0,0,1,49.127,101.923Z"/>
        <path class="cls-7" d="M37.127,101.923l-5.175,7.057a.525.525,0,0,1-.9,0l-5.175-7.057a1.1,1.1,0,0,1,0-1.225l5.175-7.057a.525.525,0,0,1,.9,0l5.175,7.057A1.105,1.105,0,0,1,37.127,101.923Z"/>
        <path class="cls-7" d="M25.127,101.923l-5.175,7.057a.525.525,0,0,1-.9,0l-5.175-7.057a1.1,1.1,0,0,1,0-1.225l5.175-7.057a.525.525,0,0,1,.9,0l5.175,7.057A1.105,1.105,0,0,1,25.127,101.923Z"/>
        <path class="cls-5" d="M14.687,100.49v-.01a2.173,2.173,0,0,0-.26-.53c-.03-.05-.06-.1-.09-.14l-5.17-7.06a2.115,2.115,0,0,0-1.33-.81,2.073,2.073,0,0,0-1.94.76.121.121,0,0,0-.05.05l-3.51,4.78-.01.01.27.54.36.72c.06.12.13.25.19.37a1.091,1.091,0,0,0,.06.11c.12.26.26.52.39.78.08.16.17.32.25.49l3.66-4.99.33.44,3.88,5.31-3.88,5.31-.33.44-.92-1.25c.61,1.13,1.22,2.24,1.82,3.3.16.3.33.6.51.89a.405.405,0,0,0,.05.09,1.373,1.373,0,0,0,.2-.22l5.17-7.06c.03-.04.06-.09.09-.14a2.173,2.173,0,0,0,.26-.53v-.01a.833.833,0,0,0,.04-.15A2.607,2.607,0,0,0,14.687,100.49Z"/>
      </g>
    </g>
    <g id="chocolate_square" data-name="chocolate square">
      <path class="cls-8" d="M90.417,26.66a2.036,2.036,0,0,1-1.5,1.26l-1.12.06-13.72.76-5.7.32a2.051,2.051,0,0,1-2.42-1.59l-.06-.33c0-.01-.01-.03-.01-.04l-.92-5.14-.19-1.06-1.2-6.69V14.2l-.5-2.77L62.8,9.87l-.26-1.44a2.053,2.053,0,0,1,1.72-2.33L83.907.03a2.288,2.288,0,0,1,2.53,2l4.15,23.13A2.521,2.521,0,0,1,90.417,26.66Z"/>
      <path class="cls-9" d="M86.276,27.71l-18.223.89a1.868,1.868,0,0,1-2.162-1.5l-3.2-17.824a1.867,1.867,0,0,1,1.5-2.161l17.4-5.5A2.106,2.106,0,0,1,83.853,3.5L87.738,25.15A2.108,2.108,0,0,1,86.276,27.71Z"/>
      <path class="cls-10" d="M84.915,26.322,68.9,27.1A1.642,1.642,0,0,1,67,25.782L64.19,10.118a1.641,1.641,0,0,1,1.322-1.9L80.8,3.384a1.853,1.853,0,0,1,1.987,1.663L86.2,24.072A1.853,1.853,0,0,1,84.915,26.322Z"/>
    </g>
    <g id="mint_choco_ice_cream" data-name="mint choco ice cream">
      <path class="cls-11" d="M97.567,78.357c-.06.112-.13.225-.2.347-.69,1.165-1.78,2.677-2.3,2.462-.72-.286,0-4.781-.04-5.465a11.178,11.178,0,0,0-2.91-6.784,2.973,2.973,0,0,0-1.54-1.042c-2.83-.521-2.22,3.954-4.65,4.076-.63.031-1.25-.245-1.87-.184a2.109,2.109,0,0,0-.55.154,14.139,14.139,0,0,0-2.4,1.93c-2.12,1.6-5.23,2.452-3.96,5.7.26.664,3.07,3.555,2.29,4.158-1.37,1.063-3.91.746-5.46.5-2.21-.337-4.34-.48-6.34-1.635a10.248,10.248,0,0,0-1.55-.817c-1.39-.46-3.33.6-4.62,1.073a1.324,1.324,0,0,0-.48.337c-1.32,1.512-3,3.769-5.22,2.83-1.08-.46-1.84-1.472-2.87-2.033a11.157,11.157,0,0,0-4.41-1.318c-1.63-.154-3.4.551-4.99.868a48.128,48.128,0,0,1-8.4,1.318,4.737,4.737,0,0,1-3.31-1.052c-1.41-1.257-1.15-3.055-2.07-4.465-.11-.174-.21-.337-.33-.511a4.174,4.174,0,0,0-3.87-1.267,8.86,8.86,0,0,0-4.14,2.2c-.79.776-1.97,2.268-3.19,1.42-2.37-1.665-2.53-4.005-3.05-6.763a12.966,12.966,0,0,0-1.38-4.219C12.3,67.7,9.237,68.263,7,68.672a4.365,4.365,0,0,1-.87.092A2.369,2.369,0,0,1,3.657,67.2c-1.22-3.1.34-6.764-.75-9.951A1.319,1.319,0,0,1,2.817,57c-.02-.409-.03-.807-.04-1.2a41.8,41.8,0,0,0-.24-5.026c-.01-.072-.02-.133-.03-.194-.09-.4-.18-.787-.27-1.175a29.5,29.5,0,0,1-.47-9.93c.01-.143.03-.276.05-.419.08-.562.17-1.114.28-1.665a5.446,5.446,0,0,1,.12-.552A28.3,28.3,0,0,1,3.8,31.771c6.52-15.7,26.35-25.439,48.3-22.691.37.031.73.082,1.1.133s.75.112,1.12.174q.36.045.72.122c.29.051.57.1.85.154a1.552,1.552,0,0,1,.21.04,58.928,58.928,0,0,1,6.98,1.788h.01c.48.153.95.317,1.42.48a53.008,53.008,0,0,1,14.86,8.01v-.01a45.47,45.47,0,0,1,4.18,3.616v.021c.81.786,1.6,1.594,2.33,2.441.45.511.89,1.032,1.31,1.564.21.255.41.521.61.786,5.34,7.08,7.96,15.417,6.8,23.906a30.375,30.375,0,0,1-.79,3.842,7.356,7.356,0,0,0,1.53,6.936c.25.327.5.654.76.991.46.613.93,1.226,1.35,1.87.11.164.21.317.31.48a11.705,11.705,0,0,1,.8,1.533,8.756,8.756,0,0,1,.53,1.7A13.6,13.6,0,0,1,97.567,78.357Z"/>
      <path class="cls-12" d="M97.567,76.88c-.06.11-.13.22-.2.34-.69,1.14-1.78,2.62-2.3,2.41-.72-.28,0-4.68-.04-5.35a10.827,10.827,0,0,0-2.91-6.64,2.98,2.98,0,0,0-1.54-1.02c-2.83-.51-2.22,3.87-4.65,3.99-.63.03-1.25-.24-1.87-.18a2.139,2.139,0,0,0-.55.15,14.092,14.092,0,0,0-2.4,1.89c-2.12,1.57-5.23,2.4-3.96,5.58.26.65,3.07,3.48,2.29,4.07-1.37,1.04-3.91.73-5.46.49-2.21-.33-4.34-.47-6.34-1.6a10.333,10.333,0,0,0-1.55-.8c-1.39-.45-3.33.59-4.62,1.05a1.331,1.331,0,0,0-.48.33c-1.32,1.48-3,3.69-5.22,2.77-1.08-.45-1.84-1.44-2.87-1.99a11.352,11.352,0,0,0-4.41-1.29c-1.63-.15-3.4.54-4.99.85a49.033,49.033,0,0,1-8.4,1.29,4.8,4.8,0,0,1-3.31-1.03c-1.41-1.23-1.15-2.99-2.07-4.37-.11-.17-.21-.33-.33-.5a4.225,4.225,0,0,0-3.87-1.24,8.917,8.917,0,0,0-4.14,2.15c-.79.76-1.97,2.22-3.19,1.39-2.37-1.63-2.53-3.92-3.05-6.62a12.51,12.51,0,0,0-1.38-4.13C12.3,66.45,9.237,67,7,67.4a4.434,4.434,0,0,1-.87.09,2.372,2.372,0,0,1-2.47-1.53c-1.22-3.03.34-6.62-.75-9.74a1.254,1.254,0,0,1-.09-.25c-.02-.4-.03-.79-.04-1.17a40.059,40.059,0,0,0-.24-4.92c-.01-.07-.02-.13-.03-.19-.09-.39-.18-.77-.27-1.15a28.282,28.282,0,0,1-.47-9.72c.01-.14.03-.27.05-.41.08-.55.17-1.09.28-1.63a5.228,5.228,0,0,1,.12-.54A27.285,27.285,0,0,1,3.8,31.28c6.52-15.37,26.35-24.9,48.3-22.21.37.03.73.08,1.1.13s.75.11,1.12.17q.36.045.72.12c.29.05.57.1.85.15a1.552,1.552,0,0,1,.21.04,59.844,59.844,0,0,1,6.98,1.75h.01c.48.15.95.31,1.42.47a53.358,53.358,0,0,1,14.86,7.84v-.01a45.09,45.09,0,0,1,4.18,3.54v.02c.81.77,1.6,1.56,2.33,2.39.45.5.89,1.01,1.31,1.53.21.25.41.51.61.77,5.34,6.93,7.96,15.09,6.8,23.4a29.161,29.161,0,0,1-.79,3.76,7.088,7.088,0,0,0,1.53,6.79c.25.32.5.64.76.97.46.6.93,1.2,1.35,1.83.11.16.21.31.31.47a11.388,11.388,0,0,1,.8,1.5,8.457,8.457,0,0,1,.53,1.66A13.078,13.078,0,0,1,97.567,76.88Z"/>
      <g id="choco_chips" data-name="choco chips">
        <path class="cls-13" d="M15.668,38.231l4.2-.629c.271-.041.6-.13.665-.4a.713.713,0,0,0-.075-.424L17.743,30.07a14.48,14.48,0,0,0-2.078.712,1.226,1.226,0,0,0-.615.793,1.816,1.816,0,0,0,.032.627c.189,1.126.262,2.214.387,3.341Z"/>
        <path class="cls-13" d="M40.011,32.222c-.1,2.417-.314,4.816-.543,7.223a.547.547,0,0,1-.48.611c-.633.181-1.264.364-1.894.557a.657.657,0,0,1-.392.037c-.311-.1-.575-1.334-.706-1.631a21.613,21.613,0,0,0-1-1.984,7.677,7.677,0,0,1-1.343-3.292.443.443,0,0,1,.053-.279.458.458,0,0,1,.192-.137,5.534,5.534,0,0,1,2.23-.637,15.085,15.085,0,0,0,2.275-.157C38.947,32.448,39.474,32.312,40.011,32.222Z"/>
        <path class="cls-13" d="M31.341,46.968a.926.926,0,0,1,.349.227.883.883,0,0,1,.152.376,13.6,13.6,0,0,1,.327,2.3,20.731,20.731,0,0,1-4.339.439.51.51,0,0,1-.542-.276A11.229,11.229,0,0,1,25.6,46a19.2,19.2,0,0,1,2.447-.273,4.363,4.363,0,0,1,1.8.559Z"/>
        <path class="cls-13" d="M20.341,59.707a3.216,3.216,0,0,0-.784,1.409.419.419,0,0,0,.008.217.453.453,0,0,0,.211.2,9.825,9.825,0,0,0,4.628.955.644.644,0,0,0,.4-.072.613.613,0,0,0,.185-.273,12.118,12.118,0,0,0,.605-2.035,1.08,1.08,0,0,0-.837-1.582l-1.966-.674c-.455-.156-.987-.291-1.325.151a1.312,1.312,0,0,0-.176.421,1.834,1.834,0,0,1-.363.553Z"/>
        <path class="cls-13" d="M7.29,50.544q.444,3.3,1.2,6.541a25.568,25.568,0,0,1,3.02-2.213,1.084,1.084,0,0,0,.419-.377,1.049,1.049,0,0,0,.058-.589l-.18-1.958a2.809,2.809,0,0,0-.276-1.407,1.1,1.1,0,0,0-.844-.355,14.817,14.817,0,0,0-1.563.007A3.206,3.206,0,0,0,7.29,50.544Z"/>
        <path class="cls-13" d="M17.526,70.37l1.608,4.516q1.175-.558,2.4-1a3.544,3.544,0,0,1-.993-2.2c-.039-.227-.072-.456-.107-.685a1.146,1.146,0,0,0-.141-.493c-.206-.3-.674-.2-.976-.19l-.9.026A6.692,6.692,0,0,1,17.526,70.37Z"/>
        <path class="cls-13" d="M35.928,66.623l-.3,7.3a.556.556,0,0,1-.165.455.542.542,0,0,1-.241.072,11.9,11.9,0,0,1-3.109-.013.7.7,0,0,1-.519-.237.737.737,0,0,1-.076-.409,11.922,11.922,0,0,0-.394-2.823c-.232-.938-.53-1.858-.8-2.786q-.112-.389-.216-.778a4.49,4.49,0,0,1-.188-.792,11.151,11.151,0,0,1,1.523-.237c.322-.049.644-.1.968-.132.773-.078,1.555-.058,2.331-.063C35.144,66.182,35.953,66.011,35.928,66.623Z"/>
        <path class="cls-13" d="M43.705,71.707a16.986,16.986,0,0,0,3.433,3.857.6.6,0,0,0,.282.155c.221.031.395-.178.522-.362A27.317,27.317,0,0,1,51.5,71.18c.4-.387.855-.855.78-1.409a3.451,3.451,0,0,0-.422-.922,6.287,6.287,0,0,0-.5-1.275.743.743,0,0,0-.978-.18c-.069.061-.074.146-.126.208a1.864,1.864,0,0,1-.414.255l-.853.525q-1.7,1.048-3.383,2.115Q44.653,71.1,43.705,71.707Z"/>
        <path class="cls-13" d="M47.188,51.636a.73.73,0,0,0-.255.527.691.691,0,0,0,.158.322,8.052,8.052,0,0,0,4.814,3.046q1.066-1.547,2.038-3.153a1.026,1.026,0,0,0-.052-1.471l-1.606-2.08a10.937,10.937,0,0,0-.889-1.056c-.087-.087-.384-.439-.507-.41-.071.017-.2.231-.244.287-.085.1-.169.2-.254.3q-1.005,1.191-2.03,2.362Q47.778,50.977,47.188,51.636Z"/>
        <path class="cls-13" d="M64.588,61.244a.211.211,0,0,0,.1.106c.084.03.164-.048.222-.116a2.452,2.452,0,0,1,.946-.678c.272-.109.628-.256.6-.548a.637.637,0,0,0-.118-.271,7.487,7.487,0,0,1-.858-1.93c-.646-.1-1.139.554-1.774.581A8.581,8.581,0,0,0,64.588,61.244Z"/>
        <path class="cls-13" d="M71.752,64.362l2.66,3.821c.343.493.7,1.127.414,1.656a1.64,1.64,0,0,1-.387.432L71.245,73.08a.677.677,0,0,1-.332.194A.665.665,0,0,1,70.4,73a13.822,13.822,0,0,1-2.448-3.449c-.1-.2-.425-.654-.288-.877a1.971,1.971,0,0,1,.357-.337q.209-.192.415-.389.833-.793,1.618-1.635Q70.933,65.368,71.752,64.362Z"/>
        <path class="cls-13" d="M29.221,20.239A8.318,8.318,0,0,0,26.073,22.6q1.429,2.557,3.091,4.975a6.973,6.973,0,0,0,1.375-2.493l1.957.469.9-3.446a1.482,1.482,0,0,0,.038-.931,1.475,1.475,0,0,0-.53-.572l-1.853-1.39a.743.743,0,0,0-.62-.215.8.8,0,0,0-.361.324,4.525,4.525,0,0,1-1.989,1.486Z"/>
        <path class="cls-13" d="M6.257,37.95c-.1.22-.38.29-.61.33-.88.14-1.75.28-2.62.42a8.812,8.812,0,0,1-1.26.12c.01-.14.03-.27.05-.41A28.232,28.232,0,0,1,3.8,31.28a10.39,10.39,0,0,1,1.36.21l1.11,6.03A.784.784,0,0,1,6.257,37.95Z"/>
        <path class="cls-13" d="M16.381,19.305A12.251,12.251,0,0,0,23,20.072a1.477,1.477,0,0,0,.706-.252,1.524,1.524,0,0,0,.421-1.1,4.388,4.388,0,0,0-.458-2.8,1.8,1.8,0,0,0-2.486-.609c-.563.461-.676,1.317-1.238,1.779a2.255,2.255,0,0,1-.884.417,6.76,6.76,0,0,1-2.422.267l-.486.677Z"/>
        <path class="cls-13" d="M81.418,60.366c-.315.838.807,1.739,1.6,1.333a1.412,1.412,0,0,0,.144-2.255,1.744,1.744,0,0,0-2.374.4Z"/>
        <path class="cls-13" d="M39.783,57.946a13.318,13.318,0,0,0-.161,1.476,1.5,1.5,0,0,0,.212,1.03c.415.52,1.327.275,1.68-.289a3.168,3.168,0,0,0,.264-1.943l-2.343-.687Z"/>
        <path class="cls-13" d="M98.557,66.7a1.551,1.551,0,0,1-.43.29.928.928,0,0,1-.84.06,1.324,1.324,0,0,1-.29-.24,4.939,4.939,0,0,1-1.42-2.06,1.818,1.818,0,0,1,.52-1.85c.46.6.93,1.2,1.35,1.83.11.16.21.31.31.47A11.388,11.388,0,0,1,98.557,66.7Z"/>
        <path class="cls-13" d="M87.7,52.3a18.869,18.869,0,0,1,2.911.1,3.9,3.9,0,0,1-.709,4.295,3.7,3.7,0,0,1-5.567-.519,6.621,6.621,0,0,1-.648-1.743l2.686-.493c.216-.04.463-.1.555-.3a1.06,1.06,0,0,0,.028-.454,1.035,1.035,0,0,1,1.592-.769Z"/>
        <path class="cls-13" d="M78.382,44.4c-1.088-1.416-3.111-1.609-4.9-1.684l-3.576-.151c.182.008.1,1.557.085,1.718a7,7,0,0,1-.481,1.774,23.563,23.563,0,0,1-1.887,3.291c1.36-.409,2.835,3.073,3.907,1.9.679-.741,1.159-1.724,1.815-2.5a20.98,20.98,0,0,1,2.18-2.232A20.739,20.739,0,0,1,78.382,44.4Z"/>
        <path class="cls-13" d="M55.838,38.6c1.647,1.932,3.383,2.833,4.122,2.367a2.14,2.14,0,0,0,.6-.823,2.631,2.631,0,0,0,.159-1.642.97.97,0,0,1-.814.207c-.218-.07-.333-.26-.5-.543a4.689,4.689,0,0,1-.511-1.823c-.076-.551-.145-1.1-.232-1.652a5.08,5.08,0,0,0-1.157.466l-1.3.535L53.6,36.76c-.507.208.117,1.329.738,1.647a1.443,1.443,0,0,0,.951.106Z"/>
        <path class="cls-13" d="M85.157,36.057c-.3.229-.733.271-1,.555a1.072,1.072,0,0,0-.24.719,2.494,2.494,0,0,0,1.218,2.075,4,4,0,0,0,2.42.514,4.5,4.5,0,0,0,3.116-1.48,3.134,3.134,0,0,0,.5-3.31.862.862,0,0,0-.3-.373.769.769,0,0,0-.766.072,3.549,3.549,0,0,0-1.059,1.333,2.024,2.024,0,0,1-1.263,1.086,7.37,7.37,0,0,0-.5-2.167.184.184,0,0,0-.061-.094.194.194,0,0,0-.161-.006c-.138.042-1.1.069-1.533.58Z"/>
        <path class="cls-13" d="M83.547,23.27q-.045.96-.15,1.92a8.427,8.427,0,0,0-4.77-1.24,18.306,18.306,0,0,0,.74-4.22A45.09,45.09,0,0,1,83.547,23.27Z"/>
        <path class="cls-13" d="M65.9,20.318A4.965,4.965,0,0,0,64.043,21.5a2.794,2.794,0,0,0,1.892.566c.662-.124,1.192-.963.778-1.5A2.119,2.119,0,0,1,65.1,20.15Z"/>
        <path class="cls-13" d="M71.207,30.968l-1.978.829,1.253,3.162a.585.585,0,0,0,.16.258.579.579,0,0,0,.435.058,25.243,25.243,0,0,0,4.7-1.089,31,31,0,0,0-4.927-3.413Z"/>
        <path class="cls-13" d="M48.965,24.478c.223.462-.342,1.064-.054,1.488a.843.843,0,0,0,.384.265,7.381,7.381,0,0,0,3.316.581q.482-1.559,1.094-3.074a3.35,3.35,0,0,1-1.662-1.469c-.157-.282-.314-.624-.63-.695a1.054,1.054,0,0,0-.545.081,8.046,8.046,0,0,1-3.082.371,3.85,3.85,0,0,1-.475,1.8c.732-.131,1.217.719,1.465,1.419Z"/>
        <path class="cls-13" d="M58.1,11.21a4.782,4.782,0,0,0-1.53,2.25,20.143,20.143,0,0,0-4.32.16c-.9.13-1.4-.63-2-1.2-.26-.25-.78-.6-.62-1.03.12-.31.57-.51.83-.67a4.533,4.533,0,0,0,1.17-.92,5.047,5.047,0,0,0,.47-.73c.37.03.73.08,1.1.13.91.13,1.8.27,2.69.44A18.619,18.619,0,0,0,58.1,11.21Z"/>
        <path class="cls-13" d="M36.03,11.881a2.466,2.466,0,0,1,3.237,1.365,1,1,0,0,1,.069.434.95.95,0,0,1-.477.658,2.2,2.2,0,0,1-1.977.1A4.053,4.053,0,0,1,35.3,13.162a1.349,1.349,0,0,1-.383-.916,1.556,1.556,0,0,0,.769-.309Z"/>
        <path class="cls-13" d="M59.162,75.335c-.42.072-.949.266-.942.693a.914.914,0,0,0,.224.495L60.027,78.7l1.234-.9a.667.667,0,0,0,.243-.973,3.4,3.4,0,0,0-1.256-1.981c-.691-.4-1.833-.012-1.8.787Z"/>
      </g>
    </g>
    <g id="highlight_and_shadow" data-name="highlight and shadow">
      <path class="cls-14" d="M98.867,93.65c-.49,1.02-1.29,2.68-2.27,4.65-.05.08-.09.17-.14.27a4.111,4.111,0,0,1-.21.42c-.21.42-.42.85-.64,1.28-.09.17-.18.35-.27.52-.58,1.14-1.2,2.34-1.83,3.54a.01.01,0,0,1-.01.01c-.46.88-.93,1.76-1.41,2.63-.54.99-1.08,1.96-1.61,2.87-.08.14-.17.29-.25.43-2.05,3.51-3.89,6.13-4.8,6.13h-1.24a3.385,3.385,0,0,1,0,6.77h-.15a2.483,2.483,0,0,1-.06.54l-.32,1.43-.87,3.87-.26,1.14-.3,1.36-.14.61-.25,1.13-1.38,6.17-.31,1.38-.92,4.1-.31,1.37-1.39,6.18-.25,1.12-.43,1.95-.25,1.12-.51,2.27-.43,1.91-.7,3.12-.35,1.54-.43,1.94-.25,1.12-1.74,7.75-.24,1.08-.46,2.04-.21.93-.69,3.11-.01.01-.42,1.87-.64,2.87-.25,1.12-.44,1.94-.25,1.12-1.25,5.59-.02.1a2.586,2.586,0,0,1-1.33,1.67.052.052,0,0,1-.04.02,1.978,1.978,0,0,1-.31.12,2.251,2.251,0,0,1-.74.12h-4.34c.05-.25.1-.49.15-.73.07-.39.14-.78.21-1.15.14-.72.27-1.4.38-2.01.08-.46.16-.89.23-1.25.05-.26.09-.49.13-.69v-.01c.06-.33.11-.57.15-.71.11-.41.21-.83.31-1.24.28-1.08.55-2.16.83-3.25.23-.91.45-1.83.68-2.75.16-.63.32-1.27.46-1.91.1-.36.19-.72.27-1.09q.945-3.81,1.85-7.63c.08-.32.15-.63.22-.95.32-1.34.64-2.68.95-4.02.12-.54.25-1.07.37-1.61.15-.63.29-1.26.44-1.9.26-1.12.51-2.24.77-3.37l.24-1.11c.15-.64.3-1.28.44-1.93.08-.37.17-.75.25-1.12.37-1.69.75-3.39,1.11-5.08.14-.62.27-1.23.4-1.85l.01-.01c.35-1.65.71-3.31,1.05-4.97l.03-.12q.825-3.915,1.61-7.83c.08-.38.16-.75.23-1.13.11-.52.21-1.03.31-1.55.23-1.14.46-2.27.68-3.41.2-.99.39-1.98.59-2.98.11-.58.22-1.16.33-1.75.07-.32.13-.64.19-.97.08-.4.15-.8.23-1.2.13-.67.25-1.33.38-2,.01-.04.01-.07.02-.11.07-.35.13-.7.2-1.05.02-.13.05-.26.07-.39.42-2.25.85-4.51,1.26-6.77q.66-3.63,1.28-7.27a.127.127,0,0,0,.01-.06v-.01c.23-1.28.44-2.57.65-3.85q.72-4.485,1.31-9V96.2c.04-.25.07-.5.1-.75v-.01c.39-3.07.73-6.14.99-9.22a154.489,154.489,0,0,0,.59-15.64q-.06-4.47-.43-8.91c-.07-.81-.15-1.62-.24-2.42-.18-1.69-.41-3.37-.67-5.05-.23-1.47-.49-2.93-.79-4.39a81.268,81.268,0,0,0-7.3-21.07c-.07-.14-.14-.28-.22-.42-.25-.48-.5-.95-.78-1.42a63.7,63.7,0,0,0-6.82-10.05c-.34-.41-.7-.8-1.07-1.18a18.444,18.444,0,0,0-1.61-1.46V14.2A32.766,32.766,0,0,0,56.1,9.68a59.844,59.844,0,0,1,6.98,1.75L62.8,9.87h.01q.72.3,1.44.57c4.29,1.65,8.76,2.83,12.79,5.09a47.5,47.5,0,0,1,8.77,6.36c.55.49,1.09,1,1.62,1.54q1.56,1.545,2.99,3.23a2.036,2.036,0,0,1-1.5,1.26l-1.12.06c5.34,6.93,7.96,15.09,6.8,23.4a29.161,29.161,0,0,1-.79,3.76,7.088,7.088,0,0,0,1.53,6.79c.25.32.5.64.76.97.46.6.93,1.2,1.35,1.83.11.16.21.31.31.47a11.388,11.388,0,0,1,.8,1.5,8.457,8.457,0,0,1,.53,1.66,13.078,13.078,0,0,1-1.52,8.52c-.06.11-.13.22-.2.34a3.553,3.553,0,0,1,.03,2.77c-.29.63-1.6,1.12-1.38,1.7.21.54.78.37,1.21.54a1.081,1.081,0,0,1,.59.56,1.973,1.973,0,0,1,.17.84,6.312,6.312,0,0,1-1.17,3.27,6.341,6.341,0,0,1,2.4,4.05A4.339,4.339,0,0,1,98.867,93.65Z"/>
      <path class="cls-15" d="M8.347,32.621A44.074,44.074,0,0,1,35.3,13.162"/>
    </g>
  </g>
</svg>
