<svg xmlns="http://www.w3.org/2000/svg" viewBox="0 0 98.311 200.004">
  <defs>
    <style>
      .cls-1 {
        isolation: isolate;
      }

      .cls-2, .cls-8 {
        fill: #93e6ff;
      }

      .cls-3 {
        fill: #ab5790;
      }

      .cls-13, .cls-23, .cls-24, .cls-4, .cls-5, .cls-7 {
        fill: none;
      }

      .cls-4 {
        stroke: #f2cdf2;
        stroke-width: 13px;
        opacity: 0.1;
      }

      .cls-23, .cls-24, .cls-4, .cls-5, .cls-7, .cls-8 {
        stroke-linecap: round;
      }

      .cls-23, .cls-24, .cls-4, .cls-5 {
        stroke-miterlimit: 10;
      }

      .cls-24, .cls-5 {
        stroke: #3a1464;
        stroke-width: 2px;
        opacity: 0.46;
      }

      .cls-10, .cls-5 {
        mix-blend-mode: hard-light;
      }

      .cls-6 {
        fill: #80416c;
      }

      .cls-23, .cls-7, .cls-8 {
        stroke: #93e6ff;
      }

      .cls-7, .cls-8 {
        stroke-linejoin: round;
      }

      .cls-9 {
        fill: #f2f2f2;
      }

      .cls-23, .cls-9 {
        opacity: 0.61;
      }

      .cls-10 {
        fill: #1b1464;
        opacity: 0.3;
      }

      .cls-11 {
        fill: #15b900;
      }

      .cls-12 {
        fill: #006837;
      }

      .cls-14 {
        fill: #39b54a;
      }

      .cls-15 {
        fill: #e5e58f;
      }

      .cls-16 {
        fill: #50bcb2;
      }

      .cls-17 {
        fill: #998675;
        opacity: 0.51;
      }

      .cls-18 {
        fill: #acac6b;
      }

      .cls-19 {
        fill: #3a66c9;
      }

      .cls-20 {
        fill: #16254f;
      }

      .cls-21 {
        fill: #603151;
      }

      .cls-22 {
        fill: #2b499e;
      }

      .cls-24 {
        mix-blend-mode: soft-light;
      }
    </style>
  </defs>
  <g class="cls-1">
    <g id="smoothie">
      <path id="base" class="cls-2" d="M72.691,198.973a269.071,269.071,0,0,1-47.07,0,1.765,1.765,0,0,1-1.614-1.909l.067-.71a1.772,1.772,0,0,1,1.916-1.587,264.732,264.732,0,0,0,46.331,0,1.772,1.772,0,0,1,1.916,1.587l.067.71A1.765,1.765,0,0,1,72.691,198.973Z"/>
      <g id="purple_semicircles" data-name="purple semicircles">
        <path class="cls-3" d="M10.767,60.134c0,.761.854,1.38,1.942,1.447v-2.9C11.621,58.754,10.767,59.372,10.767,60.134Z"/>
        <path class="cls-3" d="M87.95,60.6c-.049.735-1.065,1.267-2.31,1.249l.186-2.793C87.063,59.2,88,59.863,87.95,60.6Z"/>
        <path class="cls-3" d="M12.558,50.981a1.271,1.271,0,0,1,.151.019v4.127a1.519,1.519,0,0,1-.151.019,2.135,2.135,0,0,1,0-4.165Z"/>
        <path class="cls-3" d="M85.952,51.659c-.067,0-.129.012-.194.018v3.776c.065,0,.127.017.194.017a1.918,1.918,0,1,0,0-3.811Z"/>
      </g>
      <g id="neck_border" data-name="neck border">
        <path class="cls-2" d="M76.744,39.725a7.144,7.144,0,0,1,7.122,7.123V59.961a7.143,7.143,0,0,1-7.122,7.122H21.568a7.143,7.143,0,0,1-7.123-7.122V46.848a7.144,7.144,0,0,1,7.123-7.123H76.744m0-2H21.568a9.134,9.134,0,0,0-9.123,9.123V59.961a9.133,9.133,0,0,0,9.123,9.122H76.744a9.132,9.132,0,0,0,9.122-9.122V46.848a9.133,9.133,0,0,0-9.122-9.123Z"/>
      </g>
      <g id="body">
        <path class="cls-3" d="M36.655,57.38h25A35.655,35.655,0,0,1,97.312,93.035v66.917a35.655,35.655,0,0,1-35.655,35.655h-25A35.654,35.654,0,0,1,1,159.953V93.035A35.655,35.655,0,0,1,36.655,57.38Z"/>
        <path class="cls-2" d="M61.656,58.38A34.757,34.757,0,0,1,96.311,93.035v66.917a34.757,34.757,0,0,1-34.655,34.655h-25A34.757,34.757,0,0,1,2,159.952V93.035A34.757,34.757,0,0,1,36.655,58.38h25m0-2h-25A36.7,36.7,0,0,0,0,93.035v66.917a36.7,36.7,0,0,0,36.655,36.655h25a36.7,36.7,0,0,0,36.655-36.655V93.035A36.7,36.7,0,0,0,61.656,56.38Z"/>
      </g>
      <rect id="neck" class="cls-3" x="14.445" y="39.725" width="69.421" height="27.358" rx="7.123"/>
      <g id="clouds">
        <path class="cls-4" d="M47.728,64.9l-4.176,8.512A22.065,22.065,0,0,1,49.2,66.769L43.943,86.733c.977.6,3.293-4.093,4.922-5.273,1.578-1.142,1.6,1.588.881,4.246s-1.915,5.765-1.8,7.647c2.785-4.8,6.837-10.617,8.336-9.09,1.029,1.048-.03,4.989-.813,8.269s-1.028,6.882.83,5.962c2.111-1.044,5.208-7.273,6.958-7.3,1.993-.03-.92,7.846.657,8.731,1.637.917,5.724-6.375,7.994-6.931,1.38-.338,1.493,1.954,2.335,2.807,2.046,2.073,8.014-4.541,9.58-1.636.546,1.014.407,3.04.817,4.269s1.816,1.264,3.189-.94"/>
        <path class="cls-4" d="M17.186,98.608c.992-4.414,3.289-7.575,5.735-7.893s4.935,2.22,6.213,6.338c1.355,4.363,1.417,10.17,3.223,13.845l1.588-7.161c1.232,4.835,3.868,8.155,6.614,8.33,3.82.244,7.078-4.947,10.406-8.642,1.693-1.88,3.709-3.445,5.539-2.161s2.814,6.747,1.256,9.033c2.244-.258,4.632-.278,6.56,2s3.073,7.665,1.787,11.3l19.651.231"/>
        <path class="cls-4" d="M10.693,153.154a103.462,103.462,0,0,0,17.356-7.682l.425,2.916,6.36-4.689.295,2.658c2.092.186,4.015-1.015,5.945-1.845s4.443-1.2,5.908.305c.409.421.713.972,1.235,1.242a11.416,11.416,0,0,0,1.731.387,3.936,3.936,0,0,1,1.881,1.907l7.54,12.449a34.733,34.733,0,0,1,7.062-15.42,25.994,25.994,0,0,0,14.12-14.012,40.665,40.665,0,0,1,6.973,21.616l.308-2.508"/>
        <path class="cls-4" d="M82.037,134.286a31.868,31.868,0,0,0-17.394,1.728c.586-2.716-1.234-4.1-2.276-3.018l-9.213,9.558c-2.294,2.379-5.529,3.739-6.563-2.642-.416-2.569-.276-5.624-.606-8.3-.924-7.485-4.525-7.537-7.241-6.327s-6.362.667-7.1-6.989c-5.674-3.5-11.976,6.384-14.055,22.047l-1.1-7.682"/>
        <path class="cls-4" d="M18.654,156.191l18.086.437-7.305,10.066,5.239.019a16.045,16.045,0,0,1-4.361,6.615l5.086-.649a5.366,5.366,0,0,0,3.708,4.435,15.762,15.762,0,0,0,6.058.581l-.415-3.78c1.416-.1,2.345-1.592,2.55-3s-.065-2.848.16-4.25c.483-3.013,4.729-5.25,6.663-2.889l-8.81-2.753c-.436-1.808,1.432-3.277,3.081-4.138a66.736,66.736,0,0,1,20.586-6.77,2.869,2.869,0,0,1-2.169,3.932,2.667,2.667,0,1,1,.931,5.206c1.8.8,2.273,3.3,1.5,5.117s-2.4,3.092-3.972,4.286a6.817,6.817,0,0,1,1.013,8.186,4.651,4.651,0,0,1,5.033,1.473,45.076,45.076,0,0,1,7.043-3.8l6.6-11.627c1.228-2.163,2.233-5.388.132-6.72-.56-.356-1.252-.478-1.775-.886a2.085,2.085,0,0,1,.755-3.477l-9.721,2.96,1.194-2.436"/>
      </g>
      <g id="seeds">
        <path class="cls-5" d="M23.449,83.66l3.217,2.145"/>
        <path class="cls-5" d="M31.391,99.016a20,20,0,0,1-2.64,3.095"/>
        <path class="cls-5" d="M48.374,93.773a11.4,11.4,0,0,1,3.58.247"/>
        <path class="cls-5" d="M62.026,110.32a5.481,5.481,0,0,1-2.178.421"/>
        <path class="cls-5" d="M73,101.652h2.869"/>
        <path class="cls-5" d="M79.242,118.925l-1.447.693"/>
        <path class="cls-5" d="M42.208,125.016a2.649,2.649,0,0,0,2.606.369"/>
        <path class="cls-5" d="M32.819,136.022a5.035,5.035,0,0,1-3.369-.346"/>
        <path class="cls-5" d="M44.768,148.076a4.173,4.173,0,0,0,4.176-.65"/>
        <path class="cls-5" d="M65.108,145.641H67.5"/>
        <path class="cls-5" d="M75.841,163.932a20.893,20.893,0,0,0,3.181-.954"/>
        <path class="cls-5" d="M58.8,171.048a1.806,1.806,0,0,0,3.009-.528"/>
        <path class="cls-5" d="M39.872,173.312a2.86,2.86,0,0,1,3.88,1.18"/>
        <path class="cls-5" d="M22.571,177.117a4.042,4.042,0,0,0,1.915.379,1.389,1.389,0,0,0,1.274-1.27"/>
        <path class="cls-5" d="M24.944,162.376h.717"/>
        <path class="cls-5" d="M21.093,147.85a4.982,4.982,0,0,0,1.938.431"/>
        <path class="cls-5" d="M38.093,161.18h1.195"/>
        <path class="cls-5" d="M19.7,121.92l.956.24"/>
        <path class="cls-5" d="M21.6,118.387h.717"/>
        <path class="cls-5" d="M37.136,115.518l.239-.239"/>
        <path class="cls-5" d="M40.456,114.118a1.17,1.17,0,0,0,1.456-.041"/>
        <path class="cls-5" d="M75.866,98.305h.717"/>
        <path class="cls-5" d="M78.974,121.973h.478"/>
        <path class="cls-5" d="M69.175,137.261a1.031,1.031,0,0,0,.958-.221"/>
        <path class="cls-5" d="M68.933,144.445h1.195"/>
        <path class="cls-5" d="M81.843,163.332h.717"/>
        <path class="cls-5" d="M78.257,175.525h1.195"/>
        <path class="cls-5" d="M70.367,184.37H68.694"/>
        <path class="cls-5" d="M43.854,187.915a4.118,4.118,0,0,0,2.128.537"/>
        <path class="cls-5" d="M87.341,149.705h.717"/>
        <path class="cls-5" d="M89.732,134.644h.956"/>
        <path class="cls-5" d="M89.493,111.454h.717"/>
        <path class="cls-5" d="M88.3,93.026a1.341,1.341,0,0,0,1.207-.195"/>
        <path class="cls-5" d="M81.6,80.135h1.2"/>
        <path class="cls-5" d="M57.218,76.31h1.435"/>
        <path class="cls-5" d="M70.346,76.56a.568.568,0,0,1-.215.711"/>
        <path class="cls-5" d="M42.876,80.367l.956.24"/>
        <path class="cls-5" d="M30.675,76.323a.836.836,0,0,1-.456-.73"/>
        <path class="cls-5" d="M11.556,81.092h2.151"/>
        <path class="cls-5" d="M14.174,106.644a.9.9,0,0,1-.96-.2"/>
        <path class="cls-5" d="M6.535,131.057H8.687"/>
        <path class="cls-5" d="M14.2,157.805a.9.9,0,0,0,.96-.195"/>
        <path class="cls-5" d="M7.731,171.939h.717"/>
        <path class="cls-5" d="M57.457,130.1h.718"/>
        <path class="cls-5" d="M63.673,92.567h.717"/>
        <path class="cls-5" d="M29.008,69.377h1.673"/>
        <path class="cls-5" d="M76.833,69.117a.566.566,0,0,0,.71-.216"/>
        <path class="cls-5" d="M59.711,63.344h1.663"/>
        <path class="cls-5" d="M25.465,54.034H26.8"/>
        <path class="cls-5" d="M43.712,57.748a5.282,5.282,0,0,0,2.37.918"/>
      </g>
      <g id="opening">
        <ellipse class="cls-6" cx="49.155" cy="43.321" rx="34.32" ry="8.243"/>
        <path class="cls-2" d="M49.156,36.078c18.4,0,33.32,3.243,33.32,7.243s-14.918,7.243-33.32,7.243-33.32-3.243-33.32-7.243,14.917-7.243,33.32-7.243m0-2A118.5,118.5,0,0,0,25.17,36.245c-7.627,1.658-11.334,3.973-11.334,7.076S17.543,48.739,25.17,50.4a118.424,118.424,0,0,0,23.986,2.167A118.414,118.414,0,0,0,73.141,50.4c7.627-1.658,11.335-3.972,11.335-7.076S80.768,37.9,73.141,36.245a118.486,118.486,0,0,0-23.985-2.167Z"/>
      </g>
      <g id="Layer_5" data-name="Layer 5">
        <path class="cls-2" d="M38.619,58.634c.03-.145-.341-.336-.448-.391-1.2-.619-8.884-1.059-11.909-1.528a46.188,46.188,0,0,1-9.706-3.135,11.021,11.021,0,0,0-3.562-.958c-.477-.023-1.642-.092-1.128.609.369.5,1.386.8,1.933,1.053q1.1.515,2.23.973,2.2.9,4.484,1.579a50.1,50.1,0,0,0,9.427,1.856,49.875,49.875,0,0,0,5.411.238c.657-.007,1.029-.045,1.739-.074.377-.015.554.018.913-.025C38.288,58.8,38.593,58.757,38.619,58.634Z"/>
        <path class="cls-7" d="M15.438,51.488a4.165,4.165,0,0,0-2.412-.766,2.52,2.52,0,0,0-1.826.669,2.192,2.192,0,0,0-.436,2.1,3.7,3.7,0,0,0,1.284,1.8A5.778,5.778,0,0,0,15.4,56.561"/>
        <path class="cls-8" d="M25.084,62.4c8.6.885,13.2,3.009,20.487,2.107,2.753-.341,5.794-1.113,5.76-1.375-.021-.166-1.278-.176-2.062-.182-1.161-.008-2.031.082-2.194.088-1.481.056-2.962.105-4.443.139-2.946.068-5.894.08-8.84-.02-2.928-.1-5.854-.309-8.764-.687a69.118,69.118,0,0,1-8.591-1.68c-.885-.232-1.781-.411-2.681-.563-.459-.077-1.546-.454-2-.243-.028.013-.089.02-.118.031a3.407,3.407,0,0,0,1.216.422c.961.268,1.931.5,2.907.7,1.972.4,3.963.677,5.957.908C22.841,62.173,23.962,62.288,25.084,62.4Z"/>
        <path class="cls-7" d="M14.737,58.937a8.359,8.359,0,0,0-1.9-.346,3.826,3.826,0,0,0-1.325.067,1.558,1.558,0,0,0-1.021.791,1.628,1.628,0,0,0,.678,1.9A4.762,4.762,0,0,0,13.238,62l1.8.268"/>
      </g>
      <g id="Layer_7" data-name="Layer 7">
        <path class="cls-7" d="M80.094,59.437a44.041,44.041,0,0,1,5.251-.535,4.278,4.278,0,0,1,2.032.262,1.567,1.567,0,0,1,.949,1.659c-.212.873-1.278,1.173-2.165,1.315l-5.937.954"/>
        <path class="cls-8" d="M67.506,62.12c-.161.015-.36.217-.21.276a14.346,14.346,0,0,0,6.593.529c1.572-.244,3.09-.748,4.63-1.146a35.16,35.16,0,0,1,6.763-1.055,4.221,4.221,0,0,0,1.081-.072,5.148,5.148,0,0,0-1.891-.132c-1.283.033-2.578.229-3.857.351l-8.375.8Z"/>
        <path class="cls-8" d="M81.122,53.309a103.774,103.774,0,0,1-26.808,2.915c-.541-.012-1.321.312-1.075.794a16.276,16.276,0,0,0,9,.936c3.029-.429,5.961-1.357,8.934-2.078a66.237,66.237,0,0,1,10.228-1.644,17.215,17.215,0,0,1,2.422-.121c.551.034,1.086.171,1.633.233a1.283,1.283,0,0,0,1.1-.216,1,1,0,0,0,.276-.61c-.016-.337-.378-.407-.71-.517C84.5,52.465,82.725,52.918,81.122,53.309Z"/>
        <path class="cls-7" d="M79.524,51.517a13.016,13.016,0,0,1,5.456-.4,5.457,5.457,0,0,1,2.141.677,2.567,2.567,0,0,1,1.251,1.792,1.259,1.259,0,0,1-.031.515,1.384,1.384,0,0,1-.29.487c-.9,1.044-2.4,1.264-3.773,1.416l-3.426.38"/>
      </g>
      <g id="highlight">
        <path class="cls-9" d="M23.145,74.413c-.163,2.077-.611,4.55-2.328,5.922-.013.012-.023.026-.036.037-.03.031-.069.052-.1.083-3.9,3.327-5.671,8.182-6.465,11.682-1.039,4.547-1.105,9.15-1.079,14.7.066,19.775,1.564,41.634,3.137,59.631.111,1.258-1.423,2.356-3.431,2.455l-.14,0c-1.939.047-3.572-.873-3.683-2.1-1.575-18.087-.815-40.092-.884-59.977-.014-4.611-.035-10.362,1.2-15.824.894-3.913,2.823-9.272,7.014-13.366.166-.165.342-.329.508-.483s.352-.319.528-.473c.079-.072.167-.144.255-.227.627-.535,1.275-1.051,1.891-1.6A4.114,4.114,0,0,0,20.812,72.7a9.392,9.392,0,0,0,.12-2.433l0-.23c-.008-.33.474-.622.71-.408a5.862,5.862,0,0,1,.885,1.439A8.228,8.228,0,0,1,23.145,74.413Z"/>
      </g>
    </g>
    <g id="shadow">
      <path class="cls-10" d="M98.307,93.034v66.92a36.716,36.716,0,0,1-25.36,34.87,1.767,1.767,0,0,1,1.29,1.53c.02.24.04.47.07.71a1.775,1.775,0,0,1-1.62,1.91q-7.215.63-14.44.88c.75-1.07,1.49-2.16,2.21-3.25.22-.33.43-.66.64-1a.359.359,0,0,0,.07-.1c.2-.29.39-.59.58-.9,18.31-28.74,26.86-63.48,25.02-97.28-.2-3.6-.49-29.31-5.01-32.14a.178.178,0,0,1,.01-.31.142.142,0,0,1,.06-.02c.52-.03,1.04-.06,1.55-.07.54-.01,1.07-.02,1.59-.01A36.6,36.6,0,0,1,98.307,93.034Z"/>
    </g>
    <g id="garnish">
      <path class="cls-11" d="M36.224,18.405c6.58,6.58,5.333,12.838.7,17.467s-10.887,5.875-17.467-.7c-5.5-5.5-7.1-18.822-6.55-22.111a1.461,1.461,0,0,1,1.2-1.2C17.4,11.3,30.722,12.9,36.224,18.405Z"/>
      <path class="cls-12" d="M35.618,35.206A5.672,5.672,0,0,1,31.667,37.7a12.189,12.189,0,0,1-4.776-.318,29.161,29.161,0,0,1-5.069-1.672.147.147,0,0,1,.015-.275,14.705,14.705,0,0,0,3.468-1.675.148.148,0,0,0-.032-.262,30.538,30.538,0,0,1-7.4-3.952.152.152,0,0,1,.011-.251l2.291-1.387a.144.144,0,0,0,.022-.231,26.45,26.45,0,0,1-3.958-4.514.154.154,0,0,1,.019-.193c.528-.544.915-.988,1.438-1.529a.149.149,0,0,0-.007-.218L14.539,18.57l1.108.079a.422.422,0,0,0,.325-.067c.105-.1.083-.265.052-.405L15.3,14.806c-.193-.892-.481-1.907-1.313-2.282,0,.71.793,1.2,1.429,1.364a3.54,3.54,0,0,1,1.6.838c.364.349.682.748,1.044,1.1a2.13,2.13,0,0,0,.21-1.98,32.7,32.7,0,0,0,2.454,3.087.158.158,0,0,0,.24-.011,5.908,5.908,0,0,0,1.113-3.36.143.143,0,0,1,.244-.105L26.843,17.9a.144.144,0,0,0,.245-.111,21.169,21.169,0,0,1,.153-3.647,5.534,5.534,0,0,0,1.447,2.608,13,13,0,0,1,1.967,3.691.142.142,0,0,0,.275-.009l.895-3.555a.153.153,0,0,1,.252-.073,15.874,15.874,0,0,1,3.608,5.27l-.658.028c.161.363.338.719.5,1.082a12.059,12.059,0,0,0,.794-2.567.138.138,0,0,1,.267-.027c.73,1.713,1.913,3.224,2.553,4.977a8.775,8.775,0,0,1-4.214,10.806A1.418,1.418,0,0,1,35.618,35.206Z"/>
      <path class="cls-13" d="M27.49,33.257a10.477,10.477,0,0,0,1.715-.843,9.827,9.827,0,0,1,1.81-.782c.363-.081.825.085.28.333-.571.261-1.157.492-1.75.7A20.357,20.357,0,0,1,27.49,33.257Z"/>
      <path class="cls-14" d="M34.141,33.134a38.734,38.734,0,0,0-6.03-1.325,24.882,24.882,0,0,1-5.653-1.085,94.356,94.356,0,0,0,9.652.968,18.524,18.524,0,0,0-5.837-4.755c-.858-.436-1.749-.8-2.639-1.167l-3.549-1.458a14.87,14.87,0,0,0,3.809,1.27A26.076,26.076,0,0,1,29.913,28c-3.1-3.579-7.292-5.989-11.151-8.732l9.7,7.616a10.3,10.3,0,0,1-3.355-4.555c-.753-1.759-1.3-3.61-2.226-5.287a13.511,13.511,0,0,0,1.562,3.421,45.194,45.194,0,0,0,3.03,4.192l2.449,3.131a3.719,3.719,0,0,1-.981-2.07l-.808-5.348a72.962,72.962,0,0,0,3.585,8.8,4.559,4.559,0,0,1,.432,1.124c.424-2.912.5-5.931.93-8.842-.611.184-.721.993-.678,1.63C32.606,25.967,34.653,30.279,34.141,33.134Z"/>
    </g>
    <g id="straw">
      <path class="cls-15" d="M82.8,3.454a.17.17,0,0,1-.01.07l-.8,3-2,7.51-2.01,7.54-2,7.52-2.01,7.55-.91,3.41c-.91,3.4-4.18,5.5-7.26,4.68s-4.89-4.27-3.98-7.67l3.48-13.04,2.01-7.54,2-7.52,2.01-7.54.24-.89a.076.076,0,0,1,.02-.04V.484c.23-.52,1.86-.57,4.01-.19.61.11,1.26.26,1.93.44.21.06.41.11.61.17.34.1.67.21.99.31.14.05.27.09.4.14s.25.1.38.14C81.657,2.184,82.837,2.934,82.8,3.454Z"/>
      <polygon class="cls-16" points="75.977 29.094 73.967 36.644 65.297 24.024 67.307 16.484 75.977 29.094"/>
      <polygon class="cls-16" points="79.987 14.034 77.977 21.574 69.307 8.964 71.317 1.424 79.987 14.034"/>
      <path class="cls-16" d="M82.817,3.414a.076.076,0,0,1-.02.04.17.17,0,0,1-.01.07l-.8,3-1.92-2.8L78.127.9c.34.1.67.21.99.31.14.05.27.09.4.14s.25.1.38.14C81.747,2.184,82.947,2.934,82.817,3.414Z"/>
      <path class="cls-17" d="M82.8,3.454a.17.17,0,0,1-.01.07l-.8,3-2,7.51-2.01,7.54-2,7.52-2.01,7.55-.91,3.41a6.172,6.172,0,0,1-7.11,4.72c.61-1.23,1.25-2.33,1.56-3.02a104.792,104.792,0,0,0,9.34-36.99c.05-.91-.12-2.58-.22-4.26.29.07.59.15.89.23.21.06.41.11.61.17.34.1.67.21.99.31.14.05.27.09.4.14s.25.1.38.14C81.657,2.184,82.837,2.934,82.8,3.454Z"/>
      <g>
        <path class="cls-18" d="M81.426,3.691A11.421,11.421,0,0,1,80.082,3.6a26.114,26.114,0,0,1-3.153-.627C73.822,2.142,71.718,1.019,71.7.491c.045-.2.4-.366,1.268-.366a14.589,14.589,0,0,1,2.594.292C76.15.523,76.8.67,77.485.855l.606.169c.225.066.443.136.658.205l.489.159c.079.027.158.053.235.083.189.074.285.112.387.143,2.067.771,2.92,1.457,2.836,1.768C82.652,3.47,82.47,3.691,81.426,3.691Z"/>
        <path class="cls-15" d="M72.97.25h0a14.479,14.479,0,0,1,2.573.29c.583.106,1.225.252,1.906.435l.264.073c.115.031.229.062.344.1.222.066.439.135.652.2l.324.1.168.058c.077.026.152.051.227.08l.083.032c.105.041.206.08.3.109,2.148.8,2.765,1.435,2.768,1.6l-.008.017s-.128.217-1.145.217a11.484,11.484,0,0,1-1.325-.09,26.178,26.178,0,0,1-3.138-.624c-3.371-.9-5.1-1.989-5.134-2.371l0-.007c.012-.047.24-.225,1.14-.225m0-.25c-.8,0-1.313.135-1.383.414a.17.17,0,0,0-.01.07v.01c.02.66,2.33,1.8,5.32,2.6a26.364,26.364,0,0,0,3.17.63,11.467,11.467,0,0,0,1.358.093c.759,0,1.26-.118,1.372-.363a.076.076,0,0,0,.02-.04c.13-.48-1.07-1.23-2.92-1.92-.13-.04-.25-.09-.38-.14s-.26-.09-.4-.14c-.32-.1-.65-.21-.99-.31-.2-.06-.4-.11-.61-.17-.67-.18-1.32-.33-1.93-.44A14.726,14.726,0,0,0,72.97,0Z"/>
      </g>
    </g>
    <g id="blueberries">
      <g id="Layer_6" data-name="Layer 6">
        <ellipse class="cls-19" cx="48.812" cy="30.362" rx="12.325" ry="10.875" transform="translate(-5.417 11.293) rotate(-12.509)"/>
        <path class="cls-20" d="M40.427,25.9a.274.274,0,0,1,.271.014q.662.377,1.3.781a.587.587,0,0,0,.607-.068.767.767,0,0,0,.164-.15,19.867,19.867,0,0,1,1.571-1.491c.3-.264.725-.26.86-.06a.277.277,0,0,1,0,.229q-.234.807-.389,1.607a.28.28,0,0,0,.273.34c.055.052.114.024.182.02a17.533,17.533,0,0,1,1.888-.212c.357-.019.488.263.355.477a.343.343,0,0,1-.166.2A16.212,16.212,0,0,0,45.879,28.7a.408.408,0,0,0-.146.484.293.293,0,0,0,.108.1q.6.442,1.158.918a.373.373,0,0,1-.085.6.429.429,0,0,1-.218.075A13.788,13.788,0,0,0,45.118,31a.433.433,0,0,0-.361.335.255.255,0,0,0-.028.158q.133.74.325,1.453a.4.4,0,0,1-.385.492.435.435,0,0,1-.2-.055Q43.847,33,43.2,32.644a.423.423,0,0,0-.454.087.446.446,0,0,0-.126.146,14.529,14.529,0,0,0-.61,1.529.449.449,0,0,1-.627.267.49.49,0,0,1-.107-.165q-.27-.71-.479-1.458a.291.291,0,0,0-.381-.209c-.07-.027-.111.019-.168.048a16.6,16.6,0,0,0-1.494,1.09c-.275.226-.554.1-.571-.169a.362.362,0,0,1,.024-.277,18.338,18.338,0,0,1,.842-1.841.488.488,0,0,0-.026-.565c-.055-.009-.088-.044-.127-.036q-.753-.155-1.528-.26c-.326-.014-.293-.458-.056-.757a1.487,1.487,0,0,1,.234-.188,19.541,19.541,0,0,1,1.858-.974.779.779,0,0,0,.437-.5c.07-.089.043-.127.044-.189q-.093-.807-.127-1.636A.757.757,0,0,1,40.427,25.9Z"/>
      </g>
      <path class="cls-21" d="M57.7,38.663a3.43,3.43,0,0,1-3.216.359,17.752,17.752,0,0,0-3.316-.932c-1.855-.144-3.553.939-5.4,1-1.274.042-2.559-.405-3.841-.488a3.25,3.25,0,0,0-3.307,1.581,40.746,40.746,0,0,0,16.9.546C56.546,40.534,57.731,39.919,57.7,38.663Z"/>
      <path class="cls-6" d="M57.7,40.2a3.432,3.432,0,0,1-3.216.36,17.756,17.756,0,0,0-3.316-.933c-1.855-.144-3.553.939-5.4,1-1.274.042-2.559-.405-3.841-.488a3.252,3.252,0,0,0-3.307,1.581,40.746,40.746,0,0,0,16.9.546C56.546,42.07,57.731,41.455,57.7,40.2Z"/>
      <g id="Layer_16" data-name="Layer 16">
        <ellipse class="cls-22" cx="65.692" cy="38.032" rx="11.166" ry="9.853"/>
        <path class="cls-20" d="M67.818,29.73c.16.069.192.125.217.206q.287.789.53,1.584c.038.188.287.33.557.377a.856.856,0,0,0,.246-.009,22.046,22.046,0,0,1,2.385-.126c.438-.008.793.3.763.566a.306.306,0,0,1-.167.189q-.772.51-1.476,1.07a.308.308,0,0,0-.014.48c.009.083.078.1.139.147a19.429,19.429,0,0,1,1.734,1.174c.312.239.221.569-.044.653a.377.377,0,0,1-.285.052,18.116,18.116,0,0,0-2.016-.115.45.45,0,0,0-.469.3.316.316,0,0,0,.016.164q.185.8.314,1.6c.054.289-.219.471-.5.443a.461.461,0,0,1-.237-.093A15.226,15.226,0,0,0,68.1,37.369a.477.477,0,0,0-.542.023.27.27,0,0,0-.137.112c-.278.477-.535.962-.768,1.451a.44.44,0,0,1-.674.137.472.472,0,0,1-.124-.186q-.249-.773-.54-1.536a.468.468,0,0,0-.443-.252.478.478,0,0,0-.21.033A16.079,16.079,0,0,0,63.053,38a.5.5,0,0,1-.717-.225.543.543,0,0,1,.028-.215q.282-.787.642-1.565a.318.318,0,0,0-.17-.447c-.039-.073-.106-.064-.175-.081a18.194,18.194,0,0,0-2.032-.155c-.393-.007-.535-.315-.358-.55a.4.4,0,0,1,.218-.216,20.594,20.594,0,0,1,2.024-.941.536.536,0,0,0,.382-.492c-.04-.047-.042-.1-.081-.121q-.521-.669-1.094-1.312c-.264-.245.081-.594.494-.675a1.752,1.752,0,0,1,.331.01,21.776,21.776,0,0,1,2.255.513.856.856,0,0,0,.726-.108c.122-.025.127-.076.173-.127q.5-.744,1.064-1.463A.832.832,0,0,1,67.818,29.73Z"/>
      </g>
      <path class="cls-21" d="M56.259,47.471a4.931,4.931,0,0,0,3.9-.336,23.48,23.48,0,0,1,3.687-1.62c2.161-.537,4.454.158,6.656-.176,1.521-.231,2.928-.943,4.426-1.3a4.544,4.544,0,0,1,4.328.837,58.014,58.014,0,0,1-19.885,4.147C58.108,49.053,56.544,48.706,56.259,47.471Z"/>
      <path class="cls-6" d="M78.927,46.584c-4.37,1.88-12.42,3.29-22.09,3.78h-.01a1.625,1.625,0,0,1-.57-.89,4.931,4.931,0,0,0,3.91-.34,24.491,24.491,0,0,1,3.68-1.62c2.16-.54,4.46.16,6.66-.18,1.52-.23,2.93-.94,4.42-1.29A4.79,4.79,0,0,1,78.927,46.584Z"/>
      <g id="Layer_17" data-name="Layer 17">
        <ellipse class="cls-22" cx="29.949" cy="38.969" rx="8.809" ry="9.984" transform="translate(-15.994 56.426) rotate(-73.261)"/>
        <path class="cls-20" d="M31.5,47.34c-.1-.037-.114-.075-.122-.132q-.1-.544-.2-1.088c-.011-.131-.169-.208-.349-.215a.549.549,0,0,0-.167.029,14.114,14.114,0,0,1-1.633.3c-.3.044-.518-.136-.476-.318a.292.292,0,0,1,.128-.144,11.917,11.917,0,0,0,1.054-.88.22.22,0,0,0,.022-.334c0-.056-.05-.062-.09-.086a11.547,11.547,0,0,1-1.139-.614.248.248,0,0,1,.024-.448.267.267,0,0,1,.184-.068,11.187,11.187,0,0,0,1.317-.157.341.341,0,0,0,.294-.263.215.215,0,0,0-.019-.112c-.108-.352-.214-.706-.318-1.059a.289.289,0,0,1,.277-.365.276.276,0,0,1,.161.034,9.794,9.794,0,0,0,1.021.525.316.316,0,0,0,.357-.084.205.205,0,0,0,.081-.1,9.543,9.543,0,0,0,.353-1.1.307.307,0,0,1,.44-.188.319.319,0,0,1,.109.11q.267.493.528.989a.291.291,0,0,0,.322.117.365.365,0,0,0,.141-.052,11.445,11.445,0,0,0,1.036-.84.323.323,0,0,1,.514.051.425.425,0,0,1,0,.162,11.406,11.406,0,0,1-.356,1.237c-.049.152.011.289.129.308.029.049.073.034.12.037a11.883,11.883,0,0,0,1.37-.138c.263-.043.358.18.238.383a.372.372,0,0,1-.148.192,14.14,14.14,0,0,1-1.364.942.521.521,0,0,0-.27.412c.025.032.024.071.049.084q.319.452.643.9c.153.169-.105.468-.384.563a1.031,1.031,0,0,1-.216.019,14.064,14.064,0,0,1-1.45-.192.616.616,0,0,0-.493.147c-.084.03-.091.068-.126.11a14.077,14.077,0,0,1-.866,1.164C32.041,47.425,31.622,47.472,31.5,47.34Z"/>
      </g>
      <path class="cls-21" d="M27.059,47.635a5.689,5.689,0,0,0,2.984-.46c1.129-.54,1.133-1.076,2.128-1.44,1.224-.447,2.451.3,3.686.048a22.291,22.291,0,0,0,2.518-1.106,1.765,1.765,0,0,1,2.343.948A21.04,21.04,0,0,1,29.5,48.969a2.084,2.084,0,0,1-1.066-.371A5.045,5.045,0,0,1,27.059,47.635Z"/>
      <path class="cls-6" d="M41.347,46.554a23.138,23.138,0,0,1-8.17,3.13c-1.79-.22-3.49-.47-5.06-.75a3.389,3.389,0,0,1-.43-.37,5.679,5.679,0,0,0,2.98-.46c1.13-.54,1.14-1.08,2.13-1.44,1.23-.45,2.45.3,3.69.05a21.263,21.263,0,0,0,2.52-1.11A1.772,1.772,0,0,1,41.347,46.554Z"/>
      <g id="highlights">
        <path class="cls-23" d="M23.2,34.5a3.465,3.465,0,0,0-.687,1.044,3.389,3.389,0,0,0-.224.792"/>
        <path class="cls-23" d="M58.052,33.139a2.08,2.08,0,0,0-1.15,1.453"/>
        <path class="cls-23" d="M42.166,23.461a1.761,1.761,0,0,0-1.766.976"/>
      </g>
    </g>
    <g id="top_layer_seeds" data-name="top layer seeds">
      <path class="cls-24" d="M19.145,44l.744.725"/>
      <path class="cls-24" d="M32.82,47.805,34,48.389"/>
      <path class="cls-24" d="M41.938,47.963a2.588,2.588,0,0,0,1.165-.615"/>
      <path class="cls-24" d="M41.639,42.653a1.1,1.1,0,0,1,.589.734"/>
      <path class="cls-24" d="M47.665,40.6l-.878,1.325"/>
      <path class="cls-24" d="M49.864,43.975h1.322"/>
      <path class="cls-24" d="M54.564,47.353a1.448,1.448,0,0,1-1.024-.3"/>
      <path class="cls-24" d="M59.992,48.246l.736.437"/>
      <path class="cls-24" d="M77.02,43.682a1.11,1.11,0,0,1-.408.9"/>
      <path class="cls-24" d="M70.427,46.9a3.717,3.717,0,0,1,1.743.345"/>
    </g>
  </g>
</svg>
