<svg xmlns="http://www.w3.org/2000/svg" viewBox="0 0 43.419 19.99">
  <defs>
    <style>
      .cls-1 {
        isolation: isolate;
      }

      .cls-2 {
        fill: #64aebf;
        stroke: #bdefef;
        stroke-miterlimit: 10;
      }

      .cls-2, .cls-9 {
        opacity: 0.81;
      }

      .cls-3 {
        fill: #a7f0f2;
      }

      .cls-4 {
        fill: #caf0f2;
        opacity: 0.51;
        mix-blend-mode: screen;
      }

      .cls-5 {
        fill: #edf9f9;
      }

      .cls-6 {
        fill: #4a8aa3;
        opacity: 0.5;
      }

      .cls-7 {
        fill: #af6e96;
      }

      .cls-8 {
        fill: #333;
      }

      .cls-9 {
        fill: #bdefef;
      }
    </style>
  </defs>
  <g class="cls-1">
    <g id="Layer_5" data-name="Layer 5">
      <path class="cls-2" d="M42.919,10c0,2.9-1.631,5.25-3.638,5.25a4.1,4.1,0,0,1-2.747-1.669.582.582,0,0,0-1.007.463v5a.429.429,0,0,1-.4.45H26.732a.723.723,0,0,1-.576-1.042,3.221,3.221,0,0,0,.267-1.218c0-2.25-2.115-4.07-4.713-4.07S17,14.98,17,17.23a3.221,3.221,0,0,0,.267,1.218.723.723,0,0,1-.576,1.042H8.3a.429.429,0,0,1-.4-.45v-5a.582.582,0,0,0-1.007-.463A4.1,4.1,0,0,1,4.138,15.25C2.131,15.25.5,12.9.5,10S2.131,4.74,4.138,4.74A4.089,4.089,0,0,1,6.885,6.412a.582.582,0,0,0,1.007-.463v-5A.429.429,0,0,1,8.3.5h8.393a.722.722,0,0,1,.575,1.042A3.2,3.2,0,0,0,17,2.76c0,2.25,2.115,4.07,4.714,4.07s4.713-1.82,4.713-4.07a3.2,3.2,0,0,0-.268-1.218A.722.722,0,0,1,26.73.5h8.393a.429.429,0,0,1,.4.45v5a.582.582,0,0,0,1.007.463A4.091,4.091,0,0,1,39.281,4.74C41.288,4.74,42.919,7.09,42.919,10Z"/>
      <g id="Layer_14" data-name="Layer 14">
        <path class="cls-3" d="M39.574,11.966a.788.788,0,0,0,.3.67.945.945,0,0,0,.561.07.332.332,0,0,0,.15-.036.314.314,0,0,0,.113-.177,1.49,1.49,0,0,0,.067-.879.817.817,0,0,0-.542-.557c-.258-.056-.511.219-.59.435A1.248,1.248,0,0,0,39.574,11.966Z"/>
        <path class="cls-3" d="M38.322,10.1a.742.742,0,0,0-.09.271.984.984,0,0,0,.09.35c.123.362.654-.049.647-.3a.5.5,0,0,0-.523-.42A.182.182,0,0,0,38.322,10.1Z"/>
        <path class="cls-3" d="M37.826,11.572a.181.181,0,0,0-.123.23.2.2,0,0,0,.239.12.229.229,0,0,0,.161-.22.169.169,0,0,0-.06-.136.216.216,0,0,0-.108-.035.643.643,0,0,0-.175.008Z"/>
        <path class="cls-3" d="M39.025,12.5a.3.3,0,0,0-.315.146.308.308,0,0,0,.043.347.306.306,0,0,0,.532-.187.264.264,0,0,0-.017-.115c-.057-.138-.224-.186-.37-.216Z"/>
        <path class="cls-3" d="M41.048,10.313c-.056-.015-.1.045-.125.1a.275.275,0,0,0,0,.281.28.28,0,0,0,.117.073.3.3,0,0,0,.263.011.219.219,0,0,0,.1-.175.292.292,0,0,0-.411-.289"/>
        <path class="cls-3" d="M33.666,16.993a.59.59,0,0,0-.085.218.2.2,0,0,0,.092.2c.087.045.193,0,.29.014a1.5,1.5,0,0,0,.061-.275.136.136,0,0,0-.006-.075.142.142,0,0,0-.068-.057c-.1-.054-.234-.107-.33-.041"/>
        <path class="cls-3" d="M32.325,16.487a.2.2,0,0,0,.135.371.136.136,0,0,0,.091-.053.147.147,0,0,0,.022-.057.272.272,0,0,0-.065-.251.185.185,0,0,0-.245-.012"/>
        <path class="cls-3" d="M32.905,17.729a.64.64,0,0,0-.5.633.335.335,0,0,0,.053.18.347.347,0,0,0,.2.121.581.581,0,0,0,.446-.047.483.483,0,0,0-.365-.885"/>
        <path class="cls-3" d="M33.405,15.433a.52.52,0,0,0-.51.509.3.3,0,0,0,.055.181.417.417,0,0,0,.263.123.485.485,0,0,0,.662-.526.264.264,0,0,0-.009-.122.234.234,0,0,0-.113-.106.729.729,0,0,0-.459-.074"/>
      </g>
      <g id="Layer_21" data-name="Layer 21">
        <path class="cls-4" d="M12.56,6.613a2.272,2.272,0,0,0-1.25-.233,1.671,1.671,0,0,0-1.089,1.488c-.314,2.158,1.244,4.24,1.025,6.41-.115,1.135-.713,2.258-.43,3.364A2,2,0,0,0,11.966,19a1.684,1.684,0,0,0,1.729-.277,2.343,2.343,0,0,0,.616-1.078c.308-1,.3-2.078.623-3.072.877-2.684,3.864-4.056,5.482-6.354a.707.707,0,0,0-.359-1.076c-1.207-.378-2.4.357-3.619.417a7,7,0,0,1-2.04-.2A16.673,16.673,0,0,1,12.56,6.613Z"/>
      </g>
      <path class="cls-5" d="M8.818,2.032a14.654,14.654,0,0,0,.157,4.129c.252.228.019-2.122.723-2.818a3.268,3.268,0,0,1,1.673-.666c.051-.012.444-.146.954-.328.911-.327.945-.376.944-.412-.012-.369-3.371-.549-3.814-.525A.591.591,0,0,0,8.818,2.032Z"/>
      <path class="cls-6" d="M26.051,6.836a.7.7,0,0,1,.034-.463.589.589,0,0,1,.3-.236c.323-.128,2.7-1.665,6.611-4.245.231-.165.834-.56,1.184-.352.441.261.332,1.389-.068,2.177-.526,1.037-1.32,1.021-2.93,2.156a6.549,6.549,0,0,0-2.743,2.911,4.987,4.987,0,0,0-.026,3.263l.981,3.317c.3,1.013.626,2.207-.032,3.154-.611.878-1.047,0-1.239-.656a66.571,66.571,0,0,1-1.405-7Q26.361,8.853,26.051,6.836Z"/>
      <g id="Layer_8" data-name="Layer 8">
        <path class="cls-7" d="M18.119,10.732a.274.274,0,0,1,.263.3,2.689,2.689,0,0,1-5.342-.218.273.273,0,0,1,.286-.28Z"/>
        <circle class="cls-8" cx="21.803" cy="10.677" r="0.909"/>
        <circle class="cls-8" cx="10.022" cy="10.677" r="0.909"/>
      </g>
      <g id="Layer_24" data-name="Layer 24">
        <path class="cls-9" d="M26.022,5.138c.414-.3,1.06-.758,1.88-1.278,1.028-.653,1.488-.872,2.35-1.447A22.4,22.4,0,0,0,32.188.968a3.427,3.427,0,0,0,.39-.018c.258-.026.374-.067.39-.035.037.071-.49.415-.592.482-1.23.805-1.076.977-2.507,1.886q-.669.426-1.339.847a3.482,3.482,0,0,1-.679.413c-1.194.387-1.34,1.1-2.106,1.309a3.05,3.05,0,0,1-.4.08Z"/>
        <path class="cls-9" d="M28.061,18.692c-.392-1.905-.771-3.437-1.044-4.484-.427-1.636-.681-2.449-1-3.916A33.2,33.2,0,0,1,25.452,6.8c.126-.3.171-.564.081-.624-.048-.032-.213.058-.542.24-.187.1-.237.138-.266.2-.073.161.047.357.093.44a6.533,6.533,0,0,1,.229,1.248,19.72,19.72,0,0,0,.487,3.292q.272,1.128.547,2.254a5.162,5.162,0,0,0,.294,1.126c.939,1.767.181,2.838.884,3.524a1.834,1.834,0,0,0,.456.325Z"/>
      </g>
    </g>
  </g>
</svg>
