<svg xmlns="http://www.w3.org/2000/svg" viewBox="0 0 160.628 16.348">
  <defs>
    <style>
      .cls-1, .cls-2, .cls-4 {
        fill: none;
        stroke: #7c97b1;
        stroke-linecap: round;
      }

      .cls-1, .cls-4 {
        stroke-linejoin: round;
      }

      .cls-2 {
        stroke-miterlimit: 10;
      }

      .cls-2, .cls-4 {
        stroke-width: 0.5px;
      }

      .cls-3 {
        fill: #7c97b1;
      }
    </style>
  </defs>
  <g id="Layer_4" data-name="Layer 4">
    <path class="cls-1" d="M152.877,11.059c.666.206,1.335-.408,1.552-1.071.589-1.8-1.316-3.792-3.189-3.522a3.658,3.658,0,0,0-2.8,4.238,4.851,4.851,0,0,0,3.919,3.631,7.312,7.312,0,0,0,5.367-1.344,6.19,6.19,0,0,0,1.685-1.64c1.492-2.261.522-5.574-1.666-7.172a8.71,8.71,0,0,0-7.779-.837A21.679,21.679,0,0,0,143.1,7.6a13.1,13.1,0,0,1-3.856,2.554c-2.53.889-5.33.035-7.994.342,1.745.223,5.09-1.349,6.621-2.215a9.431,9.431,0,0,0,1.894-1.611C143.1,3.358,147.5.656,152.2.93a1.046,1.046,0,0,0-.708-.422"/>
    <path class="cls-2" d="M132.649,8.447a10.267,10.267,0,0,0,4.507-2.093,3.307,3.307,0,0,0,1.11-2.014c.254-2.311-3.359-2.478-4.191-.739a1.008,1.008,0,0,0,.587,1.443,1.3,1.3,0,0,0,1.448-.359.4.4,0,0,0,.1-.342.191.191,0,0,0-.062-.1.309.309,0,0,0-.338.009"/>
    <circle class="cls-3" cx="137.046" cy="1.548" r="0.315"/>
    <circle class="cls-3" cx="138.394" cy="2.177" r="0.315"/>
    <path class="cls-4" d="M154.8,5.384a3.608,3.608,0,0,1,.822,6.71"/>
    <circle class="cls-3" cx="157.725" cy="1.016" r="0.508"/>
    <circle class="cls-3" cx="154.649" cy="0.508" r="0.508"/>
    <circle class="cls-3" cx="159.872" cy="2.861" r="0.508"/>
    <circle class="cls-3" cx="147.474" cy="14.418" r="0.508"/>
    <circle class="cls-3" cx="150.249" cy="15.84" r="0.508"/>
    <circle class="cls-3" cx="145.993" cy="12.005" r="0.508"/>
    <path class="cls-4" d="M141.135,7.333A24.219,24.219,0,0,1,147.4,3.044"/>
  </g>
  <g id="Layer_8" data-name="Layer 8">
    <path class="cls-1" d="M7.751,11.059c-.667.206-1.336-.408-1.553-1.071-.589-1.8,1.316-3.792,3.19-3.522a3.657,3.657,0,0,1,2.8,4.238,4.85,4.85,0,0,1-3.919,3.631A7.31,7.31,0,0,1,2.9,12.991a6.176,6.176,0,0,1-1.685-1.64C-.274,9.09.7,5.777,2.883,4.179a8.711,8.711,0,0,1,7.779-.837A21.668,21.668,0,0,1,17.527,7.6a13.1,13.1,0,0,0,3.857,2.554c2.529.889,5.329.035,7.993.342-1.745.223-5.089-1.349-6.62-2.215A9.4,9.4,0,0,1,20.863,6.67C17.523,3.358,13.126.656,8.43.93A1.046,1.046,0,0,1,9.139.508"/>
    <path class="cls-2" d="M27.979,8.447a10.262,10.262,0,0,1-4.507-2.093,3.3,3.3,0,0,1-1.11-2.014c-.255-2.311,3.359-2.478,4.191-.739a1.008,1.008,0,0,1-.587,1.443,1.305,1.305,0,0,1-1.449-.359.4.4,0,0,1-.095-.342.185.185,0,0,1,.062-.1.307.307,0,0,1,.337.009"/>
    <circle class="cls-3" cx="23.582" cy="1.548" r="0.315"/>
    <circle class="cls-3" cx="22.233" cy="2.177" r="0.315"/>
    <path class="cls-4" d="M5.83,5.384a3.608,3.608,0,0,0-.822,6.71"/>
    <circle class="cls-3" cx="2.902" cy="1.016" r="0.508"/>
    <circle class="cls-3" cx="5.979" cy="0.508" r="0.508"/>
    <circle class="cls-3" cx="0.756" cy="2.861" r="0.508"/>
    <circle class="cls-3" cx="13.153" cy="14.418" r="0.508"/>
    <circle class="cls-3" cx="10.378" cy="15.84" r="0.508"/>
    <circle class="cls-3" cx="14.634" cy="12.005" r="0.508"/>
    <path class="cls-4" d="M19.493,7.333a24.253,24.253,0,0,0-6.265-4.289"/>
  </g>
  <g id="Layer_1" data-name="Layer 1">
    <path class="cls-3" d="M34.062,11.129l-.084-.2.072-.4.048-.252.036-.264.036-.444.048-.384.036-.263.012-.277.035-.287V8.011l.013-.241V6.8L34.3,6.343l-.035-.48-.024-.419-.036-.2v-.3l-.024-.228L34.158,4.5,34.11,4.04,34.074,3.8l-.1-.456-.1-.3-.06-.144.06-.12.168-.036.779-.012.432-.012.2-.024.432-.012h1.151l.468.024.24.024.432.072.407.108L38.811,3l.216.1.2.108.408.24.371.336.168.179.168.192.156.192.228.348.156.348.084.2.072.2.06.2.1.468.036.432-.012.228-.024.288-.012.215-.036.229-.084.323-.12.324-.084.2-.1.216-.216.407-.132.193-.143.179-.2.252-.107.132-.228.193-.168.143-.168.132-.18.143-.4.229-.2.1-.444.179-.239.073-.48.12-.468.059-.228.025-.215.011H34.757l-.419.012Zm2.279-.492.527-.072.5-.084.432-.156.252-.108.227-.144.192-.143.312-.325.144-.156.276-.371L39.4,8.61l.084-.252.06-.24.048-.252.036-.264.036-.479.011-.24-.023-.228-.084-.444-.036-.228-.048-.216-.06-.215-.072-.216-.18-.42-.1-.216-.108-.216-.288-.42-.168-.192L38.2,3.62l-.371-.215-.492-.156-.216-.036-.491-.06-.252-.012-.265.024-.3.264-.036.215-.012.372-.024.288-.012.312v.3l-.024.288.012.275-.024.241.024.252-.012.239.012.348v.228l-.024.36v.287l-.012.409V8.849l.012.241v.252l.024.5.036.371.024.264.288.156Z"/>
    <path class="cls-3" d="M47.716,10.045l-2.843-.013-.671.049L44,9.925l.024-.216.048-.264.024-.181.012-.239.047-.252V8.521l.025-.311.036-.348V7.238l.023-.384.037-.431V5.715L44.25,5.2,44.2,4.707l-.024-.228-.012-.216-.06-.455-.06-.3-.012-.288L44,2.993l-.1-.457-.084-.407L43.9,1.9l.2-.048H47.14l.48-.024.228.012.371-.024.312.036.36-.048.276.108-.12.384-.312.239-.372-.084-.252-.035-.971-.1-.24-.012h-.468l-.491.048-.288.095-.024.312v.444l-.012.384-.048.336.024.264.216.084,1.127-.013h.4l.732-.035.323.06.06.108-.06.251-.12.408-.227.108-.288-.072-.216-.06-.2-.048-.66-.108-.216-.024L46.1,4.815l-.456-.024-.12.084-.012.348V7.442l.012.239v.445l.036.311.012.241.012.419.024.348.108.071h1.055l.468-.011.216-.012.216-.024.4-.072.431-.1.36-.108.2-.013.1.049.024.192-.1.36-.108.251-.072.061h-.828Z"/>
    <path class="cls-3" d="M52.493,11.476l-.264-.06-.24-.1-.407-.288-.156-.155-.12-.193-.1-.2-.108-.42-.024-.215.036-.457.048-.24.072-.227.2-.384.336-.025.12.252-.157.348-.059.2-.072.42.024.2.1.4.095.179.192.216.192.133.4.167.492-.3.12-.468v-.191l-.036-.443-.132-.456-.072-.228-.06-.228-.144-.455L52.7,8.022l-.144-.492-.12-.5-.12-.48-.1-.444-.047-.228L52.1,5.444l-.011-.2.011-.36.073-.348.108-.468.095-.252.168-.3.1-.132.144-.168.276-.252.468-.228.383-.132.42-.06.3.036.216.036.216.048.407.156.2.072.263.156-.048.324-.12.216-.132.2L55.407,4l-.227-.095-.2-.3-.144-.168-.192-.192-.252-.144-.228.012-.347.276-.108.18-.156.42-.048.215-.013.408.013.348.06.444.132.527.144.5.168.456.071.216.144.419.06.229.06.215.108.444.048.24.024.264.036.24-.012.5-.1.48-.084.228-.18.336-.252.263-.347.289-.192.107-.2.072-.216.048Z"/>
    <path class="cls-3" d="M59.021,10.476l-.264-.06-.24-.1-.407-.288-.156-.155-.12-.193-.1-.2-.108-.42-.024-.215.036-.457.048-.24.072-.227.2-.384.335-.025.121.252-.157.348-.059.2-.073.42.024.2.1.4.095.179.192.216.192.133.4.167.492-.3.12-.468V9.073l-.036-.443-.132-.456L59.5,7.946l-.06-.228L59.3,7.263l-.072-.241-.144-.492-.12-.5-.12-.48-.1-.444L58.7,4.875l-.072-.431-.012-.2.012-.36.072-.348.108-.468.1-.252.168-.3.1-.132.144-.168.276-.252.467-.228.384-.132.42-.06.3.036.216.036.216.048L62,1.817l.2.072.264.156-.048.324-.12.216-.132.2L61.936,3l-.228-.1-.2-.3-.144-.168-.192-.192-.252-.144-.228.012-.347.276-.108.18-.157.42-.048.215-.011.408.011.348.061.444.131.527.144.5.168.456.072.216.144.419.06.229.06.215.108.444.048.24.024.264.036.24-.012.5-.1.48-.084.228-.18.336-.252.263-.348.289-.191.107-.2.072-.215.048Z"/>
    <path class="cls-3" d="M68.547,11.045l-2.842-.013-.672.049-.2-.156.024-.216.048-.264.024-.181.012-.239.048-.252V9.521l.024-.311.036-.348V8.238l.024-.384.036-.431V6.715L65.081,6.2l-.048-.492-.024-.228L65,5.263l-.06-.455-.06-.3-.012-.288-.036-.227-.095-.457-.084-.407.084-.228.2-.048h3.034l.48-.024.228.012.372-.024.312.036.36-.048L70,2.913l-.119.384-.312.239-.372-.084-.252-.035-.972-.1-.239-.012h-.468l-.492.048-.287.095-.024.312v.444l-.013.384-.047.336.023.264.216.084,1.128-.013h.395l.732-.035.324.06.06.108-.06.251-.12.408-.228.108-.288-.072-.216-.06-.2-.048L67.5,5.875l-.216-.024-.36-.036-.456-.024-.119.084-.012.348V8.442l.012.239v.445l.035.311.013.241.011.419.024.348.108.071H67.6l.468-.011.215-.012.216-.024.4-.072.432-.1.36-.108.2-.013.1.049.024.192-.095.36-.108.251-.072.061h-.828Z"/>
    <path class="cls-3" d="M77.115,10.188l-.24-.1-.408-.241-.156-.179-.132-.108-.192-.288-.1-.192L75.7,8.653l-.071-.227-.06-.241-.121-.491-.084-.24-.107-.24L74.98,6.77l-.192-.192-.372-.287-.276-.06-.06.251.012.216.012.456V7.37l.012.408.048.276.012.359.036.24.084.468.084.5.012.347-.108.084-.215-.047L73.685,10h-.228l-.216-.013-.384-.012-.24-.024-.1-.216.048-.251.036-.336.036-.264.072-.516.024-.252.024-.479.012-.228.024-.432.012-.228.024-.468.012-.251V5.115l-.012-.492-.024-.515-.036-.552L72.7,2.993l-.036-.265-.048-.251-.084-.36-.012-.156.084-.1.348-.036h.732l.635-.024.372-.036.456.024.24.024.24.036.228.06.443.168.2.12.18.156.276.347.108.168.144.432.012.456-.036.216-.048.2-.216.408-.168.192-.18.167-.432.264-.216.1-.347.1.119.168.456.192.3.24.216.359.168.481.084.407.024.408.024.228.1.444.06.2.215.432.324.372.18.108.468.1.252-.048.228-.12.2-.168.2-.312.133-.3.048-.205.023-.419V7.742l-.036-.216-.048-.2-.084-.348.1-.24.2-.036.157.24.059.2.1.5.036.481-.024.347-.084.36-.18.4-.12.192-.132.179-.192.229L78.866,10l-.444.216-.384.084h-.407ZM74.848,5.115l.2-.1.336-.3.143-.181.108-.2.144-.468L75.82,3.6l-.013-.42L75.688,2.8l-.144-.2-.432-.3-.492-.084-.3.192-.06.431-.024.217-.024.263-.048.312L74.14,3.9l-.036.48V4.6l-.012.36.036.168.2.036.24.024Z"/>
    <path class="cls-3" d="M83.08,11.02l-.2-.059-.073-.216.084-.84.013-.264V9.389l.011-.263.036-.756V8.118l.013-.252V7.375l-.024-.348.035-.276-.048-.336-.012-.348V5.683l-.035-.239.011-.192-.035-.228V4.868l-.036-.276-.013-.2-.047-.468-.037-.251L82.6,3.393l-.348-.012-.324.036-.288.024-.216.024-.216.048-.348.1-.227.035L80.49,3.56l-.024-.119.156-.228.252-.372.347-.1.336.012h.228l.252.036.252-.036.336.012,1.055-.024.983.024.36.024.18-.036h.312l1.019-.012h.3l.084.084-.072.3-.12.228-.216.179L86.2,3.513l-.431-.072-.36-.036-.443-.024h-.325l-.071.252-.072.5-.049.515-.035.528-.024.264-.012.263-.013.4-.011.288-.024.288v1.08l.012.311.048.36-.025.3.061.217.023.432.049.407.048.444.047.432-.047.3-.348.048L83.512,11l-.228.048Z"/>
    <path class="cls-3" d="M99.361,9.816l.025-.179.023-.3.024-.24.025-.228.012-.288.047-.3.012-.239V7.6l.012-.359V6.927l.025-.277.011-.263v-.84l-.036-.216V4.875l-.012-.383V4.1l-.084-.2-.251.18L99,4.216l-.18.155-.371.36-.384.432-.324.42-.12.2-.132.2-.108.2-.264.527-.2.121L96.639,6.6l-.18-.143-.323-.288-.168-.132-.348-.288-.576-.432-.191-.132-.361-.276-.18-.144-.168-.131L93.8,4.347l-.18-.047-.011.336v.252l.011.239V7.25l.012.395.013.229.012.239.012.229.047.456.024.2.06.431.013.205-.036.276L93.581,10l-.252-.013L93.1,9.961l-.18-.061-.012-.275.073-.48.011-.228V8.51l.012-.313.036-.311-.013-.42V5.259l-.011-.468-.024-.2v-.42l-.024-.348-.036-.24-.024-.372-.1-.48-.1-.395-.048-.192-.06-.288-.024-.144.084-.12.108-.024.192.084.336.252.935.719.768.6.2.144.191.156.768.612.18.156.336.3.336.263.336-.012.347-.3.733-.659.55-.492,1.153-1.007.743-.612.264-.108.192.108-.072.372-.049.252-.035.264-.061.48-.012.215-.047.432L101.052,4v.216l-.024.383v.324l-.035.288V7.082l.059.431v.4l.049.443.011.42.048.276.013.336.047.4-.035.167L101.04,10H100.8l-.252.012-.78-.025-.287.025Z"/>
    <path class="cls-3" d="M108.231,11.045l-2.842-.013-.672.049-.2-.156.024-.216.048-.264.024-.181.012-.239.048-.252V9.521l.024-.311.036-.348V8.238l.024-.384.035-.431V6.715l-.023-.516-.048-.492-.024-.228-.012-.216-.06-.455-.06-.3-.012-.288-.036-.227-.1-.457-.084-.407.084-.228.2-.048h3.034l.48-.024.227.012.373-.024.311.036.36-.048.276.108-.12.384-.312.239-.372-.084-.252-.035-.971-.1-.24-.012h-.468l-.491.048-.288.095-.024.312v.444l-.012.384-.048.336.024.264.215.084,1.128-.013h.4l.731-.035.325.06.059.108-.059.251-.121.408-.227.108-.288-.072-.216-.06-.2-.048-.659-.108-.216-.024-.361-.036-.455-.024-.12.084-.012.348V8.442l.012.239v.445l.036.311.012.241.012.419.024.348.108.071h1.055l.468-.011.216-.012.216-.024.395-.072.433-.1.359-.108.2-.013.1.049.025.192-.1.36-.108.251-.072.061h-.827Z"/>
    <path class="cls-3" d="M118.657,10.333l-.5-.5-.167-.181-.432-.455-.264-.276-.515-.552-.18-.18-.5-.575-.168-.18-.5-.587-1.475-1.7-.156-.156-.3-.324-.215-.228-.109-.119h-.072l-.012.311-.011.5-.012.468-.025.3.025.36-.025.491.012.372-.012.228.025.276.012.2v.432l.047.443.048.492.025.252.059.371-.072.156-.323.048h-.241l-.288-.048-.047-.227.047-.2.025-.264.023-.24.036-.407.037-.4V7.706l.036-.576.024-.5v-.8l-.013-.42V5.175l-.011-.216-.025-.228-.035-.443-.013-.216-.036-.432-.035-.384-.048-.455-.036-.276-.048-.456-.036-.4.024-.192.156-.239.2.071.611.612.624.66.144.168.311.359.181.168.323.336.145.168.4.408.252.3.528.6.192.216.479.516L116.9,6l.479.54.155.191.181.168.312.336.168.2.107-.156.013-.432V5.871l.023-.42L118.31,5.1l-.025-.312-.011-.276-.012-.252-.025-.251-.024-.144-.023-.276-.025-.24-.048-.54-.071-.515V2.021l.071-.072.336-.06.384-.036.156.012.06.264v.2l-.06.276v.479l-.036.648-.024.48-.035.252-.013.5V7.478l.013.384.035.323v.48l.024.252.024.263.048.493.036.227.036.324-.12.192Z"/>
    <path class="cls-3" d="M124.635,11.236l-.264-.059-.336-.145-.311-.167-.2-.144-.18-.168-.18-.18-.288-.384-.108-.216-.1-.216L122.6,9.33l-.132-.481-.035-.252-.025-.263-.047-.516V7.543l.023-.372-.023-.24V6.667l.036-.24.011-.288-.036-.384V5.312l-.011-.216-.037-.444-.011-.24-.061-.443-.036-.228-.084-.42-.048-.216.048-.264.3-.06h.216l.216-.012.647-.048h.384l.216.084v.228l-.061.372-.06.312-.023.3-.024.2-.073.48-.036.516-.011.252-.037.252-.011.252-.012.479v.456l.012.216v.455l.011.48.025.24.072.5.048.24.119.491.108.24.121.216.311.384.42.227.216.073.216.048h.479l.492-.156.228-.144.228-.18.168-.252.276-.443.072-.229.084-.455.035-.24.025-.24.024-.228.012-.336v-.2l.011-.2-.011-.216V6.967l.011-.228.012-.2-.023-.228.023-.24L127.55,5.8V5.5l-.013-.324V4.856l-.023-.4-.036-.24-.061-.456-.083-.419-.084-.336.1-.2.384-.024h.275l.36.072.024.2-.06.324-.048.216-.036.228-.06.467-.012.24-.012.228V5l-.011.444-.013.407.013.444.011.252v.935l-.048.3-.011.4-.025.5-.084.493-.059.239-.073.24-.095.24-.265.42-.155.192-.168.168-.192.143-.408.229-.2.1-.2.073-.275.059-.3.036h-.468Z"/>
  </g>
</svg>
