<svg id="Layer_1" data-name="Layer 1" xmlns="http://www.w3.org/2000/svg" viewBox="0 0 764.44 283.161">
  <defs>
    <style>
      .cls-1 {
        fill: #f0f8ff;
      }

      .cls-2 {
        fill: #7c97b1;
      }

      .cls-3, .cls-4, .cls-5, .cls-6, .cls-7, .cls-8 {
        fill: none;
        stroke: #7c97b1;
        stroke-linecap: round;
        stroke-linejoin: round;
        stroke-width: 3px;
      }

      .cls-4 {
        stroke-dasharray: 1.003 10.026 1.003 10.026;
      }

      .cls-5 {
        stroke-dasharray: 1.003 10.026 1.003 10.026 1.003 10.026;
      }

      .cls-6 {
        stroke-dasharray: 0.95 9.496 0.95 9.496;
      }

      .cls-7 {
        stroke-dasharray: 0.941 9.412 0.941 9.412;
      }

      .cls-8 {
        stroke-dasharray: 0.941 9.412 0.941 9.412 0.941 9.412;
      }
    </style>
  </defs>
  <g>
    <path class="cls-1" d="M22.362,280.661A22.545,22.545,0,0,0,2.5,260.8V22.362A22.545,22.545,0,0,0,22.362,2.5H742.078A22.546,22.546,0,0,0,761.94,22.362V260.8a22.546,22.546,0,0,0-19.862,19.862Z"/>
    <path class="cls-2" d="M25,0h0M739.943,5a25.078,25.078,0,0,0,19.5,19.5V258.663a25.078,25.078,0,0,0-19.5,19.5H24.5A25.079,25.079,0,0,0,5,258.663V24.5A25.079,25.079,0,0,0,24.5,5H739.943m4.5-5H20A20.059,20.059,0,0,1,0,20V263.161a20.059,20.059,0,0,1,20,20H744.44a20.059,20.059,0,0,1,20-20V20a20.059,20.059,0,0,1-20-20Z"/>
  </g>
  <g>
    <path class="cls-3" d="M729.61,13.34c0-.166-.006-.333-.006-.5h-.5"/>
    <line class="cls-4" x1="719.078" y1="12.84" x2="702.035" y2="12.84"/>
    <line class="cls-5" x1="697.022" y1="12.84" x2="40.349" y2="12.84"/>
    <path class="cls-3" d="M35.337,12.84h-.5c0,.167,0,.334-.007.5"/>
    <path class="cls-6" d="M32.373,22.427A20.16,20.16,0,0,1,20.03,32.152"/>
    <path class="cls-3" d="M15.337,32.834c-.167,0-.333.006-.5.006v.5"/>
    <line class="cls-7" x1="14.837" y1="42.752" x2="14.837" y2="58.753"/>
    <line class="cls-8" x1="14.837" y1="63.459" x2="14.837" y2="245.115"/>
    <path class="cls-3" d="M14.837,249.821v.5c.167,0,.333,0,.5.006"/>
    <path class="cls-6" d="M24.424,252.785a20.152,20.152,0,0,1,9.724,12.343"/>
    <path class="cls-3" d="M34.83,269.821c0,.166.007.333.007.5h.5"/>
    <line class="cls-4" x1="45.362" y1="270.321" x2="62.406" y2="270.321"/>
    <line class="cls-5" x1="67.418" y1="270.321" x2="724.091" y2="270.321"/>
    <path class="cls-3" d="M729.1,270.321h.5c0-.167,0-.334.006-.5"/>
    <path class="cls-6" d="M732.067,260.734a20.156,20.156,0,0,1,12.343-9.725"/>
    <path class="cls-3" d="M749.1,250.327c.166,0,.332-.006.5-.006v-.5"/>
    <line class="cls-7" x1="749.604" y1="240.409" x2="749.604" y2="224.408"/>
    <line class="cls-8" x1="749.604" y1="219.702" x2="749.604" y2="38.046"/>
    <path class="cls-3" d="M749.6,33.34v-.5c-.168,0-.334,0-.5-.006"/>
    <path class="cls-6" d="M740.017,30.376a20.15,20.15,0,0,1-9.725-12.343"/>
  </g>
</svg>
