<svg id="Layer_1" data-name="Layer 1" xmlns="http://www.w3.org/2000/svg" viewBox="0 0 400 400">
  <defs>
    <style>
      .cls-1 {
        fill: #f0f8ff;
      }

      .cls-2 {
        fill: #7c97b1;
      }

      .cls-3, .cls-4, .cls-5, .cls-6 {
        fill: none;
        stroke: #7c97b1;
        stroke-linecap: round;
        stroke-linejoin: round;
        stroke-width: 3px;
      }

      .cls-4 {
        stroke-dasharray: 0.998 9.98 0.998 9.98;
      }

      .cls-5 {
        stroke-dasharray: 0.998 9.98 0.998 9.98 0.998 9.98;
      }

      .cls-6 {
        stroke-dasharray: 0.95 9.496 0.95 9.496;
      }
    </style>
  </defs>
  <g>
    <path class="cls-1" d="M22.362,397.5A22.545,22.545,0,0,0,2.5,377.638V22.362A22.544,22.544,0,0,0,22.362,2.5H377.638A22.545,22.545,0,0,0,397.5,22.362V377.638A22.546,22.546,0,0,0,377.638,397.5Z"/>
    <path class="cls-2" d="M25,0h0M375.5,5A25.079,25.079,0,0,0,395,24.5v351A25.079,25.079,0,0,0,375.5,395H24.5A25.079,25.079,0,0,0,5,375.5V24.5A25.079,25.079,0,0,0,24.5,5h351M380,0H20A20.059,20.059,0,0,1,0,20V380a20.059,20.059,0,0,1,20,20H380a20.059,20.059,0,0,1,20-20V20A20.059,20.059,0,0,1,380,0Z"/>
  </g>
  <g>
    <path class="cls-3" d="M364.683,384.177c0,.166-.006.333-.006.5h-.5"/>
    <line class="cls-4" x1="354.197" y1="384.677" x2="337.23" y2="384.677"/>
    <line class="cls-5" x1="332.24" y1="384.677" x2="40.813" y2="384.677"/>
    <path class="cls-3" d="M35.823,384.677h-.5c0-.167,0-.334-.006-.5"/>
    <path class="cls-6" d="M32.859,375.09a20.157,20.157,0,0,0-12.343-9.725"/>
    <path class="cls-3" d="M15.823,364.683c-.166,0-.333-.006-.5-.006v-.5"/>
    <line class="cls-4" x1="15.323" y1="354.197" x2="15.323" y2="337.23"/>
    <line class="cls-5" x1="15.323" y1="332.24" x2="15.323" y2="40.813"/>
    <path class="cls-3" d="M15.323,35.823v-.5c.167,0,.334,0,.5-.006"/>
    <path class="cls-6" d="M24.91,32.859a20.157,20.157,0,0,0,9.725-12.343"/>
    <path class="cls-3" d="M35.317,15.823c0-.166.006-.333.006-.5h.5"/>
    <line class="cls-4" x1="45.803" y1="15.323" x2="62.77" y2="15.323"/>
    <line class="cls-5" x1="67.76" y1="15.323" x2="359.187" y2="15.323"/>
    <path class="cls-3" d="M364.177,15.323h.5c0,.167,0,.334.006.5"/>
    <path class="cls-6" d="M367.141,24.91a20.157,20.157,0,0,0,12.343,9.725"/>
    <path class="cls-3" d="M384.177,35.317c.166,0,.333.006.5.006v.5"/>
    <line class="cls-4" x1="384.677" y1="45.803" x2="384.677" y2="62.77"/>
    <line class="cls-5" x1="384.677" y1="67.76" x2="384.677" y2="359.187"/>
    <path class="cls-3" d="M384.677,364.177v.5c-.167,0-.334,0-.5.006"/>
    <path class="cls-6" d="M375.09,367.141a20.157,20.157,0,0,0-9.725,12.343"/>
  </g>
</svg>
