<svg xmlns="http://www.w3.org/2000/svg" viewBox="0 0 93.479 83.468">
  <defs>
    <style>
      .cls-1 {
        isolation: isolate;
      }

      .cls-2 {
        fill: #8e6868;
      }

      .cls-3 {
        fill: #d9e021;
      }

      .cls-4 {
        fill: #d9c621;
      }

      .cls-5 {
        fill: #f1a324;
      }

      .cls-6 {
        fill: #451400;
      }

      .cls-7 {
        fill: #f2f4dc;
      }

      .cls-8 {
        fill: none;
        stroke: #f2f2f2;
        stroke-linecap: round;
        stroke-linejoin: round;
        stroke-width: 2.5px;
        opacity: 0.9;
        mix-blend-mode: soft-light;
      }

      .cls-9 {
        fill: #64aebf;
        opacity: 0.81;
      }

      .cls-10 {
        fill: #4a8aa3;
        opacity: 0.5;
      }

      .cls-11 {
        fill: #bdefef;
      }

      .cls-12 {
        fill: #caf0f2;
        opacity: 0.51;
        mix-blend-mode: screen;
      }

      .cls-13 {
        fill: #a7f0f2;
      }

      .cls-14 {
        fill: #edf9f9;
      }

      .cls-15 {
        fill: #333;
      }

      .cls-16 {
        fill: #af6e96;
      }
    </style>
  </defs>
  <g class="cls-1">
    <g id="Layer_19" data-name="Layer 19">
      <circle class="cls-2" cx="69.841" cy="0.951" r="0.951"/>
    </g>
    <g id="Layer_22" data-name="Layer 22">
      <path class="cls-3" d="M93.435,26.245l0,.016c-.333.846-2.272,1.279-5.353,1.322L42.228,17.67c-2.873-1.348-4.477-2.58-4.32-3.5l.007-.032a.136.136,0,0,1,.02-.054A1.359,1.359,0,0,1,38,13.934c-.006-.01-.006-.01,0-.008a2.218,2.218,0,0,1,1.28-1.209L68.42,1.552a2.3,2.3,0,0,1,2.456.531L92.8,24.288a2.187,2.187,0,0,1,.669,1.614.03.03,0,0,1,0,.017A2.2,2.2,0,0,1,93.435,26.245Z"/>
      <path class="cls-4" d="M93.467,25.9l0,.02a.6.6,0,0,1,0,.231.263.263,0,0,1-.033.093v.02c-.338.847-2.272,1.28-5.357,1.318-5.25.067-13.82-.985-23.338-3.049l-.306-.068c-.662-.141-1.315-.294-1.958-.437-8.558-1.965-15.88-4.312-20.243-6.356-2.877-1.352-4.482-2.577-4.32-3.5l0-.03c.009-.011.017-.041.026-.052a.832.832,0,0,1,.069-.156c1.183-2.042,12.518-1.446,26.362,1.362.652.132,1.293.266,1.955.407l.306.068C81.465,18.973,93.174,23.422,93.467,25.9Z"/>
      <path class="cls-5" d="M58.994,7.657l-.966.018a.438.438,0,0,0-.188.308.43.43,0,0,0,.189.391,1.078,1.078,0,0,0,.5.015,1.048,1.048,0,0,0,.456-.217.729.729,0,0,0,.159,1.039.661.661,0,0,0,.948-.377.6.6,0,0,0-.7-.7,5.207,5.207,0,0,0,1.419-.279.655.655,0,0,0,.33-.2c.2-.278-.145-.686-.49-.669a1.4,1.4,0,0,0-.86.528c.126-.435.162-1.054-.271-1.189-.328-.1-.663.228-.7.57a1.1,1.1,0,0,0,.288.976"/>
      <path class="cls-5" d="M70.307,4.746l-.558-.789a.435.435,0,0,0-.36.018.424.424,0,0,0-.217.375,1.058,1.058,0,0,0,.271.426,1.038,1.038,0,0,0,.436.256.728.728,0,0,0-.771.715.661.661,0,0,0,.844.573.6.6,0,0,0,.181-.971,5.218,5.218,0,0,0,1.028,1.018.66.66,0,0,0,.351.16c.345.012.487-.5.279-.781a1.4,1.4,0,0,0-.919-.416c.43-.14.963-.457.832-.891a.613.613,0,0,0-.866-.259,1.1,1.1,0,0,0-.646.786"/>
      <path class="cls-5" d="M75.032,12.914l-.946.2a.438.438,0,0,0-.125.338.423.423,0,0,0,.259.347,1.076,1.076,0,0,0,.906-.381.728.728,0,0,0,.353.99.661.661,0,0,0,.859-.55.6.6,0,0,0-.821-.549,5.246,5.246,0,0,0,1.341-.544.66.66,0,0,0,.285-.26c.147-.312-.273-.646-.608-.564a1.4,1.4,0,0,0-.744.682c.041-.451-.042-1.066-.492-1.116-.342-.038-.608.35-.579.694a1.106,1.106,0,0,0,.468.9"/>
      <path class="cls-5" d="M83.671,18.52l.018.966a.438.438,0,0,0,.308.188.427.427,0,0,0,.391-.188,1.081,1.081,0,0,0,.015-.506,1.065,1.065,0,0,0-.217-.456.728.728,0,0,0,1.039-.158.662.662,0,0,0-.377-.949.6.6,0,0,0-.695.7,5.259,5.259,0,0,0-.279-1.42.652.652,0,0,0-.2-.329c-.278-.2-.686.144-.669.489a1.4,1.4,0,0,0,.528.861c-.435-.126-1.054-.162-1.19.27-.1.329.229.663.571.7a1.1,1.1,0,0,0,.976-.287"/>
      <path class="cls-5" d="M50.489,11.057l.936.243a.438.438,0,0,0,.263-.246.424.424,0,0,0-.076-.427,1.075,1.075,0,0,0-.98-.065.727.727,0,0,0,.128-1.043.66.66,0,0,0-1.014.106.6.6,0,0,0,.487.859,5.213,5.213,0,0,0-1.442-.115.658.658,0,0,0-.371.1c-.272.213-.047.7.29.777a1.4,1.4,0,0,0,.971-.276c-.239.385-.441.971-.061,1.218a.611.611,0,0,0,.828-.36,1.1,1.1,0,0,0-.013-1.017"/>
      <path class="cls-5" d="M66.836,12.109l.837-.483a.434.434,0,0,0,.016-.36.428.428,0,0,0-.354-.251,1.089,1.089,0,0,0-.45.23,1.048,1.048,0,0,0-.294.411.728.728,0,0,0-.641-.833.659.659,0,0,0-.648.787.6.6,0,0,0,.95.27,5.2,5.2,0,0,0-1.109.93.65.65,0,0,0-.191.335c-.044.342.457.531.751.35a1.4,1.4,0,0,0,.5-.878c.1.442.367,1,.811.911a.612.612,0,0,0,.337-.838,1.1,1.1,0,0,0-.722-.716"/>
    </g>
    <g id="Layer_20" data-name="Layer 20">
      <path class="cls-6" d="M72.548,41.818a46.978,46.978,0,0,1-9.879,29.42c-6.1,7.54-14.508,12.23-23.757,12.23H33.645C15.138,83.468,0,64.728,0,41.818c0-.44.016-.87.04-1.3V40.5c.017-.27.033-.55.065-.82,1.115-7.21,16.883-12.92,36.173-12.92,19.169,0,34.873,5.64,36.149,12.79.04.35.073.7.089,1.06C72.54,41.008,72.548,41.408,72.548,41.818Z"/>
      <g>
        <path class="cls-7" d="M36.278,52.738c-16.412,0-34.714-5.021-34.738-12.225.014-.2.028-.432.054-.657.86-5.551,14.369-11.6,34.684-11.6,20.142,0,33.68,6,34.672,11.554a3.794,3.794,0,0,1,.066.686v.11C70.9,46.45,56.909,52.738,36.278,52.738Z"/>
        <path class="cls-6" d="M36.278,29.758c20.189,0,32.443,6.1,33.2,10.329a2.366,2.366,0,0,1,.04.411v.073c-.056,1.753-2.385,4.471-8.766,6.872-6.505,2.447-15.2,3.8-24.472,3.8-20.165,0-33.091-6.289-33.236-10.672.009-.158.019-.319.036-.477C3.817,35.85,16,29.758,36.278,29.758m0-3c-19.29,0-35.058,5.71-36.173,12.92-.032.27-.048.55-.065.82v.02c.025,7.58,16.237,13.72,36.238,13.72,19.912,0,36.084-6.09,36.238-13.63V40.5a5.272,5.272,0,0,0-.089-.95c-1.276-7.15-16.98-12.79-36.149-12.79Z"/>
      </g>
      <path class="cls-8" d="M67.21,51.539a17.183,17.183,0,0,1-1.193,5.088,16.424,16.424,0,0,1-2.259,3.9"/>
    </g>
    <g id="Layer_21" data-name="Layer 21">
      <path class="cls-2" d="M67.437,15.956v.01l-1.48,6.848-.411,1.905L61,45.721a1,1,0,0,1-.9.789,1.027,1.027,0,0,1-1.043-1.217L63.59,24.282,64,22.387l1.481-6.838C66.133,15.681,66.775,15.814,67.437,15.956Z"/>
      <g id="Layer_23" data-name="Layer 23">
        <path class="cls-2" d="M88.87,27.558c-.25.01-.52.02-.79.02h-.6l-.17-.17-8.57-8.56c.7.21,1.39.42,2.05.63Z"/>
        <path class="cls-2" d="M54.94,13.658,44,18.048l-.48.2c-.45-.19-.86-.38-1.26-.57L52.92,13.4C53.58,13.468,54.25,13.558,54.94,13.658Z"/>
        <path class="cls-2" d="M75.25,26.468c-.35-.05-.71-.1-1.07-.16l-.36-1.81-1.5-7.41c.36.1.72.19,1.08.28l1.49,7.36Z"/>
        <path class="cls-2" d="M61.72,14.778l-4.6,6.11L55.98,22.4c-.35-.09-.69-.19-1.03-.29l1.1-1.45,4.57-6.08C60.98,14.638,61.35,14.708,61.72,14.778Z"/>
      </g>
    </g>
    <g id="Layer_1" data-name="Layer 1">
      <path class="cls-9" d="M49.349,44.434a.011.011,0,0,0-.015.008c-1,.657-17.472,5.522-19.354,5.528-.05,0-.111-.011-.2-.025a4.615,4.615,0,0,1-.606-.169c-3.4-1.13-15.06-6.973-19.37-9.145a2.026,2.026,0,0,1-.843-.78,2.16,2.16,0,0,1-.234-1.8c1.676-5.576,3.743-12.208,5.016-17.519,1.417-5.875,2.05-8.518,3.538-9.312,1.5-.8,17.956-2.52,20.262-2.376s3.333.346,6.877,2.412c3.855,2.242,12.6,5.419,13.2,6.733s-3.52,12.7-4.332,15.069C52.555,35.244,50.534,43.594,49.349,44.434Z"/>
      <g id="Layer_13" data-name="Layer 13">
        <path class="cls-10" d="M33.822,22.27c.558-1.1,1.229-2.124,1.746-3.253.494-1.08.836-2.234,1.235-3.36.627-1.767,1.4-3.47,2.165-5.169-.436,3.419-.938,7.038-2.657,10-.447.77-.964,1.472-1.432,2.223a18.738,18.738,0,0,0-2.188,5.1,31.009,31.009,0,0,1-.929,3.387c-.134.344-.452,1.215-.744,1.389-.185.11-.127.141-.151-.1a10.821,10.821,0,0,1,.543-2.2c.265-1.3.507-2.588.86-3.874A22.039,22.039,0,0,1,33.822,22.27Z"/>
      </g>
      <g id="Layer_9" data-name="Layer 9">
        <path class="cls-10" d="M28.418,34.956a5.43,5.43,0,0,1,2.359-.666,4.848,4.848,0,0,1,1.7.509c4.388,1.934,13.31,5.8,13,6.15-1.6-.364-8.953-2.473-12.907-4.871A3.726,3.726,0,0,0,30.7,35.35a3.812,3.812,0,0,0-1.453.426,25.629,25.629,0,0,1-9.2,2.085c-.372.015-2.058.253-2.316-.028-.315-.344.5-.692.749-.738.772-.142,1.635-.062,2.422-.147s1.543-.2,2.306-.355A25.619,25.619,0,0,0,28.418,34.956Z"/>
      </g>
      <g id="Layer_8" data-name="Layer 8">
        <path class="cls-10" d="M38.434,23.773a1.191,1.191,0,0,1,.411-.673,1,1,0,0,1,.636-.126c.589.056,5.383-.428,13.289-1.312.478-.071,1.7-.2,2.065.383.465.736-.572,2.359-1.786,3.243-1.6,1.163-2.789.524-6.1,1-2.383.34-4.642.662-6.4,2.285a8.487,8.487,0,0,0-2.563,4.919L36.9,39.268c-.33,1.764-.757,3.824-2.486,4.748-1.6.857-1.588-.8-1.369-1.95a113.27,113.27,0,0,1,3.286-11.68Q37.343,27.066,38.434,23.773Z"/>
      </g>
      <g id="Layer_2" data-name="Layer 2">
        <path class="cls-11" d="M20.808,12.95l-2.649-.97a7.567,7.567,0,0,0,3.722,2.936,60.323,60.323,0,0,0,7.762,3.017,23.716,23.716,0,0,1,6.132,2.425q-1.443,3.708-2.553,7.535a10.881,10.881,0,0,0-.546,2.9c-.011,1.016-2.745,11.092-3.129,14.442-.11.958-.4,1.893-.491,2.853-.064.67.2,1.6.872,1.517a9.351,9.351,0,0,0,.758-3.329,67.165,67.165,0,0,1,3.551-15.348c1.169-3.254,2.1-6.593,3.153-9.885,5.386-.629,11-1.142,16.388-1.771a5.058,5.058,0,0,0,2.984-1.02A189.321,189.321,0,0,1,37.514,19.7c-1.365.047-2.636-.854-3.9-1.37-.595-.243-1.177-.516-1.774-.753-.843-.335-1.714-.6-2.57-.9-1.51-.531-2.975-1.183-4.437-1.834a20.931,20.931,0,0,1-3.208-1.658A3.661,3.661,0,0,0,20.808,12.95Z"/>
        <path class="cls-11" d="M49.337,44.417a.011.011,0,0,0-.015.008c-1,.657-17.472,5.522-19.355,5.528-.049,0-.111-.011-.2-.025a4.539,4.539,0,0,1-.607-.17c.069-.372.452-.655.856-.843l.012,0a1.3,1.3,0,0,1,.228-.117c.537-.209,1.059-.409,1.585-.622A78.187,78.187,0,0,1,47.036,44.3c.294-.045.592-.1.89-.12.367-.035.4.014.781-.017.47-.039.672-.114.734-.031C49.457,44.163,49.469,44.243,49.337,44.417Z"/>
        <path class="cls-11" d="M29.772,49.928a4.539,4.539,0,0,1-.607-.17c-3.4-1.13-15.059-6.972-19.37-9.145a2.015,2.015,0,0,1-.842-.779.211.211,0,0,1,.016-.211c.148-.143.785.329.974.453,1.3.9,2.427.831,4.87,1.971,1.589.752,3.144,1.569,4.7,2.375,1.574.8,3.137,1.592,4.737,2.309a43.021,43.021,0,0,0,5.182,2.148c.211.055.433,0,.586.036l.012,0c.1.034.165.117.171.3A.832.832,0,0,1,29.772,49.928Z"/>
      </g>
      <g id="face_side" data-name="face side">
        <path class="cls-12" d="M20.159,19.036a3.9,3.9,0,0,0-1.926-1.017A2.859,2.859,0,0,0,15.7,19.9c-1.612,3.369-.123,7.566-1.586,11-.764,1.8-2.314,3.331-2.414,5.282a3.442,3.442,0,0,0,1.189,2.807,2.888,2.888,0,0,0,2.969.427,4.019,4.019,0,0,0,1.556-1.45c1.012-1.479,1.546-3.246,2.583-4.707,2.8-3.944,8.382-4.668,12.2-7.6a1.21,1.21,0,0,0-.038-1.942c-1.782-1.232-4.114-.639-6.131-1.159A12.055,12.055,0,0,1,22.782,21.2,28.524,28.524,0,0,1,20.159,19.036Z"/>
        <g id="Layer_10" data-name="Layer 10">
          <path class="cls-13" d="M13.446,28.817c-.54.04-.885.6-1.038,1.117-.094.316-.068.777.257.833s.5-.367.653-.666a2.563,2.563,0,0,0,.394-.8c.037-.3-.276-.642-.528-.482"/>
        </g>
        <g id="Layer_14" data-name="Layer 14">
          <path class="cls-13" d="M26.359,45.245a.906.906,0,0,0,.1.846,1.091,1.091,0,0,0,.592.276.373.373,0,0,0,.178.013.358.358,0,0,0,.187-.155,1.7,1.7,0,0,0,.385-.944.943.943,0,0,0-.4-.806c-.264-.153-.641.061-.8.27A1.437,1.437,0,0,0,26.359,45.245Z"/>
          <path class="cls-13" d="M25.641,42.741a.843.843,0,0,0-.195.267,1.1,1.1,0,0,0-.025.417c.007.443.738.179.819-.1a.585.585,0,0,0-.428-.649A.21.21,0,0,0,25.641,42.741Z"/>
          <path class="cls-13" d="M24.571,44.193a.21.21,0,0,0-.217.209.236.236,0,0,0,.221.218.268.268,0,0,0,.256-.187.2.2,0,0,0-.019-.171.256.256,0,0,0-.106-.076.7.7,0,0,0-.2-.053"/>
          <path class="cls-13" d="M25.566,45.634a.347.347,0,0,0-.4.049.352.352,0,0,0,.256.6.364.364,0,0,0,.321-.224.31.31,0,0,0,.022-.134c-.013-.172-.181-.284-.331-.369"/>
          <path class="cls-13" d="M28.568,43.945c-.057-.036-.129.015-.174.065a.322.322,0,0,0-.1.31.318.318,0,0,0,.1.122.353.353,0,0,0,.286.1.253.253,0,0,0,.171-.157.338.338,0,0,0-.35-.464"/>
        </g>
        <g id="Layer_6" data-name="Layer 6">
          <path class="cls-14" d="M16.168,14.2A24.59,24.59,0,0,0,14.3,20.88c.287.493,1.12-3.382,2.6-4.132a5.494,5.494,0,0,1,3.015-.206c.087.008.784-.005,1.693-.035,1.623-.053,1.7-.115,1.719-.173.17-.6-5.105-2.607-5.824-2.8A1,1,0,0,0,16.168,14.2Z"/>
        </g>
      </g>
      <g id="top_side" data-name="top side">
        <g id="Layer_7" data-name="Layer 7">
          <path class="cls-12" d="M25.85,14.713l9.94,3.514a9.392,9.392,0,0,0,1.916.528,9.344,9.344,0,0,0,2.08-.046l9.6-.925a.686.686,0,0,0,.405-1.181,6.616,6.616,0,0,0-2.612-1.791,4.476,4.476,0,0,0-1.22-.056c-3,.309-5.432,1.216-7.716,1.308-2.452.1-4.555-.761-6.932-1.7-1.091-.432-2.19-.845-3.244-1.363a10.537,10.537,0,0,0-1.915-.837,6.928,6.928,0,0,0-2.452-.167.683.683,0,0,0-.528,1A5.039,5.039,0,0,0,25.85,14.713Z"/>
        </g>
        <g id="Layer_11" data-name="Layer 11">
          <path class="cls-13" d="M21.824,12.345a.438.438,0,0,1,.09-.062.342.342,0,0,1,.346.059,2.134,2.134,0,0,1,.3.381.269.269,0,0,1-.224.323.6.6,0,0,1-.419-.122.444.444,0,0,1-.225-.3A.354.354,0,0,1,21.824,12.345Z"/>
          <path class="cls-13" d="M20.863,11.109a.983.983,0,0,1,.218-.021c.241.008.575.144.522.443a.666.666,0,0,1-.137.265.969.969,0,0,1-.215.232.468.468,0,0,1-.537-.034q-.169-.1-.33-.21c-.086-.059-.2-.114-.235-.218-.078-.219.19-.372.366-.39C20.635,11.165,20.748,11.131,20.863,11.109Z"/>
        </g>
        <g id="Layer_15" data-name="Layer 15">
          <path class="cls-14" d="M37.292,9.632a5.844,5.844,0,0,1,1.863.113,4.745,4.745,0,0,1,1.82,1.008c.187.153.658.539.584.675-.065.121-.541,0-.838-.113a5.494,5.494,0,0,1-1.507-1.047c-.506-.332-.874-.179-2.669-.01-1.034.1-.176.009-4.21.228l-2.071.113a4.8,4.8,0,0,1-1.541.052,1.689,1.689,0,0,1,.751-.279,10.484,10.484,0,0,1,1.485-.238q2.036-.222,4.078-.366A17.051,17.051,0,0,1,37.292,9.632Z"/>
        </g>
        <g id="Layer_16" data-name="Layer 16">
          <path class="cls-13" d="M42.033,10.552a.261.261,0,0,0-.089.34.39.39,0,0,0,.318.194.1.1,0,0,0,.126-.073.392.392,0,0,0-.035-.4.285.285,0,0,0-.379-.062"/>
          <path class="cls-13" d="M43.032,11.505a.62.62,0,0,0-.343.068.3.3,0,0,0-.151.3.363.363,0,0,0,.188.223.646.646,0,0,0,.438.092.449.449,0,0,0,.343-.272.379.379,0,0,0-.593-.426"/>
          <path class="cls-13" d="M44.677,12.092c-.022.027-.008.068-.006.1a.416.416,0,0,0,.083.187.247.247,0,0,0,.129.071.109.109,0,0,0,.075-.018c.05-.037.044-.124.031-.171a.267.267,0,0,0-.27-.19A.078.078,0,0,0,44.677,12.092Z"/>
          <path class="cls-13" d="M51.65,15.991a.857.857,0,0,0-.2.333.351.351,0,0,0-.019.12.319.319,0,0,0,.056.148A.605.605,0,0,0,52.5,16.6a.365.365,0,0,0,.049-.353.5.5,0,0,0-.193-.18,1.064,1.064,0,0,0-.386-.176.378.378,0,0,0-.379.139"/>
          <path class="cls-13" d="M53.632,17.354a.27.27,0,0,0-.008.366.512.512,0,0,0,.362.157.336.336,0,0,0,.346-.151.26.26,0,0,0-.042-.247.672.672,0,0,0-.2-.168A.566.566,0,0,0,53.8,17.2a.217.217,0,0,0-.224.18"/>
          <path class="cls-13" d="M47.815,38.91a.335.335,0,0,0,.025.658.224.224,0,0,0,.171-.037.263.263,0,0,0,.064-.08.453.453,0,0,0,.025-.431.307.307,0,0,0-.382-.145"/>
          <path class="cls-13" d="M49.686,40.4a1.015,1.015,0,0,0-.246.3.34.34,0,0,0,.043.368c.115.116.309.094.453.171a2.46,2.46,0,0,0,.237-.406.221.221,0,0,0,.03-.122.238.238,0,0,0-.08-.126c-.136-.138-.316-.289-.5-.233"/>
        </g>
      </g>
      <g id="right_side" data-name="right side">
        <path class="cls-13" d="M50.068,37.787a.867.867,0,0,0-1.07.548.513.513,0,0,0,0,.317.692.692,0,0,0,.355.328.811.811,0,0,0,1.321-.5.428.428,0,0,0,.046-.2.379.379,0,0,0-.124-.226,1.217,1.217,0,0,0-.692-.352"/>
        <path class="cls-13" d="M48.1,41.179a1.07,1.07,0,0,0-1.112.752.556.556,0,0,0-.008.313.578.578,0,0,0,.251.293.978.978,0,0,0,.734.153A.806.806,0,0,0,47.84,41.1"/>
      </g>
      <g id="face">
        <circle class="cls-15" cx="15.835" cy="27.238" r="1.027"/>
        <circle class="cls-15" cx="28.509" cy="31.309" r="1.027"/>
        <path class="cls-16" d="M24.527,30.1a.309.309,0,0,1,.178.416,3.038,3.038,0,0,1-5.671-2.081.309.309,0,0,1,.405-.2Z"/>
      </g>
    </g>
  </g>
</svg>
