<svg xmlns="http://www.w3.org/2000/svg" viewBox="0 0 34.726 34.686">
  <defs>
    <style>
      .cls-1 {
        isolation: isolate;
      }

      .cls-2 {
        fill: #64aebf;
        opacity: 0.81;
      }

      .cls-3 {
        fill: #4a8aa3;
        opacity: 0.5;
      }

      .cls-4 {
        fill: #bdefef;
      }

      .cls-5 {
        fill: #caf0f2;
        opacity: 0.51;
        mix-blend-mode: screen;
      }

      .cls-6 {
        fill: #a7f0f2;
      }

      .cls-7 {
        fill: #edf9f9;
      }

      .cls-8 {
        fill: #736357;
      }

      .cls-9 {
        fill: #1a1a1a;
      }
    </style>
  </defs>
  <g class="cls-1">
    <g id="Layer_1" data-name="Layer 1">
      <path class="cls-2" d="M34.342,25.386a.01.01,0,0,0-.01.01c-.62.77-12.35,8.76-13.83,9.24a1.569,1.569,0,0,1-.16.03,3.791,3.791,0,0,1-.52.02c-2.96-.03-13.61-1.68-17.55-2.3a1.672,1.672,0,0,1-.86-.4,1.787,1.787,0,0,1-.64-1.36c-.09-4.81-.14-10.55-.48-15.05-.37-4.98-.54-7.22.43-8.22S14.212.836,16.062.366s2.71-.57,6.02.16c3.6.79,11.28,1.08,12.09,1.96s.44,10.88.4,12.95C34.542,17.346,35.062,24.426,34.342,25.386Z"/>
      <g id="Layer_13" data-name="Layer 13">
        <path class="cls-3" d="M16.525,11.874c.161-1.009.431-1.982.552-3,.116-.974.093-1.968.123-2.955.047-1.548.222-3.083.4-4.613.521,2.8,1.04,5.773.437,8.541-.157.718-.386,1.4-.564,2.11a15.485,15.485,0,0,0-.434,4.564,25.5,25.5,0,0,1,.125,2.9,3.145,3.145,0,0,1-.234,1.28c-.118.134-.065.144-.145-.043a8.931,8.931,0,0,1-.128-1.864c-.119-1.087-.255-2.164-.3-3.265A18.242,18.242,0,0,1,16.525,11.874Z"/>
      </g>
      <g id="Layer_9" data-name="Layer 9">
        <path class="cls-3" d="M15.48,23.219a4.488,4.488,0,0,1,1.688-1.12,4.01,4.01,0,0,1,1.462-.028c3.941.413,11.937,1.2,11.785,1.553-1.351.118-7.669.316-11.386-.571a3.087,3.087,0,0,0-1.656-.1,3.142,3.142,0,0,0-1.036.7,21.194,21.194,0,0,1-6.713,3.966c-.29.105-1.556.719-1.83.563-.335-.191.216-.67.4-.77.571-.307,1.271-.462,1.869-.728s1.162-.549,1.724-.862A21.125,21.125,0,0,0,15.48,23.219Z"/>
      </g>
      <g id="Layer_8" data-name="Layer 8">
        <path class="cls-3" d="M20.534,11.89a.985.985,0,0,1,.153-.634A.834.834,0,0,1,21.155,11c.478-.105,4.127-1.7,10.124-4.39.358-.177,1.283-.589,1.722-.221.552.462.146,2-.587,3-.963,1.319-2.061,1.116-4.549,2.326-1.789.869-3.484,1.694-4.46,3.415a7.018,7.018,0,0,0-.774,4.518l.61,4.82c.186,1.472.371,3.2-.756,4.365-1.046,1.079-1.452-.231-1.57-1.189a93.527,93.527,0,0,1-.366-10.02Q20.508,14.758,20.534,11.89Z"/>
      </g>
      <g id="Layer_2" data-name="Layer 2">
        <path class="cls-4" d="M3.932,7.829,1.6,7.736a6.251,6.251,0,0,0,3.67,1.369,49.617,49.617,0,0,0,6.869.412,19.567,19.567,0,0,1,5.437.358q-.2,3.282-.105,6.574a9.012,9.012,0,0,0,.3,2.418c.249.8.644,9.42,1.188,12.152.156.782.165,1.59.335,2.369.119.543.564,1.206,1.069.973a7.732,7.732,0,0,0-.245-2.811,55.587,55.587,0,0,1-1.085-12.972c.1-2.855-.017-5.716-.017-8.574C23.1,8.148,27.39,6.326,31.468,4.47a4.181,4.181,0,0,0,2.09-1.557,156.334,156.334,0,0,1-14.777,6c-1.062.382-2.29,0-3.416-.092-.529-.041-1.056-.108-1.586-.144-.748-.05-1.5-.036-2.248-.057C10.209,8.59,8.892,8.447,7.577,8.3A17.147,17.147,0,0,1,4.634,7.81,3.125,3.125,0,0,0,3.932,7.829Z"/>
        <path class="cls-4" d="M34.328,25.376a.01.01,0,0,0-.01.01c-.62.77-12.35,8.76-13.83,9.24a1.569,1.569,0,0,1-.16.03,3.791,3.791,0,0,1-.52.02,1.139,1.139,0,0,1,.46-.88h.01a1.061,1.061,0,0,1,.15-.15c.37-.3.73-.59,1.09-.89a64.6,64.6,0,0,1,10.97-6.89c.22-.11.44-.23.67-.32.28-.12.32-.09.61-.21.36-.15.5-.26.57-.21C34.358,25.146,34.388,25.206,34.328,25.376Z"/>
        <path class="cls-4" d="M20.328,34.656a3.791,3.791,0,0,1-.52.02c-2.96-.03-13.61-1.68-17.55-2.3a1.672,1.672,0,0,1-.86-.4.172.172,0,0,1-.04-.17c.08-.15.7.06.88.11,1.25.38,2.12.04,4.33.32,1.44.19,2.87.44,4.3.68s2.87.46,4.31.62a35.68,35.68,0,0,0,4.62.38c.18-.01.34-.11.47-.12h.01c.09,0,.16.05.21.19A.689.689,0,0,1,20.328,34.656Z"/>
      </g>
      <g id="face_side" data-name="face side">
        <path class="cls-5" d="M4.959,12.782a3.216,3.216,0,0,0-1.772-.314,2.363,2.363,0,0,0-1.522,2.12C1.249,17.647,3.48,20.572,3.2,23.646c-.147,1.608-.979,3.206-.564,4.766A2.843,2.843,0,0,0,4.279,30.32a2.389,2.389,0,0,0,2.444-.414,3.336,3.336,0,0,0,.857-1.534c.423-1.419.4-2.945.842-4.357,1.206-3.809,5.415-5.79,7.675-9.062a1,1,0,0,0-.521-1.518c-1.713-.519-3.4.537-5.116.638a9.97,9.97,0,0,1-2.891-.255A23.582,23.582,0,0,1,4.959,12.782Z"/>
        <g id="Layer_10" data-name="Layer 10">
          <path class="cls-6" d="M2.15,22.173a1.145,1.145,0,0,0-.535,1.141c.006.273.143.629.413.59s.3-.415.345-.689a2.1,2.1,0,0,0,.109-.725c-.046-.243-.379-.435-.537-.246"/>
        </g>
        <g id="Layer_14" data-name="Layer 14">
          <path class="cls-6" d="M16.46,31.835a.752.752,0,0,0,.29.64.906.906,0,0,0,.537.068.318.318,0,0,0,.143-.035.3.3,0,0,0,.108-.169A1.42,1.42,0,0,0,17.6,31.5a.779.779,0,0,0-.518-.532c-.247-.054-.489.209-.565.415A1.185,1.185,0,0,0,16.46,31.835Z"/>
          <path class="cls-6" d="M15.262,30.046a.7.7,0,0,0-.086.259.922.922,0,0,0,.086.335c.117.346.626-.046.619-.287a.484.484,0,0,0-.5-.4A.176.176,0,0,0,15.262,30.046Z"/>
          <path class="cls-6" d="M14.787,31.458a.174.174,0,0,0-.117.22.193.193,0,0,0,.228.115.22.22,0,0,0,.155-.211.167.167,0,0,0-.058-.13.209.209,0,0,0-.1-.033.584.584,0,0,0-.167.008"/>
          <path class="cls-6" d="M15.934,32.341a.285.285,0,0,0-.3.139.3.3,0,0,0,.041.332.293.293,0,0,0,.509-.178.261.261,0,0,0-.017-.111c-.053-.132-.214-.177-.353-.207"/>
          <path class="cls-6" d="M17.869,30.254c-.054-.014-.1.043-.12.094a.213.213,0,0,0,.112.34.3.3,0,0,0,.252.01.213.213,0,0,0,.095-.167.288.288,0,0,0-.118-.25.285.285,0,0,0-.275-.027"/>
        </g>
        <g id="Layer_6" data-name="Layer 6">
          <path class="cls-7" d="M.6,9.987a20.319,20.319,0,0,0,.218,5.726c.35.315.026-2.944,1-3.909a4.536,4.536,0,0,1,2.32-.923c.07-.016.615-.2,1.322-.456,1.264-.452,1.311-.52,1.309-.57-.016-.512-4.675-.761-5.288-.729A.821.821,0,0,0,.6,9.987Z"/>
        </g>
      </g>
      <g id="top_side" data-name="top side">
        <g id="Layer_7" data-name="Layer 7">
          <path class="cls-5" d="M8.344,7.942l8.709.253a7.746,7.746,0,0,0,1.64-.069,7.776,7.776,0,0,0,1.625-.561L27.639,4.41a.568.568,0,0,0,.02-1.032,5.469,5.469,0,0,0-2.508-.748,3.642,3.642,0,0,0-.974.264c-2.286,1-3.966,2.33-5.74,2.979a13.8,13.8,0,0,1-5.884.411c-.968-.064-1.937-.111-2.9-.252a8.716,8.716,0,0,0-1.718-.175,5.7,5.7,0,0,0-1.971.489.564.564,0,0,0-.162.921A4.164,4.164,0,0,0,8.344,7.942Z"/>
        </g>
        <g id="Layer_11" data-name="Layer 11">
          <path class="cls-6" d="M4.578,7.1a.37.37,0,0,1,.055-.072.285.285,0,0,1,.288-.041,1.844,1.844,0,0,1,.329.225.223.223,0,0,1-.095.311.486.486,0,0,1-.36.009.363.363,0,0,1-.252-.176A.291.291,0,0,1,4.578,7.1Z"/>
          <path class="cls-6" d="M3.51,6.367A.791.791,0,0,1,3.676,6.3c.192-.055.488-.032.522.216a.549.549,0,0,1-.04.243.778.778,0,0,1-.111.237.386.386,0,0,1-.431.109c-.1-.023-.21-.05-.313-.082a.439.439,0,0,1-.24-.112c-.116-.152.056-.34.19-.4A2.9,2.9,0,0,0,3.51,6.367Z"/>
        </g>
        <g id="Layer_15" data-name="Layer 15">
          <path class="cls-7" d="M16.062,1.054A4.776,4.776,0,0,1,17.556.672,3.909,3.909,0,0,1,19.243,1c.185.074.654.259.63.384s-.427.133-.688.123a4.525,4.525,0,0,1-1.45-.443c-.482-.133-.733.081-2.1.667-.789.337-.135.052-3.254,1.243l-1.6.612a3.983,3.983,0,0,1-1.2.431c.084-.176.358-.308.52-.41a8.738,8.738,0,0,1,1.109-.562q1.545-.688,3.115-1.319A14.159,14.159,0,0,1,16.062,1.054Z"/>
        </g>
        <g id="Layer_16" data-name="Layer 16">
          <path class="cls-6" d="M20.024.579a.217.217,0,0,0,.016.29.325.325,0,0,0,.3.072A.107.107,0,0,0,20.4.912a.1.1,0,0,0,.021-.06.323.323,0,0,0-.129-.307.236.236,0,0,0-.314.047"/>
          <path class="cls-6" d="M21.051,1.076a.51.51,0,0,0-.252.141.243.243,0,0,0-.044.271.3.3,0,0,0,.2.129.536.536,0,0,0,.368-.039.37.37,0,0,0,.2-.3.314.314,0,0,0-.575-.186"/>
          <path class="cls-6" d="M22.494,1.123c-.011.026.01.055.02.079a.345.345,0,0,0,.112.126.211.211,0,0,0,.12.024.089.089,0,0,0,.054-.034c.03-.042,0-.108-.018-.142a.22.22,0,0,0-.26-.081A.054.054,0,0,0,22.494,1.123Z"/>
          <path class="cls-6" d="M28.965,2.428a.686.686,0,0,0-.071.312.274.274,0,0,0,.015.1.262.262,0,0,0,.081.1.5.5,0,0,0,.8-.252.3.3,0,0,0-.051-.29.413.413,0,0,0-.2-.092.882.882,0,0,0-.348-.042.312.312,0,0,0-.263.206"/>
          <path class="cls-6" d="M30.868,3a.222.222,0,0,0,.087.289.418.418,0,0,0,.324.032c.108-.026.224-.1.234-.206a.217.217,0,0,0-.1-.184.543.543,0,0,0-.2-.081.468.468,0,0,0-.259-.012.181.181,0,0,0-.131.2"/>
          <path class="cls-6" d="M31.739,21.428a.277.277,0,0,0,.186.512.186.186,0,0,0,.125-.073.2.2,0,0,0,.031-.079.373.373,0,0,0-.09-.345.254.254,0,0,0-.337-.018"/>
          <path class="cls-6" d="M33.587,22.126a.816.816,0,0,0-.116.3.28.28,0,0,0,.126.279c.12.063.267,0,.4.02a2.036,2.036,0,0,0,.084-.379.184.184,0,0,0-.008-.1.2.2,0,0,0-.094-.078c-.142-.075-.322-.148-.454-.057"/>
        </g>
      </g>
      <g id="right_side" data-name="right side">
        <path class="cls-6" d="M33.228,19.976a.715.715,0,0,0-.7.7.415.415,0,0,0,.076.25.565.565,0,0,0,.362.169.669.669,0,0,0,.913-.725.353.353,0,0,0-.013-.168.315.315,0,0,0-.155-.146,1.006,1.006,0,0,0-.633-.1"/>
        <path class="cls-6" d="M32.539,23.14a.883.883,0,0,0-.684.873.461.461,0,0,0,.072.249.483.483,0,0,0,.272.167.809.809,0,0,0,.616-.065.666.666,0,0,0-.5-1.22"/>
      </g>
    </g>
    <g id="Layer_19" data-name="Layer 19">
      <path class="cls-8" d="M13.734,23.386c-.25.579-1.95.549-2.6.539a4.586,4.586,0,0,1-1.67-.3,1.471,1.471,0,0,1-.72-.57,1.445,1.445,0,0,1-.76.5,4.545,4.545,0,0,1-1.7.16c-.64-.06-2.34-.17-2.54-.769a2.518,2.518,0,0,0,1.73-.221c.4-.26.57-.66.99-.91a1.176,1.176,0,0,1,.26-.119,1.867,1.867,0,0,1,2.06.589,1.865,1.865,0,0,1,2.09-.41,1.1,1.1,0,0,1,.26.15c.4.28.52.69.9.99A2.494,2.494,0,0,0,13.734,23.386Z"/>
    </g>
    <g id="Layer_18" data-name="Layer 18">
      <path class="cls-9" d="M8.244,17.388a1.594,1.594,0,0,1-.056.208,1.638,1.638,0,0,1-.068.22,6.1,6.1,0,0,1-.283.755c-.519,1.241-1.475,2.678-2.756,2.638L4.663,21.2a3.7,3.7,0,0,1-3.579-3.8,1.539,1.539,0,0,1,.062-.417,2.118,2.118,0,0,1,.547-.969A16.041,16.041,0,0,1,8.244,17.388Z"/>
      <path class="cls-9" d="M16.67,17.884a3.7,3.7,0,0,1-3.808,3.567l-.419-.013c-1.28-.04-2.134-1.521-2.575-2.791a6.257,6.257,0,0,1-.234-.772,1.4,1.4,0,0,1-.055-.223c-.01-.074-.033-.137-.043-.2a16.037,16.037,0,0,1,6.611-.99,2.267,2.267,0,0,1,.5,1.039A1.979,1.979,0,0,1,16.67,17.884Z"/>
      <path class="cls-9" d="M6.457,18.935a.462.462,0,0,1-.159-.89,6.371,6.371,0,0,1,2.512-.462A6.685,6.685,0,0,1,11.4,18.2a.462.462,0,0,1-.4.832A5.374,5.374,0,0,0,6.645,18.9.474.474,0,0,1,6.457,18.935Z"/>
      <path class="cls-9" d="M17.085,16.8c-.143.242-.285.471-.416.7h-.024a1.567,1.567,0,0,0-.184-.043,15.82,15.82,0,0,0-6.367.283c-.162.044-.311.089-.46.133A4.351,4.351,0,0,0,9.211,18l-.137-.374c.013-.012.038-.011.05-.023.138-.058.275-.1.412-.148a16.037,16.037,0,0,1,6.611-.99c.259.008.517.029.763.049A.235.235,0,0,1,17.085,16.8Z"/>
      <path class="cls-9" d="M8.742,17.613l-.159.365c-.159-.054-.3-.12-.463-.162s-.293-.108-.439-.149a15.648,15.648,0,0,0-6.3-.677,1.778,1.778,0,0,0-.211.031c-.012-.013-.011-.025-.023-.038-.1-.225-.233-.451-.348-.688a.244.244,0,0,1,.193-.278c.234,0,.469-.01.7,0a16.041,16.041,0,0,1,6.551,1.374,3.246,3.246,0,0,1,.425.2A.161.161,0,0,1,8.742,17.613Z"/>
    </g>
  </g>
</svg>
